<?xml version="1.0" encoding="utf-8"?>
<!-- Generator: Adobe Illustrator 27.6.1, SVG Export Plug-In . SVG Version: 6.00 Build 0)  -->
<svg version="1.1"
	 id="svg2" xmlns:dc="http://purl.org/dc/elements/1.1/" xmlns:cc="http://creativecommons.org/ns#" xmlns:rdf="http://www.w3.org/1999/02/22-rdf-syntax-ns#" xmlns:svg="http://www.w3.org/2000/svg" xmlns:sodipodi="http://sodipodi.sourceforge.net/DTD/sodipodi-0.dtd" xmlns:inkscape="http://www.inkscape.org/namespaces/inkscape"
	 xmlns="http://www.w3.org/2000/svg" xmlns:xlink="http://www.w3.org/1999/xlink" x="0px" y="0px" viewBox="0 0 353.3 282.8"
	 style="enable-background:new 0 0 353.3 282.8;" xml:space="preserve">
<style type="text/css">
	.st0{fill:#9591FD;stroke:#FFFFFF;stroke-width:0.5;stroke-linejoin:round;stroke-miterlimit:2;}
</style>
<g id="arkhangel_x27_skaja_x5F_oblast_x27_" transform="matrix(0.5,0,0,0.5,48.685701,-0.124977)">
	<path id="arkhangel_x27_sk" inkscape:connector-curvature="0" class="st0" d="M75.6,409.9l0.9-0.4l0.2,0.9l1.1,0.4l0.6-1.1l0.2-0.2
		l0.4-1.9l0.9-1.3l0.2,0.2l0.2-0.9l0.4-0.2h0.4v-0.2l0.2-0.2v1.5l0.6-0.4l-0.2,1.1l0.9,0.4l-0.4,0.6l-0.4-0.2l0.2,0.6l-0.4,0.4
		l-1.1,0.4v-0.6l-0.4,0.2l0.2,0.2l-0.4,0.6l0.2,0.2l0.4-0.2l-0.2,0.6H81l0.4,0.2l1.3,1.5l-1.7-0.6l-0.4-1.1l-1.1,0.4l1.1,0.4
		l-0.6,0.6l0.2,0.4l-0.2,1.3l0.6,0.9h-0.4l-0.4,0.9l-0.9-1.1l-0.6,0.2l-0.4-0.4v1.3h-0.9l-0.4-0.4v-0.4l1.3-0.4h0.6l-0.6-0.4
		l0.6-0.9l-0.2-0.4l-1.7-1.9v0.2h-0.2l-0.4,0.6L75.6,409.9"/>
	<path id="kargopol_x27_skij_x5F_rajon" inkscape:connector-curvature="0" class="st0" d="M-1.9,462.5l0.4-0.2l0.2-0.4l0.9-0.6
		l0.6,0.2l0.9-0.4l0.4-0.4v-0.9l3.2-2.6l0.9-1.3l0.6,0.9l0.2,1.5l0.6,1.5l1.5,0.2l0.9,1.1l0.4-0.6h0.2l1.3,1.3l-0.9,0.6h-0.4v1.5
		l0.9,0.2l1.5,1.5l0.4-0.2l-1.3-1.3l0.6-0.4l1.7-1.9l-0.4-0.6l0.2-0.2l2.1,2.6l0.2-1.1l1.1-1.5l-0.2-0.9l2.1,1.1l1.5,0.4l0.2-0.2
		l0.2,0.2l-0.9,0.6l-0.2,1.1l-0.6-0.4l-0.2,1.5l0.2-0.2l1.7,2.1l-0.6,0.9l-0.6-0.4l-0.4,0.4l0.4,0.4l-0.4,0.2l-0.2-0.2l-0.9,0.9
		l0.4,0.4l-0.2,0.6l-0.9,0.6l1.5,1.5l-0.4,0.6l0.6,0.4l0.4-0.4l0.4,0.2l0.4-0.6l0.4,0.4l0.9-1.1l2.3,1.7l-1.1,1.7l0.4,0.2l-1.1,1.7
		h-0.6l0.2,0.4l-0.6,0.4l-0.2,0.6l-0.4,0.6l1.1,0.9l-0.4,0.4l-1.5-1.1v0.4l-1.5,2.6l1.7,1.1l-2.3,3.6l-1.7-1.1l-1.3,1.5l-1.3-1.3
		l-0.6,0.6l-0.4-0.4l-1.5,1.9l-0.4-0.4l-0.6,1.1l-0.4-0.4l0.2-0.9L8.4,486l0.2-0.4L6.7,486L6,485.3l-0.9,1.1L4.8,486l-0.6,0.9
		l-1.3-1.1l-0.6,1.1l-0.6-0.4l-1.9,2.6l-0.6,0.4l-0.4-0.2l-1.1,1.7l-0.2,0.6l-0.6,1.1l-0.6-0.4l-1.3,0.2l-0.4,0.6l-2.1-1.7l0.4-0.9
		V490l0.4-0.4l-0.2-0.2l0.4-0.4l-1.9-1.7l1.3-1.5l0.2-1.3l-0.6-0.2l-0.9-1.5l0.6-1.7l0.2,0.6l0.2-0.4l-0.2-0.4l0.4-0.6h1.5l0.2-0.4
		l-0.6-0.2l0.2-1.3h0.4v-1.9l-1.7-0.4l1.5-1.9l-0.6-0.6l0.6-0.9l-0.4-1.3l1.5-1.7l-0.4-0.6l0.2-0.9l0.9-0.4v-0.9l1.1-1.1l0.4-0.9
		l-0.2-0.6L-1.9,462.5"/>
	<path id="kholmogorskij_rajon" inkscape:connector-curvature="0" class="st0" d="M72.7,422.5l3-3.4l1.3,2.1l0.4-0.4l3,2.6l0.6-1.1
		l-0.9-0.2l-1.3-1.5l0.6-0.6l-0.2-0.6l0.6-0.4h0.2l1.1,1.7l2.3,1.7l0.2,1.1l1.7,0.9V423h1.1l5.6-6.6l1.7,1.5l1.7-1.9l0.4,0.4
		l0.2-0.2l0.2,0.4l-0.2,0.2l0.9,1.1l-3.2,3.4l5.3,5.1l0.9,0.4l-0.6,0.9l4.7,4.3l-0.6,0.6l0.4,0.4l-0.9,1.1v0.6l5.6,4.5l-1.1,0.6
		l-1.9,1.5l-2.3,1.3l-3.4,0.4l-2.3-0.9l-1.1,4.1l1.1,0.9l-5.6,7.5l-0.9-0.6l-1.3,1.7l-3.4-2.6v0.4h-0.2l-1.1,1.3l-0.4-0.2l-2.1,2.3
		l-2.1-1.1l-0.6,0.6l-1.1-1.1l-1.5,1.5l0.9,0.9l-0.6,0.6l-4.7-3.2l-0.4,0.4l-0.4,1.1l-0.4-0.2l-0.4,0.6l0.2,0.2l-0.2,1.1l-0.9,1.1
		l-0.4-0.4l-1.5,1.9l-1.3-1.1l-1.7,2.1l-0.4-1.1l1.5-2.1l-1.7-1.5l0.6-0.9l-0.4-1.1l-0.4,0.2l-2.6-2.1l-0.4,0.2l-2.8-1.7l0.4-1.1
		l-0.4-0.2l-0.4,0.2l-1.1-1.1l1.9-2.1l-0.9-0.6L59,446l0.4,0.4l0.9-0.9l0.4,0.4l4.3-5.1l-0.4-0.4l3.2-3.4l-1.3-1.3l3-3.2l0.2,0.2
		l5.6-6.4h-1.5l0.4-0.4l-1.7-1.5l0.9-0.9l0.2,0.4l0.4-0.4L72.7,422.5"/>
	<path id="konoshskij_rajon" inkscape:connector-curvature="0" class="st0" d="M-1.9,489.6l0.6-0.6l0.2,0.4l0.6-0.4l1.9-2.6l0.6,0.4
		l0.6-1.1l1.3,1.1l0.6-0.9l0.4,0.4l0.9-1.1l0.6,0.6l1.9-0.4L8.4,486l1.3,1.1l-0.2,0.9l0.4,0.4l0.6-1.1l0.4,0.4l1.5-1.9l0.4,0.4
		l0.6-0.6l1.3,1.3l1.3-1.5l1.7,1.1l2.3-3.6l0.9,0.6l-0.2,0.4l1.3-0.2l-0.2,0.4l1.3,0.9l-1.1,1.7l0.9,0.6l0.6-0.9l1.3,0.9l-0.6,0.9
		l2.1,1.5l0.4-0.6l0.6,0.2l0.2,1.3l0.6-0.2l0.6,0.9l1.7,0.6l-0.2,0.9l0.2,1.3l-0.6,1.3l0.2,0.6h-0.4l-0.2,1.1l-0.6,0.9l-0.4-0.4
		l-1.5,1.9l1.7,1.1l-0.6,0.9l-0.4-0.2l-1.1,1.5l1.3,0.9l0.4-0.4l0.4,0.9l-0.2,0.4l0.4,1.3l-0.6,0.9L28,506v0.4l-1.7,1.9l1.1,0.4v0.9
		l-0.9,0.2v1.1l-2.8,2.1l-0.4,0.4l-0.4,1.5l-0.2-1.1l-2.6-0.6l-0.4-0.9l0.4-0.2l-1.9-1.9l0.4-0.4l-1.3-1.3l0.4-0.4l-0.4-0.4l0.9-0.9
		l-0.4-0.4l-1.7,0.4v0.4l-0.9-0.4l-0.9-2.8l-2.1,0.9l-0.4,0.4h-0.9l-0.9-1.1L9.7,505l-1.5-1.3H7.7l-0.6,0.4L5.8,503l0.2-2.8
		l-0.2-0.4H4.5l-0.2-0.4l0.4-0.6L3.5,499l-3-0.9l-0.4-0.4v-1.1h-0.4l-0.6-0.9l-0.9,0.4l-0.2,1.3l-0.4,0.2l0.2-1.3l-1.1-2.1l0.4-1.3
		l-0.4-0.4L-1.9,489.6"/>
	<path id="korjazhma" inkscape:connector-curvature="0" class="st0" d="M100.6,540l0.6-0.4l1.9,0.4v0.9l-0.2,0.4l-0.6-0.9l-1.1,0.6
		h-1.1L100.6,540"/>
	<path id="kotlas" inkscape:connector-curvature="0" class="st0" d="M95.1,536.6l2.3,2.1l1.7-0.6l0.2,0.4l-0.2,0.4l0.4,1.1l-1.1-0.2
		l1.1,0.6h-0.6h0.2l-0.4,0.4l-1.1-1.7l-0.2,0.2l-2.1-0.2l-0.4,0.2l-0.4,1.3l-0.4-0.2l0.2-0.9l1.3-2.1L95.1,536.6"/>
	<path id="kotlasskij_rajon" inkscape:connector-curvature="0" class="st0" d="M100.6,540l-0.4,1.1h1.1l1.1-0.6l0.6,0.9l0.2-0.4V540
		l-1.9-0.4L100.6,540 M95.1,536.6l0.4,0.9l-1.3,2.1l-0.2,0.9l0.4,0.2l0.4-1.3l0.4-0.2l2.1,0.2l0.2-0.2l1.1,1.7l0.4-0.4h-0.2h0.4h0.2
		l-0.9-0.2l-0.2-0.4l1.1,0.2l-0.4-1.1l0.2-0.4l-0.2-0.4l-1.7,0.6L95.1,536.6 M78.9,530.4l1.9-2.3l2.6,2.1l1.1-1.3L87,531l2.1-2.8
		l2.6,2.1l0.4-0.4l-0.2-0.4h0.2l1.3,0.2v-0.6l0.2-1.1l0.6,1.3l0.9,0.2l0.4,0.9l0.9,0.9v1.1l-0.4,0.2l0.2,0.6l0.4-0.2v0.6l-0.4,0.6
		l0.2,0.6h0.4l1.9-2.3l2.3,2.1l1.1-0.2l1.1-1.1l0.9,0.6l1.5-1.7l0.4,0.2l1.5-1.7l-0.4-0.4l0.9-1.3l0.2,0.2l0.6-1.1l2.3,1.5l0.6-1.1
		l3.4,1.7l-0.2,0.6l0.9,0.9l-1.5,1.7l0.9,0.9l-1.5,1.7l1.5,1.1l-0.6,0.9l-0.6-0.4l-0.4,0.6l-0.9-0.9l-0.2,0.4l-0.4-0.2l-0.2,0.2
		l0.2,0.4l-0.6,0.9l-0.2,0.9l-1.1,0.9l-1.1-0.4h-0.2l0.2,0.4h-0.6l-0.2,0.6h-1.3l-0.6,0.6l0.6,1.7l-0.2,0.4v0.4l-0.9-0.4l-1.3,0.2
		l0.2-0.6h-1.1v-0.2l-0.6-0.2l-0.4,0.4l-1.5-0.4l0.6,1.1l3.8,1.9l0.9,1.3l-0.2,0.4l0.2,0.2l-1.9-0.2l-0.6,0.2l0.9,0.6l-0.6,0.4v0.2
		l-1.5-0.2l-0.2,0.2l-3-2.8l-0.6,0.9l-0.4,0.9l-1.7,0.2l-0.2,0.6l0.2,0.2l-2.1,2.1l-1.5-1.3l0.2-0.4l-0.2-0.4l-0.9-0.6l0.2-1.3
		l1.1-0.9l-3.2-2.3l0.6-1.1v-0.6l-0.4-0.2l-0.6,0.6l-2.1-0.9L87,543l-5.8-4.9l2.8-3.4L78.9,530.4"/>
	<path id="krasnoborskij_rajon" inkscape:connector-curvature="0" class="st0" d="M80.3,515.4l3.6-4.5l1.9,1.9l0.6-0.6v-0.4l0.4-0.2
		l0.4-0.6l0.4-0.2l0.2-0.6h1.1l0.4,0.4l-0.6,0.6l0.2,0.9l1.5,1.3l0.4-0.4l0.4,0.4l-0.4,0.4l1.1,0.9l0.2-0.4l8.8,5.1l4.7-7.7
		l10.5,6.2l2.6-3.6l1.9,1.3l-2.6,3.6l3,1.9l2.6-3.6l5.6,3.4l-1.1,1.5l-0.4,0.2L126,525l-0.6-0.4l-0.9,1.3l-1.9-1.1l-1.1,1.9
		l-1.9-1.3l-3.8,6.2l-0.9-0.6l0.2-0.6l-3.4-1.7l-0.6,1.1l-2.3-1.5l-0.6,1.1l-0.2-0.2l-0.9,1.3l0.4,0.4l-1.5,1.7l-0.4-0.2L104,534
		l-0.9-0.6l-1.1,1.1l-1.1,0.2l-2.3-2.1l-1.9,2.3h-0.4l-0.2-0.6l0.4-0.6l-0.6-1.1l0.4-0.2v-1.1l-0.9-0.9l-0.4-0.9l-0.9-0.2l-0.6-1.3
		l-0.2,1.1v0.6l-1.3-0.2h-0.2l0.2,0.4l-0.4,0.4l-2.6-2.1L87,531l-2.6-2.1l-1.1,1.3l-3.4-3l1.7-2.1l-1.7-1.5l3-3.6l0.6,0.2l0.6-0.9
		l-1.7-1.5l1.1-1.1l-1.3-1.1l-0.6,0.9L80.3,515.4"/>
	<path id="lenskij_rajon" inkscape:connector-curvature="0" class="st0" d="M111.7,537.8l0.2-0.2l0.4,0.2l0.2-0.4l0.9,0.9l0.4-0.6
		l0.6,0.4l0.6-0.9l-1.5-1.1l1.5-1.7l-0.9-0.9l1.5-1.7l3.8-6.4l1.9,1.3l1.1-1.9l1.9,1.1l0.9-1.3l0.6,0.4l1.7-2.6l0.4-0.2l1.1-1.5
		l1.9,1.3l2.1-4.5v-1.1l4.5-5.3l3.4,3l2.8-3.4l9.4,7.7l-3,3.4l-9.2,11.5l-1.1-0.6l-0.4,0.6l0.2,0.2l-1.1-0.2l-8.5,10.7l4.9,4.3
		l-4.5,5.3l-7.7-6.8l-0.2,0.4l-7.5-6.2l0.6-0.6l-2.1-0.6l-2.8,0.2l0.2-0.9l0.6-0.9L111.7,537.8"/>
	<path id="leshukonskij_rajon" inkscape:connector-curvature="0" class="st0" d="M132.9,420.6l0.9-1.1l5.3,5.3l-0.6,0.4l1.1,1.3
		l0.9-1.5l5.6-1.1l14.9,9.8l11.5,3.8l12.2,6.8l-2.8,5.8l7.3,1.7l-0.2,3.2l0.6,12.6l2.3,2.6l-5.6,6.6l-4.5-4.1l-0.2,0.2l-3.4-2.8
		l-3,3.4l-5.1-4.5l-2.8,3l-0.2,0.4l-3.8-3l-2.8,3.6l-2.8-2.1l0.4-1.5l0.9-1.9l-9-5.3l-8.5-3.6l-4.5-0.2l-4.7-4.1l-3-0.2l0.6-5.8
		l-5.6-4.9l3-3.4l-2.6-2.3l1.5-1.7l0.9,0.9l3.2-3.6l-0.6-3.6l0.2-1.3l-0.9-0.6l0.4-0.6l-0.2-0.2l2.3-3.8L132.9,420.6"/>
	<path id="mezenskij_rajon" inkscape:connector-curvature="0" class="st0" d="M136.1,372.4l-0.6,0.4l-0.4-0.9l-0.4-1.5v-1.3l1.1-0.4
		l0.9,1.3l0.2,0.9L136.1,372.4 M150,392.4l-0.2,2.1l1.7,3.4l1.3,1.1l2.3,3l3.2,5.6l1.5,0.4l4.5,4.3l3,5.3l2.3,5.3l3.8,1.3l2.6,2.3
		h0.9l0.9-0.2l-0.2-1.9l1.7-1.5h0.4l1.3-0.9l1.1,1.3l2.3-2.8l9.6,5.8l-9.2,18.2l-12.4-6.8l-11.5-3.8l-14.9-9.8l-5.6,1.1l-0.9,1.5
		l-1.1-1.3l0.6-0.4l-5.3-5.3l-0.9,1.1l-1.3,2.6l-2.3,3.8l-6.6-6l1.7-1.9l-17.5-15.8l1.5-1.7l-3.8-3.4v-0.4l-0.4,0.4h-0.4l-1.3-0.6
		l1.1-9.2h0.2l0.6-4.5l-1.3-0.2l0.9-6.4l1.3-0.4l4.5,1.7l4.3,0.4l5.6-1.5l2.3-1.5l2.3-0.4l3-1.9l1.9,0.2l2.3,4.1v0.9h-0.9l-0.2,0.4
		l3.2,1.9l4.3,1.5v1.9l-0.2,1.3l1.7,2.6v1.9l-3.2,0.2l-0.4,0.4l-1.9,0.4l-0.6,0.9l0.4,0.4l0.6-0.9l1.1-0.4l2.8,0.4l1.1-0.2v0.4
		l1.3,0.4l0.2,0.6l-0.6,2.6l0.9,1.7l-1.3,0.9l-0.4,0.9v1.5l-0.6,1.7l0.2,0.2h0.2v-0.6l0.6-0.9v-1.7l1.9-1.1l0.6-1.5v-0.6l0.6-2.1
		l0.6-0.9l1.7-1.9l3.4-2.3L150,392.4"/>
	<path id="mirnyj" inkscape:connector-curvature="0" class="st0" d="M46,454.1l1.7-2.1l0.9,0.6l0.9-0.9l-0.4-0.4l1.1-1.3l0.6,0.2
		l0.6-0.4l0.4,0.2l0.4-0.4l0.9,0.6l0.4-0.4l1.7,0.9l0.6-0.6l0.4,0.6l0.9-0.9l1.1,1.1l0.4-0.2l0.4,0.2l-0.4,1.1l2.8,1.7l0.4-0.2
		l2.6,2.1l0.4-0.2l0.4,1.1l-0.6,0.9l1.7,1.5l-1.5,2.1l0.4,0.4l0.2,1.3l-0.2,0.4l-1.1,0.2l0.4-0.6l-1.7-1.5l0.9-1.1l-0.2-0.6
		l-0.2,0.4l-1.7-1.5l-0.9,0.9l-1.1-0.9l0.2-0.2l-0.4-0.6l-0.2,0.4l-1.5-1.3l-0.4,0.6l-2.3-1.5l-0.4,0.4l-1.1-1.5l-0.6,0.9l-1.1-0.4
		l-0.4,0.6l-0.4-0.4l-0.6,0.9l-0.6,0.2l-0.4-0.4l-1.5,1.7l-1.7-1.3l0.9-0.9l-1.1-1.1L46,454.1"/>
	<path id="njandomskij_rajon" inkscape:connector-curvature="0" class="st0" d="M19.9,478.6l1.7,0.6l-0.9-1.1l0.4-0.4l0.2-0.9
		l0.6-0.2l-0.2-0.4h0.6l1.1-1.7l-0.4-0.2l1.3-2.1l0.4-0.4h0.4l1.7-2.6l2.3,1.5l1.1-1.9l0.4,0.4l-0.2-1.1l0.4-0.9h0.4l1.1,1.3
		l0.4-0.6l0.9,0.6l1.9-2.8l0.4,0.2l1.3-1.7l-0.6-1.1l0.9-1.3l-1.9-1.3l0.2-0.4l-0.2-0.4l0.2-0.4l0.9,0.2l1.1,0.6l1.3-2.3l1.3,0.4
		v1.1l2.1,1.3l1.7-0.4l1.5,0.6l-0.6,1.1l2.8,1.5l-1.3,1.9l0.9,0.6l-1.1,1.7l1.7,1.3l-1.3,1.7l1.7,1.1l-2.3,3.6l-1.3-0.9l-1.7,2.6
		l3.4,2.3l-0.4,0.2l0.6,1.5l-0.4,1.3l0.9,2.1l-0.2,0.2l-2.3-1.5l-0.9,1.1h-0.4l-2.8,4.1l-1.3-0.9L37,491l-0.4,0.2l-2.1-1.1l0.2-0.6
		l-1.7-0.9v0.4l-0.9,1.3l-0.2,0.6l-0.6,0.6l-0.9,1.3v-1.5l-1.5-0.4l-0.6-0.9l-0.6,0.2l-0.2-1.3l-0.6-0.4l-0.4,0.6l-2.1-1.3l0.6-0.9
		l-1.5-0.9l-0.4,0.9l-0.9-0.6l1.1-1.7l-1.3-1.1v-0.2l-1.1,0.2l0.2-0.4l-2.6-1.9l1.5-2.3V478.6"/>
	<path id="novaja_zemlja" inkscape:connector-curvature="0" class="st0" d="M318.9,276.8l1.1-0.4l1.1,0.2l0.2-0.4l1.1-0.2v-0.4
		l-0.2-0.2l-0.6,0.6l-0.2-0.2l0.2-0.2l1.5-0.2l-0.4-0.4h-2.3l0.6-0.6l0.4-0.2l0.6-0.6l-1.1-0.6l1.5-0.2l-2.1-1.5v-1.9l-0.6-0.2
		l0.6-0.6h0.6l0.6-1.1l1.9-1.3l3.8,0.2l2.8,2.8l1.5,0.9l0.9-0.2l-2.6-1.5l-0.2-0.4l1.7,0.2l-1.7-0.9l-0.6-1.3l0.9-1.1l0.4-0.2h0.9
		l1.3,1.3l0.4-0.2l-1.1-0.9l0.2-0.2v-0.2l0.4-0.2l-0.4-0.2l0.2-0.4l-0.9-0.4l0.6-0.6l-0.4-0.2l0.6-0.4v-0.4l0.4-0.4l3.2-1.3l1.5,0.6
		l1.7-0.4v-0.4v0.4l2.1,0.2l0.2,0.6h0.9l-0.4,0.4l0.2,0.2l1.7,0.9l1.9-0.9l3.2-0.4l-0.9-0.9l-2.3,0.9h-1.1l-0.4-0.2V260l-0.9-0.6
		v-0.6l1.3-0.4l1.3,0.4l0.2-0.4l1.1-0.4h1.1l-0.2-0.6h-1.1v-0.6l-0.6-0.4l1.1-0.4l1.3-1.1h3.4l1.1-0.6l1.3,0.4l2.3-0.2l1.1,0.4
		l0.4-0.2l-2.3-1.1h-0.9l-0.6,0.4l-0.4-0.2l0.4-0.6v-0.2H353l-1.1-0.9l-1.5,0.4l-1.3,0.6h-1.7l-0.2-0.9h-0.9l-0.4-0.6l0.2-0.9
		l-0.4-0.2v-1.1l-1.3-2.3l0.4-0.6l0.6-0.9l0.2,1.1l1.5,0.6l1.9-0.6l-0.2-0.4l0.6-0.4l2.3-0.9l3.2,0.6l1.1-0.4l1.1,0.6l0.2-0.4
		l-1.7-1.7l0.6-0.6l1.7-0.6l3.6-1.1l0.6,0.4h0.9l1.5,2.1l1.3,0.4l0.4,1.3l1.1-0.4l-0.2,0.4l0.4,0.4l-0.2,0.4l0.6,0.9v-0.9l0.2-0.4
		l-0.4-0.4h0.2V245l-1.5-1.3l0.6-0.6l-2.3-2.8l-1.5-0.6l0.2-0.4v-0.4h0.6l0.2-0.4h1.3l-0.6,0.6l3.4,1.1v0.9l0.2,0.4l0.9-0.6v-0.9
		l-0.9-0.6l-0.2-1.1l-1.9-1.3l0.9-0.6l0.6-0.6l1.1,0.6h2.1l1.5,0.9l2.6,0.4l-0.2-0.6l-0.6-0.2v-0.4l0.4,0.2v-0.4l0.2-0.4l-1.9-1.3
		l-1.5,0.2l0.9-0.6l-1.3-1.1l0.9-0.9l0.4-1.1l0.9-0.2l1.7-0.4l0.2,0.4l0.4,0.2l-0.4,0.2v0.4l1.1,0.4l1.1-0.2l0.2-0.2l2.1,0.6
		l0.9-0.4l-0.2,0.4l1.1,1.9l0.9-0.2v-0.4l-0.4-0.2v-1.1l-0.2-0.9l-0.6-0.2l1.1-0.6v-0.2h-1.1l-0.4-1.1l-2.8-0.4l-0.9-0.4v-0.6
		l-0.6-0.6l0.9-0.4l2.8-0.2h2.3l0.4,0.4l0.6-0.4l-0.9-0.6h-0.6l0.9-0.4l-0.9-0.4l1.7-0.6l-0.4-1.3l-1.9-0.4l-1.3,0.4l-1.3-0.6
		l1.9-1.9l-0.6-1.1h-0.9l1.3-1.5l1.9-1.1l0.6,0.2l-0.2,0.4l0.4,0.4h0.9l-0.9,0.4l0.2,0.6l1.7-0.2l0.2,0.6l-0.4,0.2l0.4,0.9l-0.4,0.6
		l0.2,1.1l1.9-0.2l-0.4-0.4l1.1-1.1l1.3-0.4l0.6-0.6l1.7,0.2l1.1-0.6l-1.1-0.4l-0.2-0.9l-0.9-0.6l0.2-0.6l2.1-0.9h1.7l1.5,1.3
		l1.3,0.2l-0.2,0.6l0.6,1.3l3,1.5l0.6-1.1l-1.5-0.6v-0.4l1.1-1.5l-0.4-0.9h-0.6l0.4-0.9l-0.2-0.4l0.6-0.6h1.3l6,0.4v-0.2h0.2v-0.9
		l-1.9-0.4l-0.9-0.9l1.5-0.6l1.7,0.6l1.9-0.4l2.8,0.6l0.9-1.3l-0.4-1.1l2.6-0.9l1.3,1.1h0.6l0.2-0.2v-0.4l-1.1-0.6l0.9-0.4l3.8,0.9
		l1.3,1.5l1.5-0.4l1.5,0.4l-0.4-0.4l0.9-0.4l2.3,0.9l0.6-0.6l-2.3-1.7v-0.4l2.6-0.9V207h-1.3l-0.2-0.2h0.4v-0.2l-0.2-0.2l-1.7-0.4
		l2.1-1.1l3.8,0.9l-0.4,0.4l-2.1,0.2l-0.4,0.9l0.2,0.2l2.1-0.2l2.1,1.5l-2.3,0.9l-1.3,0.9l2.8,1.3v-0.2v-0.4h0.2l-0.2-0.4l2.8,0.6
		l0.4-0.4l0.2-0.9l1.1-0.2v-0.9l-1.7-0.6l-0.4-0.4l0.9-0.9l0.6-0.2l-0.2-0.6l0.4-0.4l1.9-0.9l-1.1-0.6l3.8,1.1l0.2,0.2h-0.6l1.1,0.6
		l1.1-0.2l0.4,0.9l1.3,0.2l-0.4,0.6l0.2,0.2l4.3,1.7v0.2l-0.2,0.6l-1.1,1.1l1.5,1.1l0.6-0.4l-0.2-0.6l0.4-0.2v-0.2h0.2l-0.2,0.9h0.4
		l0.4-0.4l-0.2-0.4l0.6,0.2v-0.4l0.9-0.4l0.4,0.6l-0.6,0.6l1.1,0.6l-0.4,0.2v0.2l1.1,0.4l1.5-0.2l1.5-0.9l1.9,0.6l0.6-0.4v-0.4
		l1.7-0.4l2.1,0.6l0.2,1.9l1.9,0.2l0.2-0.4l-0.2-0.2l0.9-0.6l1.5,0.6l0.2-0.2V213l0.6-0.6l2.1,2.1l0.2-0.4l-0.2-0.4l-0.6-1.1
		l0.9-0.4v-0.4l0.4,0.2l0.9-0.6l0.9-0.4l1.3,0.9h2.3v-0.4l0.9-0.2l0.2-0.4l-0.2-0.4h0.6l0.9,0.2l3,2.8l0.9,0.2l-0.2-1.9l0.2-0.2
		l0.2-1.1l-1.1-1.9l2.6-1.9l1.7,1.9h0.9l0.2-0.2l-0.9-1.9l1.7,0.2l0.2-0.2l0.4-0.9h0.4l0.9,0.4h1.1l0.2-0.2l-0.2-0.6l0.4-0.4
		l2.1,0.2h0.4l-0.4-0.9l1.3-0.4l1.5,0.9l1.3-0.6l3.4-0.2l3.2,1.3l-0.2,0.4l0.2,0.6l3.2,1.1l-0.6,0.6l2.3,2.6l-0.6,0.2l-0.2,0.4
		l0.6,1.7l0.9,0.4l-0.6,1.1v0.2l0.2,1.1l0.6,0.2l-2.1,1.1l-0.6,0.4l-0.4,0.6l-0.2,0.6l-0.2,0.4l0.4,0.9h0.6v0.4l-2.6,1.1l-0.4,0.6
		v0.4l-1.1,0.9h-1.7l-0.2,0.2l0.4,0.2l-0.2,0.2v0.2l-0.9,0.2l-0.4,0.9l-1.5,0.2v0.6l0.6,0.6l-0.2,0.2l-2.6-0.4l-6.2,1.3l-1.5,0.6
		l-7.5,0.4l-0.6,0.6l-1.3-0.6l-3-0.2h-0.2v0.9h-0.2h-3.6l-0.9,0.6l-3.2,0.6l-0.4,0.4l-0.9-0.4h-3.2l-1.3,0.6l-4.1-0.9l-2.1,1.3
		l-1.3-0.4l-1.1,1.1l-0.2-0.4l0.9-0.4v-0.2l-0.6-0.6v-0.2l0.4-0.6l-0.6-0.4l0.2,0.4l-0.9,0.4v0.4h-0.6l-0.9,0.9l-1.7,0.4l-4.1-0.6
		l-2.1,1.1l-1.7-0.2l-2.3,0.4l-0.6,0.6l-0.6-0.4h0.4l-0.2-0.4l-2.3-0.9l-0.6,0.4l0.2,0.4l-0.2,0.4l-1.3,0.4l-0.4,1.1h-0.4l0.6-0.4
		v-0.4l-0.6-0.4l-1.1,0.9l-0.2,0.4l0.2,0.4l-0.9,0.2v0.6l-0.9-0.2l-0.4,0.6l-0.6,0.2l-0.9-0.2l1.1-2.1v-0.6l-0.9-0.2l0.4,0.4
		l-0.2,0.4l-0.9,0.2l-1.1,0.9l-0.4-0.2l-1.1,1.3l-1.1-0.2l-0.2,0.2v0.4l-1.3-0.6l-1.1,0.4l0.4,0.2v0.6h-0.6l0.4,0.9l-1.3,1.3
		l-0.6-0.2l-0.4-0.9l0.2-0.6l0.2-0.2v-0.2l0.2-0.2v-0.2l0.4-0.2l-1.3-0.4l0.2,0.4l-0.4,0.4l0.2,0.2l-0.6,0.2v0.2l-0.9-0.2l0.4,0.6
		l-0.4,0.6h-3l-1.1-1.5l-0.6,0.2l1.5,1.9l3.6,1.3l0.2,1.3l-1.3,1.3l-0.4,0.2l-3.2-1.3l0.2,0.9l-0.4,0.4v0.2l0.9,0.4v0.4l-0.4,0.6
		l-1.1,0.4l-2.3-0.2l-1.9-1.5h-0.6v-0.9l-0.6-0.6l0.2,0.9l-0.2,0.4l1.1,1.1v0.6l0.4,0.6l-0.2,1.5l-0.2,0.4l-1.7,0.4l-1.5-1.5
		l-0.4,0.2l0.6-0.2l-1.1-3l-1.1-1.1l0.2-0.9l-0.6,0.2v1.5l0.4,0.6l-0.2,0.4l0.4,0.6l-1.3-0.4v0.6l-0.6,0.9l-0.2,0.4l-0.6,0.9
		l0.4,0.4h-0.6l-0.6,0.6l0.6,0.9h-0.4l0.2,0.6l0.9-0.2l-0.2,0.4l1.1,0.4l-0.2,0.6l-0.4-0.2v0.2l-0.2,0.2h-0.4l0.2-0.4l-0.2-0.9
		l-1.3-0.4l0.2,0.2l-2.1-1.9l-0.6-1.5l-2.6-2.6l-0.2-0.9h-0.9v0.6l1.9,1.7l-0.2,0.6l0.4,1.1l-0.2,0.6l0.4,0.9l-0.9,0.4v0.9l1.5,1.1
		v0.4H397v-0.6l-0.4-0.2h-0.2v0.6l-0.9,0.4l0.2,0.4v0.4l-0.2,0.4l0.6,0.4l-1.3-0.2l0.6,0.6v0.4l-1.1-0.6l-0.2,0.2l0.2,0.4l-0.2,0.2
		l-1.3-0.4l0.4,1.3l-0.6-0.4l-0.2,0.4l-0.9-0.9l0.4-0.2l-0.2-0.4h-0.2l-0.2,0.4l-0.9-0.2l0.9,1.3l0.6-0.2l-0.2,0.4l0.6,0.6l-0.2,0.2
		l-1.5-1.1h-0.2l-0.2,1.1l-0.4,0.4v0.6h-0.2l0.2-0.6l-0.2-0.6l0.4-0.6l-0.4-0.9h-0.6v1.3l-0.4,0.6h-0.4l0.4,1.7l-0.9-0.2l-0.4,0.6
		l-0.4-0.9h-0.9v-0.4l-1.7-2.3v-0.4l0.2-1.9l-0.2-1.9l-1.1-1.3l-0.4,0.2l0.6,2.1l-0.4,1.5l-1.5-0.4l0.4,0.9h0.9l1.1,5.6v0.4
		l-1.1-0.2l0.4,0.9l-0.4,1.1l-0.2,1.9l-2.8,0.6V263l-0.2-0.2l0.2-0.6v-0.4l-0.2-0.2l0.2-0.6l-0.4-0.6l-4.3-3l-0.2,0.2v0.2l2.8,1.9
		l0.9,2.3l-0.2,1.5l0.2,2.6l-0.9,0.9l-1.9-0.4l-0.6,0.2v0.4H375l-3-2.8l0.2-0.2l-0.6-1.1l0.2-1.1l-0.2-0.2v-0.4h-0.2l-0.4,0.4
		l-0.2,0.6l0.9,1.5l-1.3-0.4v0.4l1.1,0.4l0.4,1.1l1.1,1.5l0.4,1.3l-0.2,1.1l-1.1,0.4l-0.4,0.6l-1.7,1.1l-1.3,0.4l-0.4,0.4l-0.4-1.3
		l0.2-0.4h-0.6l-0.4,0.6l0.4,0.4l-0.9,0.2l-0.6,0.9l-0.2,0.6l-3-2.6l-2.1-0.6l-0.4-1.5l0.9-0.9l0.2-0.9l-0.2-0.6h-0.2v0.2l-0.4,0.4
		l-0.4,1.3l-0.4,0.4l-1.5-2.1l-1.5-0.2v0.2l1.9,0.9v0.6l-0.4,0.2l1.3,1.1v0.2l-0.2,0.2v0.2l2.3,1.1l1.3,1.3l0.4,1.5l0.2,1.1
		l-0.2,0.6l-0.4,0.6l-4.3-0.4l-2.6-0.9l3.6,1.7l1.1,1.3l-1.5,0.6l-1.5-0.6l-2.3-0.2l-0.9,0.2l-0.4-0.6l-1.9-0.2l1.7,0.6l0.6,0.9
		l1.1,0.4l1.3-0.4l1.3,0.9l-0.9,1.1l-0.2,0.9l-0.2,0.2l-0.2,0.2l-1.7,1.3l-0.2,0.4l-1.1-0.2v-0.4l-1.1-0.4l-1.7-0.2l-1.3-1.7
		l-0.2,0.2l0.2,0.4l-0.9-0.2l3,2.6l-0.2,0.2v1.3l-0.2,1.1l-2.1-1.1l-0.4,0.2l0.2,0.4l-0.4,1.1h-0.9v0.4l-0.2,0.9l-0.4-0.2l-0.2,0.4
		h-0.2l-0.6-0.4l0.4-0.4l-0.2-0.4l-0.6-0.4l0.4,0.9l-0.2,0.2v0.2l0.4,0.6l-0.4,0.9v0.4l-1.7-0.4l-0.6,0.4l1.1,0.4l-0.4,1.5l-0.9,1.1
		v0.2l-1.5,0.6l1.1,2.3h-0.4l-0.2,1.9l-1.5,0.4l-1.1,1.1v0.6h-0.2l0.2,0.4l-0.9,0.6v0.4h-0.4l-0.2,0.6v0.6l-0.2,0.2v0.6l-1.3-0.6
		l0.4,1.1l0.9,0.2l0.2,1.1l-0.4,0.4l0.2,0.9l-0.4,0.2l-0.4,1.3v0.9l-0.2,0.4v0.4h-0.2v0.4l-0.2,0.4l0.2,0.6l-0.2,0.2v0.4l-0.2,0.2
		l0.2,0.4l-0.2,0.4l0.2,1.7l-0.4,0.2v0.4l0.4,1.5l-0.2,0.6v0.6l-0.2,0.4l0.2,1.1l0.2,2.6l-0.4,0.6l-0.2,0.9l0.2,0.4v3.2l0.6,1.9
		l0.6,0.6l1.1,4.5l1.3,3l0.4,2.6l1.5,1.3l0.6,1.5l1.1,0.4l0.9,3v0.4l-0.9-0.4l-0.2,0.2v0.4l-0.2,0.4l-0.9,0.2l0.2,0.2l-0.4,0.6v0.2
		h-0.4v0.6l-0.6-0.4v0.4l-1.5-1.9h-0.9l0.2,0.9l0.6,1.3v0.4l1.3,1.7l-0.9-0.4l-0.6-0.9l0.2-0.4h-0.2l-0.2-0.2l-0.4,0.2l0.2,0.4h-0.4
		l-0.2-1.3l-1.7-1.1l1.1,1.1l0.4,1.7l-0.4,0.2l-0.9-1.3h-0.4l0.4,1.5l-0.9-0.4l-0.2-0.2l0.4-0.4l-0.9-0.6l-0.2-1.5h0.4v-0.2
		l-0.9-0.4l0.2-0.2l0.2-0.6h0.4l-0.2-0.4l-1.5-2.1H333l1.1,1.9l-0.4,0.2h0.4l-0.2,0.2l-0.4-0.2l-0.2,0.2l0.2,0.4l-0.6-0.4l-0.4,0.2
		v0.4h-2.1l-0.9-1.7l0.4-0.2l-0.6-1.5v-0.2l-1.5-1.7l-0.2,0.4l0.4,0.2l0.6,1.1l-0.2,0.4h-0.4l-1.9-3.6l-0.2,0.2l0.2,1.1l1.3,2.1
		l-0.4-0.4l-0.6,0.2l0.2,0.6l-0.6-1.1h-0.9l-0.2-0.9l0.2-0.4H324l-0.9-1.3v-0.4h0.2l-0.9-2.3l0.2-0.4l-0.2-0.6l-0.4,0.4l-0.4-0.4
		l-0.2,0.2l0.4,1.5v1.5L321,339l0.4-0.6l-0.6-1.7h-0.4l-0.2,0.6l-0.4-0.2v1.9l-0.6,0.4v0.9l-0.6-0.9h-0.2L318,340l-0.4-0.2l-0.6-1.1
		l-0.2-1.9l-1.3-1.3l-0.4-1.1v-1.9h0.6l-1.1-1.3l-0.4,0.2l-0.4-0.6v0.6h-0.6l0.2,0.9l1.1,1.3l-0.2,0.6l0.6,0.4l0.2,1.1l-1.5-1.3
		l-0.6-1.1l0.6-0.4l-0.9-0.6l-0.9-2.3h-0.6l0.2,1.1l-0.4-0.4l-0.4,0.2l-0.9-1.3l-0.2,0.2l0.2,0.4l-0.9-0.4l-0.4-0.6l0.2-1.3
		l-0.9,0.2l-0.2-0.9h-0.6l-0.6-0.9l0.2-0.6l-1.1-0.9l-0.2,0.4v0.6l-0.2,0.2l-0.2-0.4l0.4-0.2l-0.9-0.4l-0.4-2.3l0.4,0.4h0.9l0.4,0.6
		l0.6-0.4l-0.4-1.5l1.1,1.9v1.9l0.2,0.4V326v-1.3l0.2-0.6l0.9-0.2v-0.4l0.9-0.4v-1.5l-0.9-2.3v-0.6l0.4-0.2l-0.2-0.9l0.4,1.5
		l0.9-0.2l-0.2-0.2l0.2,0.4l0.4-0.4l1.7,2.8h0.2l-0.4-3l0.4,0.6l0.6-0.4l1.7,1.5l-0.4-1.5h0.6l0.4-0.9l-0.9-0.2l-0.2,0.4h-0.4
		l-0.6-1.5l-0.2,0.2l-0.4,1.1l-0.6-0.4l-0.2-0.6h0.2v-0.4h-0.4v-0.6h-0.6l-0.2-0.6l-0.2-1.9h0.2l-0.2-0.9l-1.3-0.6v-1.7l-0.4-0.9
		h0.9l-0.4-0.4v0.2l0.4-1.7l-1.1-0.6v-0.9l-0.4-0.4l-0.2,0.9l0.4,0.2v0.9l0.4,0.2v1.1L308,307h-0.6l-0.4,0.4l-0.4-0.4l0.4-0.9v-0.9
		l0.6,0.2l-0.2-0.2l-0.9-0.6v1.5v-0.2l-0.6-1.1l0.2-0.9l-0.2-0.4h-0.4v0.2l-0.2,0.4l-0.2-0.4v-0.4h0.2l0.4-0.6l-0.4-0.6h0.6
		l-0.2,0.9l0.4-0.2l0.2-0.4h0.2l-0.2-1.1v-1.7l-0.4-0.2l-0.4,0.6v0.4H305l-0.2,0.6h-0.2l-0.6-0.6l-0.6,1.1l0.4,0.6l-0.2,0.4
		l-0.2,0.2l-0.4-1.1v-1.5l0.2-0.4l-0.2-0.6l-1.1,0.6v2.3l-1.1-1.1l-0.9,0.2l-1.7-0.9l-0.6-2.3l-1.1-1.1v-1.3l0.6-0.9l0.2-2.1
		l0.2-0.6l0.4-0.2l-0.2-0.6v-0.9l0.4-0.4v-0.6l0.4-1.3l1.7-1.7l1.1-1.7l1.7-2.1l4.1-1.1v1.7l1.5,1.1l1.5-0.4v0.2l-0.4,0.4l0.4,0.6
		v0.9l0.6,0.4l-0.4-0.9l1.3-0.4l-0.2-0.4l0.6-0.4h-0.4l0.2-0.6h0.2l0.2-0.4l0.2,0.6l0.9-0.6l-0.4-0.2l0.4-0.6v0.6h0.2l0.4-0.4
		l0.2,0.2l-0.2-0.9l0.2-0.9l1.1,1.3h0.2l0.2-1.1l0.4,0.4l0.9-0.2l-0.2-0.6h0.2l-0.2-1.1h-0.6v0.6l-0.4-0.9l0.4-0.4h0.4l1.1,0.4
		l-0.6-0.6l0.9-0.4l0.6,0.6v-1.1l0.4,0.2l0.4-0.4l-0.4-0.2V276.8 M304.3,305l0.2,0.2v0.4h-0.2V305 M303.5,305l-0.2-0.6V304l0.2,0.2
		V305 M307.5,307.6h0.2l-0.2,0.9h-0.2L307.5,307.6 M308.4,311v0.4l-0.6-1.1h0.6V311 M302.4,319.3l-0.4-0.2l0.2-0.6l0.2-0.2l-0.2-0.9
		l0.2-1.3l-1.1-1.3l0.4-0.2l0.2-1.5l-0.4-0.9v-0.4h0.2l0.2-1.5l-0.6-1.1l-2.1-0.6v-0.9l-0.6-0.6l0.6-1.5l1.3-0.4l3,0.4V305l0.2,1.1
		l0.4-0.2l0.2,1.3l0.4,0.4l-0.2-1.5h0.4l-0.2-0.4h0.2l1.5,2.3l0.2,2.6l-0.2,0.6l-0.6,0.2l0.2,0.4l1.1,0.2v-0.4l0.6,0.6l-0.6,0.4
		l-0.2,0.6l0.4,0.4h-0.6l-0.2,1.3l-1.3,0.4l-0.2,0.6l-1.1,0.2l-0.6,0.6l-0.2,1.5l0.4,1.1L302.4,319.3 M330.4,262.8l0.2-0.2h0.4
		l-0.6,0.4V262.8 M331.2,264.2h0.2h0.2H331.2 M320.6,272.4l0.4-0.4L320.6,272.4 M320.4,276v-0.2l0.2,0.2H320.4 M319.9,275.8v0.2
		h-0.2v-0.2H319.9 M313.3,282.4l0.2-0.4h0.2v0.2L313.3,282.4 M310.5,285v-0.4l0.2-0.2L310.5,285 M304.8,301.2h-0.2H304.8
		 M322.1,339.8h0.2l0.2,0.4l-0.2,0.2L322.1,339.8 M323.1,340.7v0.2V340.7 M311,319.1v0.2V319.1 M307.3,318.1v0.2l-0.2-0.6l0.6-0.2
		v0.2h-0.4V318.1 M308.2,318.5v-0.2V318.5 M307.5,319.6v-0.2V319.6 M309.3,314h-0.6l0.4-0.4v-0.9L309.3,314 M309.7,317.8H309v-0.4
		l-0.4-0.2l-0.2-0.9l0.2-0.2l1.1,0.9l-0.2-0.9l0.4-0.2l0.2,1.5L309.7,317.8 M311.4,331.5h0.2H311.4 M323.1,339.4l-0.4-0.2l-0.2-0.6
		l0.2,0.2L323.1,339.4 M320.1,338.1h0.2v0.2L320.1,338.1 M338.9,347.7v-0.2V347.7 M339.6,348.6l0.2,0.2l0.4,0.2l-0.4-0.4H339.6
		 M322.7,341.1l0.4,0.2l0.2,0.2l-0.4,0.4L322.7,341.1 M338.9,348.2l0.4-0.2v0.4L338.9,348.2 M324.2,342.2v0.4V342.2 M328.7,344.5
		h0.2v0.2h-0.2V344.5 M340.4,349.9l0.2,0.2h0.2h-0.2L340.4,349.9 M331.2,347.7v-0.4l1.3-0.4l0.6,0.4l-0.4-0.2v0.4l-0.2,0.2v-0.4
		l-0.4,0.2v0.2l-0.2,0.2L331.2,347.7 M328.5,346l0.4,0.2v0.4l-0.4-0.2V346 M333,348.4h0.6l-0.2,0.2L333,348.4 M329.3,346.5l0.2,0.2
		l0.2,0.9l-0.4-0.2V346.5 M338.1,350.7l0.4,0.6l-0.4-0.2V350.7 M457,211.7h0.2H457 M422,206l0.6-0.4l0.4,0.4l-0.2,0.4h-0.4l-0.9-0.2
		L422,206 M454.2,211.9l0.4-0.2l0.2,0.2l-0.6,0.2V211.9 M419.4,204H419l1.3-0.2l-0.4,0.2H419.4 M424.3,206.6l0.4,0.2l-1.1,0.2
		l-0.9-0.2l0.2-0.2l-0.2-0.2L424.3,206.6 M419.4,208.5l0.2-0.2l0.2,0.2h-0.2H419.4 M416.9,208.1l-1.5-0.2v-0.4h4.3l0.4,0.4l-0.4,0.4
		L416.9,208.1 M412.4,209.4h0.2H412.4 M413.5,210.6l0.2,0.2H412l0.9-0.4L413.5,210.6 M404.7,246.7h0.2H404.7 M403.6,246.9l-0.4,0.6
		l-0.4,0.2l0.2,0.6l0.9,0.2H403l-0.6-0.9l0.6-0.4l0.2-0.6l1.1-0.6l-0.2,0.6L403.6,246.9 M425.8,237.3h0.2H425.8 M424.3,239.3h0.2
		H424.3 M404.1,247.8l0.2-0.2v0.2l-0.2,0.2V247.8 M404.5,247.2h0.2l-0.2,0.2V247.2 M405.6,250.8v-0.2V250.8 M397.4,248l-0.2-0.2h0.9
		l-0.6,0.4V248 M397.4,248.7h0.2v0.4L397.4,248.7 M400,251.4l0.2,0.4h-0.9v0.2l-0.4-0.6l0.9-1.1l0.6-0.4l0.6-0.2v0.6h-0.4l-0.4,0.4
		l0.2,0.4L400,251.4 M401.3,251.6h0.2H401.3 M394.9,254.2h0.2H394.9 M364.3,242.3h0.2l0.2,0.2h-0.2L364.3,242.3 M365.4,243.3v0.2
		V243.3 M351.5,252.9h0.2l0.2,0.2l-0.2,0.2L351.5,252.9 M344.7,257l0.4,0.2l-1.7-0.2l1.3-0.4V257 M366.5,244.8l0.2-0.2h0.2l-0.2,0.2
		H366.5 M389.1,256.1h0.2l0.2,0.2h-0.4V256.1 M384.8,260l0.2-0.4L384.8,260 M353.2,253.4h0.2h0.2h-0.2H353.2 M384,261.3l0.2-0.2v0.2
		H384 M329.8,348.8h0.4l0.4,0.2l-0.4-0.2H329.8"/>
	<path id="novodvinsk" inkscape:connector-curvature="0" class="st0" d="M78,416.5l0.2-0.4l0.4,0.2v-0.4l1.3-0.4v0.4l-0.6,1.7h-0.4
		l-0.2-0.9L78,416.5"/>
	<path id="onezhskij_rajon" inkscape:connector-curvature="0" class="st0" d="M35.7,397.1v0.2V397.1 M31.4,394.5l0.2,0.2l0.4-0.2
		l-0.4,0.2l-0.2,0.2V394.5 M35.7,396l0.2-0.2l0.2,0.2l-0.2,0.2L35.7,396 M39.3,395.6l0.2-0.2v0.2H39.3 M32.5,393.6v0.2V393.6
		 M30.2,395.6L30,396l-0.4,0.2l0.9-1.3L30.2,395.6 M40.6,403.3l0.2,0.2l-0.2,0.2v-0.2V403.3 M33.8,398.8v0.2l-0.2-0.2H33.8
		 M40.6,381.5l9.6,8.3l-0.4,0.4l0.4,0.9L50,393l4.7,4.3l-3.2,3.2l9.2,8.5l-4.5,4.9l-0.9-0.6l-1.3,1.5v0.6l3.2,2.3l-0.2,1.1l1.9-2.3
		l1.7,1.5l-1.1,1.3l4.3,3.8l-1.5,1.5l0.9,0.9l-2.6,3l-3.2-1.3l-1.5,0.2l-5.3,2.3l-0.9,1.5l-1.9,0.9l-1.5,1.5l-0.9,1.1l0.4,0.9
		l-0.9,0.9l-1.1-0.4l-0.2,0.4l0.4,0.2l-1.9,2.1l-0.2-0.4l-0.9,0.9l0.4,0.2l-0.9,0.9l-0.6-0.4l-0.4,0.4l0.9,0.9l-0.6,0.6l-1.1-0.2
		l0.2-0.4V440l-1.1-0.2l-0.2,0.2l-0.6-1.1l-3.8-3.4l-1.3,1.5l-0.4-0.2l0.2-0.9l-1.3-1.1l-1.3,0.9l-2.8,0.9l-1.3,1.1l-9.6-9l-2.3,2.6
		l-2.3,1.1H9.9l-1.3-0.6l-0.4-1.3l-1.5-1.9l-1.5-4.7l0.4-1.3l0.6-6l0.6-1.1l1.7-1.1l0.6-0.9l1.9-0.4l0.4-0.9l-1.9-0.6l1.5-1.7
		l1.7-4.1l-0.9-2.1l0.4-3.8l1.1-0.2l5.8,3.4l3.6-1.7l0.6-1.1l-0.2-0.4l0.9-1.1l0.6-0.6l1.3-2.1l0.6,0.2l0.2,1.1l-0.4,0.2v0.2
		l0.2,0.4l0.9,0.9l0.2-0.2v-0.2l0.2,0.2l0.4,1.3l0.9,0.2v-0.4l0.2,1.3l2.3,1.9l-0.9,1.7l1.5,2.1l2.3,0.6l0.6-0.4l0.9-1.1h0.4
		l1.9,1.5h1.9l0.9,1.3l-0.2-1.5l1.9-0.9v-0.9l0.2-0.2v-0.2l0.2,0.2l0.4-0.6l0.2-1.5l0.4-0.9l-0.4-0.9l0.4-1.5l0.6-0.4l2.1-0.6
		l-0.6-1.3l0.2-0.4l0.4,0.2l0.2-0.4l-1.3-1.7l1.3-1.7l-0.9-0.6H46l-1.5,1.5l-0.2-1.3l-1.1-0.6h-1.9l-1.3-3.2L40.6,381.5 M41.1,405.4
		l-0.2-0.6v-0.2l0.2,0.4V405.4 M40.6,405.6l0.2,0.2h-0.2V405.6 M32.1,400.5h0.2H32.1 M32.7,401.1v-0.2V401.1 M29.5,399.2v0.2V399.2
		 M31.7,401.5h-0.2H31.7 M32.7,403.3h0.2H32.7"/>
	<path id="pinezhskij_rajon" inkscape:connector-curvature="0" class="st0" d="M97.6,411.8l2.8-3l0.9,0.9l1.5-1.7l0.6,0.9l4.3-4.7
		l16.7,14.9l-1.7,1.9l6.8,6.2l-0.6,0.6l0.9,0.6v1.3l0.6,3.4l-3.2,3.6l-0.9-0.6l-1.5,1.7l2.6,2.1l-3,3.6l5.3,4.9l-0.4,5.6l-3.6,0.2
		l0.2,4.3l2.3,4.9l2.1,1.7l2.1,3l2.6,6.2l-0.4,6l-0.9,1.5l-1.7,1.3l-1.7,2.6l0.2,2.1l-0.2,1.1l1.1,1.1l0.4,1.1l-0.4,0.6l-5.8-3.6
		l-0.6,0.6l-4.7-2.6l0.2-0.4l-1.7-0.2l-2.6-3.6l-1.5-0.9l-8.1,0.4l-0.2-1.1l-1.3-1.1l0.9-0.9l-5.3-4.1l0.6-0.6l-6-2.6l-0.6-1.3
		l-2.3-1.1l-2.3-1.9l-1.1-1.5l0.4,0.2l0.9-2.3l-0.9-0.4l0.2-0.9v-1.1l1.3-1.5l1.1,0.2l1.1-1.7l-3.2-2.6l1.3-1.5l0.9,0.6l5.6-7.5
		l-1.1-0.9l1.1-4.1l2.3,0.9l3.4-0.4l2.3-1.3l1.9-1.7l1.1-0.4l-5.6-4.5V434l0.9-1.3l-0.4-0.2l0.6-0.9l-4.7-4.3l0.6-0.6l-1.1-0.4
		l-5.1-5.1l3.2-3.6l-0.9-0.9l0.2-0.4l-0.2-0.4l2.8-1.3l0.6-0.6L97.6,411.8"/>
	<path id="pleseckij_rajon" inkscape:connector-curvature="0" class="st0" d="M10.9,432.3l2.3-1.1l2.3-2.6l9.6,9l1.3-1.1l2.8-0.9
		l1.3-0.9l1.3,1.1l-0.2,0.9l0.4,0.2l1.3-1.5l3.8,3.4l0.6,1.1l0.2-0.2l1.1,0.2v1.1l-0.2,0.4l1.1,0.2l0.6-0.6l-0.9-0.9l0.4-0.4
		l0.6,0.4l0.9-0.9l-0.4-0.2l0.9-0.9l0.2,0.4l1.9-2.1l-0.4-0.2l0.2-0.4l1.1,0.4l0.9-0.9l-0.4-0.9l0.9-1.1l1.5-1.5l1.9-0.9l0.9-1.5
		l5.3-2.3l1.5-0.2l3.2,1.3l2.8-3.2l1.5,1.5l5.6-6.2l3.2,3l-0.2,0.2l-0.4-0.4l-0.6,1.1l1.7,1.3l-0.6,0.6h1.7l-5.8,6.4v-0.2l-3,3.2
		l1.3,1.3l-3.2,3.4l0.4,0.2l-4.5,5.3l-0.4-0.4l-0.6,0.9L59,446l-0.9,0.9l0.9,0.9l-2.8,2.8l-0.4-0.4l-0.6,0.6l-1.9-0.9l-0.2,0.4
		l-0.9-0.6l-0.4,0.4l-0.4-0.4l-0.6,0.6L50,450l-1.1,1.3l0.2,0.2l-0.6,1.1l-0.9-0.6l-1.9,2.6l1.1,0.9l-0.9,0.9l1.7,1.5l1.5-1.7
		l0.4,0.4L50,456l0.9-0.6l0.4,0.2l0.4-0.4l1.1,0.2l0.6-0.6l1.1,1.5l0.4-0.6l2.1,1.7l0.6-0.6l1.3,1.1l0.4-0.2l0.4,0.4l-0.2,0.4
		l1.1,0.9l0.9-0.9l1.7,1.5l0.2-0.4l0.2,0.6l-0.9,0.9l1.7,1.5l-1.9,2.3l-0.2,2.6l1.5,1.3h-0.6l-1.1,0.4l-0.2,0.4h-0.9l-4.3,1.7
		l-0.2,0.6l-1.1,0.6l-0.9,0.4l-1.3-0.6l-0.6-0.9l-2.6-0.6l0.4,0.9l-0.4,0.9v1.5l-0.4,0.4l-0.6,1.3l0.4,1.5l-1.1,1.3l-0.4-0.6
		l-0.4,0.2l-1.1,1.5l-3.4-2.3l1.7-2.6l1.3,0.9l2.3-3.6l-1.7-1.1l1.3-1.7l-1.7-1.3l1.1-1.7l-0.9-0.6l1.3-1.9l-2.8-1.5l0.6-1.1
		l-1.5-0.6l-1.7,0.4l-2.1-1.3v-1.1l-1.3-0.4l-1.3,2.3l-1.1-0.6l-0.9-0.2l-0.2,0.4l0.2,0.4l-0.2,0.4l1.9,1.3l-0.9,1.3l0.6,1.1
		l-1.3,1.7l-0.4-0.2l-1.9,2.8l-0.9-0.6l-0.4,0.6l-1.1-1.3H31l-0.4,0.9l0.2,1.1l-0.4-0.4l-1.1,1.9l-2.3-1.5l-1.7,2.6h-0.4l-0.6,0.6
		l-2.6-1.7l-0.6,1.1l-0.4-0.2l-0.4,0.6l-0.4-0.2l-0.4,0.4l-0.6-0.6l0.4-0.6l-1.5-1.3l0.9-0.6l0.2-0.9l-0.4-0.2l0.9-0.9l0.2,0.2
		l0.4-0.4l-0.4-0.2l0.4-0.4l0.6,0.2L21,466l-1.7-2.1l-0.4,0.2l0.4-1.5l0.6,0.2l0.2-0.9l0.9-0.9l-0.2-0.2l-0.2,0.4l-1.5-0.4l-2.1-1.3
		l0.2,0.9l-1.1,1.7l-0.2,0.9l-2.1-2.3l-0.2,0.2l0.4,0.4l-1.7,2.1l-0.6,0.4l1.1,1.3l-0.4,0.2l-1.3-1.7h-0.9V462l0.4,0.2l0.9-0.6
		l-1.3-1.3H9.9l-0.6,0.6l-0.6-1.3H7.1l-0.6-1.5l-0.2-1.7l-0.6-0.6l0.6-0.9l-0.9-1.1V453l0.6-0.6H5.8l1.1-2.3v-0.2l0.4-0.2v-1.1h0.4
		l-0.2-0.6l0.2-0.6l-1.1-1.1L5,445.3l0.9-0.4l-0.2-0.4l0.4-0.2l1.5-0.4l0.9-0.6l0.2-0.2l0.6-0.2l0.6-1.1l0.6-0.4l0.2-0.4l0.4-0.4
		l0.6-0.2l-0.4-0.9l0.9-1.3l0.4-1.3h0.2l0.4-0.9l0.2-0.9l-1.3-1.7L10.9,432.3"/>
	<path id="severodvinsk" inkscape:connector-curvature="0" class="st0" d="M63.5,395.1l0.6-0.9l0.4,0.2l1.1,3.8l1.5,1.7l0.6,3.4
		l0.4,0.9l1.3,0.4l0.6,1.1l0.2-0.9l0.6,0.2v-0.4l1.5-1.1l0.4-0.4l-0.6,0.4l0.4-0.4h0.2l0.6,1.7l-0.2,0.2l-1.1-0.4v0.4l1.3,1.5
		l0.4,1.9h-0.6v0.4l-1.9,1.9l-2.1-1.9l-2.1,2.6l1.7,1.5l-4.7,5.3l-2.6-2.3l4.7-5.3l-0.9-0.6l1.9-2.1l-2.8-2.3l0.6-0.9l-1.7-1.5
		l1.3-1.5l-0.4-0.4l0.6-0.9l-1.1-1.3l0.4-0.4L65,399l-0.6-2.6L63.5,395.1"/>
	<path id="primorskij_rajon" inkscape:connector-curvature="0" class="st0" d="M315.2,4.7l0.4,1.5h0.6V5.8L315.2,4.7z M376.2,29.3
		l-1.1,0.2l2.8,3.2l0.2,1.5l0.6,0.2l0.9-0.6l0.9,0.9l1.7,0.4v0.4l-0.4,0.6l-0.6,0.4l-0.6,0.9l1.5,1.3h0.9l0.2-0.6l0.2-0.4l1.5,1.1
		l0.2-1.1l0.6-0.2l1.5,1.3h0.4v-0.4l0.4-0.2l1.9-0.2l1.7,1.5l0.2-0.2l0.2-0.6l-0.4-1.3l0.4-0.6v-0.4l1.7,1.5l0.2-0.2l0.2-0.6
		l-0.4-0.4l0.2-0.6l1.3,0.9l-0.2-0.9l0.4-0.2l1.7,1.1V37l-0.4,0.2v0.4l0.9,0.4l0.2,0.2l-0.4,0.2l-0.2,0.6l-0.2,0.2l0.4,1.1l1.7,1.1
		l0.4,0.2l-0.2,0.6l0.9,0.9h0.6l0.9-0.4l-0.6-1.3l-0.2-0.2l0.6-0.2l-0.2-0.9l-0.6-0.9l1.3,0.2v-0.4l0.4-0.4l-0.4-0.9l-1.1-1.3
		l-2.6-0.6l-2.6-3.4h-0.9l-1.1-0.6v0.2l-0.4,0.2l0.2,1.1l-1.7-0.4l-1.3,0.4l-3.2-1.1v0.4l-2.8-0.2l-4.5-1.9L376.2,29.3z M420.4,34.9
		l-0.2,0.2l0.4,0.2h-1.5l0.2,1.1l-0.4,0.6l0.2,0.4l-0.4,0.4l-0.9,0.2v0.2l0.2,0.6l0.6-0.6l0.9,0.2l1.3,0.6h0.2l-0.2-0.6h1.7l0.6-0.4
		v-0.2l0.2-0.9l-1.3-1.5L420.4,34.9z M412.1,39.6l-1.9,1.1l-1.7,0.2l-3.4-0.6l0.9,0.9l-0.2,0.2l-1.5-0.2l0.2,0.9l0.4,0.2l0.2-0.2
		l0.2-0.2l1.5,0.4l-1.5,0.6l0.6,0.6L408,44v0.4l-0.4,0.2l0.4,0.2l-0.4,0.2l0.4,0.2l-1.3,0.4l-2.1-0.6l0.6,1.3l-1.5-0.2l-0.2,0.6
		l-0.6,0.2v0.4l-0.2,0.2l-2.3-1.3l-0.2,0.2v0.6l-1.1-0.2l-0.2-1.1l-0.9-0.2l0.4-0.6l-0.4-0.4l0.2-0.2l-1.1-0.6h-1.5l-0.4-0.9
		l-5.6-0.2l5.1,3l0.2,0.4l-0.6,0.2l0.9,1.3h-0.6l-1.1-1.3l-3.4-1.3l0.4,1.7l2.3,1.7l-2.1-0.6l0.9,1.3l-1.9-0.9v-0.4l-1.3-0.2
		l0.2-0.9l-1.9-0.9v-0.2l1.1-0.9l-0.6-0.9l-1.5-0.2l-0.9,0.2l-1.5-0.2l-0.4,0.4l0.6,3l-0.9,0.4v0.2l0.6,1.5h1.7L386,50l-0.2-1.3h0.2
		l1.5,0.9l1.9,0.4l0.9,0.9l-1.7,0.2l2.1,1.3l-2.3-0.2l-1.1,0.6l-1.5,0.6l-0.2,1.1l0.9,0.2l1.5,0.4l0.4-0.4l-0.4-0.2l0.2-0.2h1.3
		l1.1,0.6v1.3l1.7-0.6v-1.3l0.9-0.4l1.5,2.3l0.6,0.4v-0.4l1.7,0.4v-0.9l-1.3-1.3h1.5l-0.4-0.6l0.6-0.4l-0.4-0.6l-2.3-1.3l0.2-0.4
		l0.2-0.4h0.4l1.7,0.6l0.4-1.3l0.9,0.2l2.8,2.6l1.7,0.9l1.7-0.2l0.2-0.4l0.4-1.1l-0.4-1.3l0.4-0.2l2.3,0.9h1.7l3.8,1.9l1.7,0.2
		l1.5-0.6l0.9-0.6l1.7,0.4l3.8-0.9l-1.7-1.7l0.2-0.4l-1.1-1.9l-1.1-0.2l-0.4,0.6l-0.6-0.4l-0.2-0.9l-0.9-0.2l-0.9,0.6l-0.4-0.9
		l-1.9,0.4l-1.3-1.5l1.5,0.2h0.2v-0.2l1.5-0.2l-0.9-0.4l0.2-0.2l1.5,0.6h0.2v-0.4l2.6,0.4v-1.3l0.4-1.5l-2.8,0.4l-2.6-0.9l-0.6,0.4
		l-0.6-0.2l0.2-0.6l-0.9-0.9l4.1,0.6l-1.5-1.3L412.1,39.6z M477.4,41l0.6,1.5l-0.9,0.4l-0.2,0.2v0.4l-0.2,0.2l0.9,1.3h2.8l3.8,1.3
		l1.3,0.4l0.9-0.4v-0.9l0.6-0.2l0.4-0.6l-0.9-1.3l-2.3-1.1L477.4,41z M447.1,42.8l0.4,0.4l-0.2,0.6l0.6,1.7l0.6,0.4l-0.2-0.4
		l-0.4-0.4l0.2-0.6V44l-0.6-1.3H447.1z M452.7,43.4l-0.9,0.4l0.6,0.2l0.2-0.2V43.4z M466.5,45.3l0.2,0.2l0.2-0.2H466.5z M467.6,46
		v0.4l-0.4,0.4l0.2,0.2l-0.9-0.2l-0.4,0.6l0.4,0.6l3.2,1.7l0.9,1.5l1.7,1.7l2.8,1.1h1.7l0.6-0.4l-0.9-2.3l-2.8-1.7l0.2-0.6l-0.4-0.2
		l0.4-0.9l-1.1-0.6l-1.3-0.4L471,47l-1.1-0.2l-1.5-0.9H467.6z M448.4,46.4v0.4l0.2-0.2L448.4,46.4z M457.4,47l-0.2,0.2h0.4L457.4,47
		z M455.4,47.5l0.2,0.6l-1.1,0.6l0.9,0.6l-0.2,0.9l-0.6,0.4v0.4l2.1,1.3l1.7,0.2h0.9l0.9,0.9l-0.9,0.9l1.5,0.6l5.8-0.6l5.1,1.1
		l-1.3-1.1l-0.2-0.9l-0.4,0.4l-0.9-0.2l-0.2-1.5l-0.9-0.2l-1.3-1.9l-1.3-0.2l-1.1-1.5l-1.9-0.4l0.2,1.9l-1.1,0.6l0.9,2.1l-5.6-4.5
		l0.2-0.2v-0.4H455.4z M478.3,47.5l0.2,0.4l-0.6-0.2l-0.4,0.6l0.2,0.2l1.5,0.6l1.5-0.2v-1.1l-1.7-0.4H478.3z M481.7,47.9l0.6,0.2
		v-0.2H481.7z M481.7,48.3l-0.4,0.2l0.4,0.2h0.6L481.7,48.3z M444.1,49.4v0.9h0.4h0.2l-0.2-0.6L444.1,49.4z M476.6,49.8l-0.4,0.2
		l0.2,0.4h1.1L477,50L476.6,49.8z M446.7,50.9l0.2,0.2l-0.4,0.4l0.2,0.2l-2.1,0.6V53l0.6,0.9l1.7,0.4l0.2,0.6l-0.6,0.2l0.6,1.1
		l1.7,0.9l0.6-0.2l0.4,0.2l-0.2,0.9l0.2,0.4l1.1,1.5l1.1,0.6l0.2,0.2l-0.9,0.2l1.5,2.3l1.1,0.2l2.8,2.1l0.2,0.6l-0.2,0.4l0.2,0.2
		L458,68v1.5l0.4,0.6l3.6,0.6l2.6-1.1L464,68l-0.4-0.6l-3.8-3.2l-0.9-1.9v-1.5l-2.8-3.2l-4.7-1.5l-0.9-2.1l-0.9-0.4l-0.2-0.9
		l-0.9-0.4l-0.9-1.3H446.7z M479.1,53.2l-0.6,0.2l0.4,0.2h0.2V53.2z M478.9,54.5l-2.1,0.4l-0.6,0.6l0.4,1.3l2.8,1.7l1.7,0.2l0.6-0.6
		l-0.2-0.9v-0.9l-0.4-0.6l0.2-0.2h0.6l-0.2-0.2L478.9,54.5z M457.4,55.1l-0.6,0.2l2.1,2.8l1.7,1.5l0.4,1.3v0.2l-0.2,0.4l0.4,0.9
		l1.5,1.9v0.2l-0.4,0.6v0.4l1.1,1.3l1.9,1.5l1.3-0.4v-0.4l3.2-0.2l-0.9-1.3l-1.1-0.4l-1.7-3l-0.2-0.4l0.4-0.4l-0.4-0.2l-1.7-1.3
		l-1.9-0.9l-1.1-1.7l-2.6-1.3L457.4,55.1z M467.6,55.1l0.2,0.2h0.2h0.4L467.6,55.1z M440.3,56l-1.1,0.2v0.9l1.1,1.3l2.8,1.3l0.2,0.2
		l-0.6,0.6l0.2,0.4l0.9,1.1l0.9,0.4l1.3-0.2l1.5,0.9l4.5,0.9l-3.4-3.6l-0.6-1.7l-1.5-0.6l-0.6,0.6l-0.6-0.2l-0.4-0.2l0.6-0.4
		l-0.4-0.2l-2.1-0.4l-0.9-0.9L440.3,56z M505.4,56l-0.6,0.4l2.6,1.7l-0.2,0.9v0.4l0.6,0.6l4.1,2.1h2.8l1.1-1.1l-0.2-1.1l-0.6-0.6
		l-2.3-1.5l-3.8-0.6h-0.2l1.1-0.2l-3-0.9L505.4,56z M463.8,56.2l-0.9,0.2l2.1,2.3l2.3,1.1l0.9,0.2l0.9-0.4l0.4-0.9l1.1-0.4l0.9,0.4
		v-0.9l-0.9-0.6l-1.7-0.6l-2.3-0.4H463.8z M502.2,56.8l0.4,0.6l0.4-0.2l-0.2-0.4H502.2z M502,57.9l-0.9,0.2l0.2,0.2v0.9l0.2,0.6
		l0.9,0.6l1.7-0.2l-0.2-0.9L502,57.9z M431.1,58.1l-0.2,0.6H430l1.3,1.7l-0.6,0.2l-0.6,1.1h-0.4L430,63l0.6,0.9l1.3-0.6l-0.2-1.5
		l0.6-1.5l-0.2-0.6L431.1,58.1z M400.6,58.3l-0.9,0.4l1.1,2.8l-0.2,1.1l0.9,0.9l1.1-0.2l0.2-1.3l0.2-0.2v-0.2l1.7,0.6v-0.6h0.6h0.2
		l0.2-0.4l0.2-0.4l-0.2-0.9l-1.3-1.3L400.6,58.3z M471.7,58.3v0.4h0.2v-0.2L471.7,58.3z M473,58.6l-0.4,0.2l-0.2,0.2h0.6V58.6z
		 M397.4,59.8l-0.2,0.4l-0.6,0.2l0.2,1.5l1.9,0.4l0.6-0.4l-0.9-1.7L397.4,59.8z M395,60.5l0.6,0.2h0.2L395,60.5z M471,60.5l0.4,0.9
		L473,62h1.5l-1.1-1.1L471,60.5z M416.2,60.9l-0.6,0.2v0.2l0.4,0.4L416.2,60.9z M477.9,60.9l0.2,0.6l1.7,0.6l2.3,1.9h0.9v-0.6
		l-0.9-0.6l-3.8-1.9H477.9z M484.5,60.9l3.4,3l1.5-0.2l-0.4-1.3l-3-1.5H484.5z M470.4,61.5l-0.4,0.2v0.6h-0.2h-0.6l0.2-0.2V62
		l-1.3,0.2l2.3,4.5l1.5,0.6l0.4-0.2v-0.2l0.2-0.4l1.3-0.6l-2.1-3.2L470.4,61.5z M435.8,62l-1.3,0.6l0.4,1.7l-0.9,0.2l-0.4,0.6
		l-0.2,0.4V66l1.3,0.9l1.3,1.5h0.4l0.4-0.9l1.5-0.2l-1.1-1.1l-0.2-0.2l0.9-0.2l-0.6-0.9l-1.1-0.9l1.5-0.2v-0.6L435.8,62z
		 M473.2,62.8l-0.2,1.1l0.6,0.4h1.3l0.6-0.9l-0.9-0.6H473.2z M403.1,63v0.4h0.4v-0.2L403.1,63z M420.9,63.3l0.4,1.1l2.1,0.9
		l-0.9-0.6l-0.6-1.3H420.9z M437.9,63.9v0.4l0.4,0.4l0.4-0.2l-0.6-0.6H437.9z M448.2,64.1l-1.3,0.4l2.3,1.1l-1.9,0.9l0.2,0.4
		l2.8,1.9h2.1v0.9l0.2,0.4l3.8,0.6l1.3-1.1l-0.2-1.5l-0.6-0.9l-1.7-1.5l-1.7-0.6l-2.1-0.9l-1.7,0.4L448.2,64.1z M467.8,64.5l0.2,0.6
		l0.2,0.2l0.9-0.2l-0.2-0.4L467.8,64.5z M425.1,64.8l-0.9,0.2l0.9,0.9l-0.4,0.2v0.4l-1.7-0.2l-0.6,0.4l-2.1-1.1h-0.9l-0.2,1.3
		l0.6,1.1l1.7,2.1l3.8,1.9l1.1,1.1h0.4l0.4-0.4l0.4-0.9h0.4h1.1v0.9l1.9-0.6l-2.6-4.9l0.6-0.4l-0.6-1.1l-1.3-0.2l-0.4-0.6H425.1z
		 M408.5,65.2v0.4l-0.4,0.2h-1.9l-1.7,1.1h-1.1l-0.9-1.3l-2.1,0.2l1.1,1.1h1.1l-0.2,0.4v0.2l1.5,1.1l3.6,2.6l1.9,0.6l-0.2-0.9
		l0.2-0.2l-0.6-1.5l0.2-0.6h0.4l0.6-0.9h0.2l-0.4-0.4l-0.4-0.9l0.2-0.2l-0.6-1.1H408.5z M439.4,66.5v0.9l1.1,2.1l0.9,0.4l1.1-0.9
		l-0.2-1.3l-1.1-0.9L439.4,66.5z M438.8,67.5l-0.4,0.4l-1.1,0.4l-0.6,0.9l0.2,0.9l1.7,0.2l0.9-0.2l0.4-0.6l-0.2-1.5L438.8,67.5z
		 M467.8,68.4l-1.5,0.9h-1.5l0.4,1.1l3.6,2.6l1.9-0.2l1.5,0.4l1.1-1.3l-0.2-1.9l-4.3-1.5H467.8z M432.2,69.2l-0.4,0.2v0.9l0.6,0.2
		h0.2v-0.4l0.6-0.4l-0.6-0.4H432.2z M491.5,69.2l-6,0.2l-1.7,0.6h-1.7l2.3,3.2l2.1,1.3l2.8,0.4l4.3-1.9l0.2-0.4l-0.2-0.9v-0.4h1.3
		l-1.3-1.1L491.5,69.2z M440.3,70.5l0.9,1.3V72l1.1,0.4l0.6-0.6l0.2-0.9L440.3,70.5z M437.1,70.7l0.4,0.4h1.5l1.1-0.4H437.1z
		 M433,70.9l-0.6,0.6l0.2,1.3l-0.4,0.4l-0.2,0.6l-0.2,0.4l0.2,0.2l0.6-0.4h1.3l0.4-0.4v-0.6l0.6-0.4V72l-0.9-0.9L433,70.9z
		 M421.1,71.4l0.4,0.2l0.4,0.2h0.2L421.1,71.4z M459.7,72.7l-1.1,0.2v0.9l1.5,1.9l0.6-0.2l1.5,0.9l2.3-1.7v-0.4l-1.1-0.2l-0.4-0.6
		L459.7,72.7z M447.1,73.3l-1.5,0.4l2.3,2.3h1.1l0.2-0.9H449L447.1,73.3z M451.4,73.3l0.9,0.6l0.9,0.2h0.4l-0.6-0.9H451.4z
		 M463.8,73.3v0.4l0.2,0.2l0.2-0.2L463.8,73.3z M481.5,73.3h0.4H481.5z M442.2,73.9l-1.9,0.2l0.4,0.9l-1.1-0.2l-0.2,0.6l-1.3-0.4
		l0.9,1.3l1.3,0.2l1.9-0.2l0.6-0.2v-0.4l0.4-0.4l-0.9-0.6v-0.2l0.2-0.2L442.2,73.9z M478.7,74.1l-1.3,0.2v0.4l-0.4-0.4V75l0.2,0.6
		l-1.9,0.9l-0.2,0.4l-0.4,0.2v0.4l-0.4,0.2v0.6h-0.9l0.2,0.4l-0.4,0.9l-0.2,0.6l0.4,0.9l-1.5,0.6l1.1,1.5v0.9l0.4,0.9l-0.2,0.6h4.3
		v-0.2l1.3,0.2l0.6,0.9l0.4,1.3l1.3,1.1l2.1,1.3h1.5l1.7-1.3l-0.9-0.4l2.6,0.2v-1.1l0.9-0.9l0.2-0.4l1.7,0.4l1.7-0.2l-0.2-0.9
		l0.9-0.9h0.6l0.9-1.3l0.6-1.7l-0.2-0.9l0.4-1.1l-0.4-0.9l-1.3-0.9l-1.9-0.6l-2.1,0.6l-0.6-0.6l-6-0.6l-1.1-1.1l-2.1-0.4h2.3
		l-1.1-0.9L478.7,74.1z M455,75.9l0.9,1.9v0.6l-0.2,0.2l0.2,0.9l-0.6,0.9V81l-0.6,1.3l-0.4,1.3v0.9l-0.2,0.4V85l3,3.2l1.5,0.9
		l-0.2-0.2l0.4-0.4V87l3,1.7l0.2-0.9l0.9-0.6l-2.6-1.9l1.1-0.6l2.6-0.4l1.1,0.6l0.6-0.6l1.5,1.3l2.6,1.1l0.4-0.2l-0.4-1.9l-0.9-1.5
		l-4.3-3.6l-3-1.5L455,75.9z M516.3,75.9l-3.2,0.6h-0.2l0.2,0.4l-1.3,1.3v1.9l-1.5,1.1l-4.3-1.5l-2.1-0.4l-0.9-0.4l0.6,0.9l-0.9,0.6
		l-4.9,1.5V82l-0.2,0.2l1.5,2.6l0.9,2.1v0.4l-0.2,0.2l0.9,0.4l4.5-0.2l0.2,0.2l-0.4,0.2l0.2,0.2l5.1,0.9l4.5-0.6l2.8-1.5l1.7-1.5
		l-0.2-0.9v-0.6l0.2-0.2l-0.2-0.2l-0.6-0.4l1.9-0.4l-0.2-0.6l0.4-0.2l-0.4-1.5h0.4l-0.4-1.5l-1.1-1.7L516.3,75.9z M470.8,76.1
		l-0.4,0.2l0.2,0.2l0.2-0.2V76.1z M468.5,76.3l-1.5,0.4l1.5,1.3h0.4l0.2-0.2v-0.4v-0.2l1.1-0.6L468.5,76.3z M445.8,76.5l0.2,1.7
		l-0.4,0.9l0.4,0.6l-0.2,0.2v0.6l-3.4,1.5l2.3,2.1l2.1,0.6l1.7,1.3h0.6l1.3,0.6l0.9-0.6l0.4-0.4l-0.2-0.4L452,85l0.2-0.9l0.2-0.4
		l1.1-0.2l-0.4-1.1l1.3-1.7l0.4-0.2l-0.9-1.5l-0.2-0.6l-1.9-0.6h-0.2l-0.2,0.9H451l-0.9-1.1l-1.7-0.9L445.8,76.5z M466.1,85.5
		l-0.4,0.2l0.4,0.4l0.4,0.2l0.2-0.2L466.1,85.5z M476.8,87.8l-1.3,0.2l1.9,0.6l-0.2-0.4L476.8,87.8z M504.1,88.2l0.2,0.2h0.2v-0.2
		H504.1z M466.5,90.8l-1.1,0.6h0.2h1.7L466.5,90.8z M482.8,90.8l0.2,0.4l0.4-0.2l-0.2-0.2H482.8z M472.7,92.1l0.4,1.3l1.5,0.4v-0.2
		l-0.6-1.3L472.7,92.1z M465.1,93.2l-2.6,0.4l2.1,2.1l0.9,1.3l0.2,0.9l0.6,0.2l0.6-0.4l1.5,0.4l1.5-0.6h1.5l-0.6-0.6v-1.1l-0.2-1.1
		l-0.9-0.6l-1.5-0.9H465.1z M458.2,93.6l2.3,1.3l0.2,1.1l0.6,0.9h1.5l-1.3-2.1l-0.2-1.1H458.2z M469.8,98.9l-0.6,0.6l0.4,0.6
		l1.3-0.4l-0.6-0.6L469.8,98.9z M458.6,99.1l0.2,0.4h0.4v-0.2L458.6,99.1z M103.6,377.2l-0.9,6.4l1.5,0.2l-0.6,4.5h-0.2l-1.1,9
		l1.3,0.9h0.4l0.4-0.4v0.4l3.8,3.4l-1.5,1.7l0.9,0.9l-4.3,4.7l-0.6-0.9l-1.5,1.7l-0.9-0.9l-2.8,3l1.9,1.7l-0.2,0.9l-3,1.3l-0.4,0.4
		l-0.4-0.2l-1.7,1.9l-1.7-1.5l-5.6,6.6h-1.1v1.3l-1.7-1.1l-0.2-1.1l-2.3-1.5l-1.1-1.9h-0.4l-0.4,0.6v0.4l-0.4,0.6l1.1,1.7l0.9,0.2
		l-0.4,0.9l-3-2.6l-0.4,0.4l-1.5-2.1l-2.8,3.4l-2.1-1.7l-5.6,6.2l-2.6-2.1l1.5-1.5l-4.3-3.8l1.1-1.3l-1.7-1.5l-1.9,2.3l0.2-1.1
		l-3.2-2.3v-0.6l1.3-1.5l0.9,0.6l4.5-4.9l-9.2-8.5l3.2-3.2L50,393l0.2-1.9l-0.4-0.9l0.4-0.4l-9.6-8.3l0.4-1.5v-1.1l-1.5-1.5l0.6-0.4
		v-0.9l0.6-0.9l0.2-0.6h0.6l-0.2-1.1l0.4-1.3l0.4-0.6l0.9,0.4l0.2,0.2l-0.2,1.1l0.6,0.4l0.9-0.4l2.3,0.2l0.2-0.2l-0.2-0.2l0.4-0.4
		l0.6-0.2l1.7-1.9v-0.9l0.9-0.4l0.2,0.4l1.9,0.6l2.6,4.5L56,377l0.9,1.5v0.6l-0.9,1.1l0.6,3.2l1.3,2.6l2.8,2.1l-0.9,0.6l-0.4,1.3
		l-0.2-1.5l-1.3,0.2l-0.4-0.9l-2.1-0.2l-0.2,0.6l0.2,1.9l0.9-0.4l2.8,0.6l0.9,1.1l0.4-0.2l-0.2-0.9l0.2-1.1h0.4l0.6,1.7l2.8,3.2
		l-0.6,0.9l0.9,1.3L65,399l-0.6-0.2l-0.4,0.4v0.4l1.1,0.9l-0.6,0.9l0.4,0.4l-1.3,1.5l1.7,1.5l-0.6,0.9l2.8,2.3l-1.9,2.1l0.9,0.6
		l-4.7,5.3l2.6,2.3l4.7-5.3l-1.7-1.5l2.1-2.6l2.1,1.9l1.9-1.9v-0.4h0.6l-0.4-1.9l-1.3-1.7l0.6-0.2l0.4,0.4l-0.2-1.1l0.6,1.1l0.4-0.2
		l1.1,1.3v-1.5l-1.3-1.3l0.2-0.9h-0.6l0.9-0.2l0.9,0.4v-0.6l0.9-0.4l0.2,0.9l-0.6,0.4v1.1l1.7,0.4l0.9,0.9v-0.9l-0.9-1.5l0.9,0.4
		v-0.2l-1.5-1.1l0.2-0.2l1.5,0.4l0.4,0.9l-0.2,0.2l1.7,1.1l-0.4,1.5l-0.9,1.5l-0.2,1.7l-1.1,1.5l-1.1-0.4l-0.2-0.9l-0.9,0.2l0.2,1.5
		l0.4-0.6l0.2,0.2v-0.2l0.2,0.6l1.1,0.6l0.4,1.1l-0.4,0.6l0.6,0.6l-0.6-0.2l-1.3,0.4l-0.2,0.6l0.6,0.4l0.9-0.2v-1.1l1.7,0.6l0.2,0.6
		l-1.1,0.4v0.4l-0.4-0.2l-0.2,0.4l0.6,0.2l0.2,0.9h0.4l0.6-1.7v-1.3l0.6-0.2l-0.9-0.9l0.4-1.3l-0.2-0.4l0.6-0.4l-1.1-0.6l0.9-0.2
		l0.6,1.1l1.5,0.4l-1.1-1.3l-0.4-0.4l-0.6,0.2v-0.9l-0.2,0.4l-0.2-0.2l0.4-0.6l-0.2-0.4h0.4v0.4l0.9-0.2l0.6-0.4l-0.2-0.6l0.4,0.2
		l0.4-0.6l-0.9-0.4l0.2-1.1l-0.6,0.2l0.2-0.9l-0.4-2.3l0.4,0.2l0.6-0.4l0.4-1.3l0.4-0.2l0.2-0.6l-1.1-0.6l-0.6,0.4v0.9l-0.4-0.2
		l-0.2,0.6l-0.2-0.4l0.4-1.3l0.6-1.1l0.2-1.1l0.4-0.9l0.4-1.3l-0.2-1.9l0.6-1.9l-0.2-0.9l0.4-3.2l-0.2-2.1l1.3-2.3l1.3-1.5l2.1-1.7
		l1.7-0.6l4.3,0.6l1.7-0.6l3.4-0.2L103.6,377.2 M65.4,397.5v-0.2V397.5 M67.1,400.9v-0.6V400.9 M72.2,404.1H72v0.2h-0.2l-0.2,0.2
		L72.2,404.1 M72.9,403.3h-0.2l0.2-0.2V403.3 M72.9,403.7v-0.2h0.2L72.9,403.7 M72.7,403.3l-0.2,0.2L72.7,403.3 M72.2,403.7l0.4-0.4
		h0.2l-0.4,0.6L72.2,403.7 M66.9,399.6v-0.2V399.6 M66.9,399.8v-0.2V399.8 M66.7,399.4h-0.2v-0.2v0.2H66.7 M65.6,398.3v-0.2
		l-0.2-0.2l0.2,0.2V398.3 M65.4,397.9v-0.2V397.9 M65.8,398.8H66l-0.4-0.4l0.4,0.4H65.8 M73.1,404.1v-0.2v-0.2v0.2V404.1
		 M72.2,403.9v0.2V403.9 M71,404.7v0.4l-0.6-0.2h0.2L71,404.7 M67.5,402.2l-0.2-0.4v-0.2l-0.2-0.4L67.5,402.2 M71.2,404.7H71H71.2
		 M67.7,402.6l-0.2-0.4L67.7,402.6 M68.4,404.1l-0.2,0.2l-0.2-0.4l-0.2-0.4L68.4,404.1 M67.7,403.3v-0.6v0.4V403.3 M69.5,404.7h-0.2
		H69.5 M68.8,404.5l-0.4-0.2L68.8,404.5 M70.1,405.4v0.4l-0.2-0.4H70.1 M65.2,396H65H65.2 M65.4,397.3v-0.2V397.3 M65.2,396.6v-0.2
		v-0.2V396.6 M65.4,396.8h-0.2v-0.2L65.4,396.8 M65.2,396.2V396V396.2 M65.4,397.1v-0.2V397.1 M42.8,364.2l-0.9-0.4l-0.9-1.1
		l0.2-0.4l0.4-0.4h0.9l0.2,1.5l1.9,1.5L42.8,364.2 M50.9,368l-0.2-0.2h0.9l-0.4,0.2H50.9 M39.8,366.1h-0.6l-0.2-0.6l-0.2,0.4
		l-0.4-0.6l-0.4,0.2v0.4l-2.1-0.2l0.6-1.5l-0.2-0.6l0.4-0.2l-0.9-0.9l-0.2-1.3l0.6-1.1l1.1-0.6l1.1,0.4h-0.2l0.2,0.4l0.6-0.4
		l0.9,0.6L40,362l-0.2,0.2l-0.2,0.9l-0.4-0.2l-0.6,1.5L40,365l0.2,0.6L39.8,366.1 M65,395.6h-0.2H65 M64.8,395.6v-0.2V395.6 M65,396
		v-0.2v-0.2v0.2V396 M64.8,395.4v-0.2l-0.2-0.2L64.8,395.4 M34.9,364.6h0.9V364v0.6l-0.6,0.4h-0.4L34.9,364.6"/>
	<path id="shenkurskij_rajon" inkscape:connector-curvature="0" class="st0" d="M50.2,470.7l2.6,0.6l0.6,0.9l1.3,0.6l0.9-0.4
		l1.1-0.6l0.2-0.6l4.3-1.7H62l0.2-0.4l1.1-0.4H65l1.1,1.1l0.6-0.6l-0.2,1.3l2.1,1.7l0.2,0.9l1.7,0.6l1.7,2.1l1.1,0.2l-0.2,0.2
		l0.4,0.4l-0.9,1.1l-0.4-0.2l-0.2,0.2l-0.6-0.2l-0.2,0.4l-0.4-0.4l-0.2,0.4H71l0.2,0.2h-0.6l-0.4,0.6l0.9,1.7l1.5,0.4l2.1,1.9
		l-0.4,0.4l0.6,0.6l-0.4,1.5l0.4,1.9l1.5,0.9l-1.1,2.1l-0.6,0.4l0.9,4.3l-0.4,0.2l0.2,1.1l0.6,0.6v5.8l-1.7,1.1h-1.3l-2.1-0.9
		l-1.5,0.9l-4.7-0.4l-1.5,0.4l0.2-0.4l-6.2-4.7l-1.5,1.9l-1.3-1.1l-0.4,0.2v0.9l-0.4,0.2l-0.2-0.2l0.4-0.4l-0.9-1.1l-0.2-0.2
		l-0.4,0.6l-0.4-0.2l-1.1-1.3l-1.9-1.1l0.4-0.4l-3-2.3l0.6-0.9l-1.3-0.9l2.8-3.6l-3-2.1v-0.4l1.9-1.7l-0.9-1.7l0.4-1.5l-0.6-1.5
		l0.4-0.2l1.1-1.5l0.4-0.2l0.4,0.6l1.1-1.3l-0.4-1.5l0.6-1.3l0.4-0.4v-1.5l0.4-0.9L50.2,470.7"/>
	<path id="ust_x27_janskij_x5F_rajon" inkscape:connector-curvature="0" class="st0" d="M43.4,520.1l0.4-0.4l0.6,0.2v1.5l0.6-0.2
		l-0.2-0.6l1.5,0.6l0.2-1.1l0.4-0.4v-0.9l0.6,0.9l0.6-0.6l0.9-0.6l-0.2-0.6l0.6-2.3l-0.6-1.7l0.2-0.9h-0.4v-0.9l0.2-0.4l0.9,0.4
		l0.2-0.4v-0.6l0.4-0.4l0.6,1.1l1.1-0.9v-0.4l0.2-0.2l2.3-1.1l0.2-0.6l0.2-0.2l-0.2-2.1l3,2.6l1.5-1.9l0.9,0.6l0.6-0.9l0.9,0.9
		l3-3.6l1.7,1.5l1.3-1.7l1.5,0.2l1.5-0.6l2.8,0.6l3.2,2.8l-2.6,3.2l4.3,3.6l0.4-0.6l1.1,3l0.4-0.4l1.3,1.3l0.6-0.9l1.3,0.9l-1.1,1.3
		l1.7,1.5l-0.9,1.1l-0.4-0.4l-3,3.6l1.7,1.5l-1.7,2.3l0.9,0.9l-2.6,3.2l0.4,0.2l-0.9,0.9l-0.4-0.2l-4.1,5.3l-12-9.8l1.7-2.3
		l-5.1-2.3l-1.9,2.3v0.2l-0.6,0.2l0.2,0.9h-0.6l-0.4-0.6l-0.6,0.4l-1.7-0.6l-1.7,2.3l-3-3.4l-0.9-0.2l0.2-0.4l-1.1,0.2l-0.9,1.1
		l-1.3-0.4l0.4-1.3l-0.6-0.6l0.6-0.6L43.4,520.1"/>
	<path id="vel_x27_skij_x5F_rajon" inkscape:connector-curvature="0" class="st0" d="M32.9,488.7l1.7,0.9l-0.2,0.6l2.1,1.1L37,491
		l2.3-3.4l1.3,0.9l2.8-4.1h0.4l0.9-1.1l2.3,1.5l-1.7,1.3v0.4l3,2.1l-2.8,3.6l1.3,0.9l-0.6,0.9l3,2.3l-0.4,0.4l1.9,1.1l1.1,1.3
		l0.4,0.2l0.4-0.6l0.2,0.2l0.9,1.1l-0.4,0.4l0.2,0.2l0.4-0.2v-0.9l0.4-0.2l1.3,1.1l1.5-1.9l6.2,4.7l-0.2,0.4l1.5-0.4l3.2,0.2
		l-1.3,1.7l-1.7-1.5l-3,3.6l-0.9-0.9l-0.6,0.9l-0.9-0.6l-1.5,1.9l-3-2.6l0.2,2.1l-0.2,0.2l-0.2,0.6l-2.3,1.1l-0.2,0.2v0.4l-1.1,0.9
		l-0.6-1.1l-0.4,0.4v0.6l-0.2,0.4l-0.9-0.4l-0.2,0.4v0.9h0.4l-0.2,0.9l0.6,1.7l-0.6,2.3l0.2,0.6l-0.9,0.6l-0.6,0.6l-0.6-0.9v0.9
		l-0.4,0.4l-0.2,1.1l-1.5-0.6l0.2,0.6l-0.6,0.2v-1.5l-0.6-0.2l-0.6,1.1l-1.1-2.1l-0.9,0.2l-0.2,0.6l-0.6-0.2l-1.1,0.6l-0.2,0.6
		l0.2-0.6l0.2,0.2l-0.2,0.6l-0.6-0.2l0.2-0.4l0.4-0.2l-2.3-0.4l-2.1-1.9v-0.6l0.2-0.2l-0.4-0.2l0.6-0.9l-2.3-1.5l0.4-0.6l0.2,0.2
		l0.6-1.3l-0.9,0.2l-0.4-1.1h-0.6l0.2,0.2h-0.4l0.2,0.4l-1.5-0.2v0.2l-0.9-0.9l0.2-0.6l-0.6-0.6l-2.1-0.4v-0.9l-1.1-0.4l1.7-1.9V506
		l0.2,0.2l0.4-0.9l-0.2-2.6l-0.4-0.2l-0.2,0.6l-1.3-1.1l0.9-1.5l0.6,0.2l0.6-0.6l-1.7-1.3l1.5-1.7l0.4,0.4l0.6-1.1v-0.9l0.6-0.2
		l-0.2-0.4l0.6-1.3l-0.2-0.9l0.9-1.3l0.6-0.6l0.2-0.6l0.9-1.3V488.7"/>
	<path id="verkhnetoemskij_rajon" inkscape:connector-curvature="0" class="st0" d="M74.6,490.6l0.6-0.4l1.1-2.1l2.1-0.6l0.4,0.6
		l2.3-0.4l0.6,1.3l-0.2,0.9l0.2,0.4l0.6-0.9l2.1,0.4l1.1-0.4l0.6-0.9l2.6,1.7l0.9-1.7l-2.6-1.9l1.9-2.1l0.4,0.2l1.3-1.7l1.7,1.5
		l0.4-0.4l0.6,0.9l0.2,1.3l2.3,1.1l3.2-0.2l1.3-0.9l2.1,1.3l1.3-1.1l-0.2-0.4l0.6-0.2l1.1-1.9l0.9-2.3l8.3-0.4l1.5,0.9l2.6,3.6
		l1.7,0.2l-0.2,0.4l4.7,2.6l0.6-0.6l5.8,3.6l0.4-0.6l0.9,2.8l1.9,1.5l-0.6,0.6l-0.2-0.2l-1.1,1.7l-2.6,1.5l0.4,0.2l-6.6,1.1l-0.6,6
		l-4.5,7.9l-2.6,3.8l-10.5-6.4l-4.9,7.7l-8.5-5.1l-0.2,0.4l-1.1-1.1l0.4-0.4l-0.4-0.2l-0.4,0.4l-1.5-1.3l-0.2-0.9l0.6-0.6l-0.4-0.4
		l-1.3-0.2l-0.2,0.9h-0.2l-0.4,0.9l-0.4,0.2l-0.2,0.4l-0.4,0.4l-2.1-1.7l-3.8,4.7l-1.1-3l-0.4,0.6l-4.3-3.6l2.6-3.2l-3.2-2.8h0.6
		l1.7-1.1v-5.8l-0.6-0.6l-0.2-1.1l0.4-0.2L74.6,490.6"/>
	<path id="vilegodskij_rajon" inkscape:connector-curvature="0" class="st0" d="M101.1,543.5l1.3,0.4l0.6-0.4h0.6v0.4h1.1l-0.2,0.4
		l1.1-0.2l0.9,0.6v-0.4l0.4-0.4l-0.6-1.7l0.6-0.6h1.3V541h0.6v-0.4l1.3,0.4l1.1-1.1h0.6l4.1,0.4h0.2l-0.6,0.9l7.5,6.2l0.2-0.4
		l7.7,6.6l-4.3,5.6l-2.1-1.9l-3,0.6v-1.1h-7l-3.4,4.5L106,557l1.5-2.8v-0.6H107v-0.6l-0.9-0.2l-0.2-0.6l-1.5-1.1v-0.6l-0.4-0.6v-0.4
		l0.6-0.2l-0.9-0.6l0.6-0.4l1.9,0.4l-0.2-0.4l0.2-0.4v-0.2l-3-2.3l-1.7-0.4L101.1,543.5"/>
	<path id="vinogradovskij_rajon" inkscape:connector-curvature="0" class="st0" d="M63,464.1l0.9-0.9l1.3-0.2V462l1.7-2.1l1.3,0.9
		l1.3-1.7l0.6,0.2l0.9-0.9l0.2-1.1l-0.2-0.2l0.4-0.6l0.4,0.2l0.4-1.3l0.4-0.2l4.7,3.2l0.6-0.6l-0.9-0.9l1.5-1.5l1.1,1.1l0.6-0.6
		l2.1,1.1l2.1-2.6l0.4,0.4l1.1-1.5l0.2,0.2V453l6.6,4.9l-1.1,1.7l-1.1-0.2l-1.3,1.5v1.1l-0.2,0.9l0.9,0.4l-0.9,2.3l-0.4-0.2l1.1,1.5
		l2.3,1.9l2.3,1.1l0.6,1.3l6,2.6l-0.6,0.6l5.3,4.1l-0.9,0.9l1.3,1.1l0.2,1.1h-0.2l-0.9,2.3l-1.1,1.9l-0.6,0.2v0.6l-1.1,0.9l-2.1-1.3
		l-1.3,0.9l-3.2,0.2l-2.3-1.1l-0.2-1.3l-0.6-0.9l-0.4,0.4l-1.7-1.5l-1.3,1.7l-0.4-0.2l-1.9,2.1l2.6,1.9l-0.9,1.7l-2.6-1.7l-0.6,0.9
		l-1.1,0.4l-2.1-0.4l-0.6,0.9l-0.2-0.4l0.2-0.9l-0.9-1.3l-2.1,0.4l-0.4-0.6l-2.8,0.4l-0.9-0.6l-0.2-1.1l-0.2-0.9l0.4-1.5l-0.6-0.6
		l0.4-0.4l-2.1-1.9l-1.5-0.4l-0.9-1.7l0.4-0.6h0.6l-0.6-0.2l0.2-0.4l0.4,0.4l0.2-0.4l0.6,0.2l0.2-0.2l0.4,0.2l0.9-1.1l-0.4-0.4
		l0.2-0.2l-1.1-0.2l-1.7-2.1l-1.7-0.6l-0.2-0.9l-2.1-1.7l0.2-1.3l-0.6,0.6l-1.1-1.1l-2.1-0.9l-0.4-1.3l0.2-1.7L63,464.1"/>
</g>
</svg>
