<?xml version="1.0" encoding="utf-8"?>
<!-- Generator: Adobe Illustrator 27.6.1, SVG Export Plug-In . SVG Version: 6.00 Build 0)  -->
<svg version="1.1"
	 id="svg2" xmlns:dc="http://purl.org/dc/elements/1.1/" xmlns:cc="http://creativecommons.org/ns#" xmlns:rdf="http://www.w3.org/1999/02/22-rdf-syntax-ns#" xmlns:svg="http://www.w3.org/2000/svg" xmlns:sodipodi="http://sodipodi.sourceforge.net/DTD/sodipodi-0.dtd" xmlns:inkscape="http://www.inkscape.org/namespaces/inkscape"
	 xmlns="http://www.w3.org/2000/svg" xmlns:xlink="http://www.w3.org/1999/xlink" x="0px" y="0px" viewBox="0 0 353.3 282.8"
	 style="enable-background:new 0 0 353.3 282.8;" xml:space="preserve">
<style type="text/css">
	.st0{fill:#9591FD;stroke:#FFFFFF;stroke-width:1.25;stroke-linejoin:round;stroke-miterlimit:2;}
</style>
<g id="altajskij_kraj" transform="matrix(0.5,0,0,0.5,48.685701,-0.124977)">
	<path id="alejsk" inkscape:connector-curvature="0" class="st0" d="M254.4,294.5l5-3l-3-2l2-3l-1-1h5l2-3l-1-3l2,3l1,3l-1,2l1,1
		l-4,2v3l-1-2v3H254.4"/>
	<path id="alejskij_rajon" inkscape:connector-curvature="0" class="st0" d="M254.4,294.5h7v-3l1,2v-3l4-2l-1-1l1-2l-1-3l-2-3l1,3
		l-2,3h-5l1,1l-2,3l3,2L254.4,294.5 M201.4,261.5l33-20l4,7l3-2l6,11l4-2l5,3l2-7h9l1-1l1-5l5,6l-1,4l2,3l-1,7l1,1l-1,8l6,1l9,23
		l9,16l-8,16l-3-1l-4,8l-6-2l-1,2l-3-3l-3,3l-1-2l-2,1l-2-3l1-3l-2-2v-4l-2-3l-11-2l-9,4l-9-12l-12-23l-4-4l-2,2l-4-2l-4-5l4-3
		l-3-10l-5,3L201.4,261.5"/>
	<path id="altajskij_x5F_rajon_x5F__x28_altajskij_x5F_kraj_x29_" inkscape:connector-curvature="0" class="st0" d="M398.4,409.5
		l3-2v-5l3-2l3,1l1,4l8-1l-2-4h3l6-5l4-1l2-2l-2-2l-1-4l4-8l-3-3l1-4l-1-5l2,1l2-4h9l11-3v2l4,1l11,1l-1,3h5v8l3,4l-2,1l1,1h4l10-7
		l3,1l3,6h5l-7,7v6l3,5l-10,3l-2,3l4,4l-3,2v3l-6,8l-4-4l-4,7l-9-1l1,3l-1,1v6l-3,3l-1,5h-11l-1,3h-3l-2,4l-4,2h-2l-4-7l-4,2l-6-1
		l-5,3l-1-5l-6-3l4-5l-4-1l-1-5l-4-5l-1-4l1-3L398.4,409.5"/>
	<path id="baevskij_rajon" inkscape:connector-curvature="0" class="st0" d="M77.4,120.5l13-2l4,6l4-3l-3-5l2-2l7-2l8,5l1-4l23,14v2
		l-6,2l2,1l-2,3l5,1l3-3l1,3l1-1l8,9l-4,3l3,2l-2,3h4l-3,2v3h-3l-1,6l4,4l4,6v3l4,1l3,6l-3,1l1,3l-3-1l-6,4l-5,1l-2-1l1-2l-2-3l-6-3
		v3h-12l-1,2l1-3l-2-7l-8,1l-1-1l-5,5h-4l-6-2l-2-4l-3,1l-3-13l-2-3v-4l-2,1l-5-5l2-11l-2-4l4-1l-1-4l-5,1l1-3h2L77.4,120.5"/>
	<path id="barnaul" inkscape:connector-curvature="0" class="st0" d="M322.1,171.5l7-6l-3-1l2-2v-3l4,2l1-3h2v-1l2-2l6,4h7l-4,5l1,2
		l6-2l3,3l-1,3l7,2l-2,5l2,3l-2,4l2,3h-4l3,3v4l-1,2l-3-1l1,4l-2,1l2,3l-6,2l2,8l-1,1l-3-1l-3-4h-6l-2-3v2l-3-1l1-1v-1l-1,2l-3-2
		l3-2l-2-1l1-1l-4-5l4-2l-2-6l-4,1v-2h-3l1-2l1-5l-2-3v2l-4-1l6-2v-4l-5,1L322.1,171.5"/>
	<path id="belokurikha" inkscape:connector-curvature="0" class="st0" d="M415.9,384l1-7l4-2l-1-2l8-1v4l3,3l-4,8l1,4l-3,3l-2-1l3-5
		l-2-3l1-2h1l-1-2h-5l-2,4L415.9,384"/>
	<path id="bijsk" inkscape:connector-curvature="0" class="st0" d="M420.4,314.5l4-2v-6l3-3l13,2l1-6l3,2l4-5l3,5l6-1l3,3l3,1l-15,5
		l-1,6l-7-3l-4,6l-15-1L420.4,314.5"/>
	<path id="bijskij_rajon" inkscape:connector-curvature="0" class="st0" d="M440.4,298.5h5l2-3l-1-3l2-1l-1-5l3-3l-1-3l2-1l1,3l6-5
		l3,4l3-3l1,2l-2,2v3l8-1v-4l2-1l2,2l13-6l3-3l2-4h3v-2l8,3l11-2l4,4l-2,1l7,3l-9,7l4,2l-1,4h1l1,4l-2,2v3l-4,4l-6,2v2l-2,3h2l-1,9
		l4,2l-3,8l-2-1l-1,3l-11,4h-2l-1-4h-3l-3-3l-15-2l-9-9l-3,1l-1-2l-7,3v4l-5-3l-4,2v-3l2-4l4,2l1-6l15-5l-3-1l-3-3l-6,1l-3-5l-4,5
		L440.4,298.5"/>
	<path id="blagoveshhenskij_x5F_rajon_x5F__x28_altajskij_x5F_kraj_x29_" inkscape:connector-curvature="0" class="st0" d="
		M8.4,179.5l4-9l9-10h4l9,7l-1-4l-5-3h2l4,4l1,3l9,5l4-11l8,2l9-3v4l-1,1l-1,5h5v1l16-3l1-5l4,14l3-1l2,4l10,2l-10,4l3,5l2,9l3,2
		l1,6l-4,2l1,3l-2,3l-7,1l-3-6h-4l-1-3h-3l1,5l-4,3v5h-2l-1,7l-8,2l-1-7l-4,1h-3l-2,10h-3l-1,2l-11-2l-1-6l-2,5l-4,2h-4l-11,3l-1-8
		l-5-1l-3-7l-4-2l-1-5l3-1l1-4h-1l1-9l7-2l-7-10L8.4,179.5"/>
	<path id="burlinskij_rajon" inkscape:connector-curvature="0" class="st0" d="M-94.6,106.5l4,3l3-4l-3-5l1-4l11,2l1-4l-10-6l-1-4
		l1-5l15,2v-2l4,1l1-5l3,1l3,1l-2,9l1,6l-2,1l2,2l7,3v-1h5v-3l6,1l1-2h1v2l4,3v-2l5,1l2-10l-1-8l6-1l1,3l4-1l1,1l1,4l-2,3l5,1l-3,7
		l-3-1l-1,2v5l10,2l3-2l3,6l-2,1l1,6l3-1l1,3l-5,1l-2-5l-6,3v1l-2,1l1,2l-4,2l-1-2l-10,4l1,2h-4v2l-6,2l3,10l-2,1l-1-3l-9,4v-2l-2-1
		v4l-2-6l-7-1l-3,14h4l2,5l-4,1v7l-7,2l-2-3l-7,2l-5-13l-10-34V106.5"/>
	<path id="bystroistokskij_rajon" inkscape:connector-curvature="0" class="st0" d="M360.4,307.5l17-9l20-8l4,11l9-3l1,5l6-2l2,3
		l-1,11l-6,1h7l1,2l-1,2l1,3l-5,1v3l-5,3h-5l2,4l4,6l4,12l-10,7l-19,3l-4-5l2-4l-4,1l-1-18l-8,1l-1-3l-4-5l-1-5l7-6l-1-4l-6,2l-1-3
		l-2,1L360.4,307.5"/>
	<path id="celinnyj_x5F_rajon_x5F__x28_altajskij_x5F_kraj_x29_" inkscape:connector-curvature="0" class="st0" d="M453.4,247.5l8-8
		l13,2l2-4l2-1l3-10l-10-4l6-13l7,5l-2,3l2,1l3-1v-6l6-4l12,1l2,2v2l3,6l-3,3l1,1l-2,1l2,2h10v-2l2-1l7-1l3,4h2l2,3l2-1l2,3l-1,2
		l8-1v10l2,3v5l-2,8l-21,10l-2,7l-5-2l2-1l-4-4l-11,2l-8-3v2h-3l-2,4l-3,3l-13,6l-2-2l-2,1v4l-8,1v-3l2-2l-1-2l-3,3l-3-4l3-8l3-2h-2
		l2-4l-6-4l2-9L453.4,247.5"/>
	<path id="charyshskij_rajon" inkscape:connector-curvature="0" class="st0" d="M248.4,480.5h11l7,3v-4l7-6l-2-2v-6l4,3l3-7l5-6
		l-5-3l1-13h2l1-7l4,4l-1-6l-6-9l7-4l5-17l5-11h3l3,5l9-6h4l4,2l3,3l-1,2l8,11l-4,2l2,1v1l1,3l3-3l2,5l3-2l2,2l2,3l-2,3l3,3v6l6,6
		l5,13l3-1l-1,4h-3v2v2l1-1l3,2l-1,6l2,2v6l-2,3l-4,1v3l-2,5l-2,1l-2,11l-3,4l-2-6l2-4l-11-2l-1,1l1,4l-2,5l8,3l-2,2l3,2l3-1l1,4
		l7,5l7-2l3,4l11,6l-5,5v6l8,3l3,4l-2,1l-1,5l-4,1l-1,6l-3,5h-4l-2-4l-13,4h-9l-5,3l-2-6l-7-10l4-6l-7-7l-3-7l-10-3l-3-9l-9-2l-3,2
		l-1-2v-3l-3-1v-4l-20-1l-10-8l-3,2l-7-12L248.4,480.5"/>
	<path id="egor_x27_evskij_x5F_rajon_x5F__x28_altajskij_x5F_kraj_x29_" inkscape:connector-curvature="0" class="st0" d="
		M67.4,389.5l15-18l-6-6l2-4l-5-3l6-1l25-33l5,1l7-3l19,18l-4,4l4,3l-6,8l4,4l-2,2l1,1l-3,4l2,2l-1,2l3,3l-1,1l-3-3l-2,2l1,2l-5,6
		l-2,2l-2-1l-2,3l-2-2l-6,8l-2,1l1,2l-4,3l1,1l-2,2l3,3l-3,7l-4-3l-4,6l3,3l-2,2l2,2l-2,4l2,1l-4,4l-5-7v-3l-2-2l4-7l-5-3l-3,2l-3-3
		l2-3L67.4,389.5"/>
	<path id="el_x27_covskij_x5F_rajon" inkscape:connector-curvature="0" class="st0" d="M505.4,208.5l15-6h12l1,4l3-1l2-3l-2-2l1-8
		l6,1l9-9v-2l5,4l-1,1l2,2l-1,2l1,6h4l8-2l1-16l8,3l8,7l2-3l8-3l-1,4l-5,2v5l3,1l-4,5l2,2l-4,3v3l-2-1l-1,4l-5,4l1,1l-1,2l-1-2l-4,2
		l-2-3l-2,1v10l5-2v6l5,3l5-2v4l-3,5l-16,8h-9l-3-2l-8,3v-5l-2-3v-10l-8,1l1-2l-2-3l-2,1l-2-3h-2l-3-4l-7,1l-2,1v2h-10l-2-2l2-1
		l-1-1l3-3L505.4,208.5"/>
	<path id="jarovoe" inkscape:connector-curvature="0" class="st0" d="M-59.6,177.5l9-5l-1,2l5,1l1,2l-3,1l1,2h-1l-6-1l-2,6
		L-59.6,177.5"/>
	<path id="kalmanskij_rajon" inkscape:connector-curvature="0" class="st0" d="M287.4,211.5l8-5l1,1l9-6h4l-1-1l5-3l-1-1h6l14-8l2,6
		l-4,2l4,5l-1,1l2,1l-3,2l3,2l1-2l-1,2l3,1v-2l2,3h6l3,4l-2,1v3l-2,8l2,5l3,3v7l-6,1l4,2l-1,7l-4,1l3,1v4l-6-1l-8-6l-1,3l-4-2v1
		l-4,1l-5-3l-5,4l-3-3l-2,1l-6-7l2-3l5-3l-7-4v-4l-3-1l-4-6l-2-5l-1-2l-4,3L287.4,211.5"/>
	<path id="kamen_x27_-na-obi" inkscape:connector-curvature="0" class="st0" d="M170.4,92.5l2-1l-1-5l6,1l-1,1l3,6l-2,2l2,6l-2,1
		l-1-6L170.4,92.5"/>
	<path id="kamenskij_x5F_rajon_x5F__x28_altajskij_x5F_kraj_x29_" inkscape:connector-curvature="0" class="st0" d="M170.4,92.5l6,5
		l1,6l2-1l-2-6l2-2l-3-6l1-1l-6-1l1,5L170.4,92.5 M111.4,106.5l4-5l12-6l3,2l5-4l1-4l1-1h7v4l3,2l4-3l4,3l2-2l-1-4l3-1v2l6-3l2,3
		l3-2v-1l2-1v-2l2,3l3-1v-3l-1,1l-1-2l2-1l-3-7l3-13l4-4l3,1v-2l9-1l1,9l6-1l-1,2l-5,14h2l9-9l2,1l4,5l6-2l1,6l-2,1v7l-10,2l2,4
		l-3,5l6,8h-2l2,6l3-3h8l7,6v3l-13,2l-2-5l-8,3l-4,6l3,8l-11,4l2,7h2l2,5l-9,4l-3-6l-5,2l-6-15l-7,7l-22,6l-1-5l-7-6l-1,1l-1-3l-3,3
		l-5-1l2-3l-2-1l6-2v-2l-24-15L111.4,106.5"/>
	<path id="khabarskij_rajon" inkscape:connector-curvature="0" class="st0" d="M-24.6,98.5l2-3l3,1l3-7l-5-1l2-3l-2-5l15-2l6,5l5-6
		l2,4l11,1l3-4l7,1l2,5l18-6l1-4l-1-3l11-4l1,3l3-1l1,4l-2,4l3-1l-1,3l3-1l1,3l-1,5h5l7,9l-3,11l3,1l-2,9l-2,5l-1,6l-15-3l-2,8l-4-2
		v7l-6-1l-1,5l-5,1l-9-2v-6h-1l1-5l-5-1l1-5l-6-1l-2-6l1-2l-5-1l-4-11l-3,2l1,3l-5,1v2l-12,6l-2-4v-3l2-1l-3-6l-3,2l-10-2
		L-24.6,98.5"/>
	<path id="kljuchevskij_rajon" inkscape:connector-curvature="0" class="st0" d="M-52.6,255.5l11-4l-1,4l8,2l1-5l12,2v-2l3,1l2-5
		l12,1l19-9l2,5l5-3l2,5l-1,1h2l-1,4l2,4l8,2l-2,12l-3-1l-2,10l12,2l-2,3l2,5v9h-1l-2,3l-8-4l1-1l-2-2l-6-2l-10,4l1,7l-7,2l-2-3
		l-2,2l-1,9l1,3h-12v-2l-2-1l-4-4l-14,7l1,3l4,2l-4,2L-52.6,255.5"/>
	<path id="kosikhinskij_rajon" inkscape:connector-curvature="0" class="st0" d="M383.4,214.5l1-10l7-4h-3v-3l-2,1l1-9l3,2l3-10h2
		l-1-2l3-4l6-3v-2l3-1l1-2l2,1l2-6l7-2l5-4l8,6l-1,2l1,3h2l1,3h5l-1,1l2,2l-1,1l1,3l9,1l2,3h3l3,4h-6l-1,2l1,2l-3,1l-2,3l7,1l-4,2v2
		l2,6h-2l-7,5h-2l1-2l-9,4l-2,4l-6,4l-2-7l-6,3l-13-3l-5,2l-1,3l-14-1V214.5"/>
	<path id="krasnogorskij_x5F_rajon_x5F__x28_altajskij_x5F_kraj_x29_" inkscape:connector-curvature="0" class="st0" d="
		M493.4,333.5l12-4l1-3l2,1l3-8l-4-2l1-9h-2l2-3v-2h2l1-3h5l7,2l3,12l5,4l5-2l3-6l-1-6l11-3v3l7,4l2,8l3,1l3,3l-2,1l2,5v4l-4,1l-1,3
		h2l1,9h2l-1,7l7,1l-1,6l-4,6l6,2l-1,4l-4-2l-2,5l-3-1l-3,5l-15-5l-2,2l1,6l-3,1l-2,4l-13-2l-1,4h-1l-4-4l-2-5l1-2l-10-1l-8-6l1-3
		h-1l-1-6l-4-9l-1-5l2-4L493.4,333.5"/>
	<path id="krasnoshhekovskij_rajon" inkscape:connector-curvature="0" class="st0" d="M220.4,412.5l5-4l-3-6l8-7l-7-4l4-5v-4l4-3h19
		l1-9l14,3l1,1l2-2l9,6l2-5l3-1l6-3l3,1l-1,3l3,1l-5,5l-1,8l4,5l1-3h4l-5,11l-5,17l-7,4l6,9l1,6l-4-4l-1,7h-2l-1,13l5,3l-5,6l-3,7
		l-4-3v6l2,2l-7,6v4l-7-3h-11l3-11l5-3l-2-6l1-3l-4-1l-4-9l-8,3l-5-1l1-7l-5-1l-2-4l1-3l-3-1l-1,2l-2-2l3-6l-4-4l6-6L220.4,412.5"/>
	<path id="krutikhinskij_rajon" inkscape:connector-curvature="0" class="st0" d="M120.4,39.5l6-2l-2-7l7-3l1,3l6-5l8-4l1,4l3-1
		l-1-15l11-3v10l2,8l4,9l2,12l5,1l2,4l3,1l3-1l3,5v2l-3-1l-4,4l-3,13l3,7l-2,1l2,3l-2,2l-3-3v2l-2,1v1l-3,2l-2-3l-6,3v-2l-3,1l1,4
		l-2,2l-4-3l-4,3l-3-2v-4l-8,1l1-6l-1-6l-4-12l2-1v-1l-3-9l-2,2h-4L120.4,39.5"/>
	<path id="kulundinskij_rajon" inkscape:connector-curvature="0" class="st0" d="M-63.6,217.5l7-3l1,5l9-4l-1-2l3-1l5,3v-1l9-3l-1-4
		l7-2l-1-4l4-1v3l6-2l3,8l7-2l1,4l7-1l1,6l2-1l1,5l4,2l1,5l4,1l1,2h2l1,2h-1l3,10l-5,3l-2-5l-19,9l-12-1l-2,5l-3-1v2l-12-2l-1,5
		l-8-2l1-4l-11,4L-63.6,217.5"/>
	<path id="kur_x27_inskij_x5F_rajon" inkscape:connector-curvature="0" class="st0" d="M172.4,399.5l10-9l-1-1l2-2l4,2l5-3l2-9l3,2
		l2-4l19,6l-1,3h2l5,6v2l6,3l-8,7l3,6l-5,4l8,5l-6,6l4,4l-3,6l2,2l1-2l3,1l-1,3l2,4l5,1l-1,7l5,1l4-2h5l3,8l4,1l-1,3l2,6l-5,3l-3,10
		l-10-4l2-3h2l5-10l-1-3l-7,3l-1,4h-3v1l-1,1l2,1l-4,3v3l-5-10l-9,4v-5l-3-2l-7-14l-3-1l-4-9l-5-3l-1-7h-10l-2,3l-3-2v-5l-2-2l3-7
		l-1-1l-2,3l-6-2l4-9L172.4,399.5"/>
	<path id="kytmanovskij_rajon" inkscape:connector-curvature="0" class="st0" d="M438.4,169.5l11-5l9-7l5-1l2-6l2,1l12-7v2l4,1l3-4
		h5l1-5l6-4l1-3l2,2l-2,1l5-1l3,2l-1,2h6l4,5h-1v2l2,1l-2,5l-5,2l1,5l-3,2l3,9l-4,5v3l-13,21l3,4l-4,6l-6,4v6h-5l2-3l-7-5l-1,3l-5-4
		l-6,3l-14,3l-7-3l-1-3l6-4h2l-2-6v-2l4-2h-6l1-4l3-1l-1-2l1-2h6l-3-4h-3l-2-3l-9-1l-1-3l1-1L438.4,169.5"/>
	<path id="loktevskij_rajon" inkscape:connector-curvature="0" class="st0" d="M96.4,482.5l5-14l4-4l4-8v-5l-2-4l1-3l-2-2l3-8l1,2
		l2-4l9,8l1-2l7,5l2-4l11,7l1-2l26,18l-7,15l-4,14l3,2l-2,2l-1,6l-4-2l-1,5h-1l-1,4l-6,9h-15l-7-3l1-6l3-2l-4-7l1-3l1-5l-2-1l1-6
		l-10-2l-7,3L96.4,482.5"/>
	<path id="mamontovskij_rajon" inkscape:connector-curvature="0" class="st0" d="M144.4,281.5l10-7l-4-4l15-11l-2-3l5-4l-2-3l1-2
		l4-3l-7-12l-4-1l2-2l-1-2l4-4l-1-2l6-9l-2-3l-3,2l-3-5l2-1l-1-1l1-2l3,1l-2-3l1,1l3-1l-1,2l6-7v2l-3,3l2-2l3,4l7-6h7l3,8l8-1l9,17
		l-5,4l-1,3l1,1l-1,1l6,8l-3,1v2l4,2l-2,4l5,6l-15,9l-5,5l-4,1l-6,7l-9,3l-1,3l-5,2l1,2l-16,10l-5-7l-1-5L144.4,281.5"/>
	<path id="mikhajlovskij_x5F_rajon_x5F__x28_altajskij_x5F_kraj_x29_" inkscape:connector-curvature="0" class="st0" d="
		M-31.6,316.5l14-7l4,4l2,1v2h12l-1-3l1-9l2-2l2,3l7-2l-1-7l10-4l6,2l2,2l-1,1l8,4l-1,2l-2,17l3,10h-3v2l3,11h-4l2,7l-5,3l6,24
		l-49,14l-16-68l4-2l-4-2L-31.6,316.5"/>
	<path id="nemeckij_x5F_nacional_x27_nyj_x5F_rajon" inkscape:connector-curvature="0" class="st0" d="M-46.6,141.2l4-2l1,2h2l-3-10
		l6-3v-1h4l-1-2l10-5v3l5-2l-1-2l2-1v-1l6-3l2,4h5l-1-3l5-2l5-2v-2l4-1l-1-3l3-3h1l4,11l5,1l-1,3l2,6h6l-2,11l-1,1l-2,11l-13-3v1
		l-7,4l-1-4l-4,3l-1-3h-3l-4,2l1,2l-15,6h-6l-1-4l-6,3l-2-4l-4,1L-46.6,141.2"/>
	<path id="novichikhinskij_rajon" inkscape:connector-curvature="0" class="st0" d="M117.4,307.2l2-2l-1-2l3-4l10-6l13-12l3,2l2,5
		l5,6l9-7l4,8l4-3l7,12l-2,2l4,6l4,2l-12,4l-4-2l-5,2l2,4l-6,4l2,2l-2,3l6,10l-10,7l1,3l-6,6l-3-4l-8,6l-2-2l3-2v-2l-3-3l2-2l-8-3
		l4-4l-19-18l9-5L117.4,307.2"/>
	<path id="novoaltajsk" inkscape:connector-curvature="0" class="st0" d="M359.4,165.2l4,1l2-1l-2-2h2l2,3v2h1l-1-1l2-2l1,2l5-1
		l-6,3l1,3l1,1l-1,1h1v3l1,1l-8-1v1l-3,1l-1-3l3-7L359.4,165.2"/>
	<path id="pankrushikhinskij_rajon" inkscape:connector-curvature="0" class="st0" d="M62.4,70.2l6-2l-2-7l2-1l1-2l17-8l-1-8l11-3
		l1,7l20-9l1,3h2l5,16l3,1l3-3l3,9v2l-3,1l5,12l1,9l-3,7l-4,3l-3-1l-12,5l-4,5l1,7l1,1l-1,4l-8-5l-9,3l3,6l-4,3l-5-7l-14,4l3-15h-3
		l3-12l-7-9h-5v-4l-1-3l-4-2l2-4L62.4,70.2"/>
	<path id="pavlovskij_x5F_rajon_x5F__x28_altajskij_x5F_kraj_x29_" inkscape:connector-curvature="0" class="st0" d="M257.4,174.2
		l5-3l2,2l4-2l2,2l9-4l1-5l-2-4h2l1-2l1-5h1l-7-4l3-1l3-5l11,4v2l7,1l2,4v-2h5l3-3l13,12l4-1v3l-2,2l3,1l-7,6l1,2l5-1v4l-6,1l4,2
		l-1-2l3,3l-1,5l-2,1l4,1v2l-10,6l-6,1l1,1l-5,3l1,1h-4l-9,5l-1-1l-3,4l-22,11l-2-5l-4-2l-3-8l6-4l-5-11l2-1L257.4,174.2"/>
	<path id="pervomajskij_x5F_rajon_x5F__x28_altajskij_x5F_kraj_x29_" inkscape:connector-curvature="0" class="st0" d="M358.4,150.2
		l1,1h3l-1-2L358.4,150.2 M346.4,165.2l4-4l-2-1l3-2l-1-2h3l-1-2l3-1l-2-3l1-1l-2-1l4-1l-1-6l2-3v-1l8-1l14-7l-1-5h-8l1-2h-2l-2-4
		l1-7l-4-2l1-1l-2-2l1-4l3,2l1-3l3,3l-1-3h4l1-2l-1-3l2,3h2v3l2,1l3-2l3-5l7,2l2-2l2,3v-2l1-1l2,7l-3,5l2,5l6,1l3,8l4,2l2-2l2,4
		l-3,4l2,4l-5,2l-1,4l-7-2l-3,1l-2,3l1,8l3,1l-2,1v5l4,3l8-2l4,4l-3,1l-3,5l-2-1v3l-3,1v1l-6,4l-3,3l1,3h-2l-3,10l-4-2v8h2v2l3,1
		l-7,3l-3,24l-9-1l-1,5h-7l-1,16l-16-2l1-3l-5-1l7-2v-4l-4-8h1l-2-3l2-7v-4l6-1l-2-8l6-1l-2-3l2-1l-1-4l3,1l1-3v-3l-3-3h3l-1-4l2-3
		l-1-2l3-1v-1l8,1l-1-1v-3h-1l1-1l-1-1l-1-3l6-3l-5,1l-1-2l-2,2l1,1h-1v-2l-2-3h-2l2,2l-2,1l-4-1l4,3v2l-1,1v2l-7-2l1-3l-3-3l-6,2
		L346.4,165.2"/>
	<path id="petropavlovskij_x5F_rajon_x5F__x28_altajskij_x5F_kraj_x29_" inkscape:connector-curvature="0" class="st0" d="
		M339.4,334.2l4-1l9-15l4,2l16-6l1,4l-8,7l1,4l5,5v4l9-1l1,18l4-1l-2,4l4,5h2v2l3,2l-2,4h-2l-11,10l1,2l-7,3l-2-5l-7,5l-3-4l-6-1
		l-3,2l-2,3l-2-3l2-3l-6-5l-1-5l-2-1l-2-11l2-3l-1-2l7-2l1-5v-3L339.4,334.2"/>
	<path id="pospelikhinskij_rajon" inkscape:connector-curvature="0" class="st0" d="M139.4,359.2l8-6l3,4l6-6l-1-3l10-7l-6-10l2-3
		l-2-2l6-4l-2-4l5-2l4,2l8-2l9,18l-3,4l4,3l-2,4l7,13l10-8l5,10l2-2l6,5l-2,3l1,2l-1,1l1,1l-1,1v2l-1,3l3,5l-19-5l-2,4l-3-2l-2,9
		l-5,2l-5-2l-1,2l1,1l-10,9l4,8l-3,4l-2-2l-4,2l-8-11l-3,3l-4-6l3-2l-5-10l3-2l-1-3L139.4,359.2"/>
	<path id="rebrikhinskij_rajon" inkscape:connector-curvature="0" class="st0" d="M200.4,184.2l29-16l1,4l4-1v2l5-2l1,8l5-1v-4l10-4
		l5,8l4,12l-2,1l5,11l-6,4l3,8l4,2l2,4l-2,2l2,1l-2,1v-2l-7,4l-13,7l-1,1l1,1l-1,1l-2-1l-7,4l-24,14l-5-6l2-4l-4-2v-3l3-1l-6-8l1-1
		l-1-1l1-2l5-4l-10-17l3-2L200.4,184.2"/>
	<path id="rodinskij_rajon" inkscape:connector-curvature="0" class="st0" d="M19.4,238.2l11-3l4,1l4-2l2-5l1,6l11,1l1-2l3,1l2-10
		l3-1h4v6l9-1l1-7l2-1l-1-5l5-3l-1-4l3-1l1,4h4l3,6l5-1l-3,9l-6-4l-2,16l9,2l-1,4l6,1l-4,21l16,3l-2,13l-9,5l-13,2l2,4l-8,4l-1-2
		l-7,4l-1-3v-3l-5-2l-2,2l-2-3l-4,2v2l-8-1l-1-2l-7,5l-7-11l2-3l-12-2l2-10h3l2-11l-9-3l-1-3l1-4h-2l1-1L19.4,238.2"/>
	<path id="romanovskij_x5F_rajon_x5F__x28_altajskij_x5F_kraj_x29_" inkscape:connector-curvature="0" class="st0" d="M97.4,252.2
		l1-4l13-2l-2-10l15-9l1,3l6-2v-7l1-1l2,5l6,4h11l1-3l4,3l5-1l1,1l-2,3l4,1l6,12l-3,2l-1,3l2,3l-5,4l1,2l-14,12l3,3l-22,19l-7-14
		l-15,3l2-13l-16-3L97.4,252.2"/>
	<path id="rubcovsk" inkscape:connector-curvature="0" class="st0" d="M113.4,405.2l8-7l2,4l-1,6l2-2l1,1l-1,2h4l-3,5h-7l-4-6l1-2
		L113.4,405.2"/>
	<path id="rubcovskij_rajon" inkscape:connector-curvature="0" class="st0" d="M113.4,405.2l2,1l-1,2l4,6h7l3-5h-4l1-2l-1-1l-2,2
		l1-6l-2-4L113.4,405.2 M47.4,416.2l20-26l14,14l-2,3l4,2l3-1l5,3l-4,7l2,2v2l5,7l4-3l-2-2l2-3l-2-3l2-1l-3-3l4-6l3,2l4-7l-3-2l2-2
		l-1-1l4-4l-2-2l3-1l6-7l2,2l2-4l2,2l2-2l5-6l-1-2l2-2l3,2l1-1l-3-3l1-2l-2-2l3-3l-1-1l2-2l-5-5l8-9l3,2l-2,2l3,3v2l-3,2l15,23l1,3
		l-3,2l5,10l-3,2l4,6l3-3l10,15l-6,8h-1l-7,12l-2-2l-3,4l-2-1l-6,11l-11-7l-2,4l-7-5l-1,2l-9-8l-2,3l-1-2l-3,9l2,1v3l-3,1l-3,4
		l-12-8l2-5l-19-11l1-4l-5-5l-3-1l-5,4l-2-2l1,3l-3,2L47.4,416.2"/>
	<path id="shelabolikhinskij_rajon" inkscape:connector-curvature="0" class="st0" d="M193.4,136.2l12-4l-3-8l4-5l8-4l2,5l4-1l2,2
		l5-3l7,3l5-3l-2,5l-3,3v2l4-2v4l6,2v3h2l1,5l2,2l8,4l4-1l3,1l1-1l-5-6l14-11l-3-5l12-9l20,28l-8,8l-13-7l-3,5l-3,1l7,4h-1l-1,5
		l-1,2h-2l2,4l-1,5l-9,4l-2-2l-4,2l-2-2l-5,3l-2-4l-10,4v4l-5,1l-1-8l-5,2v-2l-4,1l-1-4l-3,2l-2-4l-10,5l-5-3l-3-5l1-4h1l-1-2l5-2
		l5,1l3-1l-5-9l-8,6l-3-2l-3,2l-3-8h-3L193.4,136.2"/>
	<path id="shipunovskij_rajon" inkscape:connector-curvature="0" class="st0" d="M164.4,289.2l5-4v-2l4-2l2-4l8-3l7-6l11-6l1,7l5-2
		l2,3l2,7l-4,2l4,6l3,1l3-1l4,4l17,31l3,3l10-4l11,2l2,3v5l2,1l-2,4l3,3l1-2l8,11l-3,7l-11,1l-1-2h-5l1,3l-2,3l-2-1l-3,23l-19-1
		l-4,4v4l-4,3l-6-6l1-5l-3-3l1-3v-2l1-1l-1-1l1-1l-1-2l2-3l-6-5l-2,2l-5-10l-10,8l-7-13l2-4l-4-3l3-4l-9-18l4-2l-4-2l-4-6l2-2l-7-12
		l-4,3L164.4,289.2"/>
	<path id="zato_sibirskij" inkscape:connector-curvature="0" class="st0" d="M358.4,150.2l3-1l1,2h-3L358.4,150.2"/>
	<path id="slavgorod" inkscape:connector-curvature="0" class="st0" d="M-52.6,165.2l3-1l1,4l-1-2l2-2l1,3h4l-1,3l2,1l-1,5l-9-1l2-7
		h-2L-52.6,165.2"/>
	<path id="slavgorodskij_rajon" inkscape:connector-curvature="0" class="st0" d="M-59.6,177.2l3,9l1-6l7,1l1-1l-1-1l6-3l1-5l-2-1
		l1-3h-4l-1-3l-2,2l1,2l-1-4l-3,1l1,3h2l-1,5L-59.6,177.2 M-79.6,165.2l7-2l2,3l6-3l1-7l3-1l-1-4l-4-1l3-13l7,1l2,6v-4l2,1v2l5-2
		l3,9l4-1l2,4l6-3l1,4h6l15-6l-1-2l4-2h3l1,3l4-3l1,4l7-4v-1l13,3l4-17l5,1l-1,4l1,1l-1,6l6,1v2l-4,17h-5l6,3l1,4l-9-7h-4l-9,9l-3,8
		l-8,2l-2-14l-4,1l-1,5l-2,1l-4-3v-4l-1-1l-16,4l-1,2l-7-2l-1,5h2l1,3l-1,1v3l-4,1v4l-4,1l1,5l-6,3l-1-2l-4-1l-3-4l-5,2l-1-2l-9,3
		L-79.6,165.2"/>
	<path id="smolenskij_x5F_rajon_x5F__x28_altajskij_x5F_kraj_x29_" inkscape:connector-curvature="0" class="st0" d="M384.4,375.2
		l7-6l1-2l-3-2v-2l17-3l9-8l-3-11l-5-6l-1-5l5,1l5-3v-3l5-1l-1-3l1-2l-1-2l17,1l4-5h2l1,1l-3,6l2,1l3-3l4,2v2l2,1v6l-1,6l2,3l2-1
		l4,2l-3,6h-4l-3,7h-2v3l-5,5v3h-10l-3,4l-1-1l-1,7h-7v3h-3l-1,9h2l1-5l4,2l2-2l1,3h-2v2l2,2l-3,5l2,1l3-2l2,1l-2,3l-5,1l-5,5l-3-1
		l2,5l-8,1l-1-4l-3-2l5-8l-2-1l-2,1l-1-3l-5,3l-7-2l-2-3v-2l-3-2l-1-3l-3,1V375.2"/>
	<path id="soloneshenskij_rajon" inkscape:connector-curvature="0" class="st0" d="M325.4,409.2l4-2l5,1l3-2l1-5l-4-15l11-4l3,4l2-3
		l3-2l6,1l3,4l7-5l2,5l7-3l-1-2l7-6v6l3-1l1,3l3,2v2l2,3l7,2l5-3l1,3l2-1l2,1v2l-4,3l-1,3l-4,3v6l-2,1l3,8l-2,3l1,3l5,6l1,5h4l-4,5
		l5,4l2,5l-4,7l-3-1l-7,2l-4-1l-4,4l-3,2l-1,4l-15,3l-1,4l-3,1l-3,1l-3-4h-6v-6l-2-2l1-5l-3-2l-1,1v-2v-2h3l1-4l-3,1l-5-13l-7-6l1-7
		l-4-2l1-3l-1-4l-3-2l-2,2l-2-4l-3,3l-1-3v-1L325.4,409.2"/>
	<path id="soltonskij_rajon" inkscape:connector-curvature="0" class="st0" d="M516.4,283.2l9-8l-2-1l2-6l21-11l2-7l8-4l3,3h8l17-8
		l3-4l1,5l10,3l4,6l-4,8l-2,9l-4,3h-2l-2,4l1,2h2l-1,6l5,9l4,1l-2,3l1,1l3,1l1-4l4,2v2l-4,11l-5-7l-3,2l-2-2h-4l-1,2l-7,1l-2-3v5
		l-4,2l1,11h-10l-6-3l-2-8l-7-5v-2l-11,3l1,5l-4,7l-4,2l-5-5l-3-11l-7-3l4-7l-1-4h-1l1-5L516.4,283.2"/>
	<path id="sovetskij_x5F_rajon_x5F__x28_altajskij_x5F_kraj_x29_" inkscape:connector-curvature="0" class="st0" d="M440.4,364.2
		l3-5l4-4v-3h2l3-7h4l3-6l-4-2l-2,1l-2-3l1-6v-6l-2-1l1-1v-4l6-2l1,2l4-1l8,8l11,1l11,5l1,4l3,7l-2,5l1,5l4,9l1,6h1l-2,3l2,4l-1,4
		l-8,1l-5-4l-11,8h-4v-2l2-1l-3-3l-1-8l-4-1l1-3l-11-1h-4v-2L440.4,364.2"/>
	<path id="suetskij_rajon" inkscape:connector-curvature="0" class="st0" d="M31.4,161.2l3-12h1l1-7l9-1l1-5l6,1v-6l4,2l2-8l14,3
		l2-7h3l1,10l-3,1v2l5-1l1,4l-4,2l2,4l-2,11l5,4h2l1,5l-1,6l-16,3v-2l-5,1l1-5l1-2v-3l-9,2l-8-1l-4,11l-9-5v-2L31.4,161.2"/>
	<path id="tabunskij_rajon" inkscape:connector-curvature="0" class="st0" d="M-71.6,191.2l9-3l1,2l5-2l3,4l4,1l1,2l6-3l-1-5l4-1v-4
		l4-1v-3l1-1l-1-3h-2l1-5l7,2l1-2l16-4l1,1v4l4,3l2-1l1-5l4-1l2,14l8-2l-1,9l3,7l5,6l-7,2l-1,4v5h1l-1,4l-5,2l-1-6h-8l-1-3l-6,2
		l-3-8l-6,1l-1-2l-3,1l1,4l-7,2l1,4l-9,2v2l-6-4l-2,2l1,2l-9,3l-1-4l-7,2L-71.6,191.2"/>
	<path id="tal_x27_menskij_x5F_rajon" inkscape:connector-curvature="0" class="st0" d="M280.4,109.2l30-22l4-5l-1-1l7-6l2-1l2,2
		l4,1l2-5l1,2v20l8-1v-4h4v-12l2-2l3,1l2-5l13,3l8-3l4,2l-2,6l8-4l2,2l-3,5l2,7l-1,10h3l-1,2l-5,1v-3h-2l-2-3l1,3l-1,2h-4l1,3l-3-3
		l-1,3l-1-2l-3,1v3l2,2l-1,1l4,2l-1,7l2,4h2l-1,2h8l1,5l-14,7l-8,1v1l-2,3l1,6l-4,1l2,1l-1,1l2,3l-3,1l1,2h-3l1,2l-4,3l-2-2l-7-1
		l-2-3l-2,2v2h-2l-1,2h-8l-13-12l-3,3h-5v2l-2-4l-2,1l-2-2l7-7L280.4,109.2"/>
	<path id="tjumencevskij_rajon" inkscape:connector-curvature="0" class="st0" d="M142.4,163.2l1-5h3v-4l3-2l-4,1l2-4l-3-2l26-7l7-6
		l5,15l6-3l2,6l10-3l1,3l3-2l3,2l8-6l5,9l-3,1l-5-1l-5,2l1,2h-1l-1,4l1,3l7,5l10-5l2,4l-26,14l2,7h-1l1,5l1,1v6l-10,1l-3-7l-7-1
		l-7,7l-3-4l-2,1l3-2l-1-2l-5,7l1-2l-3,1v-2h-2l3,3l-4,1l-9-19l2-2l-2-6h-5l1-3l-4-7L142.4,163.2"/>
	<path id="togul_x27_skij_x5F_rajon" inkscape:connector-curvature="0" class="st0" d="M494.4,208.2l4-6l-3-5l13-20v-3l4-5l-3-9l3-2
		l-2-5l6-2l1-2l3,1l4-3l4,1l1,3h2l1-3v2l7-1l6,3l10-2l3,16l2-1l5,6l3,6l4,3l-1,16l-12,2l-2-6l2-2l-3-3h1l-4-4v2l-10,8h-5l-1,8l2,2
		l-2,3l-3,1l-2-4h-11l-15,6L494.4,208.2"/>
	<path id="topchikhinskij_rajon" inkscape:connector-curvature="0" class="st0" d="M233.4,242.2l12-7l2,1l1-1l-1-1l1-1l13-7l7-4l1,2
		l1-1l-2-1l4-3l15-7l1,7l4-2l1,1l2,6l4,6l3,1v3l7,5l-5,2l-2,4l6,7l2-2l2,4l6-5l5,4l4-1v-2l4,3l1-3l9,6h6v-3l-3-1l3-1l1-5l15,2v10h4
		l5,17l-13,5l-8-1l-7,2l-2-2l1-3l-1-4h-3l-19,3l-1,10l-12,2v6l-4,1v8h-7l-4,3l-12-29l-6-1l1-16l-2-3l1-5l-2-2l-3-3l-1,4l-1,1h-9
		l-2,8l-6-4l-3,3l-6-11l-4,2L233.4,242.2"/>
	<path id="tret_x27_jakovskij_x5F_rajon" inkscape:connector-curvature="0" class="st0" d="M150.4,510.2l4-11l3,3l2-6l2-2l-3-2
		l11-32l7,3l3,8l4,1v2l-5,6l3,10l6,3l10-6h4l6,5l2-5l2-2l9-1v3l3,1l3,10l2-1l4,5l-2,1l-2,3l-1,5v6l-4,5l-12,8v-2l-5,2l-10-8l-5,4
		l-3-3l-3,4l-5-1l-8-3l-5-6l-8-3l-7,2L150.4,510.2"/>
	<path id="troickij_x5F_rajon_x5F__x28_altajskij_x5F_kraj_x29_" inkscape:connector-curvature="0" class="st0" d="M352.4,279.2l7,1
		l13-5l-5-17h-4l2-26h7l1-5l9,1l2-12l14,2l1-4l5-2l13,4l6-3l2,6l6-3l2-5l9-3l-1,1l3-1l1,3l6,3l15-2l6-4l4,5l-5,10l11,4l-3,10h-2
		l-2,4l-13-1l-8,7l-2,7l-9-3l-7,4h-7l-5,3l-2,8l-4,1l1,6l-5,3h3h-10l-3-2l-1,2l-4-1l1,3h-3l2,5h-3l2,8l-21,7l-16,9l-2,1L352.4,279.2
		"/>
	<path id="uglovskij_rajon" inkscape:connector-curvature="0" class="st0" d="M-14.6,392.2l49-14l-2-8l12-3l-1-6l12-3l-1-3l3-1l5,5
		l16,3l-3,4l6,5l-34,45l10,9l3-2l-1-3l2,2l5-4l8,6l-6,10l-1,9l-15-3l-3,12l3,3l-2,18l-6,1l-4,4l-15,2l-2,10l-8-2v-3l-1-1l-1,2l-1,14
		L-14.6,392.2"/>
	<path id="ust_x27_-kalmanskij_x5F_rajon" inkscape:connector-curvature="0" class="st0" d="M253.4,357.2l2,1l2-3l-1-3h5l1,2l11-1
		l3-7l-6-9l3-2l3,2l1-2l6,3l4-8h2l3-6l5,4l3-2v13l3-3l3,2l-1,4h9l8,14l-8,3l3,11l14-7v3l7-4l1,7l2,1l1,5l6,5l-2,3l-12,3l4,15l-1,5
		l-3,2h-4l-10-12l2-2l-1-1l-6-5l-4,1l-9,6l-5-6h-5l-1,4l-4-5l-1-5l1-4l6-4l-3-2l1-3h-4l-6,2l-2,2l-3,5l-8-7l-3,3v-2l-14-2
		L253.4,357.2"/>
	<path id="ust_x27_-pristanskij_x5F_rajon" inkscape:connector-curvature="0" class="st0" d="M292.4,305.2l4-3h7v-8l4-1v-6l12-2
		l1-10l19-3h3l1,4l-1,3l2,2l8-2l7,29l2-1l2,8l2-1l1,3l-10,3l-4-2l-9,15l-4,1l7,9v3l-1,5l-7,2l1,2l-2,3l1,4l-7,4v-3l-14,7l-3-11l8-3
		l-8-14h-9l1-4l-3-2l-3,3v-13l-3,2l-5-4l6-9L292.4,305.2"/>
	<path id="volchikhinskij_rajon" inkscape:connector-curvature="0" class="st0" d="M33.4,304.2l4-6l1,1v-9l5,6l7-5l1,2l8,1v-2l4-2
		l2,3l2-2h3l2,2v3l1,3l7-4l1,2l8-4l-2-4l13-2l7-5l17-3l7,14l-10,6l-3,4l1,2l-2,2l8,11l-13,7h-8l-25,32l-7,3l-10-1l-5-5l-3,1l1,3
		l-12,3l1,6l-12,3l-4-16l5-4l-2-7h3l-2-10v-2l2-1l-2-10L33.4,304.2"/>
	<path id="zalesovskij_rajon" inkscape:connector-curvature="0" class="st0" d="M380.4,82.2l3-5l-2-2l21-9l4,2l-1,4h6l4-2l2,2l-1,2
		l1,1l9-2l3-6v-4l6-6h4l7-7l3-1l-1,2l1,1l27-14l14,34l-23,13l-3,4l4,2l-1,2l2,1l-3,2v2l-4,5l-11,1v3l-4-1l-5,4l-4,9l-2,1v4l-1,2
		l-7-4l-3,2l-1-5h-4l-1,2l-7,3l-4-2l-3-8l-6-1l-2-5l3-5l-2-7l-1,1v2l-2-3l-2,2l-7-2l-2,3h-3l1-10L380.4,82.2"/>
	<path id="zarinsk" inkscape:connector-curvature="0" class="st0" d="M443.4,134.2l2-2l5-1l1,2l-2,1l1,2l4-2h2l-3,5l3,1l-3,6l-6-4
		L443.4,134.2"/>
	<path id="zarinskij_rajon" inkscape:connector-curvature="0" class="st0" d="M443.4,134.2l4,8l6,4l3-6l-3-1l3-5h-2l-4,2l-1-2l2-1
		l-1-2l-5,1L443.4,134.2 M397.4,142.2l2-3l3-1l7,2l1-4l5-2l-2-4l3-4l-2-4l5-1l1-2l5,1l-1,1l1,3l3-2l8,3v-5l2-1l4-9l5-4l4,1v-3l11-1
		l4-5v-2l3-2l-2-1l1-2l-4-2l3-4l4-2h-2l21-11l2,5l9-5l2,4l5-1l4,10l5-3l7,19h3v2l10,3l1,3l4,2l3,24l8-2l2,17l-10,2l-6-3l-7,1v-2
		l-1,3h-2l-1-3l-4-1l-4,3l-3-1l1-3l-2-3l1-1l-4-4h-6l1-2l-3-3l-5,2l1-2l-1-1l-1,3l-6,3l-2,5l-4,1l-3,4l-4-2v-1l-12,7l-2-1l-2,5l-5,1
		l-9,8l-9,4l-6,1l-1-3l-3,1l-1-4l2-1l-9-6l-8,5l-4-4l-8,2l-4-3v-5l2-1l-3-1L397.4,142.2"/>
	<path id="zav_x27_jalovskij_x5F_rajon_x5F__x28_altajskij_x5F_kraj_x29_" inkscape:connector-curvature="0" class="st0" d="
		M86.4,228.2l1-6l6,4l3-9l4-3l-1-3l4-3l-1-6l-3-1l-2-9l-3-5l8-3l7-7v2l9-1l2,6l-1,4l1-2h11l1-4l8,6l-1,3h7l6-4l4,1l8,18l-2,1l3,4
		l2-2l3,4l-6,8l1,3l-2,3l-5,1l-2,1l-2-3h-2l-1,3h-11l-6-4l-2-5l-1,1v7l-6,2l-1-3l-15,9l2,10l-11,3l-2-1l1-3l-6-1l1-4l-9-2
		L86.4,228.2"/>
	<path id="zmeinogorskij_rajon" inkscape:connector-curvature="0" class="st0" d="M143.4,445.2l5-9l2,1l3-4l2,2l7-12h1l5-7l-1-5l4-2
		l2,3l-2,3l7,3l2-4l1,2l-3,7l2,2v4l3,3l2-4h10l1,8l5,3l4,8l3,1l7,15l3,1v5l9-3l5,9v-3l3-2l-1-1l1-1v-1h3l1-4l7-3l1,3l-5,10l-2-1
		l-2,3l10,4l-1,4l7,11l3-1l4,5l-2,6l-10,6l-1,4l-19-8l1-3l2-2l-4-4l-2,1l-3-10l-3-1v-3l-9,1l-2,2l-2,5l-6-5h-4l-10,6l-6-3l-3-10l5-6
		v-2l-4-1l-3-8l-7-3l-1,2L143.4,445.2"/>
	<path id="zonal_x27_nyj_x5F_rajon" inkscape:connector-curvature="0" class="st0" d="M396.4,283.2h3l-2-5h3l-1-3l4,1l1-2l3,2l7,1
		l3-1h-3l5-3l-1-6l4-2l2-7l5-3h7l7-4l9,3l2-6l7,2l-2,10h3l4,4l-3,3l2,1l-3,1l-3,9l-6,4l-1-2h-2l1,4l-3,3l1,5l-2,1l1,2l-2,4h-5l1,1
		l-1,6l-14-2l-2,3v6l-4,1v3l-8-1h6l1-11l-2-3l-6,2l-2-5l-8,3L396.4,283.2"/>
</g>
</svg>
