<?xml version="1.0" encoding="utf-8"?>
<!-- Generator: Adobe Illustrator 27.6.1, SVG Export Plug-In . SVG Version: 6.00 Build 0)  -->
<svg version="1.1"
	 id="svg2" xmlns:dc="http://purl.org/dc/elements/1.1/" xmlns:cc="http://creativecommons.org/ns#" xmlns:rdf="http://www.w3.org/1999/02/22-rdf-syntax-ns#" xmlns:svg="http://www.w3.org/2000/svg" xmlns:sodipodi="http://sodipodi.sourceforge.net/DTD/sodipodi-0.dtd" xmlns:inkscape="http://www.inkscape.org/namespaces/inkscape"
	 xmlns="http://www.w3.org/2000/svg" xmlns:xlink="http://www.w3.org/1999/xlink" x="0px" y="0px" viewBox="0 0 353.3 282.8"
	 style="enable-background:new 0 0 353.3 282.8;" xml:space="preserve">
<style type="text/css">
	.st0{fill:#9591FD;stroke:#FFFFFF;stroke-width:1.25;stroke-linejoin:round;stroke-miterlimit:2;}
	
		.st1{fill-rule:evenodd;clip-rule:evenodd;fill:#9591FD;stroke:#FFFFFF;stroke-width:1.25;stroke-linejoin:round;stroke-miterlimit:2;}
</style>
<g id="amurskaja_oblast" transform="matrix(0.5,0,0,0.5,49.185662,45.000048)">
	<path id="arkharinskij_rajon" inkscape:connector-curvature="0" class="st0" d="M477.5,419.2l1.1-2.2l2.2,0.5l-2.2-1.1l-0.5-1.1
		l5.4-9.7v-1.1l-1.1-0.5l2.7-0.5v-3.8l2.7-0.5l-2.2-5.4l0.5-1.6l3.2,0.5l3.8-2.2v-1.1l1.1,1.1l1.6-1.1l1.1,1.1l1.6-2.7l4.3-2.2
		l0.5-2.2l2.7-2.2l-1.1-1.1l-0.5-2.7v-2.7l1.6-2.2l-1.1-1.6l0.5-3.2v-3.2l-0.5,0.5l1.1-3.8l-3.2-2.7l-0.5-1.1h-2.2l0.5-1.6l-1.1-0.5
		l-0.5-2.2l1.1-2.2l1.6,1.1l3.2-1.1l1.6,0.5l3.2-3.2h1.6l2.2-1.6l-1.1-3.8l1.6-0.5l1.6,2.2l1.1-0.5l4.3,0.5l1.6-2.2l-0.5-1.1
		l2.2,0.5l2.2-1.6l4.3,3.8l2.2-1.1l1.1-3.8l2.7-2.7l2.7,1.1l0.5,1.1l-2.7,2.2l1.6,2.2v2.7l1.6,0.5v1.1l2.2,0.5l1.1,4.3l-1.1,1.6
		l3.8,1.6l1.1-0.5l3.2,1.6v2.7l1.1,2.7l-0.5,2.7l3.2,2.2v2.7h-2.2l-2.7,2.7v1.6l1.6,2.2l2.7-1.6l1.6,2.2l2.7,0.5l2.2,2.7v2.2
		l1.6,2.2l0.5,3.8l2.2,1.6l-0.5,3.2l1.1,10.8l-3.2,0.5l-1.1,3.2l-2.2-1.1l-2.2,3.2l-2.2-0.5l-1.6,1.6v4.9l1.1,1.6l1.1,9.2l1.1,2.2
		h1.1v2.2l-6,0.5l-2.7,1.6l-5.4,7.6v3.2l-3.2,3.8h-1.6l-3.2-2.2l-7,6l-1.6,0.5l-3.8-2.7l-6.5-1.6l-2.2-2.2l-5.4-0.5l-1.1-3.8
		l-3.8-0.5l-1.1-3.2l-1.1-1.1l-3.8,1.1l-1.1-1.1l-1.6-4.3l-2.2-1.1H491l-2.2,2.7l-2.2-0.5l-4.9-8.7l0.5-1.6l-1.6,0.5L477.5,419.2"/>
	<path id="belogorsk" inkscape:connector-curvature="0" class="st0" d="M392.5,336.9l-0.5-1.6l9.2-1.6v2.7l0.5,2.2l1.6,0.5l-4.9,0.5
		l1.1,1.6l-0.5,1.6l-0.5-2.7l-1.1,1.6l-1.1-1.1l-1.1,0.5l1.1-2.7l-2.2,1.1L392.5,336.9"/>
	<path id="belogorskij_rajon" inkscape:connector-curvature="0" class="st0" d="M371.9,355.3l-1.1-2.7l2.2-3.8l-1.1-5.4l-1.6-3.8
		v-2.7l3.8-0.5l0.5,1.1h1.6v0.5l1.1-0.5v-1.6h4.9l1.1,2.2l8.7-2.7l2.2,4.3l2.2-1.1l-1.1,2.7l1.1-0.5l1.1,1.1l1.1-1.6l0.5,2.7
		l0.5-1.6l-1.1-1.6l4.9-0.5l-1.6-0.5l-0.5-2.2l0.5-3.8l1.6,1.6l1.6-2.2l3.8,1.6l1.6-0.5V332l10.8-4.9l0.5-2.7l1.1,0.5l0.5-1.1h0.5
		l1.1,3.2h2.7l-0.5,4.3l1.1,1.6l-2.2,1.1l1.6,2.2l0.5,3.8l-3.2,1.1l-1.6-1.6l-0.5,2.2l1.6,3.2l-6,2.7l1.1,2.7l-4.3,1.1l-5.4,5.4
		h-6.5l-1.1,2.2H400l-3.2-0.5l-7,1.1l-3.2-2.7L386,358l-3.2-1.6l-0.5-1.1v-1.6l-1.6-1.1l-7,1.1L371.9,355.3"/>
	<path id="blagoveshhensk" inkscape:connector-curvature="0" class="st0" d="M364.9,386.1l1.1,0.5V385l1.6,2.2l-0.5,0.5h1.1l1.6,1.1
		v0.5v1.1l1.1,1.1l2.2,0.5v1.6l1.6-1.1l-2.7-9.7l1.6-1.6l-1.1-2.2l1.6-0.5l-0.5-2.2l-1.1-3.8v-0.5l0.5,1.1h1.1l0.5,3.8l6,4.9l1.1,7
		l-3.8,2.2l1.1,1.6l-0.5,1.6l2.7,3.2v1.1H380l-0.5-1.6h-9.2l-0.5-8.1l-2.7-1.1L364.9,386.1"/>
	<path id="blagoveshhenskij_x5F_rajon_x5F__x28_amurskaja_x5F_oblast_x29_" inkscape:connector-curvature="0" class="st0" d="
		M343.2,356.9l2.2-1.6l1.6-3.2l-0.5-3.8l16.2-13l5.4-1.1l1.6,2.2l0.5,3.2l1.6,3.8l1.1,5.4l-2.2,3.8l1.6,7.6l1.1,2.2l-0.5,3.2
		l2.2,4.9l-1.1,2.7H373l-0.5-1.1v0.5l1.1,3.8l0.5,2.2l-1.6,0.5l1.1,2.2l-1.6,1.6l2.7,9.7l-1.6,1.1v-1.6l-2.2-0.5l-1.1-1.1v-1.1v-0.5
		l-1.6-1.1H367l0.5-0.5l-1.6-2.2v1.6l-1.1-0.5l2.2,1.6l2.7,1.1l0.5,8.1h-2.2l-2.7-2.7l-0.5-1.6l0.5-3.2l-1.1-2.7l-4.3-1.1l-0.5-4.3
		l1.6-2.2l-0.5-2.2l-5.4-5.4l-1.6-3.2v-2.7l-3.8-1.1L343.2,356.9 M380.6,414.8L380,411l1.1-7l-1.1-5.4h1.1v-1.1l-2.7-3.2l0.5-1.6
		l-1.1-1.6l3.8-1.1v-1.1l-0.5-3.2l4.3-0.5v1.6l4.9,1.6l-0.5,1.6h-2.2l-0.5,1.1l2.2,5.4l3.2,2.7l0.5,1.1l-1.6,0.5l0.5,2.2l-9.7,3.8
		l1.1,2.2l-0.5,2.2l1.6,2.2L380.6,414.8"/>
	<path id="burejskij_rajon" inkscape:connector-curvature="0" class="st0" d="M448.2,407.2l2.7-7l-0.5-2.7l1.1-2.2l2.7,4.3l1.1,3.2
		l2.7-1.6l0.5,2.7l1.1-3.2l1.6-0.5v1.6l3.2,0.5l1.1,3.2l-0.5,2.7l6-4.9l3.2,2.2l0.5-4.3l1.6-1.1h1.6l-0.5,1.1l3.8-0.5l0.5-1.6
		l-2.7-2.2l-2.7,1.1l-4.3-1.6l-1.1-1.6l-2.2,0.5l-2.2-6l2.2-1.1l-2.7-3.8v-1.1l3.8-2.7l-1.1-4.3l2.2-1.1v-8.1l2.7-4.9l1.1-6.5v-2.2
		l-1.1-1.1l0.5-2.7l3.8-1.6l0.5-1.6l1.6,0.5l1.6-6l2.7-1.6l1.6,1.1l-1.1-2.7l1.1-2.7h-1.6v-1.6l-2.2-3.8h2.2l0.5-1.6l1.6,1.1
		l2.2-1.6l1.1,0.5l3.2-1.1l1.1-3.2l4.3-3.8l-0.5-2.7v-1.1h2.2l3.8-3.2l3.2,1.1l1.6,2.7h1.6l0.5,1.1l-1.6,7l-1.6,2.2l0.5,2.2l3.2,1.1
		l0.5,1.6l1.6,2.2l1.6-3.8l-0.5-2.7h3.2l1.1-1.6l4.3,4.9l2.7-1.1l2.2-2.7l1.1,1.1l0.5,2.7l1.1,0.5l0.5,1.6h3.2l2.2,1.6v1.6l-2.7,2.7
		l-1.1,3.8l-3.2,0.5l-3.2-3.2l-2.2,1.6l-2.2-0.5l0.5,1.1l-1.6,2.2l-4.3-0.5l-1.1,0.5l-1.6-2.2l-1.6,0.5l1.1,3.8l-2.2,1.6H510
		l-3.2,3.2l-1.6-0.5l-3.2,1.1l-1.1-1.1l-1.1,0.5v3.8l1.1,0.5l-0.5,1.6h2.2l0.5,1.1l3.2,2.7l-1.1,3.8l0.5-0.5v3.2l-0.5,3.2l1.1,1.6
		l-1.6,2.2v2.7l0.5,2.7l1.1,1.1l-2.7,2.2l-0.5,2.2l-4.3,2.2l-1.6,2.7l-1.1-1.1l-1.6,1.1l-1.1-1.1l-1.6,2.7l-6,0.5l0.5,3.8l1.6,2.7
		l-2.7,0.5v3.8l-2.7,0.5l1.1,0.5v1.1l-5.4,9.7l0.5,1.1l2.2,1.1l-2.2-0.5l-1.1,1.6l3.2,4.3l1.6-0.5l-0.5,1.6l1.1,1.6l-2.2-1.1
		l-5.4,0.5l0.5-2.7l-2.2,1.1l-1.1-1.6h-1.1v-3.8l-1.1-2.2l-6.5,2.2l-2.7-3.8l-1.1,1.1L458,411l-3.8,4.9l-0.5-1.6l-2.2-1.1l-0.5-4.9
		h-2.2L448.2,407.2"/>
	<path id="ivanovskij_x5F_rajon_x5F__x28_amurskaja_x5F_oblast_x29_" inkscape:connector-curvature="0" class="st0" d="M374.6,376.9
		l-0.5-4.3l1.1-2.2l-2.2-4.9l0.5-2.7l-1.1-2.7l-0.5-4.9l2.2-1.6l6.5-1.1l1.6,1.1v1.6l0.5,1.1l3.2,1.6l0.5-1.1l3.2,2.7l7-1.1l3.2,0.5
		h2.2l1.1-2.2l3.2,0.5l2.7,2.7l2.2,1.1v0.5l1.6,1.6l1.6,2.2h1.1l-1.6,2.2l1.6,0.5l0.5,1.1l-4.9,2.2l1.1,8.1l-4.9,1.6l1.6,3.2
		l-2.2,3.2l-4.3-2.2l0.5,1.6l-1.6,1.1l0.5,2.7l-12.5-1.1l0.5-1.6l-4.9-1.6V385l-4.3,0.5l-1.1-4.3L374.6,376.9"/>
	<path id="konstantinovskij_x5F_rajon_x5F__x28_amurskaja_x5F_oblast_x29_" inkscape:connector-curvature="0" class="st0" d="
		M396.3,433.2l-1.1-2.7l6.5-5.4l1.1-3.8l2.2-1.1l-1.1-6.5l6,2.7l-0.5-3.8v-3.2h2.7v-3.2l2.2,0.5l0.5,1.6h2.7l-0.5-3.2l4.3-1.1
		l1.6,5.4l3.2,0.5l1.1,4.3l-4.9,3.2l4.3,9.2l-1.6,2.2l1.6,1.6l3.2-1.6l-1.1,1.1l0.5,3.8l-0.5,1.1h-4.3l-1.6,2.7l-4.3,1.1h-3.2
		l-3.8-1.6l-1.6,2.2l-2.7,1.1l-2.7-0.5l-2.7-2.7l-3.8-0.5L396.3,433.2"/>
	<path id="magdagachinskij_rajon" inkscape:connector-curvature="0" class="st0" d="M171.6,199.3l3.8-6l2.7,2.7v1.1l2.7,3.2l3.2,1.1
		l8.7-4.9h3.2l-1.6-2.7l-0.5-2.2l1.6-7.6l1.6-4.3v-2.2l-1.1-5.4l1.6-3.2l-2.2-2.2l0.5,2.7h-1.6l-1.1-2.7v2.7l-4.3-0.5v-2.2l-0.5-0.5
		l3.8-2.2l4.3-6.5l6.5-2.7l1.1-7.6l4.3-1.6l1.6,2.2v2.2l1.6-0.5v1.1l5.4,5.4l7,2.7l-0.5,1.1l2.2,1.6l11.4,4.9l6-0.5v1.1l1.1,0.5
		l0.5,2.2l-1.6-1.1l-3.2,2.2l-1.1-2.2v1.6l-1.1-0.5v3.2l4.3,1.6l4.9,6h2.2l1.1,4.3v3.8l1.6,2.2l1.6,1.1l1.6-0.5l0.5,2.2l2.2,2.7
		l2.7-1.6l3.8,4.3l1.1,2.7l6,3.2l1.6,1.6l1.1,2.2l8.7-2.2l2.2,3.8h4.3l3.2-4.9l3.2,1.1l3.2-1.1l3.8,3.8l1.6,3.8l1.6-1.6l2.2,1.6
		l1.1-0.5l0.5-3.2h1.1l3.8,3.8l0.5,3.8l-0.5,1.6l6.5,3.8l2.7,3.2l-1.1,3.8l-3.8,2.2l-1.1,2.7h-6l-1.1,1.6l-4.9-0.5l-0.5,1.6
		l-3.8,0.5l-21.1,29.2l-2.7-1.1l-1.1,2.2l-2.2,1.1l-2.2-2.2l0.5-2.2l-1.1-2.7l-4.9-4.3l-3.2,1.1l-0.5-4.3l-7.6-3.2l-0.5,2.2h-1.1
		l-2.7-2.2l-1.1-2.2l0.5-1.6l2.7-1.6l-2.2-4.3l2.2-2.2l-0.5-0.5l-3.8-1.1l-0.5,3.8h-2.2l-2.2-3.8l-2.7-1.1l-1.6-2.7l-1.1-0.5
		l-2.2,1.1l-3.2,3.8l-1.6-3.8l2.2-2.7l-1.1-2.2l0.5-1.1l-3.2-1.1l-2.2-1.1l-2.2-2.7l-3.2,3.2l-1.6-3.2l-9.2-1.1l-7-2.2l-7,3.2
		l-3.2,3.2l2.2,3.2v2.2l-1.6-0.5l-2.2-2.2l-4.3,0.5l-0.5-2.2l-1.1-0.5l-0.5-3.2l-3.8-6l-1.6-4.3l-4.9-3.8l0.5-3.2l-2.7-2.2V202
		L171.6,199.3"/>
	<path id="mazanovskij_rajon" inkscape:connector-curvature="0" class="st0" d="M372.4,308.2l3.2-4.3h3.8v-1.1l-1.6-0.5l-0.5-1.1
		l0.5-1.6l2.7-2.2l-1.1-4.3l2.7-0.5v-3.2l2.7,1.1l1.1-6h1.6l-0.5-1.6l-1.1-0.5l-0.5-1.6l-4.9-2.2l-1.1-2.2v-3.8l-1.1-1.6l-4.3-1.6
		l-1.6-4.9l-2.2-2.7h-1.6l-2.2-3.8l1.6-7.6l3.2-2.7l-4.3-4.9l-1.6-3.2h-0.5l-0.5-2.7l1.1-1.6l-1.1-0.5v-2.2l-3.2-3.2l1.6-2.2
		l1.1-4.9l-6.5-1.1l1.1-2.2l-1.6-2.2l-0.5-2.7l-1.6-0.5l-1.6-3.8l-0.5-0.5l2.7-2.7v-1.6l-1.1-1.1v-1.1l-1.6-1.1l-1.1-4.3l4.3-6.5
		l-0.5-2.7l-1.1-1.1l1.6-4.3l-1.1-7.6l3.8-0.5l0.5-2.2l1.6,1.1l1.6-2.7l-1.1-1.1l0.5-1.1l-2.7-3.2l0.5-1.6l-2.2-3.2l-0.5-1.6
		l1.1-1.6l-1.1-1.6l1.1-1.6l3.8,0.5l-0.5-2.2h1.6l2.2-2.2l3.8-2.2h2.7l2.2-2.7l3.8,0.5l1.1,1.6l3.2,2.7l2.7,0.5l0.5,1.1h7l5.4-2.2
		l-0.5,1.1l0.5,0.5v1.6h1.1l3.8,4.9l-0.5,2.2h1.1l-0.5,1.1l2.7,1.6l-1.1,0.5l0.5,1.6h1.6l0.5,1.1h1.6l-0.5,1.6l2.2,2.7l0.5,2.2h1.1
		l-2.2,1.1v0.5l1.6,0.5l-1.1,2.2l0.5,0.5h-1.6l-0.5,2.2l1.1,0.5v1.1l1.1,1.1v3.2l-2.2,0.5l1.1,1.1h-1.1l1.1,1.1l-0.5,1.1l1.1,1.1
		v1.1h1.1v0.5l1.6,1.1v1.6l2.7,1.1v1.6l1.1,1.6l-1.6,0.5l1.1,0.5v1.6l1.6,0.5l-3.2,1.6l0.5,3.8l1.1,1.1l-1.1,1.6l0.5,1.6l-1.1,0.5
		l0.5,2.2l1.6-1.6h2.2l9.7,2.7l1.6,1.6l4.9,1.6l0.5,1.6l7.6,2.7l1.6,1.6l1.6-1.6l1.1-6.5l2.7-0.5l4.3-3.2l3.2-0.5l2.7,8.1l4.3,1.1v6
		l3.8,9.2l9.2,4.3l5.4-2.7l3.8,2.7l2.2,0.5l-0.5-2.2l0.5-1.6l3.8,3.8l0.5-2.2l-1.1-4.3l1.6-1.6l1.6,0.5v2.2h-1.1l1.6,4.3l3.2,2.7
		l1.1,2.7l2.2,1.1l1.1,2.7l3.2,3.8v3.2l-2.7,0.5l-3.2-2.2l-3.2,3.8l-0.5,3.2l1.1,2.7l-0.5,1.1l-3.8-1.6l-0.5-1.6l-6-2.2l-2.2,0.5
		v1.6l-2.2,1.1l0.5,2.2h-2.2l1.1,2.2l-1.1,1.1l-7,2.2h-1.6l-2.7,2.2l-0.5-1.1l-3.2-0.5l-3.8,3.2l-6,2.2l-3.2,3.2l-8.7,1.1l-3.2,4.9
		l1.1,6.5l-1.1,5.4l-4.3,2.2l-3.2,7.6l-2.2,2.7l-8.7-4.9l-4.9,2.2v-3.2l-3.2-1.1l-4.3,1.6l-1.1-3.8l-8.7,1.1l-3.2-1.6l1.1-5.4
		l-2.7-1.1h-4.9v4.9l-3.2-1.1l-1.1,3.8l3.8,1.6l-0.5,2.2l-1.6-1.1l-2.2,2.2l-0.5,1.1v1.6l-1.6,2.2l-3.2-1.6l-1.1-2.2l-4.9,0.5
		l0.5,1.6l1.1,1.1h-1.1L372.4,308.2"/>
	<path id="mikhajlovskij_x5F_rajon_x5F__x28_amurskaja_x5F_oblast_x29_" inkscape:connector-curvature="0" class="st0" d="
		M425,428.9l1.6-2.2l-4.3-9.2l4.9-3.2L426,410l-3.2-0.5l-1.6-4.9l4.9-0.5l2.2-2.2h0.5l0.5,2.2l0.5,0.5l2.2-2.7l2.2-0.5l-0.5-6.5
		l0.5-2.2l4.3-2.7l-1.1-3.2l1.1-1.1l3.8,2.7h2.7l0.5,3.8l1.6,0.5l3.8,3.8l-0.5,1.1l0.5,2.7l-2.7,7l0.5,1.1h2.2l0.5,4.9l0.5,0.5
		l1.6,0.5l0.5,1.6l3.8-4.9l2.2,4.3l1.1-1.1l2.7,3.8l6.5-2.2l1.1,2.2v3.8h1.1l1.1,1.6l2.2-1.1l-0.5,4.3l1.6,3.2v1.6l-2.7,0.5
		l-4.3-1.6l-2.2,1.6l-0.5,3.8l-2.7,0.5l-3.8-4.3l-2.7-1.6l-2.2,0.5l-3.2-1.1l-2.7,2.7h-2.7l-0.5-2.2l1.1-3.8l-1.1-1.6h-2.7v2.2h-8.1
		l-7,3.8V430l1.1-1.1l-3.2,1.6L425,428.9"/>
	<path id="oktjabr_x27_skij_x5F_rajon_x5F__x28_amurskaja_x5F_oblast_x29_" inkscape:connector-curvature="0" class="st0" d="
		M415.7,390.3L413,380l-1.1-8.7l4.9-1.6l-0.5-1.6h-1.6l1.1-3.2l2.2-1.6h4.3l2.7-2.2l4.3,8.7l1.6-2.2l-1.6-6.5l1.6-0.5l-1.1-2.2
		l0.5-1.1l-4.3-3.8l9.7-2.7v-4.3h2.2v1.1l8.1-1.6l1.6,2.2l2.7-2.2l1.1,4.3l-1.6,1.1l1.1,1.6l0.5,5.4l4.3,1.6l-1.6,3.8v3.2l0.5,1.6
		l-1.6,2.7l-3.8,1.6l-2.7,2.7l-2.7,5.4l0.5,1.1l-1.6,1.6l0.5,3.8l-0.5,0.5L439,386l-1.1,1.1l1.1,3.2l-4.3,2.7l-0.5,1.6v7l-2.2,0.5
		l-1.6,2.2h-0.5l-0.5-2.2l-2.7,2.2l-3.8-0.5l-0.5-4.9h1.1l-1.1-3.2l-0.5-4.3l-4.9-0.5L415.7,390.3"/>
	<path id="progress" inkscape:connector-curvature="0" class="st0" d="M473.1,399v-2.2l3.8,1.1l2.7-0.5l2.2,2.2l-0.5,1.6l-3.2,0.5
		v-1.6l-2.7,1.1l1.1-1.1L473.1,399"/>
	<path id="rajchikhinsk" inkscape:connector-curvature="0" class="st0" d="M465.6,408.2l0.5-2.7l-2.7-6l1.6-0.5l-0.5-0.5l0.5-1.1
		l-1.1-0.5l4.3-3.2l1.1,1.6h2.2l1.6,1.6v2.2l3.2,1.1l-1.6,6l-3.2-2.2L465.6,408.2"/>
	<path id="romnenskij_rajon" inkscape:connector-curvature="0" class="st0" d="M407.1,358.4v-0.5l3.2-1.1l5.4-4.9l4.3-1.6l-1.6-2.2
		l6.5-2.7l-1.6-3.2l0.5-2.2l1.6,1.1l2.7-1.1v-3.2l-2.2-2.2l2.7-1.6l-1.1-1.1v-4.3l-2.2-0.5l-1.1-2.7l1.6-1.6l-0.5-1.6l1.6-0.5
		l-0.5-1.1l0.5,0.5l1.6-3.8l-0.5-1.1h2.2l-0.5-0.5l0.5-1.1l-0.5-0.5v-0.5l1.1,0.5v-1.1l1.6-1.1l4.9-9.7l4.3-2.7l1.1-5.4l-1.1-6
		l2.2-3.8l1.1-1.1l8.7-1.1l2.7-3.8l6.5-1.6l3.8-3.2h3.2v1.1l3.2-2.2l1.6,0.5l7-2.2l1.1-1.6l-1.1-1.6h2.2l-0.5-2.2l1.6-1.1v-2.2h2.2
		l6,2.2l0.5,1.1l3.2,2.2v2.2l-2.7-0.5l-2.2,3.2l1.6,4.3l-1.6,3.8l1.6,5.4v3.2l-4.9,2.2l-0.5,3.2l0.5,2.7l2.2-0.5l3.2,3.2l1.6-0.5
		l-3.2,3.2l0.5,2.7l-1.6,7.6l1.1,1.1h1.1l0.5,2.2l-1.6,2.2v1.1l4.9,2.7l-3.2,2.7l-1.1,3.8l-3.2,1.1l-1.6-0.5l-2.2,1.1l-1.1-0.5
		l-0.5,1.6l-1.6-0.5l1.6,4.3v1.6h1.1l-0.5,2.7l1.1,2.7l-1.6-1.1l-2.2,1.1l-1.1,2.7l-1.1-0.5V341l-2.7-1.1l-2.2-2.7l-3.8,1.6
		l-4.9-2.7l-9.7,0.5l-1.1-1.1l-1.6-1.6l-1.6,6l-1.6-0.5v3.2h-2.2l1.6,3.2l-2.7,2.2l-1.6-2.2l-8.1,1.6v-1.1h-2.2v4.3l-9.7,2.7
		l4.3,3.8l-0.5,1.1l1.1,2.2l-1.6,0.5l1.6,6.5l-2.2,2.2l-3.8-8.7l-2.7,2.2h-4.3l-3.2,2.7l-1.1-2.7l-2.2-1.1l0.5-0.5L407.1,358.4"/>
	<path id="selemdzhinskij_rajon" inkscape:connector-curvature="0" class="st0" d="M414.7,213.8v-1.1l1.1-0.5l-1.1-2.2l1.6-1.1
		l-1.1-1.6l-0.5-3.8l2.7-1.1l-1.1-1.1v-1.1l-1.1-0.5l1.1-0.5l-0.5-1.6v-1.6l-2.7-1.1v-1.6l-2.2-1.1l0.5-1.1l-1.1,0.5v-1.1l-1.1-0.5
		l0.5-0.5h-1.1l0.5-1.1l-0.5-1.1l1.1-0.5l-1.1-0.5l0.5-1.1h1.1l0.5-2.7l-1.6-1.6l0.5-0.5l-1.1-0.5v-2.2h2.2l-0.5-1.1l1.1-1.6
		l-1.6-1.1v-0.5l2.2-0.5h-1.6v-2.2l-2.2-2.7v-2.2l-1.1,0.5l-0.5-1.1l-1.6-0.5l-0.5-1.6l1.1-0.5l-2.7-1.6l0.5-1.1h-1.1l0.5-1.6
		l-3.8-5.4h-1.1V151l-0.5-0.5l2.2-11.4l-0.5-8.7l4.3-2.2v-6l5.4-2.7l1.1-2.2l2.2-0.5l1.6,1.1l3.8-6v-1.1l-0.5-0.5v-1.1l-1.1-2.2
		v-2.7l-2.7-7l3.8-7h3.2l0.5-1.6l2.7,1.1l1.1-1.6l2.7,1.1l2.2-1.6l0.5,1.1l1.1-0.5l4.9,1.1l1.1,2.7l-0.5,1.6l2.2,3.2h1.6v0.5
		l1.6,1.1l-0.5,2.2h1.1v2.7l1.1,0.5l-0.5,1.6l2.2,1.1l1.1,2.7l0.5-0.5l1.1,2.7v1.1l1.6,1.1l0.5,1.6l1.1,1.1l1.1,4.9l-1.1,1.1v3.2
		h2.7l0.5-1.1l7-4.3l2.7-2.7l1.1,1.1h1.6l-0.5,1.6l1.1,1.1l0.5,2.2h1.6l1.6,1.1l1.6-2.7l1.6,1.1l1.1-0.5l0.5-1.6l-1.1-2.7l0.5-1.1
		l-0.5-1.1l1.1-2.2l2.2,0.5l3.8-2.2l0.5-2.2l1.6,0.5l0.5-1.1l1.1,0.5l1.1-0.5l0.5,1.1l3.2-2.2l1.1,0.5l4.9-4.9l2.2,1.1l1.6-1.1
		l0.5-2.2l3.8-0.5l1.1-1.6l-0.5-1.6l-1.6-0.5v-1.1l2.7-0.5l1.1,0.5l1.6-2.7l4.3-1.6l-0.5-2.2h-1.1l0.5-2.2l-1.1-2.7l0.5-2.7l4.9-6
		l0.5-3.8h2.7l2.7-5.4l4.3,1.6l3.2,2.2l2.2-3.2l1.6,1.6l2.2-1.6l3.8,1.1l5.4-3.8l-1.1-3.2h3.8v-2.2l-0.5-0.5l1.1-0.5v-2.2l2.2-0.5
		v-1.1l2.2-3.8l2.2,1.1l-1.1-3.2l3.2-2.7l3.8,0.5l0.5,2.2l4.9,0.5l1.6,2.7l3.2-1.6l0.5,0.5V53l3.2-0.5l2.7,1.6l-1.1,2.2l-1.1-0.5
		l-2.2,1.1v1.6l1.1,1.1l0.5,1.6h3.8l0.5,0.5v1.6l0.5,0.5l2.7,0.5l0.5,3.8l-2.2,2.2l1.6,1.1l-0.5,2.7l3.2,2.2V79l-2.2,1.1l-0.5,3.2
		l0.5,1.1l-0.5,1.6l0.5,1.6l-1.6,7h2.2v1.6l-0.5,2.2l1.1,1.1l1.1,1.6l2.7,0.5l0.5,1.6l-0.5,1.1l1.1,1.6l3.2-1.1l2.2,2.2l1.6,4.3
		l-2.7,0.5l0.5,3.2l-1.1,1.6l0.5,1.6l-0.5,1.1l1.1,0.5l0.5,2.2l1.6-0.5l1.1,2.7l-0.5,3.2l-2.7,1.1l-3.2-1.6l-5.4,1.6l-1.1,1.6
		l-7-1.6l-1.6,3.8l-1.1-1.1l-1.6,0.5l-2.7-1.6l-1.6,1.1v1.6l-2.7,1.1l-1.6-2.2l-2.2-0.5l-3.8,2.2l-6.5-1.6l-3.2,1.1l-1.1-1.6
		l-10.3,1.6l0.5,4.9l1.1,0.5l1.6,3.2h1.6l1.6,2.2l-0.5,1.6l0.5,0.5l-1.1,2.2l0.5,1.6l3.8,1.1l1.6,3.8l2.7,2.2h2.7l2.7,2.7l0.5,1.6
		l-2.2,1.1l-1.1,2.7l0.5,1.1l-2.2,2.2H550l-0.5,2.2l-2.2-0.5l-1.1,2.7l-2.2-0.5l-0.5,1.6l-2.7,0.5l-0.5,1.6l-5.4-0.5v0.5l0.5,1.1
		l-1.1,3.8l-2.2,0.5l-2.2,3.8h1.1l-2.7,1.6v4.9l1.6,2.7v1.6l-1.1,0.5l-1.6-1.1l-2.7,1.6l1.6,1.6l1.1,2.7l2.2,1.1l-1.1,3.2l-2.2,1.1
		l-0.5,3.8l-1.1,1.1l-1.6-2.2h-1.6l-2.2,3.8v2.2l-0.5,1.1l-2.2-1.6l-1.6,2.7l-1.1,2.7l-3.8,1.1l-1.6,5.4l-6,3.8v1.6l-8.7,1.1
		l-1.6,2.7l1.1,3.8v2.2l-4.3-3.8l-1.1,1.1l1.1,2.2h-2.7l-2.7-2.7l-5.4,2.7l-9.2-4.9l-3.8-8.7v-6l-4.3-1.6l-2.7-8.1l-3.2,1.1
		l-4.3,3.2h-2.7l-1.6,6.5l-1.1,1.6l-1.6-1.1l-7.6-2.7l-0.5-2.2l-4.9-1.1l-1.6-2.2l-9.7-2.2h-2.7l-0.5,1.6L414.7,213.8"/>
	<path id="seryshevskij_rajon" inkscape:connector-curvature="0" class="st0" d="M368.6,334l0.5-2.2h4.3l1.1-1.1v-2.2l-2.2-2.7
		l-1.6-4.9l1.1-1.6l2.2,2.2l2.2,0.5l0.5-1.1l-0.5-2.7l1.6-2.2l-3.8-1.1l1.1-3.2h1.6l-1.1-1.1l-0.5-2.2h4.9l1.1,1.6l3.2,1.6l1.6-1.6
		l-0.5-1.6l1.1-1.6l2.2-1.6l1.6,1.1l0.5-2.2l-3.8-1.6l1.1-3.8l2.7,1.1l0.5-4.9l7,1.1v3.8l-1.1,1.1l3.8,2.2l8.7-1.1l1.1,3.8l4.3-1.6
		l3.2,1.1v3.2l4.9-2.2l8.7,4.3l-1.1,2.2l-1.1-0.5l0.5,1.1l-0.5,1.1l0.5,0.5h-2.2l0.5,1.1l-1.6,3.8l-0.5-0.5l0.5,1.1l-1.6,0.5
		l0.5,1.6l-1.6,1.6l-1.1-0.5l0.5,1.1h-1.6l-0.5,2.7l-10.8,4.9v1.1l-1.6,0.5l-3.8-1.6l-1.6,2.2l-1.6-1.6l-2.2,1.6l-8.7,0.5l-7.6,2.7
		l-1.1-2.2l-2.2,1.1l-2.2-0.5l-1.6,2.2v-0.5h-2.2v-1.1l-4.3,1.1L368.6,334"/>
	<path id="shimanovsk" inkscape:connector-curvature="0" class="st0" d="M334,270.1v-1.6l1.6,0.5l2.2-1.6l2.7,1.1l0.5,1.6h-1.6
		l-0.5,1.6l-2.2,0.5l-1.6-0.5L334,270.1"/>
	<path id="shimanovskij_rajon" inkscape:connector-curvature="0" class="st0" d="M334,270.1l1.1,1.6l1.6,0.5l2.2-0.5l0.5-1.6h1.6
		l-0.5-1.6l-2.7-1.1l-2.2,1.6l-1.6-0.5V270.1 M275,275.5l1.1-4.3l2.7-2.2l-0.5-1.1h-1.1l1.1-2.7l2.2,1.6l21.7-29.8h3.2l1.1-1.6h4.3
		l1.6-1.1h6l1.1-2.7l3.2-2.2l1.6-4.3l-2.7-2.7l-6.5-4.3l0.5-1.1l-1.1-5.4l1.6-4.3l-1.1-2.7l4.3-1.6l3.2,3.2l2.2-4.3l3.8-3.2l2.7,4.9
		l-1.1,2.2l1.1,7.6l3.8-1.1l0.5,1.6l1.6,1.6l2.2-3.2l2.2,1.6l2.7-1.6l2.7,0.5l2.7-2.7l2.7-0.5l1.1,0.5l1.6,3.2l1.1,0.5l0.5,3.2
		l1.6,2.2l-0.5,2.2l6.5,1.1l-1.1,4.9l-1.6,2.2l3.2,3.2v1.6l1.1,1.1l-1.1,1.6l0.5,2.2h0.5l1.6,3.8l3.8,4.9l-2.7,2.7l-1.6,7l1.6,3.8
		l2.2,1.1l-3.2,2.2l-4.3,7h-1.6l-3.2,4.9l-1.1,3.8l-1.1-1.1l-2.7,1.6l-2.2-0.5v2.2l-2.2,2.2l-15.7,6l-6,15.2l0.5,4.3l-2.2,4.3
		l3.2,2.2l-1.6,2.2l1.1,2.2l5.4,3.8l0.5,2.7l-1.1,1.6h-3.2l-1.6,1.6h-2.7v-1.1l-1.1-0.5l-3.2,1.6v1.1l3.2,2.7l-0.5,1.6h-2.2
		l-3.2-3.8v-2.2l3.8-2.2l-1.1-2.7l-1.6-1.1l-3.8,0.5l-1.6-1.1v-7l-6-1.1l-2.7-1.6l1.6-3.8l-1.6-2.7l-0.5-2.7H302l-0.5-2.2l-2.2-0.5
		l-6-6.5l-4.9-3.2l-0.5-2.2l-2.2-3.2l2.7-2.2l-1.1-7l-3.2-1.1l-8.1-0.5L275,275.5"/>
	<path id="skovorodinskij_rajon" inkscape:connector-curvature="0" class="st0" d="M44.9,200.8V197l2.7-1.1l1.6-3.2H47l-0.5-2.2
		h-1.1v-4.9l-2.7-2.2v-1.6l-2.7-1.1l0.5-3.8l1.6-3.2l2.2-1.1l3.2,1.1l0.5,0.5v1.6l1.6,0.5l2.7-1.6l1.1,6l1.6-0.5l1.6,2.7l8.1,1.6
		l3.8-0.5l2.7,0.5l1.1,2.2h5.4l2.2-4.9l1.6-0.5l1.6-2.7l-0.5-2.7l3.8-2.2l-1.6-3.2l3.2-2.2l2.2,0.5l1.1-2.2l1.1,1.1l2.2-1.1l3.2,1.1
		l2.2-0.5l1.1-3.8l-0.5-0.5v-3.2l2.7-4.3v-2.7l2.7-2.2l-0.5-2.7l0.5-2.2h5.4l3.8,4.9l3.2-0.5l9.2,3.8l1.1,3.8l-4.3,5.4l0.5,2.2
		l-0.5,2.2l0.5,1.6l-0.5,0.5l8.1,1.1l3.8-1.6l1.1-2.2l1.6,2.7l2.7,2.2h7.6l1.1-1.1l4.9,1.1l5.4-1.1l3.2,3.8l2.7-1.1l3.8,1.1l2.2,2.2
		l3.8,1.1l3.8-2.7l1.1,1.1l1.6-1.1v-2.7v0.5l2.2-0.5l1.1-2.7l2.2-1.1l4.9,1.6l0.5-0.5l-0.5-1.6l0.5-0.5l0.5,2.2l1.6,0.5l-0.5-2.2
		l1.1-0.5l1.1,2.2l-1.1,3.2l1.1,4.9v2.2l-2.2,4.3l-1.1,7.6l0.5,2.7l1.6,2.7h-3.2l-9.2,4.3l-2.7-1.1l-2.7-2.7v-1.6l-2.7-2.2l-4.3,6
		l2.2,2.2l0.5,2.7l2.7,2.2l-0.5,2.7l4.9,3.8l1.6,4.9l3.8,6v3.2l-2.7-0.5l-4.9,2.2l-1.1-0.5l-2.2,1.1l-2.2-2.2h-1.1l-3.8-4.9
		l-4.3-2.2l-4.3,3.8L158,223l-1.1-2.2l-2.2,0.5l-2.2-1.6l-4.9-2.7l-7.6,1.6l-4.9-2.7h-1.1l0.5,3.8l-1.1,1.1l-0.5-0.5l0.5-2.2
		l-0.5-1.1h-2.2v2.2l1.1,1.1l-0.5,1.1l-2.2-2.7l-7.6,0.5l-3.8,6.5h-3.2l-7.6,6.5l-10.3,2.7l-6,3.2l-2.7-1.1l-1.6-2.2l-1.1,0.5
		l-2.7,3.8h-3.2l-1.1,3.8l-1.6-1.1v-1.6l-1.1-1.1l-5.4-3.2v-2.2l-2.7-2.2l0.5-1.6l-0.5-1.1l-0.5-4.3l-1.1-1.1h-1.1v-1.6l-1.6-1.6
		l0.5-1.1l-1.1-1.1l0.5-2.2l-5.4-4.9l-1.6-3.2h-1.6l-0.5,2.7l-3.8-4.3l-2.7-0.5v-2.2l-1.6-0.5L44.9,200.8"/>
	<path id="svobodnenskij_rajon" inkscape:connector-curvature="0" class="st0" d="M325.3,338.9l0.5-8.1h2.7l2.7-2.2l2.2,0.5l1.1-1.6
		l-0.5-2.7l-5.4-3.8l-1.1-2.2l1.6-2.2l-3.2-2.2l2.2-4.3l-0.5-4.3l6-15.2l15.7-6l2.2-2.2v-2.2l4.9-1.1l3.2,2.2l1.1,2.7l1.1-0.5
		l-0.5-2.2l1.1,0.5v-2.7l2.7-1.6l-3.2-1.6l-3.2,0.5l3.2-4.9l2.7-0.5l3.2-6.5l3.2-2.2l2.7,2.7l1.1,3.8l4.3,2.2l1.1,1.6v3.2l1.1,2.7
		l4.9,2.2l0.5,1.6l1.1,0.5l0.5,1.6l-1.6-0.5l-1.1,2.2v4.3l-2.7-1.1v3.2l-2.7,0.5l1.1,4.3l-2.7,2.2l-0.5,1.6l0.5,1.1l1.6,0.5v1.1
		l-3.8-0.5l-1.1,2.2h-0.5l-0.5-2.7l0.5-0.5l-1.1-0.5h-1.1l-1.1,2.7h-1.1l-1.1-2.2h-2.7l-1.1,3.2l1.6,0.5v1.1l-1.1,3.8l-2.2,1.1
		l1.1,2.7l1.6,0.5V314h1.1v1.1l1.6-0.5l1.6-2.2h0.5v1.1l0.5,0.5v-1.6l0.5-0.5l0.5,1.6l1.1-2.2v1.6l1.1,0.5l-1.1,2.2l3.8,0.5
		l-1.6,2.2l0.5,2.7l-0.5,1.1l-2.2-0.5l-2.2-2.2l-1.1,0.5v1.6l1.6,4.3l2.2,3.2v2.7h-5.4l-0.5,2.7l-5.4,1.1l-16.2,13v3.8l-1.1,2.7
		l-2.2,2.2l-2.7-2.2l-4.3-1.6l-4.3-3.8l-2.2-0.5L325.3,338.9"/>
	<path id="svobodnyj" inkscape:connector-curvature="0" class="st0" d="M363.8,313.4l2.2-2.2l1.1-3.8v-1.1l-1.6-0.5l1.1-3.2h2.7
		l1.1,2.2h1.1l1.1-2.7l2.2,0.5l-0.5,0.5l0.5,2.7L373,308l2.2,3.2v2.2l-1.1-0.5v-1.1l-1.1,1.6l-0.5-1.6l-0.5,0.5v1.6l-1.1-1.6
		l-1.6,2.2l-1.6,0.5V314h-1.1v1.6h-1.1L363.8,313.4"/>
	<path id="tambovskij_x5F_rajon_x5F__x28_amurskaja_x5F_oblast_x29_" inkscape:connector-curvature="0" class="st0" d="M381.1,415.2
		l3.8-2.2l-1.6-2.2v-1.6l-0.5-2.2l9.7-3.8l-0.5-2.2l1.1-0.5l-0.5-1.6l-2.7-2.2l-2.2-6l0.5-1.1l14.6,1.1l-0.5-2.7l1.6-0.5l-0.5-1.6
		l4.3,2.2l2.2-3.2l-1.6-3.8l4.9-1.1l2.7,10.3l1.1,0.5l4.9,0.5l0.5,4.3l1.1,3.2h-1.1l0.5,4.9l-6,1.6l1.1,3.2h-2.7l-0.5-2.2h-2.2v2.7
		l-2.7,0.5v2.7l0.5,3.8l-6-2.2l1.1,6.5l-2.2,0.5l-1.1,3.8l-7,5.4l-0.5-1.1l-4.9,0.5l-2.2-1.6l-2.2-8.7l-3.2-1.6L381.1,415.2"/>
	<path id="tynda" inkscape:connector-curvature="0" class="st0" d="M138.5,85.5l-2.7-9.2l4.3-1.6h0.5l-0.5,7h3.8l0.5,2.7l1.6,0.5
		l-3.8,7l-1.1-0.5l0.5-1.6l-1.1-1.6l-0.5-1.6l-0.5,0.5L138.5,85.5"/>
	<path id="tyndinskij_rajon" inkscape:connector-curvature="0" class="st1" d="M138.5,85.5l1.1,1.6l0.5-0.5l0.5,1.6l1.1,1.6
		l-0.5,1.6l1.1,0.5l3.8-7l-1.6-0.5l-0.5-2.7h-3.8l0.5-7h-0.5l-4.3,1.6L138.5,85.5 M-86.7,28.1l-0.5-1.6l1.1-2.2l-0.5-2.2l3.8-3.8
		v-2.2l3.2-2.7l3.8-0.5v-1.6l1.6-0.5l4.3-6l1.1-3.2l9.2-3.8l2.7,0.5l2.2-2.2h4.9v-1.1l2.2-2.2l1.1,0.5v-1.1h4.3l4.3,3.8l1.6-1.6h2.2
		l7.6-2.2l2.7,0.5l3.2,2.7v1.6l1.6,3.2h2.7l2.7,3.8l-0.5,2.2l1.1,1.6l2.7-2.7h7l2.7-1.6l1.1-1.6L7,1.6l2.2,1.1L8.6,4.3l2.7,0.5
		l3.2,2.7l6,0.5l2.2,2.7l2.2,0.5l3.2,4.3h3.2l1.1-2.7h2.7l1.1-2.7l-1.1-0.5V8.1L34.6,7V5.9l2.7-1.6l1.1,0.5l0.5,1.6l5.4,1.1l1.1,1.6
		l2.7,1.1l1.1,1.1l1.6-0.5l1.6,1.1l7.6-0.5l6.5-2.7l0.5,1.1l4.9-1.1l2.2-2.7h2.2L81.1,7l1.6,1.6l1.6-0.5l-0.5,1.6l4.3,5.4l4.3,0.5
		l1.1,1.6h1.6l1.1,1.6v0.5l1.1,0.5l0.5,1.6l1.1,1.6l-0.5,1.6l6-0.5l2.2,1.1l1.1,4.3l2.7,2.2l0.5,2.7L112,34l2.7,1.6l1.6-0.5l2.2-4.9
		h2.7l3.8,3.2l2.7-1.6V33l5.4,0.5v-1.6l1.1-1.1h2.7v-2.2l5.4-3.8l3.8,1.1l3.8-0.5l1.6,1.6l1.1,2.7l2.7,0.5v1.1l1.1,1.1L158,33
		l1.1-3.8l2.7-2.7l5.4-1.6h6.5l1.1,3.8l1.6-1.6l2.2,0.5l0.5,0.5l-1.1,0.5l1.6,2.2l1.6-0.5l1.1,1.1v1.1l-1.1-0.5l-1.6,1.1l1.6,3.2
		l3.8-1.1l1.6-1.6l1.6,0.5l0.5-1.6l1.6,1.6l2.2-1.6l0.5,1.6l1.6,0.5l3.8-3.2v-1.1l-1.6-1.1l2.2-3.8l3.2-2.2l0.5,0.5v1.6l2.7,2.2
		l1.6-2.7h2.7l2.2-2.2l-0.5-2.2l-1.1-1.1l0.5-1.6l1.1-1.1l6.5-1.6l1.1-2.2l3.8,1.6l2.2-1.6l1.1,2.2l-0.5,0.5l1.6,0.5v1.6l3.8,0.5
		l0.5,1.1l1.6-0.5l1.1-2.7h3.2v-1.1l-3.8-3.8l2.7-1.6l1.1-3.8l2.7-1.6h1.6l1.1,2.2v1.1l0.5,0.5l7-3.2l4.9,11.4l0.5,2.2l0.5,1.6
		l1.6,0.5l-2.2,2.2l0.5,0.5v4.9h-1.6l0.5,1.6l-1.6,1.1l0.5,1.1h-1.1l1.1,0.5l-0.5,0.5h0.5l-0.5,0.5l0.5,2.2v2.2h0.5v2.7l-1.1-0.5
		l0.5,1.6l-2.7-0.5l1.1,6.5l1.1,1.1l1.6,6.5l3.8,6.5l0.5,2.2l-1.6,5.4l0.5,3.2l-1.6-0.5v-0.5l-0.5-1.1l-3.8-2.2l-3.2,2.2l-3.2-1.6
		h-3.2l-8.1,2.2h-1.1l-0.5,2.7l-4.9,1.1l0.5,2.2l-1.1,1.1L230,79l-1.6,1.6h1.1V79l1.1,0.5l-1.6,3.2h1.6l0.5,1.6l-4.3-1.1l-1.1,1.1
		h-3.8l-2.7,2.7l1.1,3.2v1.1l1.1,1.6l0.5,2.2l1.1,1.1l1.1,2.7l-0.5,3.8l1.6,0.5l-0.5,2.2l-2.2,1.1l2.7,2.2l-2.7,1.6l0.5,1.6
		l-2.2-1.6l-5.4,0.5l-2.7-2.7l0.5-1.6l-6-2.7l-2.7,1.1l-1.6-1.1l-3.8-1.1v-2.2l-0.5-0.5v2.2l-1.1-0.5l1.1,2.2v1.1l-1.6,2.2l-3.2,2.7
		l-1.6-0.5l1.1,2.2l-2.2,2.2l-0.5,7l3.8,3.8l2.7,5.4h1.6l1.1,1.6l-0.5,2.2l1.1,0.5l-0.5,1.6l1.1,1.1l-1.1,0.5l1.1,0.5l0.5,2.2
		l-1.1,0.5l1.1,0.5l-0.5,0.5l1.1-0.5v1.1l1.6,0.5l1.6,2.7l2.2,0.5l-2.7,1.6l-1.1,7.6L197,158l-4.3,6l-3.2,1.6l-0.5,2.7l-2.7,1.1
		l-1.1,2.7l-2.2,0.5v-0.5v2.7l-1.6,1.1l-1.1-1.1l-3.8,2.7l-3.8-1.1l-2.2-2.2l-3.8-1.1l-2.7,1.1l-3.2-3.8l-5.4,1.1l-4.9-1.1l-1.1,1.1
		h-7.6l-2.7-2.2l-1.6-2.7l-1.1,2.2l-3.8,1.6l-8.1-1.1l0.5-0.5l-0.5-1.6l0.5-2.2l-0.5-2.2l4.3-5.4l-1.1-3.8l-9.2-3.8l-3.2,0.5
		l-3.8-4.9H106l-0.5,2.2l0.5,2.7l-2.7,2.2v2.7l-2.7,4.3v3.2l0.5,0.5l-1.1,3.8l-2.2,0.5l-3.2-1.1l-2.2,1.1l-1.1-1.1l-1.1,2.2
		l-2.2-0.5l-3.2,2.2l1.6,3.2l-3.8,2.2l0.5,2.7l-1.6,2.7l-1.6,0.5l-2.2,4.9l-2.7,0.5l-2.7-0.5l-1.1-2.2L60.6,184l-3.8-1.1l-1.6-2.7
		l-1.6,0.5l-1.1-6l1.1-1.6l3.8-1.6v-3.8l-1.1-1.6l-4.9-1.6l-1.1-1.6l-4.3-0.5l-0.5-4.3l-1.1-1.6h-1.6l0.5-4.9l-0.5-1.6l-1.6-0.5
		L40,145l-3.8,4.3l-2.2,1.1l-0.5,2.7l-1.1,0.5v-0.5l-1.6-1.6v-2.7l-0.5-2.7l3.2-6l1.6-3.8l-0.5-1.6l2.2-1.1l1.1-3.2l-1.6-3.2
		l-0.5-3.2l-2.2-1.6l1.1-4.9l1.1,0.5l1.1-2.7H34l-1.6-1.1v-1.6l-1.1-2.2l0.5-2.7l-1.6-3.8l-0.5-0.5v-4.9l-0.5-0.5l-0.5-3.2l-0.5-1.1
		h-2.2l-0.5-2.2l-2.2-2.2l-1.1-2.7L20,87.6l-3.2-0.5l-0.5,1.6l-1.6,0.5l-1.6,7l-1.6,1.6L8,98.5l0.5,2.2l-2.2,0.5L4.2,99l-1.6,0.5
		l-1.1-6l-2.7-2.7L-2.2,86l-1.1-1.1v-6l-5.4-4.3v-4.3l-4.9-7l-2.7,3.2l-2.7,1.1l-2.7-1.6l-0.5,2.2h-3.2l-1.6,1.6l-1.1,3.2l-4.3,2.2
		l-0.5,2.7l-1.6-0.5l-1.1,1.6l-3.2,0.5l1.1,3.2l-2.7,1.6h-2.7l0.5-1.6l-1.1-1.1h-4.3l-1.6,5.4l-1.1,1.1l-1.1-3.2l-2.2-1.6l1.1-2.2
		V79l-1.1-1.1v-1.6l-5.4-4.9l-0.5-3.8l2.7-1.1l1.1-3.8l2.7-1.6l2.2,0.5l0.5-2.2l6-2.2l0.5-1.1l-0.5-1.1l1.6-0.5l-0.5-1.6l-6.5-0.5
		l-1.1-1.6l0.5-2.2l-2.7,0.5l-4.3-1.6l-0.5-1.1l1.1-1.1l-0.5-1.1l0.5-1.6l-1.6-0.5h-0.5v1.6l-3.8-1.1l-0.5,0.5l-1.6-1.1l-4.9,1.6
		l-2.2-1.6V40h-3.8l-0.5-1.1l-1.6-0.5v-3.2l1.6-4.3l-1.1-1.1l-3.2,1.1l-0.5-2.7l-3.2,1.1L-86.7,28.1"/>
	<path id="uglegorsk_x5F__x28_zato_x29_" inkscape:connector-curvature="0" class="st0" d="M357.3,279.9l1.1-3.2l1.1-0.5l5.4,1.6
		l-2.7,1.6v2.7l-1.1-0.5l0.5,2.2l-1.1,0.5l-1.1-2.7L357.3,279.9"/>
	<path id="zavitinskij_rajon" inkscape:connector-curvature="0" class="st0" d="M442.8,388.1l0.5-1.6l-0.5-2.7l1.6-1.6l-0.5-1.1
		l2.7-5.4l2.7-2.7l3.8-1.6l1.6-2.7l-0.5-1.6v-3.2l1.6-3.8l-4.3-1.6l-0.5-5.4l-1.1-1.6l1.6-1.1l-2.7-7.6h2.2v-3.2l1.6,0.5l1.6-6
		l1.6,1.6l1.1,1.1l9.7-0.5l4.9,2.7l3.8-1.6l2.2,2.7l2.7,1.1v2.2l1.1,1.1l-0.5,2.7h-1.6l-0.5,1.6l-3.8,1.6l-0.5,2.2l1.1,1.6v2.2
		l-1.1,6l-3.2,5.4l0.5,8.1l-2.2,1.1l1.1,3.8l-4.3,3.2l1.1,2.7l2.2,2.2l-2.2,1.1l1.1,3.8l-4.3,3.2l1.1,0.5l-0.5,1.1l0.5,0.5l-1.6,0.5
		l1.1,0.5l0.5,2.7l-3.8-0.5l0.5-1.6l-1.6,0.5l-1.1,3.2l-0.5-2.7l-2.7,1.6l-1.1-3.2l-3.2-4.3v1.1l-3.8-4.3h-1.6l-0.5-4.3H442.8"/>
	<path id="zeja" inkscape:connector-curvature="0" class="st0" d="M269,152.6l5.4-1.6l-0.5-1.1l0.5-0.5l1.6,1.6l-2.7,6.5l-1.1-0.5
		l0.5-2.2l-0.5-1.6l-1.1,1.1L269,152.6"/>
	<path id="zejskij_rajon" inkscape:connector-curvature="0" class="st1" d="M269,152.6l2.2,1.6l1.1-1.1l0.5,1.6l-0.5,2.2l1.1,0.5
		l2.7-6.5l-1.6-1.6l-0.5,0.5l0.5,1.1L269,152.6 M190.5,120.7l0.5-7l2.2-2.2l-1.1-2.2l1.6,0.5l3.2-2.7l1.6-2.2v-1.1l-1.1-2.2l1.1,0.5
		v-2.2l0.5,0.5v2.2l3.8,1.1l1.6,1.1l2.7-1.1l6,3.2l-0.5,1.1l2.7,2.7l5.4-0.5l2.2,1.6l-0.5-1.6l2.7-1.6l-2.7-2.2l2.2-1.1l0.5-2.2
		l-1.6-0.5l0.5-3.8l-1.1-2.7l-1.1-1.1l-0.5-2.2l-1.1-1.6v-1.1l-1.1-3.2l2.7-2.7h3.8l1.1-1.1l4.3,1.1l-0.5-1.6h-1.6l1.6-3.2l-1.1-0.5
		v1.6h-1.1L230,79l-1.6-1.1l1.1-1.1l-0.5-2.2l4.9-1.1l0.5-2.7h1.1l8.1-2.2h3.2l3.2,1.6l3.2-2.2l3.8,2.2l0.5,1.1v0.5l1.6,0.5
		l-0.5-3.2l1.6-5.4l-0.5-2.2l-3.8-6.5l-1.6-6.5l-1.1-1.1l-1.1-6.5l2.7,0.5l-0.5-1.6l1.1,0.5v-2.7h-0.5v-2.2l-0.5-2.2l0.5-0.5h-0.5
		l0.5-0.5l-1.1-0.5h1.1l-0.5-1.1l1.6-1.1l-0.5-1.6h1.6v-4.9l-0.5-0.5l2.2-2.2l-1.6-0.5l-0.5-1.6l-0.5-2.2l-4.9-11.4l2.7-1.1l4.3-3.8
		l3.2-1.1l2.7,0.5l2.7,2.7l4.3,1.1l1.1,1.1l0.5,1.6l1.1,0.5l4.3-2.2l1.6-2.2l1.1,0.5v2.2l0.5,1.1l2.7-0.5l1.6,1.1l0.5-2.7l1.6,1.1
		l1.6-1.6l2.2,0.5l4.3-3.8v-2.2l-1.6-2.2l-0.5-2.7l-3.2-2.7l-0.5-2.2l4.3-2.2l2.2-3.2l1.6,0.5l1.6-1.6l0.5,1.1l1.1-2.2h2.2l0.5-3.8
		l2.2,1.1l3.2-3.2l0.5-1.6l2.2,1.1l2.7-2.2l1.6,1.6l2.2-0.5l0.5-3.2l2.7,1.1l2.7,2.2l2.7-1.1v-1.6l2.7,0.5l3.8-3.8l3.2-0.5l-0.5-1.1
		l1.1-0.5l4.9-0.5l3.8-3.8h2.2l2.2-1.1l6.5,1.1l2.7-1.6l4.9,2.2l3.8-0.5l1.6-4.3l5.4,1.1l1.1-1.6l2.2-0.5l0.5-1.1l-1.1-1.1l1.6-1.1
		l4.3,1.6v-2.7l0.5-2.2h3.8l1.6-1.1l1.6,0.5l0.5,1.6h1.6l1.6-2.2h2.2l-1.6-3.2l1.1-1.1l7.6-0.5v-1.6l-0.5-0.5l2.2-1.1l0.5-2.7h1.6
		l3.8-2.7l4.3,1.1l2.2-1.1l1.1,2.7l4.9,1.6l0.5,1.6l1.6,1.1l-0.5,2.2l0.5,1.1l2.2,1.6l1.1-0.5l3.8,3.2h3.2l1.6-1.1l1.1,0.5h2.2
		l1.1,0.5l-1.6,2.7l-1.1-0.5l-2.2,2.2l-0.5,3.2l-3.8,0.5l2.2,3.8l-1.1,2.2v3.8H432l-1.6,2.2l-4.9,1.1v2.2l1.1-0.5l0.5,1.6l0.5-1.1
		v0.5l0.5,0.5l-1.1,0.5v1.1h2.7l-1.1,1.1h1.6v1.1l1.6,0.5v1.6l1.1,0.5l-0.5,0.5l-4.9,4.3l-7,2.7l-2.7,4.9l4.9-1.1l-0.5,1.6l0.5,1.1
		l-1.6,1.6l0.5,1.6L420.6,1l-2.2,0.5v1.6h-2.2v2.2l-1.1,2.2v2.2l-2.2,1.6l1.1,2.2l-1.6,0.5l-1.1-1.1l-1.6,2.2l0.5,2.2l-6,3.2
		l-1.6,3.8v3.2l-3.8,3.2l2.7,4.3l2.2,0.5v2.2l0.5,1.6h-0.5v3.2l1.1,2.2l-0.5,1.6l1.1,3.8l-0.5,1.6L406,53l-1.1,0.5l-1.1,3.8h-2.7
		l-0.5-1.6l-1.6-0.5l-2.2,3.2l-1.1,2.7h-3.2l-0.5,1.6l1.1,1.1l-1.6,1.6l0.5,2.7l-0.5,2.2l0.5,0.5l-2.7,4.9v2.7l3.2,8.7l-2.2,2.2
		l-0.5,3.8l3.2,1.6l2.2-2.7l3.8,1.1l2.7-2.7h1.6l1.1,2.2l1.6,0.5l3.8-2.2l1.6,3.8l2.2,1.1l-0.5,1.6l2.7,7v2.7l1.1,2.2v1.1l0.5,0.5
		v1.1l-3.8,6l-1.6-1.1l-2.2,0.5l-1.1,2.2l-5.4,2.7v6l-4.3,2.2l0.5,8.7l-1.6,6v4.3l-5.4,2.2h-7l-1.1-1.1h-2.7l-3.2-2.7l-0.5-1.6
		l-2.7-1.1l-3.2,3.2h-2.7l-3.8,1.6l-2.2,2.7h-1.6l0.5,1.6h-3.8l-1.6,1.6l1.6,1.6l-1.1,1.6l0.5,1.6l2.2,3.2l-0.5,1.1l2.2,3.2v1.1
		l1.1,1.1l-1.6,2.7l-1.6-0.5l-0.5,2.2l-3.8,0.5l0.5,7.6l-1.1,3.8l1.1,1.6l0.5,2.7l-4.9,6l1.6,4.9l1.6,0.5v1.6l1.1,1.1l-0.5,1.6
		l-2.7,2.7l-2.7,0.5l-2.7,2.7l-2.7-0.5l-2.7,1.6l-2.2-1.6l-2.2,3.2l-1.6-1.6l-0.5-1.6l-3.2,1.1l-1.6-7.6l1.1-2.2l-2.7-4.9l-3.8,3.2
		l-2.2,4.3l-3.2-3.2l-4.3,1.6l1.1,3.2l-1.6,1.6l0.5,1.1l-0.5,1.6l-2.2-2.7l-1.6-0.5l-1.6,3.8l-2.7-1.1l-1.6,1.1l-1.6-3.2l-3.8-4.3
		l-3.8,1.6l-2.7-1.6l-3.2,5.4l-4.3-0.5l-2.2-3.8l-9.2,2.7l-0.5-2.2l-1.6-1.6l-6.5-3.2l-0.5-3.2l-3.8-4.3l-2.7,2.2l-2.7-2.7v-2.2
		l-1.6,0.5l-2.2-1.1l-1.6-2.7l0.5-3.8l-1.1-3.8h-2.2l-4.9-6l-4.3-1.6v-3.8l1.1,1.1v-1.6l1.1,1.6l2.7-1.6l1.6,1.1l-0.5-2.2l-0.5-1.1
		v-0.5h-2.2l-0.5-0.5l-3.2,0.5l-4.3-1.1l-8.7-4.3l-0.5-1.1v-0.5l-6.5-2.7l-5.4-5.4l-0.5-1.1l-1.1,0.5v-2.2l-1.6-2.7h-3.8l-1.6-2.7
		l-1.6-0.5v-1.1l-1.1,0.5l0.5-0.5l-1.1-0.5l1.1-0.5l-0.5-2.2l-1.1-0.5l1.1-0.5l-1.1-1.1l0.5-1.6l-1.1-0.5l0.5-2.2l-1.1-1.6H197
		l-2.7-5.4L190.5,120.7"/>
</g>
</svg>
