<?xml version="1.0" encoding="utf-8"?>
<!-- Generator: Adobe Illustrator 27.6.1, SVG Export Plug-In . SVG Version: 6.00 Build 0)  -->
<svg version="1.1"
	 id="svg2" xmlns:svg="http://www.w3.org/2000/svg" xmlns:rdf="http://www.w3.org/1999/02/22-rdf-syntax-ns#" xmlns:dc="http://purl.org/dc/elements/1.1/" xmlns:sodipodi="http://sodipodi.sourceforge.net/DTD/sodipodi-0.dtd" xmlns:cc="http://creativecommons.org/ns#" xmlns:inkscape="http://www.inkscape.org/namespaces/inkscape"
	 xmlns="http://www.w3.org/2000/svg" xmlns:xlink="http://www.w3.org/1999/xlink" x="0px" y="0px" viewBox="0 0 289.6 700"
	 style="enable-background:new 0 0 289.6 700;" xml:space="preserve">
<style type="text/css">
	.st0{fill:#9591FD;stroke:#FFFFFF;stroke-width:0.3125;stroke-linejoin:round;stroke-miterlimit:10;}
</style>
<g id="krasnojarskij_kraj" transform="matrix(0.5,0,0,0.5,48.685701,-0.124977)">
	<path id="abanskij_rajon" inkscape:connector-curvature="0" class="st0" d="M198,1170.1l1.7,0.3l-1-1l1.7-1.4l-1-2l0.3-1l0.7-0.3
		v-2h0.3v-1h-1l0.7-2.7l1-0.7l0.7-1l-1.7-0.3l0.3-0.7h-2l0.3-1.4v-0.7l8.1-0.7l2.4-0.7l1.4-1.4v-1.4l-0.3-1.7l-4.1,0.3l0.3-10.5
		l-1-2.4l3.7-3v-2.7l-1.4-2.4l2.4-1.4h1l4.1,6.1l5.4-1.4l6.4,1.7l15.2,13.9l-1.7,4.7l0.7-0.3l2.4,1.7l1-0.3v0.7l-0.3,0.3l1,0.7
		l1.4-1v1l1.7-0.3l0.3,0.7l-1,2.7l-0.7,0.7l-0.7-0.7l-2.4,1v2.7l1,1h-2.4l0.7,0.7v1.4l-0.3,0.7l0.3,0.7l-0.7,1.7v1l-0.7,1l-2.7,1.4
		l-3.7,0.7l-1.7-0.3v0.7l-1,1.7l-2.4,0.3l-0.3,1l-1.7-1.4h-1v0.3l-1.7,0.3l0.3,0.7l-2,1.4l-1-1.4l-4.1,1.7h-3.4v0.7l-0.7,1l-2.7-1.4
		l-1,3.7H209l-0.3-2h-4.1l-0.7-1v-0.3l-2.4-1.4l-0.7,0.7l-2-0.3l-0.7-2h0.7l-0.3-1.4l-0.7-0.7v-1.6"/>
	<path id="achinsk" inkscape:connector-curvature="0" class="st0" d="M68.9,1188l0.3-0.7l1.4,0.7l0.3-0.7h-0.3v-1l0.3-0.3l1.4,0.7
		v-1h0.3l-0.3-0.3l-0.3,0.7l-1.7-1l2,0.3l-0.3-1l1.4-0.3l-0.7-1l0.3-0.3l1,1.4h1l-0.3,1.4l1.4,0.3h-1l-1.7,3l-1.7-1l-0.7,1v-0.7
		l-0.3-0.3l-0.3,0.7l0.3,0.3l-1,0.3l-0.7-0.3l0.3-0.7h-0.4"/>
	<path id="achinskij_rajon" inkscape:connector-curvature="0" class="st0" d="M68.9,1188h0.3l-0.3,0.7l0.7,0.3l1-0.3l-0.3-0.3
		l0.3-0.7l0.3,0.3v0.7l0.7-1l1.7,1l1.7-3h1l-1.4-0.3l0.3-1.4h-1l-1-1.4l-0.3,0.3l0.7,1l-1.4,0.3l0.3,1l-2-0.3l1.7,1l0.3-0.7l0.3,0.3
		h-0.2v1l-1.4-0.7l-0.3,0.3v1h0.3l-0.3,0.7l-1.4-0.7L68.9,1188 M61.4,1174.5l2.4-0.7l0.7,1.7l1-0.7l2.7,0.3l1,1.7l1.4-0.3l1.4-1.7
		v-1l1-0.7l0.7,2l-0.7,1l0.7,1l-1.4,0.7l0.3-0.7l-0.3-0.3l-0.7,1l1.7,3.4l2.7-2l2.4-0.3v-1l1.4-1l-0.3-0.3l0.3-1.4l2.7-0.3v-0.7
		l0.7-0.3l-0.3-0.7l0.3-0.3l2,1l7.4,0.7l-0.3,2.4l-3.4,0.7l0.3,2.4h0.3v2l-0.3,1l-1-0.7l-1,0.3l-0.7,1.4h-3v1.4l1.7,0.7l-1.4,1.4
		l1,0.3v1.4h0.3l-0.3,3.7l0.7-0.3l-1.7,2l0.7,1.4l1.4,0.7l-0.7,2l-1-0.7l-0.7,1v-0.7l-0.7,0.3v-1.4l-0.7,0.3v-0.7l-0.3,0.7l-0.7-0.7
		v0.7l-0.3-0.3h-4.5v0.7H76l-0.3-0.7v-0.3l-0.7,0.3l0.3-1.4l-0.3-1h-1v-1.4l-1.4-0.7l-0.7,1h-0.7l-0.3,0.7l-1,1l-4.4-1.4l-0.3,0.7
		l-0.3-1l-2.7-0.7l0.7-2.4l3.4-1.4v-1.4l-0.7-0.3l1-2l-1.4-3.7l0.7-1.4l-0.7-1.4h-2v-1.4l-1.7-2.4L61.4,1174.5"/>
	<path id="balakhtinskij_rajon" inkscape:connector-curvature="0" class="st0" d="M73.6,1227.5l3.4-2.4l0.7-2l-0.3-0.3l1.4-2.4
		l2.7,0.7l-0.3-1.4h1.7l0.3-1.7l6.4-1.4l1.7,0.7l0.3-0.7l0.3,0.7l0.7,0.3l0.3-0.3l-0.7-2.7h-1.7v-1l0.7-1l6.4-2.4l2.7,1l2,3.4l2-1
		l2.7,0.7l-1.4-3l7.8,3l5.1,1h2.7v-2l2,1l4.1-1.4l0.3,2l-1,0.7l-0.3,1.4l2,3h0.3v5.1l1,1.4v2.7l-0.3,1.7l0.3,1.4l-0.3,0.7l1,1.4l2-1
		l5.1,4.7l-0.3,3l0.7,1.4l-0.7,1.4l1,1.7l-0.3,1l0.7,1l1,0.7l-0.3,1.4l0.7,1l-0.7,2l1.7,1l-0.3,1.4l-1.4,0.3l-4.1-3.4l-3.4,1.7
		l-1.4-1v-1l-2.4-1l-5.7,1h-1.7v-0.7h-0.7l0.3-0.3l-1.4,0.3l-0.3-0.7l-0.3,0.7h-0.7v0.7h-0.3l-0.7,2l-1-0.7l-1.4,1l0.7,2l-0.3,0.3
		l-0.3,2.4l-1.7-0.3l-2.4-2.7l-1-0.3l0.3-0.7l-0.7-1l-1.4-1.4l-1-1.4l-2,0.7l-1-0.7l0.3-1.4l-0.7-0.3l-0.7-3.4l0.3-0.7l1-0.3
		l0.7-1.7l1-0.7l-0.3-1l-6.4-0.7v-2.4l-1-2.7l-3.4-1l-0.3-1.7l-1.4-0.3L92,1234l-0.3,1l-3.7,0.7l-0.7,1.4l-1.4,0.3l0.3,0.7l-1.7,0.3
		v1l-0.7,0.7l-1.7-0.3l-0.3,0.7l-0.3-1.7l0.3-1.4v-1.4l-2,0.3v-1.4h-2l-0.3-2.4l-1.4-0.3v-2.7l-1,0.7l-1.4-1L73.6,1227.5"/>
	<path id="berezovskij_x5F_rajon_x5F__x28_krasnojarskij_x5F_kraj_x29_" inkscape:connector-curvature="0" class="st0" d="
		M144.6,1195.8l0.7-0.3l-0.3,1l2-0.3v-0.7l-0.7-1h-1L144.6,1195.8 M142.6,1195.1l1,0.7l1.4-1.4l-1.4-1L142.6,1195.1 M118.6,1204.2
		l1.7-0.7l1.4,0.7v1l1.7,0.3l0.7-1.4l-0.3-1l3.4-0.7h3l1.7,2l0.3-1.7h2.4l0.7-1.4h1l0.3-1.7l1-0.3h-0.7l0.3-0.7l-0.7,0.3l0.3-1
		l-1.4-0.3v-0.7l1.4-0.3l1,1.7l0.7-0.3l0.7-2.4l-0.7-1.7l-0.3-0.3h0.3v-0.3l2.7,0.3l1-1.4l1.7-0.3l-0.3,1l1.7-0.7v0.7l0.7,0.7l3-0.3
		l2-2.4l2-5.1v-1l1.7,1.4l2-0.3l0.7-1.4l2-0.3v1l2,2v3.4l1,0.7H160l0.3,2l-1,1l-0.7,3.4l-0.3,0.3l-9.1-1.7l0.3,1l-0.7,1l0.3,1.7
		l-1,0.7l-1,1.7h-0.7l1,1l-3,2l-0.3-1l-1,0.7v1.4l1.7,1.7l-1,1v0.3l0.3,0.7h-1l-2,3l1.4,2l0.7-0.7v0.3h1v0.3l0.7,2l-0.7,1.7l0.3,1
		v0.7l-3,1.7l-0.7,1l-3,1l0.7,0.7l0.7-0.3l-0.3,0.7l0.3,0.7h-1l0.3,1l0.3-0.3l0.3,1.7l-0.7,0.7l-0.7,3.7v0.7l-1.7,3.4l-3.7-3.7l-2,1
		l-1-1.4l0.3-0.7l-0.3-1.4l0.3-1.7v-2.7l-1-1.4v-5.1h-0.3l-2-3l0.3-1.4l1-0.7l-0.3-2l-4.1,1.4v-1.4l-1.7-1.7l-3-0.7l0.3-1.4v-0.7
		l1-1.4v-1.4L118.6,1204.2"/>
	<path id="biriljusskij_rajon" inkscape:connector-curvature="0" class="st0" d="M53,1150.5l0.7-4.1l2.7-4.4l2.4-14.5l2-1l2.4-2
		l-1-1.7l-6.1-1.7l0.3-0.3v-1.7l0.7-2l-0.3-1.7l2.4-2.7v-1.4l17.9-6.8l0.7,0.7l-0.3,0.7h0.7v1l1,1l-1.7,1.4l0.3,1l-0.7,1l0.7,0.3
		l-0.7,0.3l0.3,1.7h-0.7v1.7l0.7,0.3l-0.3,0.3l0.3,1l-0.3,1l1,1l-0.7,1l0.3,0.7l1-0.3l1.4,1.7v-3l5.7,0.3l0.3,1l3,1l-0.3,2l2,1.7
		l3.7-2.4l1.4,2l1-0.7l-0.3,2l0.7,2.7l-1.4,1l-0.7,1.7l-1.7,0.7v1.4l-1,2h4.4l4.1,1.7l1-2.7l3,0.7l-3.4,8.1l-1.4,1.7l7.4,5.7
		l-0.3,5.4l-0.7,0.7l1.4,1.7v3.4l0.7,0.3l-0.3,0.7l0.7,1l-8.4,2v-0.7l0.7-2l-1.4-2v-2.7l-1-1l-2,1.4v2l-3.7,2.4l-0.3-1.7l0.3-1.4
		l-0.7-1l-2,1.7l-3.7,0.3l-2.7-0.3l-0.7-1.4l-3.4-0.3l-3-1.7l-1.7,1H73v1.4l-1.4,1h-1.4l-1.4,7.1h-2.4l-2.4,2l-1.4-2.7l1-0.3
		l0.3-1.7l1-0.7l0.3-2.4l-1.7-1.4v-1.7l-0.7-1.4l0.3-0.7l-0.3-1.4l-1.7-1l-0.3-1.7l-1.4-1v-0.3l-2.7-1.4H53"/>
	<path id="bogotol" inkscape:connector-curvature="0" class="st0" d="M46.2,1188.7l0.7-3l0.7,1l2.4-1l0.3-2.4l0.7,0.3h-0.3l0.3,1.7
		l-1,1h2.3l-1.7,0.3l-0.7,1l0.3,0.7l-0.7,0.7l-0.7-1l-1.4,0.3l-0.3,1L46.2,1188.7"/>
	<path id="bogotol_x27_skij_x5F_rajon" inkscape:connector-curvature="0" class="st0" d="M46.2,1188.7l1,0.7l0.3-1l1.4-0.3l0.7,1
		l0.7-0.7l-0.3-0.7l0.7-1l1.7-0.3H50l1-1l-0.3-1.7H51l-0.7-0.3l-0.3,2.4l-2.4,1l-0.7-1L46.2,1188.7 M33.7,1178.5l0.3-0.3l5.7,0.7
		l1.4-2l1.4,0.7l2-1l0.3,0.7l2.4-1l0.3,2l0.7,0.3l1.4-1.4h1.7l1.4-1l-0.3-0.3h1.4v-1l0.7,0.3v-1.7h2.4l-0.3,1l5.4-1.7l0.7,1.4
		l-1,0.3v1l1.7,2.4v1.4h2l0.7,1.4l-0.7,1.4l1.4,3.7l-1,2l0.7,0.3v1.4l-3.4,1.4l-0.7,2.4l-1.7-0.3l-1.4,1h-2.4v1l-1.7-1l-1.4,0.3
		l-0.7,2l-0.7-0.3l-0.3,0.7h-0.8v-0.7l-0.7,1v-0.7l-1.7,1.7l-1.4-0.3l-1.4,1.4l-3.4,0.7l-1-3.4l1.4-2l-0.7-1l-1.7-0.3l0.3-2.7
		l-2-0.7l-0.3-0.7l0.7-1l-0.7-0.7l-1.4-0.3l0.3-4.7h-3.4v-0.7l0.7-1L33.7,1178.5"/>
	<path id="boguchanskij_rajon" inkscape:connector-curvature="0" class="st0" d="M187.8,1051.5l1-1.7l1.4,0.7l-0.3-0.3v-1.7l1,1.4
		l2-0.3l1-1.7l-0.7-1l1-0.7v-0.7l0.3,0.3h0.3l0.3-1v-0.7l1.4-1l0.3,0.3l-0.3,0.3l0.7-0.3l-0.7-1.4l1.4-0.3l0.3-1l0.7-0.3l-0.3-1h0.7
		l-0.3-0.7l0.7,0.3v-0.7l0.3-0.3h-0.3l0.3-1l-0.3-0.3l0.7-0.7l-0.3-0.3l0.3-0.7l-0.7-0.3l1-1.7v-0.7l1-0.7l-0.3-1l0.7-0.7l2-1h2
		l1.4,2.7l1,0.7l1.7-0.3l2.4-3l1,0.3l-0.7,1l0.3,1l1.4,1l0.3,0.7l-1,1.7l1.4,1.4h2.4l2.4-3h2.7l2.4-0.7l1,0.3l1.7-0.7l3,2.4h2
		l2.4-1.7v-1.7l-1-0.7l0.3-1.4l1.7-1l0.3-1l1.7-0.3l1.4-1.4l0.7-2l5.4,2.4l1.4-0.3l1-1h2.7l0.7-1h2.4l1.7-2l2,0.3l1.4,1.7h1.4
		l2.4-3.4l3.7,1l1-1l3.4-0.3l0.7-1.4l1.4-0.7l0.3,1.4l0.7,0.3l0.3,1.4l1.4-0.3l0.3-2l1.7-1.4v-1l-0.3-1l0.7-1l2.4-3l2-0.7l0.3-1
		l1.4-1.4l0.3-1.4l-0.7-1l4.4-0.7l0.7-1.4h1l1.4,1.4h2.7v1.4l3,0.3l0.7,1.4l2,1.4l-4.7,3l0.3,1.4l-1.4,1.7v0.7l-2.4,2v1.4l-1,1
		l0.3,0.3l-0.3,0.7l-0.7-0.3v0.3l2.7,2l2-0.3l0.3,0.7l0.7-0.3l1.4,0.7l-0.3,0.3l0.7,0.7h-1l-0.3,1.4h1.4l-0.3,1.4l0.3,0.7l1.7,1.7
		l1-0.3l-0.7,2l1.7,2.4l1,3l-0.3,3.7l0.7,4.7l-0.7,2.7l0.3,1l-4.7,3v-0.7l-1.4,1l-2.7-2.4v-0.7h-1l-0.3-1h-3.7l-1.7-0.3v-1.7
		l-1.4,0.3l0.3,2l-1.7,0.7l-1,2.4h-0.7l0.3,0.7h-0.3l-0.3,1h-1v1l-2,1.4l0.3,1.7h-2.7l-1,1l-0.7-1l-0.3,0.7l0.3,0.3l-1.7,0.3l-0.7,1
		l-0.7-0.7v1l-1.7-1.7l-4.4-0.7l-2.7,6.4l0.7,1h3l3.7,2v0.7l1.4,1.7l-0.3,0.7l0.3,0.3l-0.3,0.3l0.7,1l1,0.3l-1.7,1.4l-1,2.4l0.3,0.3
		l-0.3,1.7l0.7,1l-0.3-2.4l2-2.4l5.1-1.4l0.7-1.7l2.4,2l-1,3.7l1.7,1.4l1,1.7l-0.3,2l-2,2l-0.3,1.4l1.7,1l1,2.4l2,0.7v1.7l0.7,1.4
		l3.4-1.4l3,3.4h1l-0.7,0.7l0.3,0.7l-1.4,1.4l1.7,2.4v2.7l-2.4,2.4h-1.7l-0.7,1.4l-2,0.7v-1h-1.4l-0.3-2H284v-0.7l-3.4-2.4v-3.4
		l-1.7-0.3v-1.7h0.7v-1.7h-2.7l-0.7-0.7l-0.7,0.7l-0.3-0.3l-2,0.7v-1.7h-0.7l0.3,1.4l-1.4,0.3l0.7,5.1h2.4v3.4h3.4v1.7h1.7v1.4h0.7
		l0.3,1.7h0.3l0.3,5.4h5.1v1.7l-1.4,1l-3-0.7l-1,1.7h-1l-0.3,1.4l-1.4-0.3l-0.3,0.7l-0.7-1h-1v-1h-1v-1.4l-1.4-0.7l-2.7,1.4l-3.4-1
		l-12.8-1l-11.8,33.5l-15.5-13.9l-6.1-1.7l-5.4,1.4l-2.4-4.4H213l-1-2l-1.4,0.3l-2,1.4l-7.8,1.7l-0.3-0.7v-0.7l-0.3-0.7l0.7-0.3
		l-0.3-0.7l1-1l-1.7-1l0.3-1.7l-0.7-1.4l-3.7-2l-3.4,0.3l-2.7-1.4l2.4-3.4l0.3-2.4l-0.7-0.7v-1.7l0.7-0.3l-0.3-0.7l0.3-0.7l-0.3-0.7
		l1-0.7v-0.7l2.4-1l-0.7-2l1-1l-0.3-0.7l0.7-0.3l-0.3-1l0.7-0.7l0.7-15.5l-1.4-2.7l-1-1l0.3-1l-0.7-2l4.1-7.8l-2-1l-1,1.7l-1-1
		l0.3-1.4l-1.4-0.3v-1l1-0.7v-0.7l-0.7-0.7l0.7,0.3v-2l0.3-1l-0.7-0.3l1-2l-1-1l-2.7-0.3l0.7-0.7l-2-1.4l0.7-0.7l-1-1.7l0.3-0.7
		L187.8,1051.5"/>
	<path id="bol_x27_shemurtinskij_x5F_rajon" inkscape:connector-curvature="0" class="st0" d="M107.4,1156.2l0.3-5.4l4.1-2.4
		l5.1-7.4l5.7-3l4.4,0.3l6.1-1.4l-0.7,1.4l0.3,0.7l-0.3,1.7l0.3,0.7h2.4l0.3-1h4.1l1.4-1.7l1,1.7l0.7-0.7l-0.3-1l1-0.7l-0.3-0.3
		l1.7-0.3l0.3,2l1.4-0.7l0.3,0.7l-0.7,3l0.7,1.4l2.7,0.7l1.7-0.7l6.1-4.7l-0.3,1.7l0.7,0.3l0.3,1.4v1.7l3,4.7l3.7,8.4l-3,0.3
		l-6.4,2.7l-1.4-0.3l-4.4,2h-2.7l-2.4,1.7l1.4,1.7l0.3,3l-0.3,0.3h-6.4l-1.4-1.4l-3-0.3l-0.7,1v1.4l-1.4,0.7l-0.7-0.3l0.3-0.3h-2.7
		l-0.7-1l0.3-0.7l-0.7-1l-1,0.3l0.3-1l-1-1l1.4-0.3v-0.7l-2-1.4l-2.7,0.7l-5.1-0.3l-1-1.4h-1l-0.7-1.7h-1l-2-2l-0.7,0.3l-1.4-0.7
		l-2-1.7L107.4,1156.2"/>
	<path id="bol_x27_sheulujskij_x5F_rajon" inkscape:connector-curvature="0" class="st0" d="M59.4,1168.7l0.7-1.7l2-1v-1l1-1l-0.3-1
		l0.7-2l2,1.4l-0.3,2.4l-1,0.7l-0.3,1.7l-1,0.3l1.4,2.7l2.4-2h2.4l1.4-7.1h1.4l1.4-1v-1.4h2l1.7-1l3,1.7l3.4,0.3l0.7,1.4l2.7,0.3
		l3.7-0.3l2.4-1.7l0.3,1l-0.3,1.4l0.3,2.4l-0.3,1l0.3,1v1.7l0.3,0.7l-0.3,1l1-0.3l0.7,1l-1.4,1l-1,3.4l-7.4-0.7l-2-1l-0.3,0.3
		l0.3,0.7l-0.7,0.3v0.7l-2.7,0.3l-0.3,1.4l0.3,0.3l-1.4,1v1l-2.4,0.3l-2.7,2l-1.7-3.4l0.7-1l0.3,0.3l-0.3,0.7l1.4-0.7l-0.7-1l0.7-1
		l-0.7-2l-1,0.7v1l-1.4,1.7l-1.4,0.3l-1-1.7l-1.4-0.3l-2.4,0.7l-0.7-1.7l-1,0.7L59.4,1168.7"/>
	<path id="borodino" inkscape:connector-curvature="0" class="st0" d="M180.4,1206.1l0.3-1.4l0.3,0.7l0.7-1l2,1l-0.7,1l0.3,0.7v0.7
		v-1h-1l0.7,0.7l-1.7-0.7l-0.3,0.7l-0.3-0.7l0.7-0.7L180.4,1206.1"/>
	<path id="divnogorsk" inkscape:connector-curvature="0" class="st0" d="M108.8,1203.2l5.1,1v1.7h1.4v-4.1l-2.4-1.4l-0.3-1.4h1
		l-0.7,0.7l2,0.7l0.3,1h1.7v-0.7l1.7,0.3l0.3-1h1l3,0.7l-0.7,0.3l1,1h3.4l-3,1l0.3,1l-0.7,1.4l-1.7-0.3v-1l-1.4-0.7l-1.7,0.7
		l1.4,1.7v1.4l-1,1.4v0.7l-0.3,1.4l3,0.7l1.7,1.7v1.4l-1.7-1.4l-2,0.7l-1.4-1.7h-1.7v-1l-1-0.7v-1.4h-2.7l-0.3-3.7l-3.7-0.7l0.3-1
		L108.8,1203.2"/>
	<path id="dzerzhinskij_x5F_rajon_x5F__x28_krasnojarskij_x5F_kraj_x29_" inkscape:connector-curvature="0" class="st0" d="
		M166.9,1157.6l5.7-1l0.7-1.4h0.7l-0.3-1l3,0.7l-0.3-1h1.4l0.3,0.7l2-0.3l0.3-1.7l3,0.7l1.4-2h-0.7v-0.7l5.1-0.3l3.4-1.4v1.4
		l1.7,0.7l1.4-1.7l5.4,0.7l1.4-1.7l1.7,2.7l-1.4,0.7l-0.3,2.4l-3.4,0.3v0.7l-0.3,0.3v1h2l-0.3,0.7l1.7,0.3l-0.7,1l-1,0.7l-0.7,2.7h1
		v1h-0.3v2l-0.7,0.3l-0.3,1l1,2l-1.7,1.4l1,1l-1.7-0.3v1.7l-3.4,1.7l-1-0.7l-1,0.7l-1-1.4l-1.7,0.7l-3-0.3l-1,1.7l-0.7-0.7l-0.3,0.7
		h-0.7l-0.3-1.4l-1.7,0.3l-4.4-2.4h-4.6l0.3-4.1h-1l-1-3l-1.7-1.7l-1.7,0.3l-1.4-1.7L166.9,1157.6"/>
	<path id="ehvenkijskij_rajon" inkscape:connector-curvature="0" class="st0" d="M56.7,745.6l0.7-1.7l0.7-0.7v-2.4l1.4-2h0.7
		l1.4-1.7l1-2.4v-1l3.7-2l0.3-1.7l1-0.7V725l-1-1l0.7-0.7l-0.3-1.7l0.3-0.3l-1-0.7l0.7-1.4l-0.7-0.3l-0.3-0.7l1-0.3l0.3-1l-1.4-0.3
		l0.7-0.3V716l0.3-0.3v-0.3l0.7-0.3l-0.7-0.7l1.4-1l-0.7-2.4l1-0.7v-0.7l0.7-0.7v-1l0.7-0.7l0.3-1l-0.7-1l1-1l0.7-1.4l6.8-0.7
		l5.7,2.4l-0.3,1l0.7,0.3l1-4.4l0.3-5.4l4.4-2.7l12.2-13.9l1.4-2l0.7-3l3-6.4l2.7-3.4l2-1.7l1.7-3v-0.7l1-0.3v-1l0.3-1l-0.7-0.7h1.7
		v-0.7l1.7-1.7l2-1v-1l1-1l2.4-1.7v-0.7l1-1.7h-0.3h0.3l0.7-1.7l1.4-2.4l0.3-2.7l0.7-1l6.1-6.4l6.1-4.4l2.4-2.7l1.7-3l-0.3-1.7
		l0.7-3l3-2.7l0.7-2l0.7-1.4l1.7-1l3.4-0.3l7.1,1.7l6.1,3l3-1l0.3-2.4l1.4-2l-2.4-4.4l1.4-1.4l-0.3-1.7l1.4-1l0.3-1.4l1.4-0.7l0.7-3
		l1.4-0.3l-0.3-1.4l1-0.3l1-0.7v-1l1-0.3v-1.4l1-1v-2l4.7-0.3l1-1.4l-0.3-0.7l-1.4-0.7V583l-0.3-1.4l-1-1l3.4-2.4l1.4-0.3v-2.4
		l5.4-5.4l11.2-2.4l-0.3-0.7l4.4-2.7l2-2.4l2.7-0.7l1.4-1.7v-1.4l1-1l1.4-0.7l4.1,1l2-0.7l1.7-1.7l-0.3-0.7l0.7-1l-0.3-1.4l3-0.7
		l1-1.4l5.4,1l2-1.7l1.4-3l1.7-1.4l1.4,0.3l1.7-1.4l5.7,3.4l3-1l1.4,1l5.7-1l2.7,1l1.7-0.7v-1l-1-1.7l2-2.4v-0.3l-1,0.3l-0.7-0.7
		l1-1.4l-0.7-0.7l3.4-0.7l2.7,0.3l0.3,0.7l0.7-0.7v1l1.7,0.7l1.7-0.7l4.7,1.4l1.4,1.7h1v0.7l-0.7,1.7l2.4,0.7v1.7l0.7,1v1l-1.4,1.7
		l0.7,0.7l1,2.7l1,0.7l1.4-0.3l0.7-1.7l1.7-0.7l-0.3-0.3l0.3-1.7l0.7-0.7h1.7l2.4,1.4l5.4,0.7l3.7,1.7l0.3-1h2l1.4-1.7h2.7l2,0.7
		l3,1.7l-0.3,0.3l0.7,1l1.4,0.3v0.7l-1.4,1.4l1.4,0.7l8.4,2.7l2,1.4l3.4,0.3v-0.3l3.4-3l3.4,0.7l2.4-1l1,0.3l0.3,1l-0.3,1v0.3l3,2
		l2,0.3l2.4-0.7l0.3-1v-0.3l0.7-0.7l0.3-0.3l-0.3-0.3l1.7-1l2.7,1.4l1.7-1v-1l0.7-1l-1-2.4l1.4-0.7l2.7,0.3l4.1-1l3,1.4l4.4-0.7
		l0.3,1.4v1.4l1,1.4l1.4-0.3l1-1.4l2,0.7l4.1-2.7l0.7-1l-0.3-0.3l0.3-1.7l-1-1.4l0.7-0.7l4.1-1l0.3-0.3l-0.3-1l0.7-0.7l2.7,1l2-0.7
		h0.3l-0.7,1.4v1.7l-2.4,1.7l-0.7,1.7l16.9,24.3l4.1,28.4l1.7,19.9l1,7.8l0.3,8.4l0.7,7.1l-1.4,2l-0.3,2h-2.4l-1-1.4l-1.7,1.4
		l-1.4,3.4l-1.4,0.3l-1,1.4l-2.7,0.3l0.3,2.7l-2,3.7l-5.1,2l-0.7-0.7l-2.4,0.7l1,0.7v1l3,2.4l3-1.4l-0.3,0.7l0.3,1l3.4,0.7l0.3-0.7
		l1,0.3l0.3,0.7v0.7l-2,3l0.7,0.7l1.4,0.3l0.7-1l1.7-0.3l-0.3,1.4l-0.7,1l0.3,0.3v0.7l0.3,1l2,1l-0.7,1.7l1,2l-0.3,0.7v1l2,2l-0.3,1
		l1,1.4l-1.4,1.7l-1.4,0.7l-1,2.7l0.3,0.7l-0.3,1l0.7,1.4l-0.3,0.7l0.7,0.3l-0.3,0.3l0.3,1l-0.3,0.3h0.3l-0.3,0.7l0.3,1l-0.3,1
		l2.4,2l2.4-0.7l1,1l-0.3,1l0.7,0.3v0.3l1,0.3l-0.3,1l1,0.3l0.7,1.7l0.7,0.7l-0.3,1l0.3,2.4h-0.3l0.7,2.4h-0.3l0.3,1.4l-0.3,1.4l1,1
		l-1,0.7l-0.3,1.4l0.7,0.7l-0.3,0.3l0.7,0.3l-0.3,0.3l0.3,0.7l-1,0.7l0.7,0.3l-0.3,1l5.1,1.7l-0.7,0.7h1.7l0.3,0.7l-0.3,1.4l0.3,1
		l5.4,1l-0.3,1.7l-1.4,1.4v0.7l0.3,0.3l-0.7,2.4l-4.1-0.3l-0.3,0.7h-1l-0.3,2l-1.4,1.4l0.3,3.4l2,1l-1,0.7l-1.4-0.7l-1.7,2.7v1.4
		l-2.4,0.7l-0.3,2l-0.7,1.4l-1.7,0.3l-1.4,1.4v1.4l0.7,0.3l2,1v0.7l1.4,2.7l2,1.4l-3,0.3v-0.7h-0.7l0.3-1.4l-0.3-0.3l-2.4,1l0.7,1.4
		v1h0.7v0.7l0.7,0.3l-1.4,0.3l-0.7-0.7l-0.7,0.7v1.4l-0.3,1.7l0.3,1l-0.3,1l1.4,2l-1.7,0.7l-1-1l-1,0.7l0.7,1.4l1,0.3l-0.7,2v0.7h1
		l0.7,1.7l0.3,1l-0.7,1l0.3,1l2-1l0.7,0.7l1.4-2.4l1-0.7l0.7,0.7l0.7,1.4l1,0.3v1.4l-1,0.7l0.7,1l1,0.3l0.7-0.3l1.4-1.4h1.4l0.7-0.7
		l4.1-1l0.3-0.7l-1-2l0.7-1l1.4,0.3l0.7,1.4l1,1l0.7,2.4h1.7l2-1l1,1.4l3,1v0.7l0.3,0.3h3l0.3,2l2,1.7l2-1l2-2h1.7l1.7,1v1l3,1
		l1.4,1.7l1-0.7l0.3,1l1.7-0.3l-0.3-1.4l0.3-1.7l3.4-0.7l1,1.4l0.3,1.7l0.7,0.7l-0.3,0.7l1.7,2v1.4l1,1.4l-1.4,1v1l-1-0.3l-1.4,1
		l-2.4-0.3l-1,0.7l-1.4-0.7l-1.4,1.4l-1.4-1l-1,0.7l-0.7-0.3l-1.4,1v1l-1,0.3l-0.3,1.7l0.7,0.3h-0.7v0.7l0.3,0.7l-1,0.7h-0.7l-0.3-1
		l-0.7-0.3l-1,1.7l-1.7-0.3l0.7-0.3v-1l-2.4-1.7l-1.4,0.3l-0.3-0.3l-0.7,0.7l0.3,0.7l-1.4,0.3l-0.3,1.4h-0.7l-0.3-0.3l0.3-0.3h-1
		h0.3l-1-1.4l-3.4-0.3l-0.3-1.4h-0.7l0.3,0.7l-1.4-1l-0.7,0.7v-1H424l-1,2.7l0.7,1l2.4,1l-0.3,1.4l1.7,1.4l-0.7,2l-0.7,0.7l-0.3,3
		l-1,2l2,2.7l-0.3,1.7l-1.4,1.4l0.3,1.7h-1.7v1H423l2.4,2v1h0.3l0.3,1l1,0.3l0.3,1h0.7h0.3v0.7l1,0.3l-0.7,0.3l0.3,0.7l-0.7,1.4
		l-0.3,1.4l-0.7,0.3h-2l-2-1.7l-0.3,0.3l-0.3,1l0.3,0.7l-1,1.4v0.7l0.7,0.3l-0.7,0.7v0.7l1.7,0.3l0.3,1l-0.7,1.4v1l0.7,1l-0.3,1
		l-3.4,2l-2.4,0.3l1,1.7l-0.3,0.7l1,1.4l-0.3,1.4l1.4,0.7v2l2,0.3l1,1.4l1-0.3l1.4,0.7l0.7,0.7v1.7l1.4,0.7v0.7l0.3,0.3v1.4v0.7
		l-0.7,1v0.7h2.4l1.4,1.4h1.7l2,1l0.3,0.7l-0.3,0.3h-1.7l-0.7,2.4l1.4,1l1,2l-2.4,1.7l-1.4,3.4l-2-0.3l-0.7,0.7l1,1.7l0.3,0.3
		l0.3,0.3l-1.7,0.7v1.4l-1,1.4l1.4,0.3v0.7l1.4-0.3l-0.7,2l0.7,0.7l-0.3,0.7v1.4l-0.7,0.7l0.3,1.7l0.3,0.7l-0.3,1l0.3,0.7v1l-2.4,1
		l-1.4,2.7l-2.4,1.4l-3.4,5.4v1l1.4,1.7l-0.3,1l1.7,3.4l-2,0.3l-1,1.4l-0.3,1.7l-2-1.4l-1.4,0.3l-1.7,2l0.3,1.4l-4.4,2.7v0.7l-1,0.7
		v0.7l-0.3,1.4l-0.7,0.7l0.7,0.7v1l-5.7,1.4l-2,1v1l-2.7,1.4l3.7,1.4v1l1.4,0.7v1.7l1,0.7v1.4l0.7,0.7l-1.4-0.7l-3,0.7l-0.3,1.4
		l-2.4,2.7v0.3l-0.3,0.7l-1.4,0.7l-0.3,1.4l1,0.7l-0.7,1.7l0.3,0.7l-0.7,2l1.4,1.7l-0.3,1l-3.4,2.4l0.7,0.3l0.3,1.4l0.7,1l1,0.3
		l1,1.4l0.3,1l-1,2l0.3,0.7l-1,2.4h0.7l-0.3,1l1,0.3l-0.3,1l1,1.4l1.4,0.7l-0.3,0.3l0.7,0.3l-0.3,0.3h-0.3l1.4,1.4l-0.3,0.7l0.7,1.4
		l-1,0.3l0.7,0.7l3,1v0.7l2,1.4l-0.3,0.3l0.3,0.7l1,0.3l1-0.3l0.3,0.7l2.4-1l3.7,1l2.4-1.4l0.7,1.4l1-0.3l1.4,1l-0.3,0.7l0.7,0.7
		l0.7-0.3l-0.7,1v1.7l-1,0.7l0.7,2.7l1,2.4l0.7,0.3l-0.3,0.7l0.7,1l-1.7,2.7l0.7,0.7l-0.3,0.7l0.3,0.3v0.7l1.4,0.7l0.7,1.7l-1,0.7
		l0.3-0.3l-1-0.7l-1.4,1l-2.7-0.7v-0.7l-4.4,0.3l-0.3,0.3l0.3,0.7l-0.7,0.7l-1.4-0.3l0.3,0.3l0.7,0.3v0.3l0.3,0.7l0.3,1.7l-0.7,0.7
		l-1-0.3l-1.4,0.7l-2.7,3.7l1.4,0.7l-0.3,1.7l1.4,1.4h1l-0.7,1v1.4l2,1.7l1.4,2h2.4l1.7-1l1,0.3v0.7l1,0.7l0.3,0.7l-1,1.4l0.7,0.7
		l0.3,2l-1,2l1,0.7l0.3,1l1-0.3l1,1l-0.3,0.7l1.4,1.4l-1,2l1.4,0.7l0.7,1l-1.7,2.7l-3.4,0.7l-0.7,2.4l-3.7,3v1.4l-0.7,0.3l0.3,0.7
		l-1.4,0.7l-1,1.7l-0.3,2.7l0.7,0.3v0.3l1,1l1.7,1l-1.4,3.4l-4.1,1.7l-0.3,1.4l-2-0.7l-1.4,1.7l-1.4-0.7v-1l-1.7-1l0.7-1.7v-1
		l-1.4-0.3l-1.7,1.4l-1.4-2v-1.4l-0.7,1l-3.4-0.7l-1.4,3l-1.7-0.3l-0.3-0.7l1.7-1l-0.3-1l-0.3-2l0.7-0.7v-1.4l-0.7,0.3l-0.3-1.7
		l-1-0.7l-2.7,1l-2-1l-1.7,0.7l-0.7-1v-1h-0.3v-0.7l-0.7-0.7l-4.1-1.4l-0.3-1l-1.7-2.4l-0.3-1.4l-2-1.7l0.3-1l-0.7-0.3l0.3-0.3
		l-0.7-1l3.4-0.3l-0.3-1.4l-0.3-0.3l-0.7,0.3l-1.7-1l-0.7,1.7h-1.7l-1.7-1l-0.3-1.4l-1-0.3l-0.3,1.4l-1-0.3l-2,2.7l0.7,1.4l-1,1.4
		h-4.1l-0.7-0.3h-1.4l-0.3,1l-1.4,0.3v-0.7l-1-0.7l0.3-1l1.7-0.7l-0.7-0.3l0.3-0.3l-0.3-0.7l0.3-1l-1-1.7l-0.3-2.7l0.3-0.7l1.4-0.3
		l1.7-1.4v-0.7l-0.3-0.7l-2.4-0.3v-0.7l-2-1.7l0.7-1.4l-0.7-1.4l-0.3-1.4l1-0.3v-0.7l-2.4-0.7l-3.4,3l-3,0.3l-1-1.7l-6.8-2.4l0.3-1
		l-1.7-1.4l-5.7,1l-0.3,0.3l0.3,1.4l-0.3,0.3l-5.1-1l-1.4,0.7l-2.4-1l-1,0.7l-2-2.7l-2-0.3l-2.4,1l-2.4-0.7l-0.7-1l-1.7,0.7l-1.4-2
		l-1.4-1l-2.7,1l-3-0.7l-1.7-1.7h-1v-0.7l0.3-0.3l0.3-1.7l-1-2l-1.7-0.7l-0.7-1.4l-3-0.3v-1.4h-2.7l-1.7-1.4l-1.4,1.4l-4.4,0.7
		l0.7,1l-0.3,1.4l-1.4,1.4l-0.3,1l-2,0.7l-2.4,3l-0.7,1l0.3,1v1l-1.7,1.4l-0.3,2l-1.4,0.3l-0.3-1.4l-0.7-0.3l-0.3-1.4l-1.4,0.7
		l-0.7,1.4l-3.4,0.3l-1,1l-3.7-1l-2.4,3.4H259l-1.4-1.7l-2-0.3l-1.7,2h-2.4l-0.7,1h-2.7l-1,1l-1.4,0.3l-5.4-2.4l-0.7,2l-1.4,1.4
		l-1.7,0.3l-0.3,1l-1.7,1l-0.3,1.4l1,0.7v1.7l-2.4,1.7h-2l-3-2.4l-1.7,0.7l-1-0.3l-2.4,0.7H220l-2.4,3h-2.4l-1.4-1.4l1-1l-0.3-1.4
		l-1-1l-0.7-1l0.7-1l-1-0.3l-2.4,3l-1.7,0.3l-1-0.7l-1.4-2.7h-1.7l-2.4,1l-0.7,0.7l0.3,1l-1,0.7l-2.4-0.7l-0.7-0.3v-1.4l-2-1.4
		l-4.7-0.7l-1,0.7v-0.7H189l0.3-1l-0.7-0.7l0.3-0.7l-1-0.7l-0.3-0.3l0.3-0.3l-0.7-1.4v-1l0.7-0.3v-0.7l-1-1.4v-1.7l-1.4-1.4l-0.3-2
		l-0.7-1.4l0.3-1l-0.7-0.7l1.7-2l-0.3-1l-2-2.4l0.3-0.7v-1.4l0.7-2l-1.4-0.3l-0.7-1.4l0.7-3l0.7-0.7l-0.3-0.7l1-0.7v-1l1-1l2-1.4
		h2.4l0.7-1.4l-0.3-1.7l-1-1l0.3-1.7l-0.3-1l1.7-1l0.3-1.7l1.4-1l1-1.7l1.4-0.7v-0.7l-0.7-1.4l-1.7-1h-1.4l2-3l-0.7-0.7v-2l-1-3
		h-0.7l-0.3-0.7l0.7-0.7l-2-1.4l-2-3.4l-0.7-0.3v-1l-4.4-0.7l-0.7-1h-1.4l-1-1h-1v-0.7l-2,0.3l-2-1l-3.7,2.7l-3-0.3l-0.3,1.7l-2,1
		l-0.3,1.4l-1,0.7l0.3,1.4l-1.4,0.7v1l-1.4-2v-1.4l-1-1.4l-4.4,0.7l-3.4-3l-2.4,1l-2.7-1l-0.3-1.4l-3.7-5.4v-0.7l0.3-1l-0.3-1
		l0.3-0.7l-3.4-2.4l-1.7,1.4l-2.4-1.4l-2.7,2.4l-1.7-0.3v1l4.4,3.4l-1.4,0.7l2.4,1.4v0.7v1.7l1,0.7h-0.7l0.7,0.7l-1.4,0.3l0.3,0.3
		l0.3,1.4l-3-1.4l-1.7-2l-1.4-0.3l-1.4-2.7h-2l-1.7,2l0.7,1.4l-0.7,0.7l0.7,2.4v1l0.3,0.3l-0.3,0.3v0.7l1,0.7l-1.7,1l-4.1-0.7v0.7
		l0.3,1l-1.7,0.7l0.3,1l-1,1v3l-1.7,0.7l-2.4,2.7l-12.8-0.3l1.4-2l-0.3-0.7v-1l-0.3-0.3l0.3-0.7l-1.7-0.7l-0.3-1.7l-0.7-0.7l0.3-0.3
		l-1.7-2l-4.7-9.8l-1.7-2l0.3-0.7l-0.3-0.3l-1.4-0.7v-0.7l0.7-0.7l-0.3-2.4l0.3-0.7l-0.3-0.7l-1.4-0.7v-1l-0.7-0.3l0.3-1v-1.7
		l-1,0.3l-1.7-1.7l0.7-2.4l1-0.7v-1.4l0.3-0.7l-0.3-0.3l0.7-0.3v-0.7l0.7-1v-1l3,0.7l0.3-0.7l-0.3-0.7l0.3-0.3l-1.4-1.4l-0.7-1.4
		l0.7-0.7l-0.7-1l0.3-0.3l-1-0.3l0.3-1l-1-0.3l-1.4-1.4l0.3-1v-0.3l-1.4-1.4l0.3-1.4l-2.4-0.3l-1.4-2.4l-0.7-3.7l-0.7-1.4l-3.4-2
		l-0.7-3l-0.7-1.7l1-0.7v-1h1.4l1-1l1.4-2.7l-0.3-0.7l0.3-1.7l1.4,0.3v-0.7l1-1.4v-1l1-0.3l0.7-1.7l2-0.3l2.7,0.3l3.4-0.3v-2.4
		l1.4-0.3l1.4-5.4l2.4-3l11.8-8.1l3.7-5.1l-1-2v-1.7l-1-0.7v-1l-1-0.7l0.3-4.4l1-1l-1-1.7h-0.3l-0.3-1l0.3-0.7v-0.7l2.7-3.4v-1.7
		l-0.3-0.7h0.3v-1.7l-0.3-0.3l2.4-1.7v-0.7l0.3-0.3v-1l0.7-1.4l4.1-0.3l1-2.7l1.4-1.4l0.3-0.7l-0.7-2.4l-0.3-4.1l-5.7-2.7l2-2.7v-1
		l0.7-0.3l1-1.4l0.3-2l-0.7-0.7l0.7-1.7l-0.7-0.3l-2.4,0.3l-0.3-2.4l-0.7-0.7h-2l-0.7-1l-0.3-0.7l0.7-0.3l0.7-1.4l-1.7-1.4l0.7-1.7
		V803l-0.7-0.3l-3.7-0.3l-1.7,0.7l-3-1l-1.4,1.7l-2.4,0.3l-0.7-1.4l0.7-0.3V802l0.3-0.7l-2-0.7l-1-1.7l-0.7,1l-1.7-0.3l-1,1h-1.7
		V800l0.3-0.3l-0.3-0.7l1.4-0.3l0.3-0.7l-1.4-1l-2,1l-0.7-0.7l2-4.1v-1l-1-1l-0.7,0.7l-2-1.4l-1,1.7l1,2.4l-0.3,0.7l-2,0.7l-2-2
		l-0.7-1l-0.7-0.3v-1.4l-1.4-1.7l-1,0.3l0.7-2l-1-0.7l1.4-0.7l-0.3-0.7l0.7-0.7l-1-1.4h-1l-0.3,0.7l0.3,1l-1.7,0.7l-3-0.3l-0.7,0.7
		l-0.7-0.7v-1l1.4-2.7l-0.3-0.7l0.3-1l-0.7-0.7l-3.4,1l-1,1l-8.1,0.7v-0.7l-0.7-0.3l0.3-0.7l-1-1l0.7-0.7l0.3-2.4h0.7v-1.4l1.7-2.4
		l1-1.7l1-0.7v-0.3l1.4-0.7v-0.3l1.4-3l1.7-1l-1.7-2l0.7-1.7l-1.4,0.3l-0.3-1.4l2.7-3l-0.7-2.3l-4.4,0.3l2-1.7l-1.7-2l-0.7-1.7v-1.7
		l-1.7-0.7l-1.4,1l-2-1l-1.4,0.7l-1-0.7l-0.3-1l-0.7-0.7l0.3-0.7l-0.3-0.3h-1.7l-1,1L56.7,745.6"/>
	<path id="emel_x27_janovskij_x5F_rajon" inkscape:connector-curvature="0" class="st0" d="M116.5,1188.7l1.7,1l0.7-0.7l0.3-1h-0.7
		v-1h-1.7v1.4L116.5,1188.7 M101.7,1183.6l1.7-1.7v-1.4l0.7-0.3v-0.3l0.7-0.3l-0.3-0.7l0.7-0.7l-0.3-1.4l1.4-1.7v-0.7l0.7-0.7
		l-0.3-0.7h0.7l-0.3-0.7l0.3-0.3v-1l1-1v-1l1.4-0.7l-0.3-0.7l0.7-0.7l-0.7-1.4l0.3-0.7h-0.3l0.3-0.7l-1-1.4l0.3-0.7l-0.7-0.3v-3.4
		l-1.4-1.7l0.3-0.7l1.7-0.3l1.7,1.7l1.7,0.7l0.7-0.3l2,2h1l0.7,1.7h1l1,1.4l5.1,0.3l2.4-1l2.4,1.7v0.7l-1.4,0.3l1,1l-0.3,1l1-0.3
		l0.7,1l-0.3,0.7l0.3,0.7l-0.7,0.3l-0.3,2l-1,0.3l-0.3,1l0.7,1l2.7,1.4l0.7-0.3l1.4,1.4l-1,2.7l0.3,2.7l1.4-0.3l0.7,1h1.4l1,1.4
		l1.4,0.3l-0.3,3l6.4-1.4l0.3-1l0.3-0.3l1,0.3l0.7,1.7l2.7-0.3l0.7-0.7v-2l0.7-0.7l0.3-0.3l-0.7,1l-0.3,2.4l-0.7,0.7h-1.7l-2,1.7
		v0.3l0.7,1.4v1l-1.4,1.7h-2l-1,1.4l-2.7-0.3l0.7,2.7l-0.7,2l-0.7,0.3l-1-1.7l-1,0.3l0.3-0.3l1,0.3v-1l0.7-0.3l0.7,1l-0.7-1l1.4,0.3
		l-0.3-1l-1,0.7v-1l-2.7,0.3l-0.3-0.7l-0.7-0.3l0.7,1v0.7l-1,0.7l0.3-0.3l-1-0.7l0.7-0.7h-1.4v1.4l-0.7,0.3v1.4l-1,0.7l-0.7-0.3
		l-0.7-1.4l-3,1.7v2.7l-0.7,0.7l1,0.3h-4l-1-1l0.7-0.3l-3-0.7h-1l-0.3,1l-1.7-0.3v0.7h-1.7l-0.3-1l-2-0.7l0.7-0.7h-1l0.3,1.4
		l2.4,1.4v4.1H114v-1.7l-5.1-1l0.3,0.3l-0.3,1l3.7,0.7l0.3,3.7h2.7v1.4l1,0.7v1h1.7l1.4,1.7l2-0.7l0.3,0.3l-0.7,0.3v1.7l-7.8-1
		l-7.8-3l-0.7-1.7l-3.4-3v-1.7l1.4-0.3l-1-2.7l1-1.4h0.7l3.4,3.4l1-2l-1.7-2.4l1.7-1.4l0.3-3.7l0.7-1.4l-6.8-0.7v-0.7l1-0.7v-3.4
		l-1.4,0.3L101.7,1183.6"/>
	<path id="enisejsk" inkscape:connector-curvature="0" class="st0" d="M115.9,1082.9l0.7-0.7l1,1l2-0.3l0.7,1.4l-1.4,2l-2.7-0.7
		L115.9,1082.9"/>
	<path id="enisejskij_rajon" inkscape:connector-curvature="0" class="st0" d="M137.5,1100.8l0.3,0.3l0.3-0.3v-0.3L137.5,1100.8
		 M135.8,1103.2l0.7-1l2.4,1l-0.3-0.7l-1.4-1.4L135.8,1103.2 M115.9,1082.9l0.3,2.7l2.7,0.7l1.4-2l-0.7-1.4l-2,0.3l-1-1
		L115.9,1082.9 M119.9,1094.4l0.3,0.3l-0.3,0.7l0.3,0.7h2l0.3,1l1,0.7l-0.7,1.7h0.7v1.7h4.1l0.7-0.7l-1.4-1l1.4-1l-2-1.4l-1-3
		l-2-1.7v-1.4l0.3-1l-0.3-0.3l-0.7,0.3l-0.7,1h-1.4l0.3,0.7l-0.7,0.7l0.7,0.3L119.9,1094.4 M-53.8,956.8l9.5-6.1h1.7l22.6-10.5v-1.7
		l-1-2.4l4.1-4.1l4.1,0.7l1.4,1l1.4,2.7l1,0.3h0.7l1.7-2.7l1.4-1l2,2.4l1.7,0.3l0.3,3l2,1.7h3l4.1-1.4l0.7-0.7v-1l0.3-0.7l-1-2.4
		l1-0.3l4.4,3.7l1.4,0.7l0.3,1l-0.7,0.3l2.4-0.3l2.4,1.4l0.3,1.4l0.7,0.7l-0.7,0.3v1h-0.3l1,1l0.3,2l0.7-1l1.4-0.3v-0.3h-0.3
		l0.7-0.7v-0.3h1l-0.6-0.5l0.7-0.3l-0.3-1L23,943l0.3-1l-0.3,0.3v-0.7l2-0.3l-0.3-0.3l1-1l1.4,0.3l-0.3,0.7l1,0.3l-0.5,0.7h0.3
		l2.4,0.3l-0.3,0.7l1.4-1l1.4,1l0.7-0.7l-0.3-0.3l1.7-0.3l0.7,0.7l1.4-0.3l-0.3-0.7l1.4,0.3l0.3-0.3v-0.7h1.4l-0.3-0.3l0.3-0.3
		l0.7,0.3l-0.3,1l1,0.3l0.3,0.7v0.7h-0.7v1.7l1-0.3v0.7l1,0.7l-0.3,0.7l0.7,1h1l0.7-0.7l2.4,1.7l0.3-0.3l-0.7-0.7l0.3-0.3h0.7l0.3,1
		l1.4-0.3l-0.7,1l0.7,1.4l-2.4,0.3l2.7,0.3l0.3,1.7h1l-1,0.7l0.7,1v1l-0.3,0.3l0.7,0.7l0.7-0.3l0.7,1.4l1,1l1.4-0.3l-0.7,1l0.7,0.3
		l-0.7,0.3l0.7,1l-0.3,0.3l1.4,0.3l-0.7,0.3v1l1-1l0.7,1h1.4l-0.3,0.7l1,1.7l1.7-1l0.7,1.7l0.7-1h1.4l-0.7-1l0.3-0.3l2.4,1.7l0.3-1
		l1.4-0.3v1.4l1.7,4.1l1,1l24.7,3.7l22.3,0.7l-1.4,1.4v0.7l-1,0.3l-0.7,2l-2,1.4l0.3,2.4l-1.7,1.4l-1,2.7l-1,0.3l0.7,0.7l-0.7,1.7
		l-0.7,0.3l-1.4-0.3l-0.3,0.7h-0.7l0.7,2l-0.3,0.7l-1,3v1.4l-1.4,2l0.3,1l-1.4,2l-1.7,1v1.4l-1.4,2.4v0.7l-0.7,1.4l-0.3,2l1.4,0.3
		l1.7,2.7l-0.7,2.7v0.7l-0.7,1.4l1,2l-0.3,2l-0.7,0.3l7.8,15.5l3.7,2.4l5.7,5.1l0.7,1.7l1.4,3.7v5.7l0.3,3.4l3,12.2l1.4,0.7l4.1,0.3
		l2.4-0.3l1-0.7l1.7,1l1.4-0.3l0.3-1l1-0.3l1,3.7l0.7,3.7l0.7,0.7l1.4,3l0.7-1l3,5.4l2.7,9.5l-4.1,1.7l-0.7,1.4v0.7l2,2v1l1,0.3
		l-1,1.4h-0.7l-1,2v1.7l1.7,3l-2,1.4l-3.7-1.4l-2.4,0.3l-0.3-0.7l-3.4-0.3v1l-2.7,0.7l-0.3-1h-0.7l0.3-1l-1.4-2.4l1-0.3v-2h-1.4
		l-3.4-2.4l-3.7,2l-1.4,1l0.3,0.7h-0.7l-0.7-1.4l-1,1.4l-1.4,0.3l-2.4,3.4l-8.1,0.3v1l-1,0.7h-1v-1l-1,0.3l-0.3-0.7l-0.7,0.3v-0.3
		v-0.3l-0.7,0.3l-1-1.7l-2-1v0.7h-1v0.7h0.7v1l-1.4,0.7l0.3,1l-0.3,0.7v2l-0.7,0.7l0.3,0.3l-0.3,0.7l0.3,1l-0.3,0.3l0.7,0.3l-0.3,1
		l1.4,0.3v1.4l-4.1,2.7l-2-1.7l0.3-2l-3-1l-0.3-1l-5.7-0.3v3l-1.4-1.7h-1l0.3-1.4l-1-1l0.3-1l-0.3-1l0.3-0.3l-0.7-0.3v-1.7h0.3
		l-0.3-1.7l0.7-0.3l-0.7-0.3l0.7-1l-0.3-1l1.7-1.4l-1-1v-1h-0.8l0.3-0.7l-0.7-0.7l-17.6,6.8l-9.5,2.4l-0.3-1.7l0.7-0.3l-0.7-1l1-2
		l-0.3-1v-1.4l-1.4-0.7v-1l-10.1-1l-4.1-4.1l-13.2-4.7l-0.7-5.1l-1.4,0.3l-1-14.5l12.2-17.2l10.5-5.4l-5.1-9.1l1.4-4.1l-16.6,0.7
		l-7.4-19.9l-7.8-1.7l-1.4-9.5l-9.8-4.1l-13.9-1.4l-11.8,2l-18.6-2.7l-2-3.7l0.7-2l1-0.7l0.3-6.4l3-3.7l0.3-1l-0.3-1.4l0.7-0.3v-0.7
		h0.7l0.7-1.4l-7.4-22.3l-1.4-0.3L-53.8,956.8"/>
	<path id="ermakovskij_rajon" inkscape:connector-curvature="0" class="st0" d="M79,1390.8l1.4-2.4l0.3,0.7l2-1.4l0.7,0.7l1.4-1.7
		h0.7l0.3-2.4l1.7-2v-1l3.4-2l0.7,0.3l0.3-1.4l1.4-1l1,0.7l0.7-0.3l0.7,1l0.7-0.7l0.3,0.3l2.4-1l1.4,0.3l1.4,1l5.1-1.4l0.3-0.7
		l-1-1.7l0.7-0.7l-0.3-1.7l1.4-2.4l3.4-1.4v-1.7l-1-2v-1.7l1.7-0.7l4.4-4.7l0.3-2v-1.4l-1-1v-1.4l-2.7-2v-1l-2.7-0.7v-3h0.7l0.3-1
		l-1.7-2.4l0.3-1.4l-3-0.7v-2.7l-0.7-2.7l4.1-1.7l-1-0.3l1.4-2.7l-0.3-1.7l-0.7-0.3v-1.4l0.3-1.4l1.4-0.3l-1.7-1.4h0.7v-1.7l0.7-0.7
		l1.4,0.3l-1.4,1.4h2.7l-2,1l1,1.4l4.1-0.7l1.4-1v-1l3,0.7l1.7,3l1,0.7l1.7-0.3v1l1.7,2.4v1l2,0.3l3.4-0.7l2,1.4l1-0.3l0.7-1.4
		l3.4-0.3v2l-1.4,2.7l1.4,2.4l-2.4,2l3.4,5.1l1,3l-0.3,0.7l0.7,0.3l-0.7,2.4l0.3,0.3l5.4-0.3v-1.7l2,1l3.7,0.3l3-2.4l1.7,1.4l2,0.7
		l2.7,2l-0.7,1.7v1.4l-1.4,0.7l0.3,2.7l-2.7,1.4l-1.7,1.7l0.7,0.7v1l-1.7,2.4l-1.7,1v1.4l-0.7,1.4h-1.7l-0.3,1l0.3,2.4l-2.4,3.4v1.7
		l-0.7,1.4l0.7,1.4l-2.4,1l-0.3,1h-2.7l-2.4,2h-1.7l-2,2l-0.3,2l-2.7,1l-0.7,2.4l-1,1.4l-2,1h-1.4l-1.4,1.7l-1,2l-2.7-1h-2l-1.4,2
		l-1.4-0.3l-1.7,1l-4.4-1.4l-2.4,0.3l-0.7-0.7l-4.7,2.4l-3.7-2l-1-2.4h-1.5l-1-1.4l-1.7,1l-5.4-2.4l-2,0.7l-4.7-0.3l-0.7,1l-0.7-1
		l-1.7-0.3L79,1390.8"/>
	<path id="idrinskij_rajon" inkscape:connector-curvature="0" class="st0" d="M102,1269.8l2-1l-0.3-1.7l0.3-2l0.7-0.7l-1.7-0.3
		l0.3-2.7l-0.3-0.3l0.7-1.4l-0.3-1.4l0.3-0.3l0.7-2l0.7-0.3l1.7,1.4l1.4-1.7l2,0.3l2.4,2.7l1.7,0.3l0.3-2.4l0.7-0.7l-1-1.7l1.4-1
		l1,0.7l0.7-2h0.3v-0.7h0.7l0.3-0.7l0.3,0.7l1.4-0.3l-0.3,0.3h0.7v0.7h1.7l5.7-1l2.4,1v1l1.4,1l3.4-1.7l2,1.4l0.7,1.4l1,0.7
		l-0.7,1.7l-2,2.4l-1-1.4l-0.7,0.3l-0.7,2.4l0.7,0.7l-0.3,1.4l-2,0.7l1,1.4l5.7-1l1.4,1l-0.3,1.4l1.7,1.7l-0.3,1.7l-2,1.7v1.7
		l-1.4,2.4l-2.7,1.7l-0.3,1.7l-1,1.4l-1.4-0.7l-2.7,0.3l0.3,1.4l-0.3,1l-1.4-0.3v1l-3.4,2l-0.3-1h-0.7l-3,2v0.7l-1.4,0.7l-1-1
		l-1.7,1.7l-1.4-0.7l-1.7,0.7l-1.4-1.4H110v-0.7l-4.4-1.7v-0.3l1,0.3l0.7-0.7h1l-0.7-2.4l1-1.4l-1-0.7l-3.4,0.7v-1l1-0.7l-1.7-1.4
		l-0.7-2.7h-1v-4.3"/>
	<path id="igarka" inkscape:connector-curvature="0" sodipodi:nodetypes="ccccc" class="st0" d="M47.2,621.3l-0.1-2l4.2,0.3l0.1,1.1
		L47.2,621.3"/>
	<path id="ilanskij_rajon" inkscape:connector-curvature="0" class="st0" d="M201.7,1179.2l0.7-1l-0.3-0.7h0.7l0.3,0.3h1.4v1
		l0.3-0.7h4.1l0.3,2h2.4l1-3.7h1.4v1l1.4,0.3l-1.4,1v1.7l5.1,0.7l0.3,3.7l-1,1l-3-1l-1.4,1l0.3,1.4l3-0.3l0.7,1.7l-0.7,2.7h-1
		l-0.3,1.7h0.3l0.7,1.7l2-1h2.4l-0.3,1.7l-5.4,0.7v-1l-1,2l3.7,3.4v1.7l-0.7,0.7l0.3,0.7l-0.7,0.7l0.7,0.3v0.7h1l-0.3,2.7h1v1l-2,1
		h5.4v-1.7l6.1-0.3l0.7,1.7l-1,1l-0.3,2l-0.7,0.7l1.7,1l0.3,1l-2,1.4l0.7,0.7l-3.7,3.7l-2.7-2.4v-1.7h-2l-3.4,1.7l-1,2.4l-1.7,0.3
		l-4.4-3.7l-2-0.3l-1.4-1v-2h-3.4l1.4-2.7l1,0.3l0.3-0.7v-1.4l-0.7-0.3h1v-3l1.4-0.3v-1l-2-0.7l0.7-1.7l-0.7-1l1-2.4v-1.7l0.7-1
		l-1.4-0.7l-0.3-2.4h-0.7l0.3-1.4l-1.4-1.7l0.7-0.7l-1.7-1.4l1.4-0.7v-2h-1.4l-0.3-0.7l0.7-0.3l-0.3-0.3l1-1.4l-0.3-0.3l2.4-1l-1-1
		l-1.7-0.3l-0.3-1.4L201.7,1179.2"/>
	<path id="irbejskij_rajon" inkscape:connector-curvature="0" class="st0" d="M183.8,1216.1l2-1l1.7-1.7l1.4,0.7l1-0.7v-1.4l-1.4-1
		l-0.7-2l-0.7-0.3l1-0.7l-0.3-2.7l3.7,0.3l-0.3-0.7l1.4-0.3l1,0.7l0.3-1l2,0.3l0.3,0.7h-0.7l0.7,2.4l1.7-0.3v1l1,1l2.4-0.7l-0.3,1.4
		l-1,0.3l2,0.3l-0.3,1.7l1-0.7l0.3,0.7l0.3-0.7l0.7,0.7l-1.4,2h3.4v2l1.4,1l2,0.3l4.4,3.7l1.7-0.3l1-2.4l3.4-1.7h2v1.7l2.4,2.4
		l4.1-3.7l2,2.4l0.3,0.7l-1.4,0.7v0.7l0.7,1l-0.3,0.7l0.7,1.7l-0.3,0.7l0.3,1.7l1,1.7v1l1.7,2.7l-1.7,1.4H229l-0.3,1h-1.4l0.3,0.7
		h-1.4l-0.7,0.7l1,0.7v2.4l-0.7,1l0.3,2l-0.7,0.7l1,0.7l-2.4,3l1.4,2.7l1.4,0.7v1.4l0.7,1l-0.7,0.3l0.3,1.4l-0.3,1.4h-0.7v2l-1,1
		v1.4l-1.4,2l0.3,1v2.4l-1.4,2.4l0.3,0.3v2l-1.4,0.7l-4.7-2l-3,1.4l-2.7-2l-1,1v1.4h-0.7l0.3,0.7l-1,0.3v1.4l-0.7,0.7l0.7,0.7
		l-1,0.7l-0.3,1.7l-1.4,0.3l-0.7-1.4h-1.4l-0.7-1.4l-0.7-1.4l2-1.4l1.4,0.3l1.4-1l0.3-1.7l-0.3-1h-1.7l-0.7-1.7v-1.7l-4.7-4.7
		l-3-4.7l-0.7-2.7l-2.4-4.4l0.3-6.1l-2.4-2.4l1.4-1.7l-1.4-0.3l-0.3-1l1-2.7l-0.3-1.4l0.3-0.3v0.7h0.7l0.3-0.3l-1.4-1.7h-1.7
		l-0.7-2.7l-0.3,1l-3-1.4l-0.3-1.7h-0.7v-1.7l-1-0.3l0.7-3l-0.3-1.4l-0.7-0.3L183.8,1216.1"/>
	<path id="kansk" inkscape:connector-curvature="0" class="st0" d="M199,1188.7l0.7-0.3l1.7,0.7v-1h0.3l2.4,2l-0.7,0.7l0.3,0.7
		l-1.4,2.4l-2-0.3l-0.7-0.3v-1.7l1-1.7L199,1188.7"/>
	<path id="kanskij_rajon" inkscape:connector-curvature="0" class="st0" d="M172.3,1180.9l3.7-4.7v-5.1l1.4-0.7l2.7,1l2,1.7l1.7-0.3
		l0.3,1.4h0.7l0.3-0.7l0.7,0.7l1.4-1.7l2.7,0.3l1.7-0.7l1,1.4l1-0.7l1,0.7l3.7-1.7l0.3,0.7l0.3,1.4h-0.6l0.7,2l2,0.3l0.7-0.7
		l2.4,1.4v0.3l1,0.7l-0.7,1v-1l-2.4-0.3l0.3,0.7l-0.7,1h0.7l0.3,1.4l1.7,0.3l1,1l-2.4,1l0.3,0.3l-1,1.4l0.3,0.3l-0.7,0.3l0.3,0.7
		h1.4v2l-1,0.3l0.3,0.7l-1.4-1h-0.3v1l-1.7-0.7l-0.7,0.3l1.7,1l-1,1.7v1.7l2.7,0.7l1.4-2.4l1,1l-0.3,1.4h0.7l0.3,2.4l1.4,0.3l-0.7,3
		l-1,2.4l0.7,1l-0.7,1.7l2,0.7v1.4h-1.4v3h-1l1,0.7l-0.7,1.7l-3.4,0.3l0.3-1.7l-2-0.3l1-0.3l0.3-1.4l-2.4,0.7l-1-1v-1l-1.7,0.3
		l-0.7-2.4l0.7-0.7l-1.7-0.3l1-0.3l0.3-1h-1l-1-2.7l-2.4-0.7l0.3-1l-1.4-0.3v-1l-0.7-0.7l0.3-0.7l-3.7-0.3l-1.4-2l-2.7-0.3l-3,0.7
		l0.3-2l0.7-0.3l-1-3.4l0.3-1.4l-1.4-2v-0.7L172.3,1180.9"/>
	<path id="karatuzskij_rajon" inkscape:connector-curvature="0" class="st0" d="M116.9,1317.8l1.4-0.3v-1.7l1-1.7l2,1l1.4-0.7v-1.7
		l-0.3-0.7l-3.4-0.7l0.7-2l-1-0.7l2.7-2h2.4v-1.7l1.7,0.7l3.7-0.3l0.3,0.3l3-1.4l1.4-1.7h1.4l1.4,0.3v1l1.7,1.7l5.4,1l1-0.3l-0.3-1
		l0.7-1.4l-0.3-0.7l1-0.7l1.7,0.3l-0.7,1l0.3,1.4l1.7,0.3l-0.3,1l-1,0.3l0.7,0.7l2.4,1.4l1.4,1.4l2,0.3l2,2l2.4,1.4l-0.3,2l-1.7,1.4
		l0.7,1.7l2,2l3-0.3l0.7-1.7l1.4-0.7l3.4,2.4l3-2.7l0.3,0.7l1.7,0.3l1,4.4l4.4,1.7l-3.4,2.4l-0.3,1v0.7l1.7,0.3l0.3,1.4l0.7,1
		l-0.3,1h-1.4l0.3,1.4l-1.7,1l0.7,2l-1,0.3v1.4l0.3,2l-0.7,1l0.3,1.4l-1.7,1.7l-0.3,1l0.3,1.4l-0.7,0.7l-2.7-1l-1,1l-1.4-0.3
		l-4.4,3.7l-5.7-3.7l-3,2.4l-3.7-0.3l-2-1v1.7l-4.7,0.7l-1-0.7l0.7-2.4l-0.7-0.3l0.3-0.7l-1-3l-3.4-5.1l2.4-2l-1.4-2.4l1.4-2.7v-1.7
		h-3.4l-0.7,1.4l-1,0.3l-2-1.4l-3.4,0.7l-2-0.3v-1l-1.7-2.4v-1l-1.7,0.3l-1.4-1.4l-1.4-2.4l-1.4-0.3l-0.3-3.7l-2-0.3L116.9,1317.8"
		/>
	<path id="kazachinskij_rajon" inkscape:connector-curvature="0" class="st0" d="M124.6,1138l0.3-0.3l-0.3-0.3l1-1l-0.7-0.7l0.7-5.4
		l-0.3-1l2-1l0.7-3.4l-0.3-2l-1.4-2l4.4-1.7l-0.3-1l0.3-0.7l-1-1.4v-0.7l-0.7-0.7v-1h-0.7l0.3-1h2v-1l3.4,0.3l0.3,0.7l2.4-0.3
		l3.7,1.4l2-1.4l-1.7-4.1l0.7-2l0.3,1.4l1.4,0.7l1.7-0.7l12.8,1l2.4,2h2l0.7,2l2.4,0.7l-4.7,10.1l-6.4,10.8l0.3,2l2.7-0.7l1,1l0.3,2
		l-1.4,0.3l-6.1,4.7l-1.7,0.7l-2.7-0.7l-0.7-1.4l0.7-3l-0.3-0.7l-1.4,0.7l-0.3-2l-1.7,0.3l0.3,0.3l-1,0.7l0.3,1l-0.7,0.7l-1-1.7
		l-1.4,1.7h-4.1l-0.3,1h-0.7h-1.7l-0.3-0.7l0.3-1.7l-0.3-1l0.7-1l-2.7,1h-5.5"/>
	<path id="kedrovyj_x5F__x28_krasnojarskij_x5F_kraj_x29_" inkscape:connector-curvature="0" class="st0" d="M116.5,1188.7l0.3-0.3
		v-1.4h1.7v1h0.7l-0.3,1l-0.7,0.7L116.5,1188.7"/>
	<path id="kezhemskij_rajon" inkscape:connector-curvature="0" class="st0" d="M262.5,1064.3l2.7-6.4l4.4,0.7l1.7,1.7v-1l0.7,0.7
		l0.7-1l1.7-0.3l-0.3-0.3l0.3-0.7l0.7,1l1-1h2.7l-0.3-1.7l2-1.4v-1h1l0.3-1h0.3l-0.3-0.7h0.7l1-2.4l1.7-0.7l-0.3-2l1.4-0.3v1.7
		l1.7,0.3h3.7l0.3,1h1v0.7l2.7,2.4l1.4-1v0.7l4.7-3l-0.3-1l0.7-2.7l-0.7-4.7l0.3-3.7l-1-3l-1.7-2.4l0.7-2l-1,0.3l-1.7-1.7l-0.3-0.7
		l0.3-1.4h-1.4l0.3-1.4h1l-0.7-0.7l0.3-0.3l-1.4-0.7l-0.7,0.3l-0.3-0.7l-2,0.3l-2.7-2h0.7l0.3-0.7l-0.3-0.3l1-1v-1.4l2.4-2v-0.7
		l1.4-1.7l-0.3-1.4l1-1h1l1.4-1.7l1.4-0.3l0.7,1.4l-0.7,2.7h1l1.7,1.7l3,0.7l2.7-1.4l1.4,1.4l1.4,2l1.7-0.7l0.7,1l2.4,0.7l2.4-1
		l2,0.3l2,2.7l1-0.7l2.4,1l1.4-0.7l5.1,1l0.3-0.3l-0.3-1.4l0.3-0.3l5.7-1l1.7,1.4l-0.3,1l6.8,2.4l1,1.7l3-0.3l2.7-3h1.7l1.7,1
		l-1.4,0.7l0.3,1.4l0.7,1.4l-0.7,1.7l2,1.4v0.7l2.7,0.7v1l-1.7,1.4l-1.4,0.3l-0.3,0.7l0.3,2.7l1,1.7l-0.3,1l0.3,0.7l-0.3,0.3
		l0.7,0.3l-1.7,0.7l-0.3,1l1,0.7l0.3,1l-0.7,1.4l-1,0.3l0.3,0.3l-0.3,0.3l0.7,0.7l-0.7,1.7l1.4,1.4l-0.3,1.4l1.4,0.7l-1.4,0.7
		l0.3,0.7v1.7l1,0.3l0.7,1.4h1l-0.3,1l0.7,0.7l-0.3,1l0.3,0.3l-0.3,0.7l1,1.7l-0.7,1l0.7,1.4l-1,1.4l-1.4,1l-0.3,1l-1-0.3l-0.3,1
		l-1,0.7l-1,2l0.3,0.3l-0.7,0.3l0.7,0.3l-0.3,0.7v0.3h-0.7v0.7l-1,1.4l-2.4,1.7l-1.7,0.3l-0.3,0.7l-5.1,1.4l-2,2l-0.3,2.4l0.3,0.3
		l-0.7,0.3l0.3,0.3l-0.7,0.3l-2.4,4.7l-0.7,0.7h-3l-2,2l-0.3,1.4l-0.7,1.4l-2.7,1.7l0.7,2l1,1l-0.3,1.4l0.3,0.3l-0.7,1l0.3,0.3v0.3
		l-2.4,2l0.3,0.7l-0.7,0.3l0.3,0.3l-0.7,1.4l-1.7,0.7l-2.7-0.3l1,1v1.4h0.3l-0.3,0.7l0.7,0.7l-0.3,0.3l1,0.7l-1,3v0.3l-0.3,0.3
		l0.3,0.7l-0.7,0.7l0.7,0.7l-0.7,0.7l1.7,2.4l1.7,0.3l-0.3,0.7l0.7,0.3h-0.3l0.3,0.3l-0.3,0.7l0.3,0.3l-0.3,0.3l0.3,0.7l-0.3,0.3
		l0.7,0.7l-1,2l-1.7-1l-2,3.4l-1-0.7l-1-2.4l-4.1-1.4l-0.7-1l-2-1.4l0.3-1.7l-2-2.4l0.7-1.4l-1.4-0.7l1-3l-2-1v-1.4l0.3-0.7l-4.4-2
		l0.3-0.7l-0.3-0.3l-0.3-2l-1-1l-0.3-0.7l0.3-0.3l-0.7-0.3l0.7-0.7l-0.7-0.7l0.7-1.7l-0.3-0.7l0.3-0.7l-0.7-0.3l-3-0.3l-3.4,1.4
		l-1-1l-2.4,0.7l-0.3,0.7l0.3,1.4l-0.3,1v0.7h-0.9l-1,2.7h-1l0.7,1.4l-1.4,0.3l0.3,1l-0.3,1l0.3,1l-1,0.7l0.3,0.7l-0.7,1l-0.7,0.3
		l-1.4-0.7l-1.7,1v-1.7h-5.1l-0.3-5.4H280l-0.3-1.7H279v-1.4h-1.7v-1.7h-3.4v-3.4h-2.4l-0.7-5.1l1.4-0.3l-0.3-1.4h0.7v1.7l2-0.7
		l0.3,0.3l0.3-0.7h0.3l0.7,0.7h2.7v1.7h-0.7v1.7l1.7,0.3v3.4l3.4,2.4v0.7h0.3l0.3,2h1.4v1l2-0.7l0.7-1.4h1.7l2.4-2.4v-2.7l-1.7-2.4
		l1.4-1.4l-0.3-0.7l0.7-0.7h-1l-3-3.4l-3.4,1.4l-0.7-1.4v-1.7l-2-0.7l-1-2.4l-1.4-1v-1.4l1.4-1l1-3l-1-1.7l-1.7-1.4l1-3.7l-2.4-2
		l-0.7,1.7l-5.1,1.4l-2,2.4l0.3,2.4l-0.7-1l0.3-1.7l-0.3-0.3l1-2.4l1.7-1.4l-1-0.3l-0.7-1l0.3-0.3l-0.3-0.3l0.3-0.7l-1.4-1.7v-0.7
		l-3.7-2h-3L262.5,1064.3"/>
	<path id="kozul_x27_skij_x5F_rajon" inkscape:connector-curvature="0" class="st0" d="M83.4,1184.3l3-0.3l0.7-1.4l1.4-0.3l0.7,0.7
		l0.3-1v-2h-0.3l-0.3-2.4l3.4-0.7l0.3-2.4l1-3.4l1.4-1l-0.7-1l-1,0.3l0.3-1l-0.3-0.7v-1.7l-0.3-1l0.3-1l-0.3-0.7l4.1-2.4v-2l1.4-0.7
		v-0.7h1.4l0.7,1.7l-0.3,2l1.4,2l-0.7,2v0.7l5.7-1.7h3l-0.3,0.7h0.3l-0.3,0.7l0.7,1.4l-0.7,0.7l0.3,0.7l-1.4,0.7v1l-1,1v1l-0.3,0.3
		l0.3,0.7h-0.7l0.3,0.7l-0.7,0.7v0.7l-1.4,1.7l0.3,1.4l-0.7,0.7l0.3,0.7l-0.7,0.3v0.3l-0.7,0.3v1.4l-1.7,1.7l0.3,4.4l1.4-0.3v3.4
		l-1,0.7v0.7l6.8,0.7l-0.7,1.4l-0.3,3.7l-1.7,1.4l1.7,2.4l-0.7,1.7H106l-2.4-3h-0.7l-1,1.4l1,2.7l-1.4,0.3v1.7l3.4,3l2,4.7l-2.7-0.7
		l-2,1l-2-3.4l-2.7-1l-6.4,2.4l-0.7,1v1h1.7l0.7,2.7l-0.3,0.3l-0.7-0.3l-0.3-0.7l-0.3,0.7l-1.7-0.7l-1.7,0.7l-2-0.7l0.7-1.4l-1-1
		l1-0.7l-0.7-2.4l-1.4-0.3l1.4-0.3l0.7-1.7l-0.3-0.7l0.7-0.7v-1.7l-0.7-1l0.7-0.3l-0.3-0.3l0.3-1l-0.7-0.7l0.7-0.3l-0.7-0.7l1-0.3
		l-1.4-1v-0.7l-0.7-1l0.7-2l-1.4-0.7l-0.7-1.4l1.7-2l-0.7,0.3l0.3-3.7h-0.3v-1.4l-1-0.3l1.4-1.4l-1.4-0.7L83.4,1184.3"/>
	<path id="krasnojarsk" inkscape:connector-curvature="0" class="st0" d="M125.7,1201.9l0.7-0.7v-2.7l3-1.7l0.7,1.4l0.7,0.3l1-0.7
		v-1.4l0.7-0.3l-0.3-0.7l0.3-0.7h1.4l-0.7,0.7l1,0.7l-0.3,0.3l0.7-0.7l0.3-0.3l-0.7-1.4l0.7,0.3l0.3,0.7l2.7-0.3v1l1-0.3l-0.3-0.3
		l0.7,0.7h-1.4l0.7,1l-0.7-1l-0.7,0.3v1h-1.7l1.4,1l-0.3,1l0.7-0.3l-0.3,0.7h0.7l-1,0.3l-0.3,1.7h-1l-0.7,1.4h-2.4l-0.3,1.7l-1.7-2
		h-3.4v-1L125.7,1201.9"/>
	<path id="krasnoturanskij_rajon" inkscape:connector-curvature="0" class="st0" d="M81.7,1263.4l2.4-2l1.7,1.4l4.7-0.7l3,0.7
		l3.4-4.1l-0.3-0.7l3-0.3l0.7-0.7l-2.4-1.7l-0.3-1.4v-1.7h2.4l2.4,1l2,2.7l-0.7,2l-0.3,0.3l0.3,1.4l-0.7,1.4l0.3,0.3l-0.3,2.7
		l1.7,0.3l-0.7,0.7l-0.3,2l0.3,1.7l-2,1v4.1h1l0.7,2.7l1.7,1.4l-1,0.7v1l3.4-0.7l1,0.7l-1,1.4l0.7,2.4h-1l-0.7,0.7l-1-0.3v0.3
		l4.4,1.7v0.7l3.4,0.3l-1,1.4l0.3,1.4l-0.3,1l-1.7,0.7l0.3,2.4l0.7,0.3l-1,1.7l-1.7-1l-1.4,0.3l-1-0.7v-1.4l-3.4-0.3l-0.3,1l-2.7-1
		l-0.7,0.7l0.7,1v2H98l-1.7,1l-1.4-0.3v-1.4l1-2l0.3-3l-2.4-4.4l-1.4-5.1l-2.7-2.7v-1l-1.4-3.4l0.7-2l-0.3-2L81.7,1263.4"/>
	<path id="kuraginskij_rajon" inkscape:connector-curvature="0" class="st0" d="M109.4,1298.9l2.4-5.1l-0.7-0.3l-0.3-2.4l1.7-0.7
		l0.3-1l-0.3-1.4l1-1.4l0.7,1l1.7-0.7l1.4,0.7l1.7-1.7l1,1l1.4-0.7v-0.7l3-2h0.3l0.3,1l3.4-2v-1l1.4,0.3l0.3-1l-0.3-1.4l2.7-0.3
		l1.4,0.7l1-1.4l0.3-1.7l2.7-1.7l1.4-2.4v-1.7l2.4-1.7l-0.3-0.7l0.3-1l-1.7-1.7l0.3-1.4l-1.4-1h-1.7l-4.1,1l-1-1.4l2-0.7l0.3-1.4
		l-0.7-0.7l0.7-2.4l0.7-0.3l0.3,0.7l0.7,0.3l1.7-1.4l1-2.4l1.7-0.3l0.3-1.4l1,1v1l3.4,1.4l0.3,1.4v1l0.7,0.3l2.4,3.7h1.4l0.3,1.4
		l-1,0.7l2.4,2l0.7-1l1.7,0.7l1-1.7l2.7,1.7l1-1.4l2.7,1.7l2.4,0.3l1.7,2.4h1l1,2.4v0.7l0.7,0.3l0.3-1l1.7-0.3l1.7-2.4l2,1l0.3,1
		h2.7l-0.3,1.4l0.7,1.7l2.4,2l1.4,0.3l0.3,1l1.4,1.4l-0.3,0.7l0.3,0.7h2l0.7,1l1-1l2,0.3l1-1.4h2l2.4,1l2.7,3l1.4-1.4l1,2l2-1.4
		l0.7,1.4l1.7,1l1.7-0.7l1,1.7v0.7l1,0.7l0.7,2.4l2,1.4h2l0.7,1l-0.3,1l-0.7,0.7l0.7,0.7l-0.7,0.7l1.7,0.7l1.4,3v0.7l4.4,3l1,2
		l0.3,1.7l2,0.7l0.7,2.7l2.4,1.4l0.7-1l1,1.7h1l0.3,1l-0.7,1l0.3,0.3l-0.7,1.4h-1l-1.7,1l-1-0.3l-1.7,2l-0.3-1.4l-2.4-1.4l0.7-1.4
		l-2.7,0.3l0.3-1l-1-0.3l-0.7,2.4l0.7,0.7l-0.3,1.7l-3,0.3v3l-2-0.3l-2-1.7h-4.1l-1.7-1.4l-2,1.7v1.4l-3.4,1l-1,1v1h-1.8v1l-0.3,0.3
		l-2.7-1l-0.7-1l0.7-0.7v-1l-2.4-1l-2.7,3l-1.4,0.3l-0.7,1.4l-0.7-0.3l-0.3-1.4h-1l-0.3,0.7l-0.3-0.7l-4.7,1l-4.4-1.7l-1-4.4
		l-1.7-0.3l-0.3-0.7l-3,2.7l-3.4-2.4l-1.4,0.7l-0.7,1.7l-3,0.3l-2-2l-0.7-1.7l1.7-1.4l0.3-2l-2.4-1.4l-2-2l-2-0.7l-1.4-1l-2.7-1.4
		l-0.3-0.7l1-0.3l0.3-1l-1.7-0.3l-0.3-1.4l0.7-1l-2.4-0.3l-0.7,2.7l0.3,1l-1,0.3l-5.4-1l-1.7-1.7v-1l-1.4-0.3h-1.4l-1.4,1.7l-3,1.4
		l-0.3-0.3l-3.7,0.3l-1.7-0.7v1.7h-2.3l-1,0.7l-1.4-2.7l-0.3-1.4l-1-1l-0.3-1H117l-1.4-1.7l-2-0.3l-2.7,1.4l-0.3-0.3v-1
		L109.4,1298.9"/>
	<path id="lesosibirsk" inkscape:connector-curvature="0" class="st0" d="M135.8,1103.2l0.3-0.7l1-0.7v-0.7l1.4,1.4l0.3,0.7l-2.4-1
		L135.8,1103.2 M119.9,1094.4l1-1.7l-0.7-0.3l0.7-0.7l-0.3-0.7h1.4l0.7-1l0.7-0.3l0.3,0.3l-0.3,1v1.4l2,1.7l1,3l2,1.4l-1.4,1l1.4,1
		l-0.7,0.7h-4.1v-1.7h-0.7l0.7-1.7l-1-0.7l-0.3-1h-2l-0.3-0.7l0.3-0.7L119.9,1094.4 M137.5,1100.8l0.7-0.3v0.3l-0.3,0.3
		L137.5,1100.8"/>
	<path id="manskij_rajon" inkscape:connector-curvature="0" class="st0" d="M136.1,1237l1.7-3.4v-0.7l0.7-3.7l0.7-0.7l-0.3-1.7
		l-0.3,0.3l-0.3-1h1l-0.3-0.7l0.3-0.7l-0.7,0.3l-0.7-0.7l3-1l0.7-1l3-1.7v-0.7l-0.3-1l0.7-1.7l-0.7-2v-0.3h-1v-0.3l-0.7,0.7l-1.4-2
		l2-3h1l-0.3-0.7v-0.3l1-1l-1.7-1.7v-1.4l1-0.7l0.3,1l3-2l-1-1h0.7l1-1.7l1-0.7l-0.3-1.7l0.7-1l-0.3-1l9.1,1.7l-0.3,0.3l0.7,0.7
		l0.7,1.4l-2.4,1l0.7,2.4l-0.3,0.7l-1.4,0.3v2l-0.7,1H154l-0.3,1h0.3v2l2.4-0.3l-0.3,1.7l2.4,0.3l-0.7,3.7l0.7,1l1.4,0.3l1.4,2.7
		l-1.7-0.3v4.4h-1l-0.3,1l1,0.3l-0.3,3h-0.7l-0.7,2.4l1.7,1.4l1,2.7h1l0.7,1h1.4l-0.7,0.7l0.3,1l-1.7,2l0.7,0.3l-1.4,1.4l0.7,1.4
		l-2.4,0.3v0.7l1.7,0.7l-0.7,0.7l0.7,1l-1.4,0.3l1,1.4l-3.7,3l-2.4-0.3l-0.3,1.4l-1.4,0.7l-0.3,2v2.7h-2v-1.7l-1,0.3l-0.3,1.7
		l0.7,1.7l-2.4,1.4l-0.7-1.4l-0.7-0.3v-1l-0.3-1.4l-3.4-1.4l-0.3-1.4l-2.4-1.7l0.7-2l-0.7-1l0.3-1.4l-1-0.7l-0.7-1l0.3-1l-1-1.7
		l0.7-1v-1l-0.7-0.7l0.3-3L136.1,1237"/>
	<path id="minusinsk" inkscape:connector-curvature="0" class="st0" d="M96.6,1307l1.7-1.7v1l1.4,0.7v1h0.3l-0.3,0.3l1,0.7l-2.4,1
		v-0.7l-1-0.3l0.7-0.7l-1-0.3L96.6,1307 M95.9,1312l0.3-0.3l0.3,0.3l0.3-0.3l0.7,0.3l-1.4,1L95.9,1312"/>
	<path id="minusinskij_rajon" inkscape:connector-curvature="0" class="st0" d="M95.9,1312l0.3,1l1.4-1l-1.4-0.3L95.9,1312
		 M96.6,1307l0.3,1l1,0.3l-0.6,0.7l1,0.3v0.7l2.4-1l-1-0.7l0.3-0.3h-0.3v-1l-1.4-0.7v-1L96.6,1307 M91.9,1300.5l1.7-3.7l1.4-1.4v1.4
		l0.7,0.3l2.4-1h2.4v-2l-0.7-1l0.7-0.7l2.7,1l0.3-1l3.4,0.3v1.4l1,0.7l1.4-0.3l1.7,1l-1.4,3.4l1,0.3v1.4l3.7-1.4l1.4,0.3l1.4,1.7
		h0.3l0.3,1l1,1l0.3,1.4l1.4,2.7l-1.7,1.4l1,0.7l-0.7,2h2.7l1,1.4v1.7l-1.4,0.7l-2-1l-1,1.7v1.7l-2.4,0.3v-0.7l-4.1,1.4l-1.4,1
		l-1,0.3l-0.7-3l-2.7,1l0.3,0.3l-0.3,0.7l-1.7-0.3l-2.7,1.4l-5.1-3.4v-2l-1.4-1l-0.3-1.7l-0.3-0.7l1-1l-0.3-1.7l-2-2L91.9,1300.5"/>
	<path id="motyginskij_rajon" inkscape:connector-curvature="0" class="st0" d="M139.5,1082.2l1-1h1l1-1.4l-0.3-0.3l0.7-0.7l1-3
		l1-0.7v-1l1-3.7h1.4l0.3,1l1,0.3h0.7l1-1.4l1.4,0.7l3.7-2.4l0.3-1l0.3-2l2,0.3l3-1.7l0.3-0.3l-0.3-2.7l2-1l1-3.4l1.4-1.4l1-5.4
		l1,0.3v-1l0.7-0.7l-0.7-0.7v-1.4l-2-2.4v-0.3l-0.3-0.7l0.7-0.7l1,0.3l0.7-0.3l0.7,0.3l0.7-0.3l-0.3-0.3l0.3-0.3l1.7,0.3l-0.7,1
		l0.3,0.3h2l-0.3,0.7l3.7,1l0.7,1l0.3-0.7h1l0.3-3l0.7-1h0.3v-1l0.7-1l-0.3-0.7l4.1-2.4v-0.7l0.7-1.4h1l1-1.4l1.7-0.3l-0.3-1l2-2
		l-0.7-0.7l1.7-1.4l5.1,0.7l2,1.4l0.3,1.4l2.7,1.4l-1,2l0.7,0.3l-0.3,0.7l0.3,0.3l-0.7,0.7l0.3,0.3l-0.3,1h0.3l-0.3,0.3v0.7
		l-0.7-0.3l0.3,0.7h-0.7l0.3,1l-0.7,0.3l-0.3,1l-1.4,0.3l0.7,1.4l-0.7,0.3l0.3-0.3l-0.3-0.3l-1.4,1v0.7l-0.3,1l-0.7-0.3v0.7l-1,0.7
		l0.7,1l-1,1.7l-2,0.3l-1-1.4v1.7l0.3,0.3l-1.4-0.7l-1,1.7l1.7,1.7l-0.3,0.7l1,1.7l-0.7,0.7l2,1.4l-0.7,0.7l2.7,0.3l1,1l-1,2
		l0.7,0.3l-0.3,1v2l-0.7-0.3l0.7,0.7v0.7l-1,0.7v1l1.4,0.3l-0.3,1.4l1,1l1-1.7l2,1l-4.1,7.8l0.7,2l-0.3,1l1,1l1.4,2.7l-0.7,15.5
		l-0.7,0.7l0.3,1l-0.7,0.3l0.3,0.7l-1,1l0.7,2l-2.4,1v0.7l-1,0.7l0.3,0.7l-0.3,0.7l0.3,0.7l-0.7,0.3v1.7l0.7,0.7l-0.3,2.4l-2,3.4
		l-3-1l-6.1,1.7l-1-1.7l-1.4-1h-1.7l-0.3,0.7l-1,0.3l-1.7-1l-2,0.7l-2-1v0.3l-2.7-2l-0.7-1l-3-0.7l-0.7-2h-2l-2.4-2l-15.9-1v-2h0.7
		l1-1.4l-1-0.3v-1l-2-2v-0.7l0.7-1.4l4.1-1.7l-0.7-1l-2-8.4L139.5,1082.2"/>
	<path id="nazarovo" inkscape:connector-curvature="0" class="st0" d="M67.5,1195.7l0.3-0.7l2.4,0.3l1-1l0.3,0.3l-0.7,0.3l0.7,1.4
		h0.8v1l1.4,1l-1.4,0.7l0.3,1l0.7-0.3l0.3,0.3l-2,0.7l0.3-1.7l-1.4-0.7l-1,0.7l0.3-1.7h-1.4L67.5,1195.7"/>
	<path id="nazarovskij_rajon" inkscape:connector-curvature="0" class="st0" d="M67.5,1195.7l1,1.7h1.4l-0.3,1.7l1-0.7l1.4,0.7
		l-0.3,1.7l2-0.7h-1l-0.3-1l1.4-0.7l-1.4-1v-1h-0.7L71,1195l0.7-0.3l-1.4,0.7l-2.4-0.3L67.5,1195.7 M51,1198l0.7-0.3l-0.3-1v-0.7
		l0.7,0.7l0.7-0.3v-0.7l0.3,0.7l1-2l1-0.7l2,1v-0.7h2.4l2-1.4l3.7,1.4l0.3,1l0.3-0.7l1,0.7l1.7-0.3l1.4,0.3l0.3,0.3l0.3-0.7h0.7
		l0.3-1l0.7,0.3l0.7-1l1.4,0.3v1.4l1,0.3l0.3,1l-0.3,1l0.7-0.3v0.7l0.3,0.7h0.3v-0.7H78l1.4,0.3l1.7-0.7l0.3,0.7v-0.7l0.3,0.7
		l0.7-0.7l0.7,0.3l-0.3,1l1-0.3v1l0.7-1l0.7,0.3l1,1.4v0.7l1.4,0.7l-1,0.3l0.7,1l-0.7,0.3l0.3,0.7v0.7l0.3,0.7h-0.7l0.7,1l-0.3,2
		l-0.7,0.7l0.7,0.3l-0.7,2l-1.4,0.3h1.4l0.3,0.7l0.3,2l-1.4,0.7l1,1l-0.7,1.4l0.7,0.3l-3.4,1v1.4l-1.7,0.3l0.3,1.4l-2.7-0.7
		l-0.6,1.5l-2,0.7l-0.7-0.3l-0.3-1.7l0.3-2l0.3-0.3l-3.4-2.7l-2.7,0.7l-1.4,2.7l-1.7-0.7l0.3-0.3l-0.3-1l-2.4-2.7l-2.4,0.3h-2.4
		l-0.7-1.4l-4.4,0.3v2l-2.7,0.7l-1-2l2.4-2l-1.7-1.7h1.9h-1l-0.3-1.4l4.4,0.3l-0.3-0.7l0.7-0.3l-0.3-0.7l-1-0.3l0.7-2l-1-0.3
		l0.3-0.7h-2.4l-0.7-1.4l0.7-2.4l-1.7,0.3L51,1198"/>
	<path id="nizhneingashskij_rajon" inkscape:connector-curvature="0" class="st0" d="M214.2,1180.5v-1.7l2-1.7v-1l3.4,0.3l4.1-1.7
		l1,1l2-1.4l-0.3-0.7h1.4l0.3-0.7l1,0.3l1.7,1.4v-1l2.7-0.3l1-2v-0.7l2,0.7l4.4-1l2-1.7l0.3-1.7l0.3-0.7v-0.3l0.3-0.7l-0.7-0.7
		l0.7-0.7v-1l-0.7-0.7h2.4l0.7,1l3-1h3l0.3,1.4l-1.4,1.7l0.7,0.7l-0.3,2.4l0.7,0.3l-1,1l1,2.4l-1,2.4l3.4,0.3l0.3,7.4l-7.8,0.3
		l0.7,8.8h-2.5l-1.4,1.4l0.7,1v1.7l-0.3,0.3l-1.4,3.4l-1.4-0.3l-0.3-1.7l-4.1-1.7l-1.7,5.1h-1.7v7.4l-1.7-0.7l-0.7,1.7l-1-0.3
		l-0.3,0.3l-0.7-0.7l-1.4-0.3l-1.7,0.3v0.7l-3-0.3v1.4l-2.4,0.3h-3l2-1.4v-0.7h-1l0.3-2.7h-1v-0.7l-0.7-0.7l0.3-0.3v-1l0.7-0.3v-2
		l-4.1-3.4l1.4-1.7v1h1.7l3-1.4l0.7,0.3v-0.3l0.3-1l-0.3-0.3l-4.1,1.4l-0.7-2H216l0.3-1.4h1l0.7-3l-0.7-1.4l-2.4,0.3l-1-1l0.3-1
		l1-0.3l2.4,1l1.7-1.4l-0.7-3.4L214.2,1180.5"/>
	<path id="noril_x27_sk" inkscape:connector-curvature="0" class="st0" d="M46.6,564.7L48,560l11.5-1.4l6.1-6.4l4.7,1.7L67.9,564
		l-5.4,5.1L46.6,564.7"/>
	<path id="novoselovskij_rajon" inkscape:connector-curvature="0" class="st0" d="M70.2,1242.3l2-1.4h1.4l1-1l1.7-0.7l-0.3-3.4
		l1.4-0.3l-0.3-2.7l1-0.3l0.3,2.7h2v1.4l1.7-0.3l0.3,1.4l-0.3,1.4l0.3,1.7l0.3-0.7l1.4,0.3l0.7-0.7v-1l2-0.7l-0.3-0.7l1.4-0.3
		l0.7-1.4l3.4-0.3l0.7-1l0.3-1.7l1,0.3l0.7,2l3.4,1l1,2.4v2.4l6.4,0.7v1.4l-0.7,0.7l-0.7,1.7h-1l-0.7,1l1,3.4l0.7,0.3l-0.7,1.4
		l1.4,0.3l2-0.7l1,1.7l1.4,1l0.3,2h-1.7l-1,1.7l-1.4-1.7l-0.7,0.7l-2-3l-4.1-1l-0.7,0.3l-0.3,1.7l0.7,1l2.4,2l-0.7,0.7h-3l0.3,1
		l-3.4,4.1l-3-0.7l-4.7,0.3l-1.7-1.4l-2.4,2.4l1,1l-2.4-2v-3l1-2.7v-3.4l-4.1-1.4v-1.7h-6.8l0.7-5.7l-0.7-1.7L70.2,1242.3"/>
	<path id="partizanskij_x5F_rajon_x5F__x28_krasnojarskij_x5F_kraj_x29_" inkscape:connector-curvature="0" class="st0" d="
		M147.3,1261.1l2.4-1.4l-0.7-2l0.3-1.4l1-0.3v1.4h1.7v-2.7l0.7-2l1.4-0.7l0.3-1h2.4l3.4-3l-0.7-1l1.4-0.7l-0.7-1l0.7-0.7l-2-0.3
		l0.3-1l2.4-0.3l-0.7-1l1-1.7l-0.3-0.3l1.7-1.7l-0.3-1.4l0.7-0.7l-1.4,0.3l-0.7-1l-1-0.3l-1-2.7l-1.7-1l0.7-2.4h0.7l0.3-3.4h-1v-1
		h1.4v-4.7l2,0.7h3.4l0.7-0.7l0.3,0.7l8.4-0.3l2.4,1.7l-0.7,1.7l-1,0.3l1,2.4l-0.3,0.7l-0.3,1.7l0.7,1.7h-0.3l0.3,1.7l-0.7,1.4
		l0.3,0.3l-1,0.7l-1.4,2h-0.7v3.7l-2,1l-0.3-1.4l-0.7-0.7l0.3-1l-5.7-1.7l0.7,2.4h0.7l0.7,1l-1,1.7h-0.7l-0.7,1l0.7,1.7l-1.7,1.7
		l0.3,1.4l3.4,0.3l1-1.4l0.7,0.3l0.3,0.3l-0.7,2v1.4l1.4,1v2l4.4,1.7l1.4,1.4l1.4-0.3l0.7,2l-1.4,3l4.1,5.4h1.4l-0.7,2.4l0.7,1.4
		l-0.3,0.3v2.4l-3.4,2l-0.7-2l0.3-1H175l-0.3-1l-2-1l-2,2.4h-1l-0.7,1h-0.7l-1-3h-1l-1.7-2.4l-2.7-0.3l-2.4-2l-1,1.7l-3-1.7
		l-0.7,1.7l-1.7-0.7l-1,1l-2-2l1-0.7l-0.3-1.4l-1.4-0.3L147.3,1261.1"/>
	<path id="pirovskij_rajon" inkscape:connector-curvature="0" class="st0" d="M92.5,1135.5l1-1.4l0.3-1.7l1.7-1l0.7-1.4l1.4-1.4
		l-0.7-2.4l0.3-2.4l-1.4,0.7l-1-1.7l0.3-1.4l-1.4-0.7v-1.4l-0.3-0.3h0.3l-0.3-1.4l0.3-0.3l-0.3-0.3l0.7-0.7v-2l0.3-0.7l-0.3-1
		l1.4-0.7v-1h-0.7v-0.3l1-0.7v-0.3l2,1l1,1.7l0.7-0.7v0.7l0.7-0.3l0.3,1l1-0.3v0.7l1,0.3l1-0.7v-1.4l8.1-0.3l2.4-3l1.4-0.3l1-1.4
		l0.3,1.4h0.7v-0.7l1-1l3.7-2l3.7,2h1.4v2.4l-1,0.3l1.4,2.4l-0.3,0.7h0.7l0.7,1.7h0.7v1l0.7,0.3v1l1,1.4l-0.3,1.7l-2.7,0.7l-1.4,0.7
		l1.4,2.4l0.3,2l-0.7,3.4l-2,0.7v1.4l-0.3,5.1l0.7,0.7l-1,1v0.7l-2.4,0.3l-5.4,2.7l-5.1,7.8l-4.1,2.4l-7.8-5.7l1.7-1.7l3.4-8.4
		l-3-0.3l-1,2.7l-4.4-1.7L92.5,1135.5"/>
	<path id="rybinskij_x5F_rajon_x5F__x28_krasnojarskij_x5F_kraj_x29_" inkscape:connector-curvature="0" class="st0" d="
		M180.4,1206.2h1l-0.7,0.3l0.3,1l0.3-1l1.7,1l-0.7-1l0.7,0.3l0.3,0.7v-0.3l-0.3-0.7l0.7-1l-2-1l-0.7,0.7l-0.7-0.3L180.4,1206.2
		 M170.3,1196l0.7,0.3l-0.3,1l1.4-0.3l2.7,2.4l1.7-0.3l0.3-0.7l-0.7-0.7l0.3-0.3l1.7,0.3v-1.4l-0.7-0.3l-0.7-1l-1-0.3l-0.3,0.7h-0.7
		l0.3-1.7l-0.7,1.7l-3.7-2.4L170.3,1196 M162.5,1192.3v-0.7l2.4-0.7l2.4-2l2.7-6.1l2.7-1.7l6.1,3v0.7l1,2v1.4l0.7,3.4h-0.3l-0.3,2.4
		l3-0.7l2.7,0.3l1.4,2l3.7,0.3l-0.3,0.7l0.7,0.7v1l1,0.3v0.7l2.4,0.7l0.7,2.7l1,0.3l-1,1.7l-1-0.3v1l-1-1l-1.4,0.7l0.3,0.7l-3.7-0.3
		l0.3,2.4l-1,1l0.7,0.3l0.7,1.7l1.4,1v1.4l-1,1l-1.4-1l-1.7,2l-2,1l1,3.7l-1.7,1.4l-0.3,1.4l-3.4-0.7l-1.4,1.4l-2,0.3l0.7-1.7
		l-2.4-1v-1.7l0.7-2l-0.3-1.7l2,0.3v-3.4l-2-1.4l-0.3,0.7h-2l0.3-2l-0.3-1l2-0.3l-0.3-0.7v-2.4l-1-0.3l-1.7,1l-1.7-0.3l0.3-2.7
		l-3.4-4.1l0.3-3.7l-4.1,0.3l-0.3-1L162.5,1192.3"/>
	<path id="sajanskij_rajon" inkscape:connector-curvature="0" class="st0" d="M163.2,1246l1.7-1.7l-0.7-1.7l0.7-1h0.7l1-1.7l-0.7-1
		h-0.7l-0.7-2.4l5.7,1.7l-0.3,1l0.7,0.7l0.3,1.4l2-1v-3.7h0.7l1.4-2l1-0.7l-0.3-0.3l0.7-1.4l-0.3-1.7h0.3l-0.7-1.7l0.3-1.7l0.3-0.7
		l-0.7-1.4l-0.3-1l3-0.7l1.4-1.4l3.4,0.7l0.3-1.4l2-1.4l0.7,1.7l-0.7,3h1v1.7h0.7v2l3.4,1.4l0.3-1.4l0.7,2.7l1.7,0.3l1,1.7h-1.4
		l0.7,1.4l-1,2.7l0.3,1h1.4l-1.4,1.7l2.4,2.7l-0.3,5.7l2.4,4.4l0.7,3l3,4.4l4.7,4.7v2l0.7,1.4l1.7,0.3l0.3,1l-0.7,1.7l-1,0.7h-1.4
		l-2,1.4l0.3,1l1,1.4l-2,0.7l-0.7,1l0.3,1l-1,1.4v1.7l-0.3,0.3l0.7,1.4l-2,1.7l-1.4-2h-1l-0.7,1l-2.4-2.7l-2.4-1h-2l-1,1.4l-2-0.3
		l-1,1l-0.7-1l-2.4-0.3v-0.3l0.3-1l-1.4-1l-0.3-1l-1.4-0.3l-1.7-2l1.7-2h1v-2.4l0.3-0.3l-0.7-1.4l0.7-2v-0.7l-1.4,0.3l-4.1-5.4
		l1.4-3l-0.7-2l-1.4,0.3l-1.4-1.4l-4.4-1.7v-2l-1.4-1v-1.4l0.7-2l-0.3-0.3l-0.7-0.3l-1,1.4l-3.4-0.3L163.2,1246"/>
	<path id="severo-enisejskij_rajon" inkscape:connector-curvature="0" class="st0" d="M97.6,1010.5l1.4-2.7l-0.3-0.7l1.7-2.4v-1.4
		l1.7-1l1.4-2.4l-0.3-1l1.4-1.7l-0.3-1.4l1.4-3l-0.3-0.3l0.3-0.7l-0.3-1.7h0.7l0.3-1l1.4,0.7l1-1v-1.4l-0.7-0.3l1.4-0.3l1-2.7
		l1.7-1.4l-0.7-2.4l2.4-1.4l0.7-2l1-0.7V976l0.3-0.7l1-0.3l2.7-3l1.7-1v-2.7l1-1.4l-0.3-0.7l1.4-1l-0.3-1l0.3-0.3l4.1,0.7l1.4-1.4
		l-0.7-0.7v-0.3l0.3-0.3l-0.3-0.3v-1l-0.7-2.7l0.7-0.7l-0.7-1l1-1.7l0.7-0.7l1.7,0.3l1.7,2.4l1.4,0.7l1.7,2l3,1l-0.7-1.4l1-0.3
		l-0.3-0.7l0.7-0.3l-1-0.7v-1.4l-0.3-1l-2-1.4l1-0.7l-4.1-3v-1h1.7l2.7-2l2.4,1.4l1.7-1.4l3.4,2l-0.3,1l0.3,1l-0.3,0.7v1l3.7,5.1
		l0.3,1.7l2.7,1l2.4-1l3.4,3l4.4-1l1,1.4v1.4l1,2l0.3-0.7l1.4-1l-0.3-1l1-0.7v-1.4l2-1l0.7-1.7h3l3.7-2.7l2,1.4l1.7-0.3l0.3,0.7h1
		l0.7,1l1.4-0.3l1,1.4l4.1,0.3l0.3,0.3v0.7l0.7,0.3l2,3.4l2,1.7l-0.7,0.7l0.3,0.7l1,0.3l0.7,2.7v1.7l0.7,0.7l-2,3.4h1.4l1.4,1
		l0.7,1.4v0.3l-1,0.7l-1,1.7l-1.4,1.4l-0.3,1.7l-1.7,0.7l0.3,1l-0.7,2l1.4,1l0.3,1.4l-0.7,1.7l-2.7-0.3l-2,1.4l-0.7,1.4v1l-1,0.7
		l0.3,0.7l-0.7,0.7l-0.7,3l0.7,1.4l1.4,0.3l-1,1.7l0.3,1.7l-0.3,0.7l2,2l0.3,1.4l-1.7,1.7l0.3,1v1l0.7,1l0.3,2.4l1.4,1.4v1.7l1,1v1
		l-0.7,0.3v1l0.7,1l-0.3,0.7v0.3l1.4,0.7l-0.3,0.7l0.3,0.7v0.7l0.7,0.3v0.7l-1.4,0.7h1l-0.7,1l0.3,0.3l-1.7,1.4l0.3,0.7l-2,0.7
		l-0.7,1.4h-1l-0.7,1.4v0.7l-4.1,2l0.3,1l-0.7,1v1h-0.7l-0.3,0.7l-0.3,3h-1l-0.3,1l-0.7-1l-3.7-1l0.3-0.7h-2l-0.3-0.3l0.3-1
		l-1.7-0.3l0.3,0.7l-0.7,0.3l-0.7-0.7l-0.7,0.7l-1-0.3l-0.7,0.7l0.3,0.3v0.3l2,2.4v1.7l0.7,0.7l-1,0.7l0.3,1l-1-0.3l-1,5.4l-1.4,1.4
		l-1,3.4l-2,1l0.3,2.7l-0.3,0.3l-3,1.7l-2.4-0.3v2l-0.7,1l-3.7,2l-1.4-0.7l-0.7,1.4h-0.7l-1-0.3l-0.3-1h-1.6l-1,3.7v1.4l-1.4,0.7
		l-0.7,2.7l-0.7,0.7l0.3,0.7l-1,1.4l-1-0.3l-1.4,2.4h-0.7l-1-3l-1-0.7l-0.3-3.7l-1-4.1l-1,0.7l-0.3,1l-1.4,0.3l-2-1.4l-1,1l-2.4,0.3
		l-3.7-0.3l-1.4-0.7l-3-12.5l-0.3-3l-0.3-5.7l-1-4.1l-1-1.4l-5.4-5.4l-3.7-2.4l-5.1-9.1l-2.7-6.1l0.3-0.3l0.7-2.4l-1-2l0.7-1.4
		l-0.3-0.3l0.7-3l-1.7-2.7L97.6,1010.5"/>
	<path id="sharypovo" inkscape:connector-curvature="0" class="st0" d="M36.1,1214.6l1-1l1,0.3l-0.7,1L36.1,1214.6 M38.1,1218.3h0.3
		v-1h0.7l1.4,1.4l-0.7,1L38.1,1218.3 M31.4,1224.1l0.7-0.3l0.7,0.3l-0.3,1.4h-0.7l0.3-0.7L31.4,1224.1"/>
	<path id="sharypovskij_rajon" inkscape:connector-curvature="0" class="st0" d="M31.4,1224.1l0.7,0.7l-0.3,0.7h0.7l0.3-1.4
		L31.4,1224.1 M38.1,1218.3l1.7,1.4l0.7-1l-1.4-1.4h-0.7v1H38.1 M36.1,1214.6l1.4,0.3l0.7-1l-1-0.3L36.1,1214.6 M24.6,1222.7
		l0.3-1.4l1.4-1l-0.3-1l0.7-0.7l3.7-3.4l1-1.4l1-0.3l0.7-1.4l2-0.7l0.7,0.3l0.7-1l2,0.3l1.4-2h1.4l1-1l2-0.3l-0.3-0.3v-1.7l0.3-1
		l1.4-0.3l-0.3-0.7l0.7-0.7h-0.7l-0.3-1l-0.3,0.7l-0.3-1h-1.4v-1l-0.3-0.7l0.3-0.3l3.7-0.7l1.4-1.4h1l2-1.7l-0.3,0.7l1,1l-0.7,0.3
		l0.3,3l1.7-0.3l-0.7,2.4l0.7,1.4h2.4l-0.3,0.7l1,0.3l-0.7,2l1,0.3l0.3,0.7l-0.7,0.3l0.3,0.7l-4.4-0.3l0.3,1.4h1h-1.7l0.3,0.7h0.7
		l0.3,1.4l-1.7,1L51,1215l-1.7,0.7l1.7,4.4v-0.3l-0.3,0.3l-0.3,2.4l-1.4,1.4l-2-0.3h-1l-0.3,1l-2.4,0.7l0.7,0.7l0.3,2l0.3,0.3l1.7-3
		h1.4v2l1,0.3v1.4l-0.3,2l0.3,3H46v0.7l1.4,3h0.7l-0.3,1.4l0.3,1.4l-1,1h-2.7v2l0.3,0.3l-1.7-0.3l-0.3-1l-2.4-0.3v-2.4l-0.7-1
		l-4.4-0.7l1.7-2.7l-2.7-2.7l0.3-4.1l-1-0.3v-0.7h-1.7l-0.7-1.4l0.3-1l-2-1l-1.4,0.7v-2h-3.4 M24.9,1228.1h0.4l0.3,0.7h-0.3
		L24.9,1228.1 M23.9,1224.4v-0.3l0.3,0.7h-0.3V1224.4"/>
	
		<path id="shushenskij_rajon" inkscape:connector-curvature="0" sodipodi:nodetypes="ccccccccccccccccccccccccccccccccccccccccccccccccccccccccccccccccccccccccccccccccccccccccccccccccccccccccccccccccccccccccccccccccccccccccc" class="st0" d="
		M64.1,1378.5l2-3l0.3-1.7l2-1.4l1.4-2l0.7-1.7l-0.3-1.4l0.7-1.4l4.7-6.1l6.1-1.4h2l1,1v-1h1v-3.4l1.7-1l-0.3-2l1.7-2.4l1.4-1
		l0.3-1.7l1.4-0.3l-0.3-1.7l1-3l-1.4-2l-0.7-2.4l1-2.4l1-1l2.7,1l3.7-1.7l3-5.7l2.4-2.4l-0.7-1.4l0.3-0.7l-0.3-1.7h-0.7v-1.4l-1-0.3
		v-0.3l1.2-0.7l1.6-0.7l1.7,0.3l0.3-0.3l-0.3-0.7l2.4-1l1,3.4l2-1.6l4.1-1.4l0.3,0.6l1-0.3v1.7h2.4l0.3,4.1l-1.7-0.3v1l-1.4,1
		l-4.1,0.7l-1-1.4l2-1l-2.7-0.3l1.4-1l-1.4-0.3l-0.7,0.7l-0.3,1.7l-0.7,0.3h1.4v0.7h0.3l0.3,0.3l-1.4,0.3l-0.3,1.4v1.4l0.7,0.3
		l0.3,1.4l-1.4,2.7l0.7,0.3l-3.7,2l0.7,2.7v2.7l3,0.7l-0.3,1l1.7,2.4l-0.3,1.4l-0.7,0.3v2.7l2.4,0.7l0.3,0.7l1.7,1l1,1.4v1.4l1,1
		v1.4l-1.7,3.7l-1.7,1l-1.4,1.7l-1.7,0.7v2l1,1.7v1.7l-3.7,1.7l-1,2.4l0.3,1.7l-0.7,0.7l1,1.7l-0.3,0.3l-5.1,1.7l-1.4-1.4h-1l-2.4,1
		l-0.7-0.3l-0.3,0.7l-1-1l-0.7,0.3l-1-0.7l-1.4,1v1h-1l-3,1.7v1l-1.7,2.4l-0.3,2.4h-0.7l-0.7,1.4l-1,0.3l-0.7-0.7l-1.7,1.4l-0.3-0.7
		l-1.7,2.4l-4.1,0.7l-1.7,1.4l-0.7-3.4l-1.7-2l0.3-1.4l-0.3-1.4l-1-1l-2-0.3l-2-1.7L64.1,1378.5"/>
	<path id="sosnovoborsk" inkscape:connector-curvature="0" class="st0" d="M142.9,1195.3l1-1.7l1.4,1l-1.4,1.4L142.9,1195.3"/>
	<path id="sukhobuzimskij_rajon" inkscape:connector-curvature="0" class="st0" d="M127.3,1172.7l0.3-0.7l1-0.7l0.7-2.4l0.7,0.7
		l2.7-0.3l-0.3,0.7l1,0.3v-1h0.7l0.3-1l0.7-1.4l3,0.3l1.4,1.7h6.1l0.7-0.3l-0.3-3l-1.4-2l2-1.4h3l4.1-2.4l1.7,0.7l6.1-2.7l3.4-0.7
		l2,0.7l0.3,3l1.4,1.7l1.4-0.3l2.7,2.7l0.3,2h1l-0.3,4.1h2.7l-0.3,5.4l-3.4,4.7l-2.7,1.7l-2.7,6.1l-2.4,2l-2,0.7l-1-1v-3.4l-2-1.7
		v-1.4l-2.4,0.3l-0.3,1.7l-2.4,0.3l-1.4-1.4v-0.7l2.4-0.3l-0.3-1l0.3-0.3h-1.4l0.3-0.7l-6.4,1l-1-0.7l-2.4,1l-0.7,1l-0.3,1.4l-6.4,1
		v-2.7l-1.4-0.3l-0.7-1.4H134l-0.7-1h-1.4l-0.3-2.7l1-2.4l-1.4-1.4l-0.7,0.3l-2.7-1.4L127.3,1172.7"/>
	<path id="tajmyrskij_dolgano-neneckij_rajon" inkscape:connector-curvature="0" class="st0" d="M47.2,621.3l-0.1-2l4.2,0.3l0.1,1.1
		L47.2,621.3 M46.6,564.7L48,560l11.5-1.4l6.1-6.4l4.7,1.7L67.9,564l-5.4,5.1L46.6,564.7 M223,212.2l1.4,0.3l1-0.7v1l-0.3,0.7
		l0.7,0.7l-0.7,1.7l-0.3-0.3v-0.3v-0.7l-0.7-0.3V214l-1.7-1l-1,0.7l0.3-0.3l-0.7-0.7l-1.4-0.7l1-1.4l0.3,0.7v1l1,0.7L223,212.2
		 M403.8,196.6l0.7-1l1,0.7h-0.7L403.8,196.6 M403.8,196.6l-0.3,0.3L403.8,196.6 M194.3,216.9l0.3-0.3h0.3L194.3,216.9 M181.8,216.9
		h0.3l1.4,0.3l-1.4,0.3L181.8,216.9 M177.7,215.5l0.3-0.3l0.3,0.3H178H177.7 M181.1,216.6h0.3v0.3L181.1,216.6 M193.6,217.2v-0.3
		V217.2 M189.2,217.9v-0.3l0.3,0.3H189.2 M226.7,217.2l0.7-0.3v0.7h-0.3L226.7,217.2 M191.2,218.9l-0.7,0.3v-0.3l-0.3-0.7l0.7-0.3
		v0.7h1L191.2,218.9 M196,218.6l0.3,0.3v0.7l-2.4-1l0.7-1h1.7L196,218.6 M199.7,219.3l-0.7,0.3l0.7,0.7H197l1-1v-1l0.3-0.3l1.4,0.3
		l-0.3,0.7L199.7,219.3 M219.3,221.6l1,1.7h1.4l-1,1l-1-1l-2.4,0.7l0.3-1.4h1v-1l0.7-0.7l-2.4-1.7l2-0.7l-1-0.7l1-0.3v-1l-4.7-0.3
		l7.4-1.4v1.7l-1.4-0.7l-1,1.7l-0.3,0.3l0.3,0.3l-0.3,1l0.3,1l1.4,0.3l-1.3,0.6v0.3V221.6 M178.4,219.3l-1-0.3l-1-1.7l0.3-0.3
		l1.7,1.4v0.7V219.3 M202,210.5l-2.4,0.3l-1.7-1h-1.6l4.7-1.7l2.4,1v0.7L202,210.5 M196,210.5l0.7,0.3l-1.7,1l-0.7-0.7L196,210.5
		 M218.6,211.8l-0.7,0.7l-1-0.3l0.3-1l1.4-0.3l1,1L218.6,211.8 M211.2,211.8l-0.3,0.3l-0.7-1h-1.4l0.7-0.7l1.4,0.3h0.3V211.8
		 M213.2,211.5h0.3h0.7l-1,0.3V211.5 M356.8,176.3l0.3-0.7l0.3,0.3l-0.7,0.7v-0.3 M358.5,179.7h0.3l-3,3l-3.4,0.3l1.4-0.7l0.3-0.7
		l1,0.3l0.7-1.4l-1.7-0.7l-1,0.3v-1.7l0.7-0.3v-0.7l0.7-0.7l2.4,1l1-0.3l0.3-1l0.7,0.7l0.3,0.7l-1,1.4L358.5,179.7 M346.4,174.6
		l-1.4,0.3l0.3,0.7l-0.3,1l-3,0.3l1-1.4v-1l1-0.7v-0.7l0.7-1l0.7-0.3l1,1l1-0.3L346.4,174.6 M355.5,174h0.3l0.3,0.3l-0.3,0.3
		L355.5,174 M282.5,182.8l1.4-0.3l-0.7,1l-2,0.7L282.5,182.8 M188.5,205.7l3.7-3l6.8-2.7l5.1-4.1h1l1.4,2.4l-1.4,2.7l-1.7,2l-0.3,1
		h-0.7l-0.7,1.7l-1.7-1l-0.7,1.4l0.3,0.3l-2.7,0.7l0.7,0.7v1l-2,0.3l0.3-0.7h-1.6l0.3-0.3v-0.7l1-0.3l0.3-1.4l1.4,0.3l1.4-1.7
		L198,204l-4.1,1.7v0.3l0.7,0.3v0.3l-3-1.4L188.5,205.7 M225.4,208.1l0.3-0.3l0.3,0.3h-0.3H225.4 M223.3,208.8l0.3-0.7l0.3,0.3
		l-0.3,0.3L223.3,208.8 M255.8,195.6h-0.3l-0.3-0.3h1L255.8,195.6 M233.5,209.5l0.3-0.3v0.3v0.3L233.5,209.5 M194.9,213.2l0.3-0.3
		v0.3H194.9 M180.7,218.9l1-0.3l0.3,0.3l-0.3,0.7h-1.4L180.7,218.9 M206.1,220.3l0.3-0.3h0.3l-0.3,0.3H206.1 M193.3,222.3h-2
		L191,222l0.3-0.3l-0.7-1l2-1l-0.3,0.7l1.4,1.4l0.7-0.3v-1.4l2.4,0.7l-2,1.7h-1.5 M176.4,221.3l0.7-0.3l-0.7-0.7v-0.7h2l-0.7,1v0.3
		L176.4,221.3 M222,220.3h0.3H222 M415.3,198.3h0.7h-0.3H415.3 M201.4,224l-0.7-0.7l-1.4,0.7l0.3-0.7l-0.7-0.3l-1.7,1.7l-0.3-0.3
		l1-1.4l-0.7-0.3l-0.3-0.7l1.7-0.7l1.4,0.7l1-1.4l-0.3-0.7l0.7-0.7l3.7,0.7l-1,1l-1.7,0.7l0.3,0.7l0.7,0.3l-1.7,2l1,1l-1.7,0.7
		l-0.3-0.3l0.3-0.7h-0.3l1-0.7l-0.3-0.3L201.4,224 M179.4,224.7l0.3-0.7v0.3L179.4,224.7 M191.6,225l0.3-0.3l0.7,0.3l-0.3,0.3
		L191.6,225 M184.8,225.3l0.7-1l0.3,0.3l-0.7,1L184.8,225.3 M176,226.4h-0.7l-1-0.7l-2,0.3l-0.7-1l-1.7,0.3l-0.3-0.7l0.7-0.7l6.4,2
		L176,226.4 M182.1,222l2-0.3l1-1l1,0.3v-0.3l0.3-0.7v-0.3v-0.3l1.4,1.4l0.3,0.3l-0.3,0.7l2.4,0.3l-1,1h-5.4l-0.7,0.7l-1-0.7V222
		 M197,221.3h0.3H197 M181.4,221.6l-0.7,1l-3.7,0.7l-2-0.7l0.7-1.4l2.4,1.4L181.4,221.6 M170.6,222.3l0.3-0.3v0.7L170.6,222.3
		 M431.5,339.6h1.4l0.3,0.7h1.4l0.3,0.7l1-0.3l-0.3,1l0.7-0.3v1l0.7,0.3l1-0.3l-1,1h-0.7l0.3,0.7l-2.4,2h-2l-0.3,0.7l-0.7,0.3v0.7
		h0.3l0.3,0.7l-2.4,2.4l-0.3,1l0.3,1.4h-2l-4.1,2.4l-1.7-0.3l-0.3,0.3l0.7,0.3l-0.3,0.7l0.7,0.3l1.4-0.3l0.3,0.7h1.7l0.3,1l0.3-0.3
		l-0.3-0.3l1-0.3l0.3,0.7h1.4l-0.3,0.7l0.7,0.3l-0.3,0.7l1.7,1l-0.3,1.4l-3.4,2.7l0.3,0.7l-0.3,0.7l0.7,0.3v0.3l7.4-1.7l-0.3,1.4
		h0.3l-0.3,1l-1,0.7l2.4,2l-0.7,1.7l-1.4,0.3h0.3l-0.3,0.7h0.3l-1,1l1,0.7l-0.7,1l1,0.3l-0.7-0.7l0.3-0.3l0.7,0.7v-0.7l2.7,0.3
		l-1.7,1.4l0.3,0.3l-2.7,1.7l0.3,0.3v0.7h0.3l-0.3,0.7l1.7,0.7v1h0.7l-1.4,1l0.7,1l-0.3,0.7l0.7,1l0.3,1l0.3,1v0.3l1,1.4l2.4,0.3
		l-0.3,1.4l1,0.3l-0.7,0.7v0.3h5.1l1,1l0.3,0.3l1,0.3v1.4l-2,2l-2,0.7v1l1.4,0.3l-1,1.4l1,1l4.1,0.3v0.7l0.7,0.3l3.7-1l1.4,1v0.7
		l1,1l-1.4,1.7l0.3,0.7l1.7-0.7l0.3,0.3l-0.3,1l0.7,1.4l1.4-0.3l1.4,1.4h2.4l6.1,33.8l4.1,0.3l2,1.4l1,1.4l1.4,0.3l0.7,1l2-1.4
		l2.4,1.7l-0.7,2.7l-2,1.7v1l1.7,1.7l-1.4,0.3l-0.3,1.7l-2,0.3l-1,1.4v2.4l-1-0.3l-2-2l-1,0.3l-0.3,1.4v1.4l-0.7,1.4l-1,0.3l-1,1
		l-1-0.7l-1.7,2l-2.4,1l-0.7,2l-1,1l-5.1,1.7l-3,3.7l-1.7-0.7l-2,1l-1.7,1.4l-0.3,1.4l0.7,1l-3,1.4l-0.3,0.7l0.3,0.7l-3,2l0.7,1.4
		l-0.7,1l1.4,2l-1,1l0.7,1l0.3,1l1.7,1.4h1.7l0.3,0.3v1l-2.7,0.3l-1.4,1l-1-0.7l-1,1l-5.1,2l-1.4,1l1,1l-0.3,0.3l1,1.7l-0.7,1.7
		l-2,2l-2.4,0.7l0.3,1.4v1.4l1.4,0.7l0.3,2.7l1.7,1.4l1-0.3l1,0.7v1.7l-2,1.7l0.3,1.7l-0.3,1l0.7,0.7l-0.3,1l0.3,2.4l-1,0.3l0.3,0.7
		l-0.3,1.4l-1.7,1.4h-4.7l-0.7-1.7l0.3-1l-0.7-0.7l-3.7,1.4l-7.8-0.3l-0.3,0.3v1l-1,1l-0.3,1.4h-1.8l0.7,1l-1,1l0.7,1v1.4l-1,1.4
		l-2-0.3L407,538l-12.5,8.1l-4.1,0.3l-0.7-1.7l-2-0.3l-0.7,0.3l-0.7,1.7h-1.4l-0.7,1l-2.4-1l-1.4,0.3v0.3l0.3,1l-0.3,0.3l-3.7,0.7
		l-1.4,1l1.4,1.4l-0.3,1.4l0.3,0.7l-2,1.7l-0.3,0.7l-2.7,1.4l-2-0.7L369,558l-1.4,0.3l-1-1.4v-1.7l-0.3-1l-4.7,0.3l-2.7-1l-4.1,1
		l-2.7-0.3l-1.4,0.7l1,2l-0.7,1.4v1.4l-1.7,1l-2.7-1.4l-1.7,1l0.3,0.3l-0.3,0.3l-1,0.7l0.3,0.3l-0.3,1l-1,0.7l-3.4-0.3l-3-2.4l0.3-1
		l-0.3-1.4l-1-0.3l-2.4,1l-3.4-0.3l-3.4,2.7v0.7l-3.4-0.3l-2-1.4l-8.8-2.7l-1-0.7l1.4-1.4v-1l-1.4-0.3l-0.7-0.7v-0.3l-2.7-2l-2-0.3
		h-3l-1,1.7h-2l-0.3,0.7l-3.7-1.7l-5.7-0.3l-2-1.4h-1.7l-0.7,0.7l-0.3,1.4v0.3l-1.4,1l-0.7,1.4l-1.4,0.7l-1-1l-1-2.4l-0.7-1l1.4-1.4
		v-1l-0.7-1v-1.7l-2.4-1l0.7-1.4v-0.7l-1-0.3l-1.4-1.4l-5.1-1.7l-1.7,0.7l-1.4-0.3v-1l-0.7,0.7l-0.3-1l-2.7-0.3l-3.4,1l0.3,0.7
		l-0.7,1l0.7,0.7l1-0.3v0.7l-2,2l1,1.7v1l-1.7,1l-2.4-1l-6.1,0.7l-1.4-0.7l-3,1l-5.7-3.4l-1.7,1.4l-1.7-0.3l-1.4,1.4l-1.4,3l-2,1.7
		l-5.4-1l-1,1l-3,0.7l0.3,1.7l-0.7,1l0.3,0.3l-1.7,1.7l-2,1l-4.1-1l-1.7,0.7l-0.7,1v1.4l-1.4,1.7l-3,0.3l-1.7,2.7l-4.4,2.4l0.3,1
		l-11.2,2.4l-5.7,5.1l0.3,2.7l-1.4,0.3l-3.4,2l1,1.4l0.3,1.4v1l1.4,0.7l0.3,1l-1,1l-4.7,0.7v1.7l-1,1.4v1.4l-1,0.3v0.7l-1,1l-1,0.3
		l0.3,1.4l-1.4,0.3l-0.7,3l-1.4,0.7l-0.3,1l-1.4,1.4v1.4l-1,1.4l2.4,4.7l-1.4,1.7l-0.3,2.7l-3,0.7l-6.1-3l-7.1-1.7l-4.7,1.4l-1,1
		l-0.7,2.4l-3,3l-0.7,3l0.3,1.7l-1.7,2.7l-2.4,3l-6.1,4.4l-6.4,6.4l-0.3,0.7l-0.3,3l-1.4,2l-0.7,2.4h-0.3v0.3l-1,1.4h0.3l-0.3,0.7
		l-2,1.4l-1.4,2.4l-1.7,1l-2,2.4l-0.7-0.3l-1.4,0.3v-0.7l-0.7-0.7l-1.4-0.3l-1,1l-1.7,0.3l-1,1.7l-2.7-0.3l-4.1,2l-10.5-5.1
		l-7.1,1.4l-2.4,1.4l-4.4-5.4l-2.4,2v2l-1,2l-1,0.3h-3.4l-3-2H64l-1.7,1.4l-3.7-1.7l-1.4,0.3l-1-0.3l-2.4,1l-0.7-1v-1.4h-2l-2,3.4
		l-7.4-0.7l-1-1.7l-9.5-13.5l-2.9-23.3l-2-0.3l-10.8,1l-3.4,1.4l0.3,0.7l-0.3,0.7l0.3,1.7l-0.7,0.7L12,627l-1,0.7L9,627l-0.7,1.4
		l-0.7,0.7l-0.3,0.3l-1,2l0.7,0.3l-2.7,0.6l-0.7,1.4v0.7H3v0.7l-1,1H0.6v0.7l1.4,0.7l0.3,1.5l2,0.7v0.7l-0.7,0.7l0.3,0.7l-1,1.4
		l-0.6,0.6l-1.4-1v0.3l0.3,0.3l-2.4,1.7l-0.7-0.3l-0.3,0.3l1,0.7l-1.7,1.7l-0.7,1v1H-5l-1,0.7l1,1.7l4.4,1l-2,0.7v0.7l-0.7-0.3
		l-0.3,0.7l0.3,0.7l-0.3,0.7l-2,0.7l-0.3,1l-1.4,0.3v0.3H-9l-1.4-1l0.3-1l-0.3-0.7v-1l-0.3-0.3l0.3-0.7h-0.7l0.3-0.7l-1.4-1l0.3-0.3
		l-1.7,0.3l-1.4-0.7v-1.7l-0.7-2.4h0.7v-1h0.3l-0.3-1h0.3v-1l-3-0.3l-0.3-1.7l0.3-1l-1.4-1l0.7-1l-1-0.7l0.3-0.7l-1.7-1.4v1l-1-0.3
		l0.3,0.3l-0.3,0.3l-2-1.4l-1.4,1h-0.7l0.7-1l-0.3-1h0.7l0.1-0.3l0.7-0.7l-0.7-0.3l0.3-0.3l-0.3-0.7l0.3-1l-1-2l0.3-0.7l-0.7-0.3
		l-1-1.7h-1.4l-1.7-1.7l1-1.7l0.3-1l-0.7-0.3l-1,0.7l-1-0.7l0.7-2l-0.3-1l0.7-0.7l-1.4,0.3l-1-1l-0.7,1.7l-0.7-1.4l-1.7,0.7l0.7-1.4
		l-0.7-1l0.3-0.7l1.7,0.3l-0.3-1l2-0.3l0.3-1l1-0.3l0.7-1.4l-1.7-3.4h-2l0.3-1v-0.3l0.7-1v-1.4l-0.3-0.7l-1.4-0.3l-2.7-2.4v-1
		l-3.4-3.7l0.3-3l-0.7-3.4l0.3-2l1.4-1.4l2.7-0.7l0.7-1v-1l-0.7-3.7l-3.7-3.4v-3.7l-0.3-3.4l-1-2.4l-1.4-0.7l-0.3-1.4l1-1h2
		l-0.3-0.7l1-0.7l-1-0.3l0.7-1.7l-1.4-1l-1-0.3l-1.4,0.7l-2-0.3l-2-2l-3-0.7l-0.7-2l0.3-0.7l3-2.7l0.3-1.4l-2-4.1l-1.7-1.4l-1.4,1.7
		l-0.3,2l-0.7,1.7l1,1l-2,1.7l-2.7,0.7l-1.7-2l-2,1l-0.7,1l-1-0.3l-3.4,1.4l-0.7-0.3v-1l-0.3-0.3h0.7l-1-0.3l-0.3-1.4l-1-0.3v-2.4
		l-2.4,0.3l-1.4-1l-0.3,0.7l-0.7-1l-1,0.3v-0.7h-1.4l-1.7-2.4l-2.4,0.7l0.3-1l-1,0.7l-0.7-0.7H-83l-0.3,0.7l-0.7-1l-1.4,0.3v-0.7
		h0.7l-1.4-1.7l0.7-1.4l-2.4-0.3l0.7-0.7l-1.4-1l0.7-0.7l-1-0.7l1-1l-0.7-1.4l0.3-0.7l-0.3-0.7v-1v-0.3l-1.7-1l1.4-0.7l-1-0.7l0.3-1
		l-1.4,0.3l-0.3-0.7h-1l-0.3-1.7l-2.7-0.3l-0.3-1l-1,0.3l2.7-1.7l-1.4-0.7v-0.7l1-1l-2-1.4l1-1l-2-1.4v-0.7l-0.3-0.7h1.7l1.4-0.7
		l0.3-1.4l1,0.3l1-0.7l-0.3-0.7l0.3-0.3h0.7l-0.7-1l0.3-0.7l-1,0.3l1.4-1l1,0.7l-0.3-1l0.3-1.4l2,0.3v0.7l0.7,0.3v-1.4l-0.7-1
		l0.7-0.7l-0.3-1.4l0.3-0.7h1.7l0.3,0.7l-1,0.3l2.4,1l2.4-3l0.7-2l2,0.3l-0.7-1.4l0.7-0.7h1l1.4,1l2.4-2.7l2-0.3l0.3-1l-0.7-0.7
		l0.3-0.7l1,1l1-0.7v-1.7l0.3-0.3l1.7,0.7l0.7-1l1-0.3l3.4,0.7l1,2l-1,0.7l1.7,1.4h1.4l0.3-0.7l-0.7-0.7h1l1-1l-0.7-0.3l-0.7,0.7
		h-0.3l0.3-0.7h-1.4l-0.3-1v-1l-1-0.7l1.7-1v-0.7l0.7-0.7l-0.7-0.3l0.7-0.3l-0.3-0.7l0.7,0.3v-0.3l0.7-0.7V488l0.3,0.3V488l0.3-0.7
		l-0.7-1.7l-1.4-0.7v-0.3l-0.3-0.7v-0.3v-0.3l0.3-1l1.4-2.4v-0.7l0.3-0.3l-1-1.4l0.3-10.1l-9.1-5.1l-8.1-9.8l-3.4-1.4l-0.3-1
		l-0.3-2.7l3.7-3l1.4-3l-0.7-2l0.3-1l1.4-0.7l1.7,1l0.7-0.3l2.7,0.3l1.7,1.7l1.7-1.4l1,0.7l0.3-0.7l-0.3-0.3l1-0.3v-0.7h0.3
		l-0.3-0.3l0.7,0.7l2.4-1.7l-1-0.7l0.7-0.3l-0.3-0.3l0.3-0.7h-0.7l0.7-0.3l-1-1h1.4l-0.3-0.7v-1h-0.3l0.7-0.3l-1.4-0.3l0.3-0.3
		l-0.3-0.3l0.7-0.3l-0.7-0.3l1,0.3l-0.3-0.7l1.4,0.3l0.7-0.7l-0.3-0.3l0.3-0.3l0.3,0.7l1.4-0.3l-0.7,0.3l0.3,0.3l0.7-0.3v-0.3v-0.3
		l0.7,0.7l0.7-0.7l-2-1.7l0.7-0.3l-0.3-0.3h0.3v-0.7L-59,425l0.3,0.7H-59l-0.7-1l-1-0.3l0.7-0.3l-0.3-0.7H-61l0.3-0.7l-2.4-1v0.3
		v0.3l-0.3,0.3l-0.3-1l0.7-1l-1.7-0.7l0.3-0.7l-2-1l-2.3,0.8l-0.3-0.7l-2,0.3l0.3-1l-0.7,0.3v-0.7l-1.3-0.2l0.3-0.3h-1l-0.3-0.7
		l-1.4,0.7V416l-0.7-0.3l-0.3,0.7v-1l-0.7-0.7h0.7v-0.3l-1,0.3l0.3-1l-0.3-0.3l-1.4,0.3V413l0.3-0.3l-2-0.7v-1l-0.7,0.3l0.7-0.7h-1
		v-1l-1,0.3v-0.3l0.3-0.7l-1.4-0.3v-0.3l1.7-0.3v-0.7l-0.7-0.3l1-0.3L-82,406l0.3-1v-0.7l-2-0.7l-0.7-2l2-1.7l11.5,2.7l4.4,2
		l6.1,7.8l12.8,8.1l-0.1,0.5v2.7v0.3v0.7l5.7,7.8v2.4l1,2l4.7,3.4l3.4,0.7l6.4,0.3l7.4-1.7l3-0.3l1,0.3l0.3,1.7h0.3l3,0.7l1.4,1.4
		l3-1.4l0.3-1.7l-0.3-2l-3.4-2.7l-6.8-2.7l-1,0.3v0.3v0.7l-0.7-0.7l-0.7-4.4l-0.7-2l-4.1-4.4l0.3-0.7l1.4-0.3l0.7-2.4l-0.3-2l-1-2
		l-6.8-4.4l-9.8-3l0.3-0.3l-1.4-0.7l-1.4-2l-1.7-0.7l-0.7-1.7v-1l-1-1.7l0.7-1.4h1l-0.3-1l1.4-1.4l-0.3-1l-2-1v-3l0.3-1l-0.3-0.7
		l2.7-2.4l0.7-2.7l0.7-1.4v-1.4l0.7-0.7v-1.4l-1-2.7l0.7-0.7l-0.3-0.7l-4.1-3l1.7-0.3l0.7-0.7v-1l-3.7-1.7l0.3-0.3l-0.3-0.7l-1,0.3
		l-0.3-0.3l1.7-0.7l1.7,0.7l1.7-0.3l-1.7-1.4v-0.3l3,2v-2h-0.3l-0.3-1.4l-4.1-2.4l1.4-1V360v-0.7l0.3-0.3l2.4,0.3l-0.7-1.4l2-0.3
		l0.3-0.7v-2.4l1.4-0.3l-1.4-1l-0.3,0.3v0.7l-0.3,0.3l-1-0.7l0.7-1l-1.7-1l-1,0.3l1,0.7v0.7l-2-0.7l-2.4-2.4l1,0.3l1-1l3.4,2l1-0.7
		l-0.3-1v-0.3l1-0.3l-0.7-0.3l1.4,0.7h1.7l2.4,1.7l0.3-0.7v-0.3h3l-0.7-0.7l4.1,1.4l1-0.7l0.3-0.7l7.8-0.7l7.4,0.3l17.9,2.7
		l14.9-1.4l5.1-1.7l2.4,0.7l1.7,2l2,0.7l3.4,0.3l2-0.7v-0.3l-0.3-0.3v-0.7v-0.3l1.4-2l3.4-0.7l1.7,0.3l3.7-1.7L53,346h0.7l0.3,0.7
		l3-1l0.7,0.7l1.4-0.3l0.3,1l3.4,1.4l-0.3,1h0.3l-0.3,1l-0.3,0.3v0.3l-0.3-0.3l-0.7,0.7v1.4l-0.7,0.7l-4.1,1l1,0.3l-0.7,1v0.3
		l1.4-1.4h1l-2,2.4v1.7l-3,1l-3-0.3l0.7-1h2l-2-0.7v-0.3l4.7-0.7l-1-0.7l0.3-0.3l-0.3-0.3l-3,0.7l-1,1l-1.4,1.7l-3,0.7l-2,2l-3.7,2
		l-0.3,1.4l-0.7,3l-1-0.7l-1,0.3l1,2h0.3l1.4,1.7l0.3,1.4l6.1,2.4l0.3,1l-1,0.3l0.3,1.7l4.4,2.4l0.3-0.3l-2.4-1.7l-0.7-3l-4.4-2
		l-3.4-3.4l-0.3-1.4l1-1l1-0.3V367l-1-0.3V365l2-1.4l2.7-0.7l0.7-1l-0.3-0.3v-0.7l9.5,0.3l3-1.7l3,0.3l2.4-2.7l-0.3-0.3l0.7-2.4
		l1.7-0.7l0.7-1v-1l-3.4-4.1l-0.7-1.7l0.3-1.4l-1-2l-3.7-2l-0.3,0.3l1,1h-1.7v-0.3l-0.3-0.7l0.3-0.3l-0.7-0.7v-1h2.7l0.3,0.3v0.7
		l2.4-1l2,0.3l-1-1h-3.4l-1.4-0.7v-0.7l1-0.7l-2.4-1.4l1.4-2v-1.4l-0.7-1.4l-1.7-1.4H54l-1.4-1.7l-4.4-0.3l-1.7-1l-0.7-1.4l0.3-1.4
		l1-1.7h2l1,0.7v0.3l0.3,0.7l2,1.7V324v-1l-0.7-1v-0.7l-3.4-1.4h2.4l0.7-0.7l0.9,0.8l0.7-0.3l-0.3-0.7l1-0.7l0.6,0.7l0.3-0.3v-0.3
		l2,0.3l2,2.4l-1,1h4.7l-0.3,1l0.3,0.3v0.3l-1.7,1.4l2-0.3l-0.7,1.4l0.7,1l-0.7,0.7l0.3,0.3l1.4-0.7l-0.3-1l0.3-0.3l-0.7-1.4v-1
		l0.3-0.7l1.4,0.3l-1.4-1.4l1-1h-4.4l-0.7-0.3l0.7-0.7v-0.3h-1.7l0.7-1.4l-1.4-1.4h-1l0.3-0.7l2.7-1v-0.3l-3-0.3l-0.7-0.3V314v-0.3
		l-2-0.7l0.3-1h-3h0.7l-0.7-0.7h-2l-0.7-1l-0.3,1l-1-0.7l-0.7,0.7l0.3,0.3h-1.7l1.7-0.7l-2.4-2h1.7l1-1l-0.7-1h0.3l-0.3-0.7l1.7-0.7
		l1.4,1v-0.7l1.4-1l-0.3-0.7l0.7,0.3l0.7-0.7l-2.7-1.7l-1.7,0.7l-2-0.3v-0.7l1-0.3v-0.7l0.3-1V299l1.4-0.3l0.3,0.3l-0.3,1l0.7,0.3
		l2.7,0.7l-0.3,1.4l0.7,0.7l1-1l-0.3-0.3l0.3-0.3l0.3,0.7l-0.3,0.3l2,1.4l1,1.7l-2.4-1l-0.3,0.7l1,1v1.4l1-1h1.4l1,0.3l-0.3,0.7
		l0.3,0.3l1.4-0.3l-0.3,0.7l0.3,0.7l-1,0.7l2,0.7l-0.7,0.7l-0.3,1.4h3v-0.3l-0.3-0.7l0.3-0.7v-0.3l1.4-0.3l-2.7-0.3l0.3-0.7l-1-0.7
		l1-0.3v-0.7l1-0.3l-0.3-0.3l0.7-0.7l2.4,1.7v-1l1.4-1h-1.4l0.3-1.4v-1.7l0.7-0.7v-0.3h1.4l-0.3-0.7l4.1-3h-1.7l-1.4-2l1-1h2.7
		l0.7,0.7v1l-1.4,0.7l1.7,0.3l0.7,1l0.7-0.3l-0.3-0.7l0.7-1l1.4,0.3l0.5-1.2l-0.3-1.4v-0.3v-0.7l-4.1-0.7l-0.7,0.7l-4.7-3h-2l0.7,1
		l-0.7-0.7l-0.3-1.4l1.4-1.4l3.4-0.7l9.8,2.7h2.7l4.4-1.7l-0.7-0.3l0.3-0.3h-0.3l-2,0.3l-0.7-0.7h0.7l0.3-1v-0.7l2.4,0.3l2.7-3.4
		l1,0.3l0.3-0.7l-0.3-0.3l0.7-1l4.1-2.4v-1l-1.4,0.3l-0.3-0.7l4.7-1.7l1.4,0.3l0.3-0.3v-1l1.7-1.4l0.3-0.3v-0.3l1.4,0.7l0.7-0.7
		l0.7,0.3l0.3,1l-2-0.7l-1,1.4l2.4,0.7l-1,0.7v0.7l1,0.3l1.7-1.4l0.3,0.7l2.4,0.7l-1.4-1.7v-0.7l3.4-1l1.4,0.3l0.7-0.7l-1.4-1.7
		l2.7-0.7l1-1.7l1,1l6.1-0.7l0.3-0.7v-1h2l1.4-1.4l0.7,0.3l-0.7,0.7l0.3,1v0.3l0.7,0.7l2.4-2.4l1.4-0.7l-0.7,1.7l1.7,0.7l2.7-1.4
		l0.7,0.7l2,0.3l-0.3-0.7l0.3-0.7l-0.7-1.4l1-0.7v-0.3v-0.7l0.3-0.3v-0.3l2-1l-1.7,0.7v0.7l1.4,0.3l-0.7,0.7l0.3,0.3l2.7-1v-0.3
		l0.3,0.7v0.7l0.7,0.3l1.7-1.7h3.4l1.7-2l2,0.7l5.1-1l1.7-1.4l2.7,0.3l6.1-2.7h1.4l3-1.7l-1.4-0.3l-4.1,1.7l-0.7-0.7v-1.4l-0.3-1
		l-1,1.7l0.7,1.4l-0.3,0.7l-1-0.3l-2-2.7l-1.4-0.3l0.7-0.3l0.7-1.4l-0.3-0.3h-0.3l-0.3,1l-2,0.3v0.7l-1.4,0.3l2,1.7l-3.7,0.3H154
		l0.7-1l0.3-0.7l-0.7-0.3l0.3-1l-0.3-0.3l-0.7-0.3l2.4-1.4l-0.3-0.7v-0.7H155l1-0.7l-1-1l2.4-0.3v0.3l-0.7,1.4l1.4,1l2.4-2l-1-0.7
		l1.4-0.3v-0.7l-2-0.3l1.4-1h0.3l-0.3,0.3l0.3,0.7l2-1l1,1l-2.4,1.4l1.4,0.3l0.3,1l-0.7,1l1.4,0.3l1-1.4l-0.3-0.3V249l1,0.7l1.4-0.3
		l-0.3-0.7l0.3-0.3l1.4,1.4l3-0.3l-1.7-0.7l-0.3-1l-2.4-0.3V247l-0.3-0.3l0.3-0.3h5.1l0.7-1l0.7,1.7l3.7-1l-0.3,1l1.4,0.3v0.3
		l-0.3,0.7l0.3,0.3l1-0.7l1.7,0.3l-1-1.4l2-0.3l0.7-1h-3l-0.7-0.7l1-0.3h4.1v1h1.7l0.3,0.3l-1-0.3v1l1.7,1l1.7-1.4l1.7,0.7l0.3-1
		l1.4-1.7l3.4,1l1.4-0.3l-1.7-1l1.4-0.7l-0.3-0.3l-2,0.3l-0.7-1l-0.7,0.7l-0.3-0.3l0.7-0.3l-2.4-0.7l-0.3-0.7l0.7-0.7l-0.3-0.7v-0.7
		l0.3-0.3h2.7l-0.7,1l1.4,0.3l-0.7,0.7h0.7l1-0.7l-0.3-0.3l0.3-0.7l3-2l0.3,0.7l-0.3,1.7v0.3l1.4-1.4h2.4l-0.3,2.7h0.3l1-0.7
		l0.7-2.4l1.4-0.7l4.7,2.4l-0.3,1.7l-1,0.7l0.3,2.7l-1.4,0.7v-0.7l0.7-1.4l-0.7-0.3l0.7-1.4l-1-0.7l-0.3-2l-1,0.3v2l1.4,0.7l-2-0.3
		l-1,0.3l1.4,0.7l0.3,0.7l1,0.7l-0.3,1.4h0.3h-1.4l1,1l-1.4,0.7l0.3-0.7l-0.3-0.7l-1-0.3v-0.7l-2-0.3l-0.7,1l-1.4-0.7l-2.7,0.3l3,1
		l-0.7,0.3l0.7,0.7l1.4-0.3l0.7,0.7h1.4l-1,1l-0.7-0.7l-1.7,1l0.7,1h1l-2.8,1.5l0.3,0.7l-0.3,0.7l-1.4,0.3l-3.7,5.1l-1,0.3l2,2
		l1.7-2.7l1.7-1.4l0.3-1l1.7-1.4l1,1l0.7-0.7l1.4,0.3l0.7-0.7h-1l0.7-0.7v-0.3h-1.4l2-0.3l0.7-1.4l-0.3,0.7h2l-1,1.4h0.3l2-0.3
		l0.7,0.3l-3,4.7l2.4-0.3l1-1l0.3,0.3h1.4l0.3-1l1.4-0.3l0.3-1v-0.7l2.7-2h-2.7l-2.7,1.4l-1-1l4.7-3.4l4.1-2l0.3,1l-2,2l-0.3,1.4
		l2.7-0.3l-1.7,1l0.3,0.7h-1.7v0.3l1.4,0.3l-0.3,0.3l0.3,0.3l-1.4,1.4h2l0.3-0.3l-0.3-0.7l0.7-1.4l2.4-1h1l-0.3,0.3l1.4,0.7h2.7
		l0.3-0.3l-1.4-1.7V250l-3.4-0.3l4.1-2.7v1h1.4l-0.7,0.7l0.7,0.7l1.4-1l0.7,0.3h0.3v-1l1.4,0.3l1-1l-2.7-0.7l-0.7,0.7l-1.4-1
		l1.7-1.4l1,0.3l-0.3-0.7l1.4-0.7h1l3.4-1.4l0.7-1l3.7-2.7l0.7,0.3l-0.7,0.3v1l-0.7,1l2.4,0.3l0.3-0.7l-0.3-0.3h1.7l0.7-0.7
		l-0.7,0.7l4.1,0.3l0.7,1l-0.3-0.3l-1.4,0.7l-0.3,0.7l0.7,0.7l-1.4,0.3l1,1h1.4l0.7-1l0.7,0.7l2.7-1.4l-1,0.3l0.3,0.7v0.3l2.7,0.7
		l0.3,0.7v0.7v1h0.7l0.7-1.7l-1.4-1.7l-0.3-1.4l-1-1l-1.7-1v-2.4l-3-1v-1.4l-1.7-1.7l-2.7,0.3l-1.4-3l-2.4-2.4v-1l1.4-1.4l6.4,2.4
		h4.7l5.1-1.7l4.7,0.3l4.7-1.7l3-2.7h1l1-3v-3.7l2.7,0.7l1-1l-3.7-3.4l-1.7,0.3l-1.7-2.7l-0.7-2.4l1.4-3.4l0.3-0.7l-0.3-1h1.7
		l0.3,1.4v0.7l1.4-0.3l-0.3-1.4l0.7-2l-0.3-1l0.7-1l-1-0.3l1.4-3l4.4-6.4l2.7-2.7l1.4-2.7l3.4,1v-1l-0.7,0.3l-0.3-0.7l2-1.7v-0.3
		l-1.4,0.3l1.7-1l1.4-3l1.4-1.7l3-1.7l1.7-1.4l-0.7-1l4.4-3.4l1.7,1.4l3-1.4l1,0.7l1-0.7l-0.7-0.7l1.4-1.7v-0.7l1-0.3v-0.3l1.7-1.4
		l0.7,0.7l1.4-1l1.7,1.7l1.4-0.3l-2.4,1l1,0.3l-0.3,0.3h0.3l4.4-2l1,0.3l1,0.3l-0.3,1.4l0.7,0.7l-0.7,0.3l0.7,1l7.4,2l7.4-1.4
		l-0.7,0.3l1,1.4l0.3,0.7l-0.3,0.3l0.7,0.3l-0.3,1l1.7,1.7l-0.3,0.7l2.7,1.4l1.4,0.3l-0.3,0.7l0.7,0.7l-6.8-0.3l0.3,0.7l-3,4.1
		l-0.3,0.3l0.7,0.3l-0.7,1l1.7-0.7l-0.3,0.7l-1,0.7l-1.4-0.3l-1.4,1.7l-5.4,2.7l-1.7-0.3l-2.4,0.7l-1,1.7l-1.7-0.3l-2.7,2l0.3,0.3
		l1.7,0.3l4.7-0.7l0.3-0.7l-0.3-0.3l0.7-0.3l2,2h2.4l1.4-2l2.7,1l3.4-2l2.4,0.3l1.4-2.4l0.3,0.3l-0.7,1.4l0.3,1v0.7l-1.7,1l0.7,1
		l-3.7,0.7l-1,0.7l0.7,0.7l0.3-0.7l-0.7,1l0.7,0.7V197l1.4,0.3l2-1h1.7l3.7-4.1l4.1,0.7l0.7,1.4h0.7l0.3-1l1,1.4l1-0.3v-0.3H347
		v-0.7l1-0.7l-0.3-0.3l1.7-0.7l1,0.3l0.7,1.4l1.4-0.7v0.7l-1,0.7l0.3,0.3l3.7-1.7l-0.7,1.4h1l0.7,0.7l-0.7,0.3l0.3,0.7l1,0.7l2,0.3
		l-0.3,0.7l-3.4,1v0.3l2.4,0.7l-2.7,1.7l1.7-0.3l-1,2l-2,0.3l-0.3,1.7l0.3,0.7l-1.4,0.7l-0.3,1l-2,0.3l0.3,1v0.3l0.7,0.3v0.7
		l-0.7,0.7l0.3,1l-0.3,0.3l0.3,0.3l-0.7,0.7l0.3,0.3l-0.3,0.7l0.3,0.3l-1,1.7l-0.7,0.3v-0.3v-0.3v-0.7l-1.4-1.4l-1.7,1l1,1v2l1,0.7
		h3l0.7-0.7l0.3,1.4l0.7,0.7l0.7-0.3l-0.3-1h-0.3l0.7-1h2.4l3.4-1.4v-0.3v-0.3h1.7l2.7,1l1.4-0.3l2.4-2l1-1.7v-2.4v-1l-1-0.7v-2
		l-0.7-1.4l1-0.7h2.7l1.4-0.7h0.7l-1,1h0.3v0.7l0.7,0.3l1.4-1.4l3,0.7l7.4-2l2.7-2.4l1,1l1-0.3l3.4,1.4h2.4l8.1-4.4l1.7-0.3
		l-0.3,0.7l0.3,0.7h2l3-2l-0.3-0.7l0.7-0.3l0.3-0.3h0.7l1,0.3h0.7l1.4,1l0.3,0.7l-2-1.7l-2-0.3v0.3l1.7,0.7l-1,2l1,0.3v0.3l0.3,0.3
		l1.4-0.7l2.7,0.3l1-1l1.7,0.7l1.4,0.7l-1.7-0.7l-1.4,2.4l1.4,0.3l-1,0.7l0.3,0.3l2.7-0.7l3.4,1.7v0.7l0.7,1l1.4,0.3l2.4,2.4
		l-0.7,0.3l-2,4.1l0.3,0.3l0.7-0.3l2.7-4.4l1.4-0.3v-0.7l-2.4-2.7h-3v-0.3l-0.3-0.3v-1l-1.7-0.3l0.3-0.3l-0.3-0.3l2.7-1.7l1.4,0.3
		l0.3-1l-0.7-0.3h3l-1,0.7l1.4,0.3l0.3,0.3v0.7l0.3,0.3v0.7l1.4,0.7l-0.7,1.7l2.4-0.7l-0.3-0.7l1,1v0.7l-0.7-0.3l-1,1v1l2.4,1v2.4
		l-1,1.4l3,1l-1,2l0.7,1.7l-0.3,0.7l0.7,1.4l-2.7-1l-0.3,0.7l1.4,1l-0.3,0.3l1.7,0.7l1.4-1.4v1.4l1.7,1.7l-0.3,0.7l0.7,0.7l-1.4,2h2
		l1.7-2v-1l-1-0.7l0.7-1.4l2-1l-1-1l-2,0.7l-0.3-1.7l-1-0.7l3-0.7l0.3-1h-1.7l1.7-0.7l1,0.7l2.7,2.4l2.7,4.7l-0.7,1l1.4,2v0.7v1
		l1.4,1.4l-1.4,1h1.7l-0.3,0.7h0.3l1.7-0.7l-0.3-0.7h-1.4l1.4-1.4l1.4,1.4h1l1,1.4l0.3,1.4l0.3,3.7l-0.7,4.1v4.4l-0.7,1.7l-1,1.4v1
		l-2,0.3l-0.3-0.7l2-3l0.3-0.7l-0.7-1.4l-4.1-0.7l-4.4,1.7l2-2l-1.4-0.3l-0.3-0.7l-3-0.7l-3.7-2.7h-3.7l1.4,0.7l0.3,1v1l2.7-0.3
		l2.4,1l1,1.4v1l-1.4,0.7l1.4,0.3l-0.3,1l1.4,0.3l-0.3,0.3l0.3,0.7l-1,1v1.4l0.7,1l1.7,0.3l1.4-1v-1l-1-0.7v-1l3.4-3l1.4,1v0.7
		l-0.3,0.3l1,0.7l-1,0.3l0.3,1l1.4,2l2.7,0.3l2.4-0.7l1,2l0.3,1.7v0.7l-1.4,0.3L457,254l2.4-0.3l0.3,0.3v3.7l-1,3.4l-5.1,9.5
		l-1.7,0.3l1.4,0.3l-1.7,1.7l-0.7,3l-3.7,3.7h-0.3l0.7-0.7l-6.1,3v0.7l-0.3,1.7l-1.4,3.7l0.3,0.7l-1.4,2.7l-0.3,1.7l-3-1l-2.7,0.7
		l-3,3.7l-0.3,1l-1.4,2l-0.7,2l0.3-1h-1.7l-4.7,4.1l-2.4-0.7l-0.3,0.7l1,1.4l-0.3,1.4l-2,3l-2.7,0.3l-2,2.7l1,0.7l0.3,2.4v2
		l-0.7,1.4l-2.7,3l-1.7,3l-4.4,1.4l-3,2.4l-3,4.4l-3,8.4l-2.7,3.4l-2,4.1h-0.3l0.7-1.7h-1.7l-3.7,3l-3-0.3l-3.7,1.7l-1.4,2v0.7
		l-0.7,0.7l0.3,0.3l-3.7,4.4l-1,3.4l0.3,2l-0.7,1.4l-2.4,1.4l-5.7-0.7l-2,2.7l-0.3,1.4l-0.3,2.7l-0.3,0.7l0.7,1.7l-2.4,1.7l0.3,3.4
		l0.3,1.4l-1.7,2.7l1.4,0.7v2.4l-0.7,0.7h-0.7l-0.7-1v1l-1.4,0.3l-1.7,2l-1.7,1.4v0.7l1-0.7l0.3,1l-0.3,0.3l-4.1,0.7l-2-1l-4.4,3
		l-1.4,1.4l0.7,0.3v1l-2.4,3.4l-2,1.4l5.4-0.3l2.7-3.7l1.7-0.3v-0.7l-1.7,0.3l1.4-1.7l2,2l0.3-0.7v-2.4l-1.4-0.3l0.3-0.7h6.4l3-3
		l0.3-1.7l1-1.4h1l0.7-0.7l0.3-2.4l0.7-1l2,1.4l1.7,0.3l0.3-0.7l0.7,0.7l0.3-0.7l-3.4-1l2.4-0.3l3.4,1.4l-0.3-1l-1.7-0.3v-0.3
		l-2.7-0.3v-0.3l-0.3-1v-1.4l-0.3-1.4l-0.3-2.7v-0.7l-0.3-0.7l1.7-0.7v-2.4l8.1,1.7l2.7-2h5.4l2-0.7l4.7-0.7l3-3.4l1.4-1h1.7l1,1
		l1.4-0.7l0.7-0.3v-0.7l-0.7-1h-1.7l-1,1V367l1-1.7l9.8-3.7l5.4-3.7l-1.4-1l-0.3-1.7l0.3-0.7l2.7,1.7l0.3,0.7l0.3-1l-2.4-2.7
		l-1.7,0.7l-0.7-1.7l0.3-1.4h0.7l4.1,3.7l4.7,0.7l2-1.4l1-2l1.7-0.3v-2l0.3-0.3l-1,0.7v-1.4l3-1l1-1l-0.3-1.4l1.4-1.4h2l0.7-1.4
		l2.4-0.3l1-1.4L431.5,339.6 M249.4,158.1l-0.3-0.7l-0.7,0.7l-0.7-0.3v-0.7l-2,2l-0.3-0.3l0.3-1l-0.7,0.3l-0.3-0.7v-1l0.3-0.7
		l-1.7-0.7l2.7-7.4l1.7-2l1.4-3l2-1.7v-1l1.4-1l-1-1l0.3-1.4l-0.7-0.7l1.4-0.3l1-2.4v-1l-1-0.3l1.4-0.7l-0.3-0.3v-0.3l-0.3-1l1-1.4
		l1.4-0.7l-0.7-0.7l0.7-0.7l-1.4-0.3l0.7-0.3l-0.3-1.7l1-2.4l2-3.7l0.7-1l2.7,1.7l3.4,0.7l0.7-0.7l-3.4-1.4l-1-1v-0.7l0.7-0.3
		l-1.4-0.7v-0.3v-0.7l1-1.4l-0.3-0.3l0.7-1l-0.3-0.7l1-3.4h2.4l3.4,1.7l0.3-0.7l-5.7-3l1-2V102l5.1-1l-4.1-0.7l0.3-2.4l1-1.7
		l1.4-0.7l1.4,0.3l-0.3-0.3l1.7-0.3l-0.3-0.7l0.3-0.7l-1-0.7l-0.3-1l0.3-0.3l-0.3-0.3l0.7-1.4l2.7-1l0.3,1v0.7l1.7,3l-0.3,0.7l3.7,1
		l0.3,0.7v-0.7l-0.7-2v-1l-0.7-1.4l-0.3-2l0.3-1.7l1-1.7l1.7-0.3l0.7,1l4.4,0.7l1.4,2l0.7-0.3l-0.3,1l1-0.3l-0.3,0.7l2,0.3l-1.4,2
		h-0.3l-1,2h-1l0.7,0.3l-1,1.7v1.7v0.3v0.3v0.3l0.3,0.3l-1,2.7v0.3v2l0.3,1v1h0.3l-0.7,0.3v1.7l-2,1.4l0.3,0.3l-0.7,0.3l0.3,1v0.7
		l-1,1.4l-0.3,1.4l1.7-0.3l1.7-2.4h1l-0.7-0.3l0.3-0.7l-0.3-0.7l1-0.3l-0.3-1l2-5.4v-1.7l1.7,1.4l-0.3-0.7l3.4-2l0.3-0.3l-0.7-0.7
		l0.3-0.3l1.7-0.3l0.3-1.7l-0.3-0.7l0.7-1h0.3v0.7l0.7-0.3v1.4v1.7l0.7-1.7l1.4-0.3v-0.7l-0.3-0.3l0.7-0.7l0.3,0.7l-0.3,1l0.3,0.3
		h2.4l0.3,2l-1,1l1.7,1.7l-0.3,1.4l1.7-0.7l3.7,1l0.3,1l1,0.3l0.3,1l0.3,1l-0.7,1l0.3,0.3l3,0.3l-2.7,1.4l2.4,1h-0.3l0.3,0.3v1h0.3
		l-1,1v0.3l1.7-1l-0.3-0.3l0.7-1.4l-0.7-0.3v-0.7l2-1l4.7,2.4l0.7,2l1,1l-1.4,0.3l1.4,1v0.7l0.3,1v1l0.7,0.3v1l-0.3,1l1,1v1l-0.3,1
		v1.7l-3,5.7l-3.4,4.4l-0.3-0.7l-1.4-0.7l-2.4,1.4l-1-0.7l-8.8,5.1h-3l-3,2l-1.7-0.7l-1,0.3l-2,1l0.3,0.7l0.7,0.3l-1.7,1l1,0.7
		l-0.3,0.7l-0.3-0.7h-1.4l-0.3-0.7l0.3-0.3l-0.3-1l-1.4-0.7l-4.7,0.7l-2.4,1.7l-3.7-1l-1.4,1h-5.1l-1.7,1l-1.7,2l-2.4,1.7l-3,1.4
		l-7.8,6.1L249.4,158.1 M337.2,132.1l1-0.3l1.7,0.7l0.7,1.7l-0.3,1.4l-1-1l-2,0.7l-1,1l1.7,0.3l-3.4,2.7h-1.4l-1.4-1v-1.7l3.4-0.3
		l0.7-1.4v-1.4l1-1.7L337.2,132.1 M168.2,146.6l-0.3,0.3l-0.3-0.3l1-0.3L168.2,146.6 M167.6,147.9l1,0.3l-0.3,1l0.7,0.7h-1.7
		l-0.7-1.4l0.3-1L167.6,147.9 M343.3,138.8l4.4,0.3l3-2l1.7,0.3l0.3,1.4l1,0.7v2l-0.7,0.7l-1.7,2l-0.3-1.7l0.7-0.3l-1.4-0.3
		l-0.7,1.4l-9.1-0.7l-4.1-1l1.4-1.4h0.3l-0.3,0.7l3.7-2l1,0.7L343.3,138.8 M157.8,53.7l-5.4-2l-0.3-1l-2-0.7l8.4-1l5.7,2.4l1-0.3
		l-1.4-1.7l-3.7-1l-15.5,1.4l0.7-0.7l-0.3-0.7l-1,0.7l-2.4,0.3l3.7-3l2,0.3l0.3-0.7l1-0.3l2,1l-1.7-1.4h0.3l2.4,1l1.7-0.7l2,1l2-0.3
		l-1-1l-5.1-1l-3.4-1.7l5.7-2l3.4-0.3l2-0.7l-0.3-0.3h0.3v-3.4l1-3l4.7-5.1l-0.3-0.3l0.7-1.4h-1.7v0.7l0.7,0.7l-0.3,0.3l-4.1,0.7
		l-0.3-1l-1,1.4h-1h-1.4l-0.3-1.4l3-2.7l0.3-0.3l-0.3-1l0.3-0.3l3.4-1.7h1.7l-1-1.4v-1.7l-0.3-0.3l5.1-2.4l2.4,0.7l0.3-0.3l-0.3-1.4
		l4.4-1.4l1.4-1l7.4-2.4l5.4-4.1h3.7l-6.1-1.4v-1h0.3l5.4-1l3.7,1l0.3,1.4L194.9,7l2.7-0.3l0.7,0.7L198,8h1.4l0.3,1.7l3,2.4l0.3,0.3
		v1.7l2.7,1.4v0.3l-0.7,1l1.4,2.4l3.7,1.4l0.7,1.4l3.4,1.4l-0.3,0.7h0.3l5.1,0.3l-1,1.7l1.7,0.3l0.3,0.6l-1.4,1l1.4,0.7l0.7,1.4
		l-2.7,1.7h-2.4h-0.3v0.7l-2,0.7l-0.3-0.3v-1l-1,0.7l-1.4-0.3l-3.4-3l-2-0.7l6.1,4.7l-0.3,1v1l-0.7,0.7l0.3,1l-0.7,1.4l1,1.7
		l0.7,1.7l0.3,2.7v2l2,0.3l0.7,1v0.7l-2,2l0.3,0.7l-0.3,0.3L193,52.9l-6.1,2.7h-4.4l-1.7,1l-1.4-0.7l-2.7,3.4l-7.8,3l-6.4-2.7
		l-5.1-3l-5.1-0.3l-2.4-1l1.7-0.7l-0.3-0.7l0.3-0.3l7.4,2.7l0.7-0.3l-0.3-1L157.8,53.7 M246.7,103.7l1.7,0.7v1l0.3,0.7l-0.7,1
		l1.7,3.7l-1,1.7l-4.7,3.4v1l-0.3,0.7l-2-0.7l-2.7,1.4h-6.8l-3,2l-1-1.7h-1.7l-1-1l-0.7,0.3l0.7,0.3l-2.7-0.7l-3.4,1l-3-1.4h0.3
		l-1-1.4v-1L213,115l-2.7-2.4l-0.3-2.4l-0.3-0.7H205l1-0.3h-0.3l-1,0.7l-0.7,0.7l-2-1.7l-1.7,1.7h-2l-1.4-1l-2.4,0.7l-0.3-1.4
		l0.3-0.3l-0.3-0.3l0.7-1h-1.6l-0.3-0.7l0.3-1l-0.3-0.3h-2l-4.4,3.4l-1.7-0.7h1l-0.3-0.7l-1.4,0.7l-1-0.7l-2.7-3.4l0.7-2.7l-4.1-3
		l0.7-0.3h-1l1-1.4l-0.7-2l0.3-1l-0.7-3l1-1.4l-0.3-2l-4.4-0.7l-0.3,0.3L173,87l-0.3,0.7l0.7,0.3l-0.7,1l-1.7-0.7l0.3,0.7h-1
		l-0.3-0.3l1-1l-1.4-0.7l2-0.7l-0.3-1.4l1,0.3l-4.1-2.7l3-1.4l0.3-0.3l-0.7-0.3l0.7-1l-2,0.7l-0.7,1l0.7,0.7l-1.4,0.3l-2.4,2l-0.3,1
		l1,0.7l-1.7,1.4l1,0.3l-2.4,0.3l-1.7-1l1.7-1v-0.3h0.7l0.3-0.3L164,85v-0.7l-1.4-0.3l-1,0.3l-1-0.7l0.7-0.3l-1-1l-1.7,0.3l-0.7-0.3
		l2-0.3l4.1,1.4l0.3-0.7L167,80h1.7l-0.7-0.3l1.7-1.4l0.7-2l3-3l3.4-0.7l4.4,0.3v-0.3h-1.7l1.7-1.4l-0.3-0.7l-1.4-0.7l-3-2.4
		l0.3-0.7l-0.3-0.3l1.4-1.4l-0.7-0.3l-0.3-0.7v-1l1.4,1l1.7-1l2,0.7l-1.4-1l0.7-0.3l0.3-2l2.4-1V58l0.7-0.7l1.7,1.4l-0.7,1l1.7,0.3
		l1,1.4l1.4-1.4l-0.3-1l0.3-1l1-0.7l4.1,0.7l3-0.7l1,1l1.4-1.3l3,0.7l1-0.7l0.3-1l1.7,0.7l5.1-2.4h6.1l3,2.4l0.8,1.3l1.7,1v0.7
		l-2.4,1.7l0.3,1l0.7,1l-0.7,1l1.4,0.3l-0.7,1.7l-1.7,0.7l-1.7,1.7h-3.7l2.4,1l-7.8,3.4h-2l-4.1,2.4h2.4l3.7-1.4l0.7,1v-0.7v-0.3
		l1.7-1.4l7.1-2l0.3,1.4l-1.7,1.7l-3,0.7l-0.7,1.4l-1,0.3l-0.7,2l0.3,1l-0.3,1l0.7,1l-0.3-1l0.3-0.7V79v-1.4l5.4-3l1-1.4l1.4,0.7
		v-0.3l-0.3-1l0.3-1l5.1-1.7l-2-3.4l0.3-0.3l2,0.3l1-1l-0.3-0.7l0.3-1l0.7-0.3l-0.3,1l1-0.3l-1,2l0.3,0.7l-0.3,0.3h1.4l-0.3-0.7
		l1-2.7l-0.3-0.3l0.3-0.3v-1l-1.4-1.4v-0.7l0.3-0.7l2.7-1.4h0.3l-1,1.4l1,0.3l1.7-1l0.7,0.7l1.4-1h2.7h0.3l-1.7,1.7l2.7-0.7l0.7,0.7
		l-1.4,1.4l4.1,0.7l0.3,0.3l-0.7,0.3l-0.3,1l1-0.7l1,0.7l-0.3,0.7h1.4l1.4,1.4l-0.3,1.4l2,0.7v1l0.7,0.7l-0.3,0.7l0.7,0.7l-1.7,1.7
		h-1.9l1.4,1l0.3,0.3l-0.3,0.7l0.3,0.3l-0.3,0.7l0.3,1l-0.7,0.7l0.3,0.7l-1-0.3l0.3,0.7V81l-1,1l0.7,0.3l1,2l-0.7,1l0.3,0.3
		l-0.3,0.7l-0.3,0.7l0.7,1.7L246,89l0.3,0.3l-0.7,1.4l0.7,1.4l-0.3,1l0.3,1l-0.3,0.3l0.3,0.7h-1.7l0.3,0.7l-1.4,1l0.7,0.3l-0.3,0.3
		l-4.1-3l-1.7,0.3l0.3,0.7l2,2.4l5.1,3.4l-1.2,0.8l-0.3,1L246.7,103.7 M183.8,58.4l-0.3,0.3l-0.3-0.3H183.8 M157.4,60.4l-1.7,0.3
		l-0.7-0.3l1-0.7l2,0.3L157.4,60.4 M175,62.4l-1.4,1l-1.7-0.3l1-1.4l2.7-1.7l1.4,1l-0.7,0.3l-0.3,1h-1 M139.5,75.6l-1.4-1.7l1-0.7
		l7.4,1l-1.4,0.7l2.4,1l1-2h0.7l-0.3-0.3l2.7,0.7l0.7-1l-0.7-1.4l-2-1.4l-2-0.3l-1,0.7l-8.1-1.7l-0.7-1v-0.7l0.7-0.7l1.7-0.3
		l0.7-0.7l-2.7-2.4l1.4-0.7l0.3-0.3v-1l-1.4-0.3l-0.3-0.7l0.3-0.7l-3-1.4l11.2-0.3l1.7,1.4l5.7,0.7l1,1l5.1-0.3l4.4,1.4l6.4,4.4
		l-1,1.7l-1,1l0.3,0.3l-0.3,0.7l-2.7,1.4l-1-0.3l-0.3,0.3l1,0.3l-5.4,4.1l-7.1,1.4l-4.7-0.7l-2.7,1.4l-1.7-0.3l0.7,0.7h-0.3
		L139.5,75.6 M186.5,58h-0.3h-0.3l0.7-0.3L186.5,58 M197.6,56.4l-0.7,0.3l-0.3-0.3l1.7-0.7L197.6,56.4 M207.1,55.7l-0.3,0.3
		l-0.7-0.3h1.4H207.1 M144.9,56h-0.7v-0.3h0.7V56 M222,57.7l-0.7-0.3v-0.7l0.7-0.3l0.3,0.6L222,57.7 M158.1,38.8l-1.4,0.7h-0.3
		l0.7-1l1.4-0.3L158.1,38.8 M142.6,44.2v0.3l-1-0.7L142.6,44.2 M143.9,45.2h-0.7l-0.3-0.3h0.3L143.9,45.2 M214.9,50.3h-0.3l-0.3-0.3
		l1-1l-0.3,0.7l0.3,0.3L214.9,50.3 M142.2,5l3,0.7V6v1.7l1,1l-3.7,3l-4.1,0.7l-9.5-2l-1.7-1l-0.7-1l0.8-2.4l1.4-1.4l9.8-1L142.2,5
		 M164.9,11.1h-1l-0.7-0.3h1L164.9,11.1 M167.9,11.7h-0.7v-0.3h0.3L167.9,11.7 M-8.2,6l-1.4-1.4l1-1.4l3-2.4l4.4-0.7L5.3,3l1.4,1v1
		L6,6L1.3,7L-8.2,6 M155.1,29h-0.3h-0.3l1-0.3L155.1,29 M222,25.9l-0.3,0.3l-0.3-0.3h0.3H222 M221,31.7h-0.3h-0.4l0.3-0.3L221,31.7
		 M153.4,88.5h-0.3l0.7,0.3l-2,0.7l-0.3,0.3l0.3,0.7l-0.3,0.3l-0.7,0.3l-5.7-2.4l3.7,0.7l4.4-1.4l3.7,0.3h-3.5 M248.7,87.1l1-0.3
		l0.3,0.3l-0.7,1.7l-1.4,0.3v-1.7l0.3-1L248.7,87.1 M248.3,92.5h-0.7v-0.7l0.3,0.3L248.3,92.5 M246.3,96.9l0.3,0.7l-1.4-1h0.3
		L246.3,96.9 M156.4,107.1l1,0.7l-2-0.7l-5.4-2.7L156.4,107.1 M156.8,88.8h1.7l2,1l-0.7,1l-2,0.7l-1.7-1.4v-0.7L156.8,88.8
		 M208.1,111.4l0.7-0.7v0.7l-0.3,0.3L208.1,111.4 M232.8,119.2l-0.7,0.7h-1.4l0.7-1L232.8,119.2 M222.7,120.6l-1,0.3v-0.3l1-0.7
		l-0.3,0.7H222.7 M222.7,118.5v0.3H222l0.3-0.3H222.7 M179.4,62.8l-0.3,0.3l-0.7-0.3H179.4 M223.3,62.8H223l-0.3-0.3h1L223.3,62.8
		 M226,62.1h-0.3h-0.3H226 M225.4,63.5h-0.3l0.7-0.3L225.4,63.5 M176.4,65.8l-0.3-0.3h1L176.4,65.8 M225,65.5h0.7H225 M220.3,68.9
		H220l-0.3-0.7l1,0.7H220.3 M207.1,74.6h-0.3v-0.3L207.1,74.6 M213.2,76.6l-0.3,0.7l-0.3-0.3l0.3-0.3L213.2,76.6 M249.7,74.3
		l0.3,0.3l-0.7,1l1-0.3L252,76l-2.7,0.7l-0.7,0.7l-0.7,2.7l-0.7-0.3V78l0.7-1v-1.4l0.3-1l-0.3-0.3L249.7,74.3 M136.8,79.7V80h-0.7
		v-0.3H136.8 M249.4,81h-0.3l-0.3-0.3l1-0.3L249.4,81 M139.2,84.7l0.7,0.3l-5.7-2.4l-2,0.3l-2.4-1l3.7-0.3L139.2,84.7 M142.2,88.1
		l-2-1l0.7-0.3l-0.7-1l1.4,0.7l0.7,1.4l2.4,1L142.2,88.1 M136.8,84.7l-0.7,0.3l-1.7-1.4h0.3L136.8,84.7 M-36.2,63.1l2.7,1.4l0.3,1
		l-2,0.7l-8.4-1.4l-1-0.7l0.3-1.4v-1l-3.7-0.3l-2.7-4.4l0.7-1.7h1.7l1.4,1.7h-1l0.3,0.7l3.4-0.3L-36.2,63.1 M145.6,88.8h-0.3
		l-0.3-0.3v-0.3L145.6,88.8 M144.2,88.1h-0.3l-0.7-0.3L144.2,88.1 M142.9,87.1l0.3,0.3l-0.7-0.3H142.9 M290.6,100.3l-0.3,0.3v-0.3
		H290.6 M269,94.5l-0.3,0.3v-0.3v-0.3L269,94.5 M291.3,98.3L291,98l0.7-0.3L291.3,98.3 M292.3,98.6l-0.3,0.3v-0.7l0.3-0.3V98.6
		 M290.9,94.2l0.3,1.4l0.7-0.3V96l0.3,0.3l-2,0.3l-0.3-1.4h0.7v-1L290.9,94.2 M304.4,101.3l-0.7,0.7l-2,0.7l3-1.7L304.4,101.3
		 M312.9,108.1l0.3-0.3L312.9,108.1 M234.5,129.7h-0.7l-0.7-0.3h1.7L234.5,129.7 M234.1,132.1l-0.7,0.3v-0.3l0.7-0.3V132.1
		 M234.5,133.1l-0.7,0.3l-0.3-0.3l1-0.3V133.1 M222.7,121.9l-0.3-0.3l1-0.3L222.7,121.9 M233.5,128l-0.3,0.3l0.3-0.7l-0.3-0.7
		l0.3-0.3v-1l1,0.7L233.5,128 M233.1,121.9h-0.3h0.7H233.1 M336.9,130h-0.3l1-0.3h-0.3L336.9,130 M338.6,130.7h-0.3l-0.7-0.3
		l0.3-0.3L338.6,130.7 M337.2,131l-0.3,0.3l-0.3-0.3l0.3-0.3L337.2,131 M340.9,134.4l-0.3-0.3v-1.4l-1-1l1.4,1v1.7 M342.6,138.8
		l-0.3,0.3l-0.3-0.7l1,0.3L342.6,138.8 M185.5,234.5l0.3-0.7l0.3,1l-0.3,0.3L185.5,234.5 M213.9,240.6l0.7,0.7l-3.4,1l-1.4,1.7
		l-1.4-0.7l0.7-1l-0.3-0.3l1-2v-0.7l0.3-0.3l1-2l1-0.3l-1.4-1v-0.3l1.4,0.3l0.3,1l1.4-0.7l0.3,0.3l-0.3,0.7l0.7,0.3l0.3,0.7l-1,0.7
		l0.3,0.7h-1.4l0.3,1L213.9,240.6 M200,236.2l1.4-0.7l1,0.3l-1.7,1L200,236.2 M208.5,237.2l-4.1-0.7l-0.7-0.7l2-0.7l0.7,0.7l2.7-0.3
		v-0.3l0.7,1l-1,1.7h-0.7L208.5,237.2 M178,235.5l1-0.3l0.3,0.3l-0.7,0.7L178,235.5 M193.3,227l-0.3,0.3l-0.7-0.7l1.4-0.3L193.3,227
		 M205.1,225h0.7l-0.7,0.7V225 M199.3,226.4l-0.3,0.3l-0.3-0.3l0.7-1.4l0.3,0.7L199.3,226.4 M432.9,203h-0.3l-1-1v-0.7l-0.3-1l0.7,1
		l-0.3,0.7L432.9,203 M189.2,227.7v-0.3v-0.7l1.4-1h0.3v0.3l0.3,0.7l-1.7,1.7h-0.3V227.7 M197.3,227.4V227V227.4 M420,201.7
		l-1.4-0.7l1.7-0.7H420h0.7l0.3,0.7l-0.7-0.3v1.4L420,201.7 M424.4,199.7l0.3-0.3L424.4,199.7 M187.5,230.1l1-0.7l2,1l-0.7,0.7
		l1,0.3l-1,0.3l-0.7-1v-0.3v-0.7L187.5,230.1 M207.1,231.1l0.3-0.3v0.3H207.1 M440,204.7v0.3l0.3,0.7l-1-1H440 M444.4,208.4l1.4,0.3
		l-0.3,0.3l-3.7,0.7l-0.7-1l0.7-2.7l1.4,0.7l-0.7,0.7l0.3,0.7L444.4,208.4 M434.2,206.1v-0.7v0.3V206.1 M189.2,229.1h0.7h0.7h-0.7
		H189.2 M182.1,232.4h0.3h1.7l1-1v-0.7h1.4l-0.3,0.3v1l-1.7,0.7L182.1,232.4 M186.5,233.1l0.7-0.3l0.7,0.7h-0.3L186.5,233.1
		 M218.3,232.1l0.7-0.7v0.3v0.3L218.3,232.1 M211.2,233.1v1h-0.3l-0.7-1H211.2 M216.2,234.1l0.3-0.3L216.2,234.1 M205.4,248h0.7
		l-0.3,0.3L205.4,248 M180.1,239.2l0.7-0.3h0.7l-0.3,0.7L180.1,239.2 M246.7,240.2l1-0.7l1,0.3l-0.3,0.7L246.7,240.2 M183.5,243.3
		l-2.7-0.7l-4.7,0.3l1.4-0.7v-0.7l1,0.3l0.3-0.7l3.4,0.7l0.3-0.3l-0.7-0.7l0.3-0.7h-0.7l2.4-0.7l0.3-1l1.7,0.3l-1.4,0.7v0.7
		l-1.7,0.3l1,1.4l-0.7,0.7L183.5,243.3 M187.2,244.6l-1,0.3l-1.4-0.7l1-1v-0.7l1-1l1.4,1.4l-1.4,0.7l1.4,0.7L187.2,244.6
		 M247.3,241.9v0.3V241.9 M189.5,237.8h0.3v0.3L189.5,237.8 M249.4,239.9h0.3H249.4 M167.9,243.9l1-0.7l0.3,0.3l-0.7,0.3
		L167.9,243.9 M150.7,252.7h-1v-1l1.7,0.3v1L150.7,252.7 M201,253.1h0.3H201 M152.4,253.1v-0.3V253.1 M142.9,248h0.3l-0.3,0.3V248
		 M139.5,248.7l1,0.3l-1,0.3l-2.4-1L139.5,248.7 M134.1,248.7h-0.7h-0.3H134.1 M144.9,249.3h0.3H144.9 M149.7,254.4l0.7-0.3h0.3
		l-0.3,0.3H149.7 M152.7,259.8h-2.4l3-1.7l0.7,1h1.4l-1.4,0.3l-0.3,1L152.7,259.8 M454.8,227.4V227V227.4 M142.9,255.8l1.4-0.7
		l0.3,0.3h-0.7L142.9,255.8 M160.5,255.8h-0.3H160.5 M135.5,256.4h0.3H135.5 M160.8,258.8l-0.7,0.3l-0.3-0.7l0.3-0.7l1.4,0.3
		L160.8,258.8 M156.1,259.1v-0.3V259.1 M130.1,265.6v-0.3V265.6v0.3V265.6 M152,261.2l0.3-0.3l1-0.3l-1,0.7H152 M87.8,263.2h0.3
		H87.8 M82.7,265.6v0.3h-2l0.3-0.3v-0.3l2.4-0.3v0.7h-0.7 M55.4,296h-0.3l-0.3-0.7l1,0.3L55.4,296 M59.4,306.1l-2-0.3v-0.3l0.3-0.3
		l-0.3-1l-1-0.3l0.7-0.7l-0.7-1l2-0.3l-0.3-0.7l-3,0.7l-0.3-0.3l0.7-0.3l-1.4-1v-1l-0.7-0.3l0.3-0.7l-0.7-0.7l1,0.7v-0.7V297
		l0.7,0.3l0.3-0.7l0.7,0.3l-1,0.3l1.7,0.3l-0.3,0.3l0.7,1h2.7l0.3-0.7l-1.7-1l0.7-1l-1-0.7l0.7-0.3l-0.3-0.3l3,0.7l-1.7,0.3l0.7,0.7
		l5.4-2l1,1.7l-0.3,0.3l1.7,0.7l-0.3,1l-1,1.7l-4.7,1l2.7,1l-0.3,1l-1.7,0.3v-0.7v-0.3h-0.3l-3.7-0.3l1.4,1.4h1.7l0.3,1l-1.4,0.7
		l-1.7-0.7v0.7l0.7,0.3v0.3v0.5 M54.7,280.1l0.3-0.3h2.7l-2,0.3H54.7 M58.1,279.8l0.7-0.3l0.3,0.3h-0.3H58.1 M53.3,280.1h0.3H53.3
		 M82.1,283.1h0.3H82.1 M84.1,288.9v-0.7v0.3V288.9 M-11.6,276l2.7,2.4l1.4,2.4l1-1l0.7,0.7l-0.3,2v0.7L-11.6,276 M42.5,305.8v0.3
		l-1.7-0.7l-1-1.7l-2.7,0.7l-1.4-1l3.7-0.3l2-1.4h0.7l0.3,0.7h1.4l0.3,1.4v0.7l0.7,1l-1,0.7h-0.3l0.3-1.4l-0.7-0.3l-0.7,0.3v1
		 M43.5,300.4l0.7-0.7h1l-1.4,1L43.5,300.4 M54,302.7l1-0.3l0.7,0.3H54 M38.1,301.1h0.3l1,0.3h-0.7L38.1,301.1 M48.6,297.7h0.3v0.3
		L48.6,297.7 M44.9,298h0.3l-2.7,0.3l1-0.7L44.9,298 M36.4,298.7l1.4-0.3l0.7-1l-0.3,0.7v0.7h-1.8 M40.5,312.2l-0.3-0.3h0.3V312.2
		 M43.5,313.6l-0.3,0.3l-0.3-0.7l1-1l0.3,1L43.5,313.6 M31.4,313.6l-1-0.3l1-1.7l1.4-0.7l2.7,1l-2.4-0.3l-1,0.7L31.4,313.6
		 M33.7,313.6l-0.3,0.3l-0.7-0.7l1.4-0.3L33.7,313.6 M44.2,316.3l0.7-1l-0.3-1.4l1-1.4H49l1.7-1l0.7,0.3l-0.3,1l-2-0.3l3.4,3.4h-1
		l-0.7,1.7h-0.5l-0.7-1.7l-1.7-0.7l-0.3,0.3l1.4,1.4l-0.3,0.7l-1.7-0.3l-1.4,1l0.3,0.3l-2-0.3l0.7-0.3l-1.7-0.7L44.2,316.3
		 M41.5,315.6l-1.4,0.3v0.7l-0.3,0.7l-1.7,0.7l-1-0.7v-0.7l-1.7-0.3v-0.7v-1h-0.3l1.4-1.7l1.4-1l2,0.7l0.7-0.3l0.7,0.3l0.7,1.7
		l1.4,0.3L41.5,315.6 M29,319l-3.7-1.4l-1-1.4l4.1-2l3.4,0.3v-0.3l1,0.7l-0.3,1l-1.4,0.3l-2.7-0.7l-1.7,0.3l2,1.4l0.3,0.7l1,1h-1
		 M32,316.3l0.3,0.3v0.3l-0.3,0.3l0.3-0.7L32,316.3 M36.1,317.6h0.3v0.3L36.1,317.6 M47.9,318.3h0.4H47.9 M21.2,315.6l1,0.3l0.7,1
		h-0.3L21.2,315.6 M21.9,306.5l0.7-0.3l0.3,0.7l-0.7,1L21.9,306.5 M44.5,308.8h-0.3l-0.3-0.3l0.7-0.3v0.6 M-49.1,302.1l0.3,1
		l-3.4-1.7l-1-1.4v-1.7l1-1.7l1-0.3l0.3,0.7l-0.7,0.3l3.4,1.7l1,1.4h-1.4l-0.7,0.7v1 M419.4,304.4v0.3l-0.3,0.3L419.4,304.4
		 M40.1,320.3l-1.4,0.3l-3.4-1.4l2-0.7l3.4,0.3l1,1L40.1,320.3 M35.8,318.3h0.3H35.8 M21.9,318.3h0.3v0.3L21.9,318.3 M39.5,333.2h-1
		l-0.7-0.7h1.4l1.4-0.3v-0.3l-3.4-1.4l0.3-0.3l-1.7-0.3l-0.3-0.3l7.4,2l-0.3,0.3l0.3,0.7l-0.3,0.3h-2l-0.3,0.7L39.5,333.2
		 M34.7,331.5h0.7l-0.7,0.3l0.3,0.7h-0.3V331.5 M36.1,332.5h0.3H36.1 M34.1,324l1-0.3l1.7,1l-1.4-0.3l-1.7,0.7l-1-0.3l1.7-0.3
		l-0.7-0.3h0.4 M31,324.4l0.7-0.3l0.3,0.7h-0.7L31,324.4 M34.7,321h0.7l1,0.7h-1.7V321 M35.4,322.3l0.7,0.3l-1.7-0.3h0.7H35.4
		 M42.5,323.7l0.3-0.3v0.3H42.5 M31.7,322.7h1L33,323L31.7,322.7 M39.8,326.1h0.3l1,0.3l-1-0.3H39.8 M28,329.8v-0.3l0.3,0.3H28
		 M24.3,335.5l0.3-0.3v0.3H24.3 M56,339.6l0.3,0.3l-2.7-0.7l1-0.7l1.7,0.3l-0.7,0.3L56,339.6 M53.7,335.2l0.7-0.3l0.3,0.3l-0.3-0.3
		L53.7,335.2 M-0.7,331.1l3-2l3-0.3l2.7,1l1.7,1.4l0.3,1l-0.3,0.7L8,331.2H6.7l-1,1.7h1.4H5.7l-4.4-2.4L-0.7,331.1 M51.6,336.2
		l0.7-0.3l0.3,0.7l-0.3,0.3L51.6,336.2 M57,335.9l1,0.7l-1,1.4l-1.4-1.4l-0.3-0.3l0.7-0.7l-1-0.7h1v0.7L57,335.9 M-4.8,331.5
		l-2.7-0.7l-0.7-1.4v-1l1.4-1l2-0.3l2.4,3L-4.8,331.5 M28.3,336.9l0.7-0.3l0.7-0.3l-0.3,0.3L28.3,336.9 M60.4,344.3L56,345l-1.4-0.7
		l-0.3-1.7l0.7-0.7l-0.3-0.3l1-0.7l0.7,0.3l0.3,1l3.4,0.3v0.3h-3l3.4,0.7v0.3v0.5 M50.3,342.6v0.3V342.6 M62.5,346.3v-0.7v0.3V346.3
		 M54.7,346h-0.4h1H54.7 M60.8,347l0.3,0.3V347H60.8 M24.3,344.3l1-0.3l0.3,0.7l-1.4,0.7l-0.7-0.3L24.3,344.3 M62.1,351.4v1h-0.3
		l0.3-0.7V351.4 M62.8,357.2l0.3-0.3v1l-2,1.7l-2-0.7l2.7-1l-3.7,0.7l-0.7-0.3l2-2l0.3-0.7l1.4-0.3l1-1.4l0.7-1.4h-0.7l0.7-0.3l1-2
		l2,1.7v0.7l-1-0.7l-2.7,5.4h0.7 M436.6,331.5l-1.7,0.7l0.3,0.3l-0.3,1l-1-0.7l-2,1.4l-1.4,2.4l-3.4-0.7l-1,2l-2.7,2l-1.4,2.4
		l-2.7-0.7l-4.1,1l-1.7,1l0.7,1l-2-1l-1.7-2l-1-3.4v-0.7l4.1-3l0.3-1.4l0.3-3.7l0.3-1.4l5.1-1.4h2.4l3.4,0.7l3.7,2l2,0.3l0.7-0.3
		l0.3-1.4l-0.7-1l0.3-1.7l1-1.7l5.1-2l1.4,1.4l-3,2.4l-2.4,0.3l0.3,1.7L436.6,331.5 M-42.3,349.7l-0.3-0.3h0.3V349.7 M-42,349.7
		h-0.3H-42 M-47.7,353.4h0.7l0.3,0.7h-1l-0.3-0.7H-47.7 M-43.3,355.5l1.7,1l-1-0.7L-43.3,355.5 M-46,355.8l0.7-0.3l0.3,0.3l-0.7,0.3
		L-46,355.8 M-46,356.5l0.7,0.3L-46,356.5 M-44.7,357.2h0.3l0.3,0.3l-0.3-0.3H-44.7 M358.9,382.8l0.3-0.3v0.3H358.9 M-75.4,381.8
		l-1-0.3l0.3-0.3l-1-0.7v-1.4l1.7-2l5.7-4.7l2.4-3l1-0.7l3,3.7l1.4,4.7v0.7h-1l0.7,0.7l-0.3,0.3v2l-0.3,0.3l0.7,1l-1,0.7l0.7,2.7
		l-0.7,0.7v0.7l-1.4-0.3l-1.4,0.7l-7.4-3l-0.7-1.7L-75.4,381.8 M-65,361.2v-0.3l0.3,0.3H-65 M48.3,378.4l-0.7-0.7V377l0.7-0.7l0.3,2
		h-0.3 M-70.4,361.9v0.3l-1,0.7l1.4-2l0.7-0.3l1.7,0.3h-1.7L-70.4,361.9 M359.9,385.9l-0.3,0.3v-0.3l0.3-1.4l0.3,0.7L359.9,385.9
		 M357.8,388.2h0.3l-0.3,0.3V388.2 M354.8,392.3l0.7-0.7h1l-1,0.3L354.8,392.3 M344.3,399.7l-1.7,1.4l-0.3-1.4l1.7-2l0.7-0.3
		l0.3,0.7l0.7-0.3L344.3,399.7 M-42.7,410.2l0.3,0.7v0.7l-1.4-1.7L-42.7,410.2 M-42,413.3h0.3h0.3h-0.3H-42 M-42.3,413.6h-0.4H-42.3
		 M340.9,403.1l0.7-0.7l-0.7,1.7l-2.4,0.7L340.9,403.1 M-46.4,403.5v-0.3l0.7-0.3l0.3,0.7v1l1,0.7l-0.3,0.7l-1.4-1L-46.4,403.5"/>
	<path id="taseevskij_rajon" inkscape:connector-curvature="0" class="st0" d="M154.4,1134.5l6.4-11.2l4.4-10.1h1l0.7,1.4l2.7,2
		v-0.3l2,0.7l2-0.3l1.7,0.7h1l0.7-1l1.7,0.3l1,0.7l0.7,2l6.8-1.7l5.1,2.4l3.4-0.3l2.7,1l1.7,2.4l-0.3,1.4l1.7,1l-1,1.4l0.3,0.3
		l-0.7,0.7l0.3,0.7v0.7v0.3l7.8-1.4l1.4,1l0.3,1.7v2.4l-3.7,2.7l0.7,2.7v10.5l4.1-0.3l0.3,1.7l-0.7,2l-1,0.7l-6.8,1l0.3-2.4l1-0.7
		l-1.4-2.7l-1.4,1.7l-5.4-0.7l-1.4,1.4l-1.7-0.3v-1.7l-3.4,1.7l-5.1,0.3v0.7h0.7l-1.4,2l-3-0.7l-0.3,1.7l-2,0.3l-0.3-0.7l-1.4-0.3v1
		l-2.7-0.3v1h-0.6l-0.3,1l-4.1,1.4l-4.1-0.7l-4.1-8.1l-2.7-5.1v-1.4l-1-2.4l0.3-1l1.4-0.3l-0.3-2l-1-1l-2.7,0.3L154.4,1134.5"/>
	<path id="tjukhtetskij_rajon" inkscape:connector-curvature="0" class="st0" d="M26,1166.3l4.1,0.3l0.3-3h1l0.7-1.4l-2.7-0.3l1-4.7
		l-1.4,0.7l3.7-13.5l-1.7,0.3l-3-0.7l-0.3-1.7l1.4,0.3l2-4.1l2.7,0.3l3.7-11.2l0.3-1.4l0.7,2l1-0.3l0.7-2.7h1.7l-0.3,1.4l0.3,1
		l1.4-2.4l-0.3,1l1.7-0.3l-1.4-1.4l1-4.7l2,1.4l3.4-1l0.7-1.7l-0.3-2.7l0.3-2l9.1-2.4v1.4l-2.4,2.4l0.3,2l-1,2l0.3,1.7l-0.7,0.3
		l6.4,1.4l1,1.7l-2.4,2.4l-2,0.7l-2.4,14.9l-2.7,4.1l-0.7,4.1h4.1l2.7,1.4v0.7l1.4,1v1.4l2,1.4l0.3,1l-0.3,1l0.7,1v1.4l-1.4,2.4
		l0.7,1l-1,1l0.3,0.7l-0.7,0.7l-1.7,0.7l-0.7,2l2.4,4.1l-5.4,1.7l0.3-1l-2.4-0.3v1.7h-1v0.7h-1l0.3,0.7l-1.4,1h-1.7l-1.4,1.4
		l-0.7-0.3l-0.3-2l-2.4,1l-0.3-1l-2,1.4l-1.4-0.7l-1.4,2l-5.7-1l-0.3,0.7l-4.1-0.3v-2.4l-2.4-0.7l-0.3-1.4l0.7-0.3l0.3-3h-1.4
		L26,1166.3"/>
	<path id="turukhanskij__rajon" inkscape:connector-curvature="0" class="st0" d="M-61.6,619.1l1.4-2.4l1,1l2.7-1l1.7,1l5.4,0.7
		l1-1.4l-0.3-2.4l0.3-2.4l-0.3-1v-1l4.4-2l-0.3-1.7l0.7-2l0.3-1l1.7-0.7l2-5.4l3,3.4v1l2.7,2.4l1.4,0.3l0.3,0.7v1.4l-0.7,1v0.3
		l-0.3,1h2l1.7,3.4l-0.7,1.4l-1,0.3l-0.3,1l-2,0.3l0.3,1l-1.7-0.3l-0.3,0.7l0.7,1l-0.7,1.4l1.7-0.7l0.7,1.4l0.7-1.7l1,1l1.4-0.3
		l-0.7,0.7l0.3,1l-0.7,2l1,0.7l1-0.7l0.7,0.3l-0.3,1l-1,1.7l1.7,1.7h1.4l1,1.7l0.7,0.3l-0.3,0.7l1,2l-0.3,1l0.3,0.7l-0.5,0.4
		l0.7,0.3l-0.7,0.7l0.3,0.3h-0.7l0.3,1l-0.7,1h0.7l1.4-1l2,1.4l0.3-0.3l-0.3-0.3l1,0.3v-1l1.7,1.4l-0.3,0.7l1,0.7l-0.7,1l1.4,1
		l-0.3,1l0.3,1.7l3,0.3v1h-0.3l0.3,1h-0.3v1h-0.7l0.7,2.4v1.7l1.4,0.7l1.7-0.3l-0.3,0.3l1.4,1l-0.3,0.7h0.7l-0.3,0.7l0.3,0.3v1
		l0.3,0.7l-0.3,1l1.4,1l3-0.7l0.3-1l2-0.7l0.3-0.7l-0.3-0.7l0.3-0.7l0.7,0.3v-0.7l2-0.7l-4.4-1l-1-1.7l1-0.7h1.4v-1l0.7-1l1.7-1.7
		l-1-0.7l0.3-0.3l0.7,0.3l2.4-1.7L1.2,643v-0.3l1.4,1l0.7-0.7l1-1.4L4,640.9l0.7-0.7v-0.7L2.3,639L2,637.3l-1.4-0.7V636H2l1-1v-0.7
		h0.7v-0.7l0.7-1.4l2.7-0.7l-0.7-0.3l1-2l0.3-0.3l0.7-0.7l0.7-1.4l2,0.7l1-0.7l-0.3-1.7l0.7-0.7l-0.3-1.7l0.3-0.7l-0.3-0.7l3.4-1.4
		l10.8-1l2,0.3l3.7,22.3l9.5,13.5l1,1.7l7.4,0.7l2-3.4h2v1.4l0.7,1l2.4-1l1,0.3l1.4-0.3l3.7,1.7l1.7-1.4h1.4l3,2h3.4l1-0.3l1-2v-2
		l2.4-2l4.4,5.4l2.4-1.4L91,654l10.5,5.1l4.1-2l2.7,0.3l1-1.7l1.7-0.3l1-1l1.4,0.3l0.7,0.7v0.7l1,0.3v2.4h-1v1l-1.7,2.7l-2.4,1.7
		l-2.4,3.4l-3,6.4l-0.7,3l-1.4,2.4l-12.2,13.9l-4.4,2.4l-0.7,5.4l-1,4.4l-0.3-0.3v-0.7l-5.7-2.7l-6.4,0.7l-0.7,1.7l-1,0.7l0.7,1
		l-0.3,1l-1,1l0.3,1l-1,0.3l0.3,1l-1,0.3l0.7,2.7l-1.4,1l0.7,0.7h-1l0.3,0.7h-0.3v0.7l-0.7,0.3l1,0.3v1h-1l0.3,1l0.7,0.3l-0.7,1l1,1
		l-0.3,0.3l0.3,1.4l-0.7,0.7l0.7,1.4l0.3,4.4l-1,0.7l-0.3,1.7l-3.7,2v1l-1,2l-1.4,2h-1l-1,2v2.4l-0.7,0.7l-0.7,1.7l0.7,0.3l1-1h1.7
		l0.3,0.3l-0.3,0.7l0.7,0.7l0.3,1l1,0.3l1.4-0.7l2,1l1.4-0.7l1.7,0.7v1.4l0.3,1.7l1.7,2l-1.7,2l4.4-0.7l1.4,2.7l-3,3l0.3,1h1.4
		l-0.3,1.4l1.7,2.4l-2,1l-1,3v0.3l-1.7,0.3l0.3,0.3l-1,0.7l-1,2l-2,2.4l0.3,1l-0.7,0.3l-0.3,2.4l-0.7,0.3l1,1l-0.3,1l0.7,0.3v0.7
		l7.4-0.1l1-1l3.7-1.4l0.7,1l-0.3,1l0.3,0.7L78,785l0.3,1l0.7,0.7l0.3-0.7l3.4,0.3l1.7-0.7l-0.3-1l0.3-1l1,0.3l0.7,1.4l-0.3,0.7v0.3
		l-1,1l1,0.7l-0.7,1.7h1l1.4,1.7v1.4h0.7l0.7,1.4l2,2l1.7-0.7l0.7-1l-1-2l1-1.7l1.7,1.4l1-0.7l1,1v0.7l-2,4.4l0.7,0.3l2-0.7l1.4,1
		l-0.3,0.7l-1.4,0.3l0.3,0.7l-0.3,0.3v0.3l1.7,0.3l1-1.4l1.4,0.3l1-0.7l1,1.4l2,1l-0.3,0.3v0.7l-0.7,0.3l0.7,1.4l2.4-0.3l1.4-1.7
		l3,1l1.7-0.7l3.7,0.3l0.3,0.3l0.3,1.4l-0.7,1.7l1.7,1l-0.7,1.7l-0.7,0.3v0.7l1,1h1.7l0.7,0.7l0.7,2.4l2.4-0.7l0.7,0.7l-0.7,1.7
		l0.3,0.7v1.7l-1,1.7h-0.7l-0.3,1.4l-1.7,2.7l5.7,2.7l0.3,4.1l0.7,2l-0.3,0.7l-1.4,1.7l-1,2.4l-4.1,0.7l-0.7,1v1.4l-0.3,0.3v0.3
		l-2.4,2l0.3,0.3v1.4l-0.3,0.3l0.3,0.7v1.7l-2.7,3.4v0.7l-0.3,0.7v1h0.7l0.7,1.7l-0.7,1l-0.3,4.4l0.7,0.7l0.3,1l1,0.3v2l1,2
		l-3.7,5.1l-11.8,8.1l-2.4,2.7l-1.7,5.7h-1v2.7l-3.4,0.3l-2.7-0.7l-2,0.7l-0.7,1.4l-1,0.7v0.7l-1,1.4v1l-1.4-0.3l-0.3,1.7l0.3,0.7
		l-1.4,2.4l-1,1l-1.4,0.3v1l-1,0.7l0.7,1.7l0.7,3l3,2l1,1.4l0.7,3.4l1.4,2.4l2,0.3v1.7l1.4,1.4h-0.3v1.4l1.4,1.4l1,0.3l-0.3,0.7
		l1,0.7l-0.3,0.3l0.3,1l-0.3,0.3l0.7,1.7l1.4,1.4l-0.3,0.3v0.7l-0.3,0.3l-3-0.3l0.3,1l-0.7,0.7v1l-0.7,0.3l0.3,0.3l-0.7,0.3l0.3,1.4
		l-1.4,1l-0.3,2.4L91,941h1v1.4l-0.7,1.4h1v1l1,0.7l0.3,1v0.3l0.3,2.7l-0.7,0.7v0.7l1.4,0.7v0.3v0.7l1.4,1.7l4.7,10.1l2,2l-0.3,0.3
		l0.7,0.7l0.3,1.4l1.4,1v0.7h0.3l0.3,2.4l-1.4,1.7l-7.7-0.6l-26.7-3.7l-1-1.4l-1.7-4.1v-1.4l-1.7,0.3l-0.3,1.4l-2-1.7l-0.3,0.3
		l0.7,0.7l-1.4,0.3l-0.7,1l-1-2l-1.4,1.4l-1.4-2l0.7-0.3h-1.4l-0.7-1l-1,1v-1l0.7-0.7h-1.4l0.3-0.7l-0.7-0.7l0.7-0.3l-0.7-0.7
		l0.7-0.7l-1.4,0.3l-1-1l-0.7-1.4l-1,0.3l-0.7-0.7l0.7-0.3V954l-0.7-1l1-0.7l-1.4,0.3V951l-2.7-0.3l2.6-0.7l-0.7-1.4l0.7-0.7
		l-1.4,0.3l-0.3-1h-0.7l-0.3,0.3l0.7,0.3l-0.7,0.3l-2-1.4l-0.7,0.7l-1-0.3l-0.7-0.7l0.3-0.7l-1-0.7v-0.7l-1,0.3v-1.7h0.7v-1
		l-0.3-0.7h-1l0.3-1l-0.7-0.7l-0.3,0.7h0.3l-1.4,0.3v0.3l-0.3,0.7l-1.4-0.3v0.7l-1,0.3l-0.7-0.7l-1.7,0.3l0.3,0.3l-0.7,0.3l-1.4-0.7
		l-1.4,0.7l0.3-0.7h-2.4l-0.3-0.3l0.3-0.3l-1-0.3v-1h-1l-1,1l0.3,0.3l-2,0.3l-0.3,0.3h0.7l-0.3,1l0.7-0.3l0.3,1h-0.7v1l-0.7-0.3v0.7
		l-0.7,0.7h0.3v0.3h-1.4l-0.7,1l-0.3-1.7l-1-1h0.3v-1l0.7-0.3l-0.7-0.7l-0.3-1.7l-2.7-1h-2h0.3v-1l-3-2v-0.3l-2.4-2l-1.4,0.3l0.7,2
		l-0.3,1l0.3,0.7l-1,1.4l-7.4,1l-1.7-2v-2.7l-1.7-0.7l-2-2l-1.4,0.7l-1.7,2.7h-1.7l-1.7-3l-1.7-1.4l0.3-1v-3l-2.4-2.4l-2.7,0.7
		l-4.7-2.7l-1.4-3.4l-3,0.3l-3.4-4.1l-3.7-2.4l-1.7,0.7l-4.1-3l-0.3-2l-1.7-3l0.3-3l-0.7-2l0.3-3l-0.3-4.7l1.4-1l2-3.4l3.4-4.4
		l5.4-3.4l-0.3-0.3l0.3-1.4h-0.3l0.3-0.3l-0.7-0.3v-0.3l0.3-0.3l-0.3-0.3l0.7-0.7v-0.7l1.7-0.3l1.7-1.7h0.7l0.3-0.7l-1-0.3v-0.7
		l2.4-1.7l1.7-4.4l1.4-0.7l2-2.7l2.4,0.3l1-1v-1l0.7-0.7l-0.7-2l2.4-1.4l0.3-1l-0.7-1.4h0.7l-0.7-1.7l-1-1h0.3l-0.3-0.7v-1l0.3-0.7
		l-0.3-0.7l1.4-0.7l-0.3-0.3l0.7-1l-0.3-0.3v-1h0.7l-0.3-0.3h0.7l-0.3-0.3l0.3-0.7H-13l3-2.4l-0.3-0.3l0.3-0.3l-0.3-0.7v-0.3
		l-1.4-0.3l-3,0.7v0.3l-1-0.7v-1l-0.7-0.7l0.3-0.7l-0.3-0.3l0.7,0.3l-0.3-0.3l0.7-0.7l-1-1l0.7-0.3l-0.3-0.3v-0.3h-0.3v-0.7
		l-1.4-1.4l0.3-0.3l-1.7,1v-1.4l-0.7,0.6l-1.7-1v-0.7l-0.3,0.3v-1l-0.7-0.3l0.7-0.3l-1-0.7l0.7-0.7l1.7,1.7l1-2l1,0.3l0.7-0.7
		l-0.3-0.3v-0.3l1.4-0.3l-0.3-0.7l0.7-0.3l-0.3-0.7l1-1.4l-0.3-0.7l0.3-0.3v-1l1.4-0.7l-0.7-0.7l0.3-0.7l-0.7-0.3l1.4-1.4l-0.3-1
		l2.4-0.3l0.3-1l-0.3-1l0.7-0.7l2.7-1l2-1.7l4.1-2h1.4v-3l-0.3-0.7l1.4-2.4v-1.4l0.3-1l0.7-2L0,794.8l0.3-2.7l-2.4-3.4l2.7-3.4V784
		l-1.4-3.7l0.7-5.1l-2-2.4l-3.7-1.4l-1.7,0.7l-2,1.7l-2-0.3l-2.7,1.4l0.3-1.7l-0.7-0.3l0.7-1l-2.4-0.3l0.3,0.3l-0.3,0.3l-0.3-0.7
		l0.3-0.3l-1.4-0.3l0.3-1l-0.7-0.3l0.7-0.7l1.4-0.3l-0.3-0.7l0.3-0.7l0.7,0.3l-2-2H-18l0.3,0.7l-1.7-1.4l-0.3,1l-1-0.3l-1.7,0.7
		l-1.4-0.3l-0.7,1l-0.7-1v0.7l-1-0.7l-0.3,0.7l-0.7-0.3l-0.3,0.3l-0.3-0.7v-0.3v0.3l-0.7,1l-2-2l1-1v-0.7l0.7-0.3l-0.3-0.7h0.7
		l0.3-0.7v-0.7l0.7-1.4h-1l0.3-1.4l-0.3-0.3v0.7l-0.7,0.7l-0.3-2l3-5.1l3-1.4l0.7-3l-1-4.7l0.7-0.7l0.3-1.4l-0.3-1.7l-1-1v-1.7
		l-1.7-0.3l-3-2.4l2.4-1l-0.3-1l0.7-0.7l0.3-1.7l-3-0.7l-2.4-4.7l-4.7-0.7l-4.1,1l-1.4-2.7l1.4-1.7l-0.3-0.7v-0.7l1-1l-3-3v-0.7
		l-0.7-0.7h0.3l-1-1l0.3-0.3V711h0.3l-0.3-0.7l-0.7-0.3l1.4-1.4l1-0.3v-1.7l3-1l1-1.4l-4.4-9.8l-2.7-1.7l-0.3-3l1-6.1h2l2-2l0.7,0.3
		l0.3-0.7l-1-0.7v-1l-0.7-0.7l0.3-1l-0.7-1v-1.7l-0.7-3l-1.4-0.7l-0.3-1.7l-3.7-5.1l-11.2-12.8v-0.7v-0.7h1.7v-1.7l0.7,1l1-0.3
		l-1-0.3v-1l2.7-0.3l-0.3-0.7l0.3-0.7l-1,0.3v-1l0.7,0.7l0.3-0.7l-1-0.3l-0.3-0.3l0.3-0.3l-0.7-0.3l0.3-0.3v-0.7l-0.3-0.3l1-0.3
		l-0.7-0.7h0.7v-0.7l0.7,0.3l-0.3-1l1,0.3l-0.3-0.7h0.3l1,0.3l-1-1l1.4-0.3l-0.3-0.7l0.3-0.7h-1l0.7-1.4l-1.7,0.7l0.3-1l-0.7,1
		l-0.3-1l-0.3-0.3l0.3-0.3h-1v-1.4l-1-0.3v-0.3h-0.3l0.3-0.3l-1.4-1.7l0.3-0.7l0.3,0.3v-0.7l1-0.3v-0.7l-1,0.3l0.7-0.3l-0.3-0.7
		l0.7-0.7h-0.7v-0.7h0.3l-0.7-0.3l-0.3-0.7l-0.3,0.3l-0.7-0.7l0.3-0.3l-1-0.7l0.3-0.7h-1v-0.7h0.3l-1.7-3l0.3-1L-61.6,619.1"/>
	<path id="ujarskij_rajon" inkscape:connector-curvature="0" class="st0" d="M154,1208.9l0.3-0.7h1.4l0.7-1v-2l1.4-0.7l0.3-0.7
		l-0.7-2l2-1l-0.3-1.7l-0.7-0.3v-0.7l0.7-0.3l0.7-3l1-1l-0.3-2.4h2l0.3,0.7v2.7l0.3,1l4.1-0.3l-0.3,3.7l3.4,4.1l-0.3,2.7l1.7,0.3
		l1.7-1l1,0.3v2.4l0.3,0.7l-2,0.3l0.3,1l-0.3,2h3.7v0.7h0.7v3.4l-2-0.3l0.3,1.7l-0.7,3l-8.4,0.3l-0.3-0.7l-0.7,0.7h-3.4l-2-2.7
		l-1-0.3l-0.7-1.4l0.3-3.4l-2-0.3v-2l-2,0.3v-1.7L154,1208.9"/>
	<path id="uzhurskij_rajon" inkscape:connector-curvature="0" class="st0" d="M54.3,1231.2l0.3,0.7l0.3,0.3v-1H54.3 M43.2,1225.1
		l2.4-0.7l0.3-1h1l2,0.3l1.4-1.4l0.3-2.4h0.3l-1.7-4.4l1.4-1l1.4,1.7l2.7-0.7v-2l4.4-0.3l0.7,1.4l4.7-0.3l2.4,2.7l0.3,1l-0.3,0.3
		l1.7,0.7l1.4-2.7l2.7-0.7l3.4,2.7l-0.7,2.4l0.3,1.7l2.7-0.3l-0.7,0.7l0.3,0.7l-0.7,2l-3.4,2.4l0.3,1.4l1.4,1l1-0.3l0.7,5.7
		l-1.4,0.3l0.3,3.4l-1.7,0.7l-1,1h-1.2l-2.7,2l-0.7-1l-1.4,0.7l-2.7-0.7v-1.7l-0.7-1v-1l-2.4-0.3l0.3,1.4l-0.7,1l-3-1l-2.4,1
		l-0.3,0.7l-4.1,0.7v1l-1.7,2l-1.4-1.4h0.9l-0.7-0.3l0.7-1.4l0.7-0.3h-1.7l-0.7-2.4l0.3-1.4h-0.7l-1.4-3v-0.7h2.7l-0.3-3l0.3-2v-1.4
		l-1-0.3v-2h-1.4l-1.7,3l-0.3-0.3l-0.3-2L43.2,1225.1"/>
	<path id="zato_x5F_solnechnyj_x5F__x28_krasnojarskij_x5F_kraj_x29_" inkscape:connector-curvature="0" class="st0" d="
		M54.3,1231.2H55v1l-0.3-0.3L54.3,1231.2"/>
	<path id="zelenogorsk" inkscape:connector-curvature="0" class="st0" d="M170.3,1196l0.3-3l3.7,2.4l0.7-1.7l-0.3,1.7h0.7l0.3-0.7
		l1,0.3l0.7,1l0.7,0.3v1.4l-1.7-0.3l-0.3,0.3l0.7,0.7l-0.3,0.7l-1.7,0.3l-2.7-2.4l-1.4,0.3l0.3-1L170.3,1196"/>
	<path id="zheleznogorsk_x5F__x28_krasnojarskij_x5F_kraj_x29_" inkscape:connector-curvature="0" class="st0" d="M144.6,1184.5
		l0.3-1l2.4-1l1,0.7l2-0.7l-0.7,1v1.7l-0.7,0.7l-2.7,0.7l-0.7-2L144.6,1184.5 M143.9,1193.3l2-2.4l-0.7-3l2-1.7l1.7,0.3l0.7-1l0.3-2
		l0.3-1l4.4-0.3l-0.3,0.7h1.4l-0.3,0.3l0.3,1l-2.4,0.3v1.7l-2,5.1l-2,2.4l-3.4,0.3l-0.3-0.7v-1L143.9,1193.3 M144.9,1195.7l0.7-1.4
		h1l0.7,1v1l-2,0.3l0.3-1.4L144.9,1195.7"/>
</g>
</svg>
